<svg width="185" height="55" viewBox="0 0 185 55" fill="none" xmlns="http://www.w3.org/2000/svg"><path d="M44.11 31.879c-.316 2.707-1.317 4.799-3.005 6.275-1.676 1.465-3.908 2.198-6.697 2.198-3.024 0-5.45-1.084-7.277-3.252-1.817-2.168-2.725-5.069-2.725-8.702v-2.46c0-2.38.422-4.471 1.266-6.276.855-1.805 2.062-3.187 3.62-4.148 1.56-.973 3.364-1.46 5.415-1.46 2.718 0 4.898.762 6.539 2.286 1.64 1.512 2.595 3.61 2.865 6.293h-3.393c-.293-2.04-.931-3.516-1.916-4.43-.972-.914-2.337-1.371-4.095-1.371-2.157 0-3.85.797-5.08 2.39-1.22 1.594-1.829 3.862-1.829 6.803v2.479c0 2.777.58 4.986 1.74 6.627 1.16 1.64 2.784 2.46 4.87 2.46 1.875 0 3.31-.421 4.306-1.265 1.008-.855 1.676-2.338 2.004-4.447h3.393zm20.197 1.441H53.584L51.176 40h-3.48l9.773-25.594h2.953L70.213 40H66.75l-2.443-6.68zm-9.703-2.777h8.7l-4.358-11.97-4.342 11.97zm38.195-16.137V31.81c-.011 2.414-.773 4.388-2.285 5.923-1.5 1.536-3.539 2.397-6.117 2.584l-.896.036c-2.801 0-5.034-.756-6.698-2.268-1.664-1.512-2.507-3.592-2.53-6.24V14.406h3.339v17.332c0 1.852.51 3.293 1.53 4.325 1.019 1.019 2.472 1.529 4.359 1.529 1.91 0 3.369-.51 4.377-1.53 1.02-1.019 1.529-2.455 1.529-4.306v-17.35h3.392zm14.308 14.186c-2.895-.832-5.004-1.852-6.328-3.059-1.313-1.219-1.97-2.719-1.97-4.5 0-2.015.804-3.68 2.409-4.992 1.617-1.324 3.715-1.986 6.293-1.986 1.758 0 3.322.34 4.693 1.02 1.383.679 2.45 1.616 3.2 2.812a7.157 7.157 0 011.142 3.92h-3.392c0-1.547-.493-2.76-1.477-3.639-.984-.89-2.373-1.336-4.166-1.336-1.664 0-2.965.37-3.902 1.107-.926.727-1.389 1.74-1.389 3.041 0 1.043.439 1.928 1.318 2.655.891.715 2.397 1.37 4.518 1.968 2.133.598 3.797 1.26 4.992 1.987 1.207.715 2.098 1.553 2.672 2.514.586.96.879 2.091.879 3.392 0 2.074-.809 3.738-2.426 4.992-1.617 1.242-3.779 1.864-6.486 1.864-1.758 0-3.399-.334-4.922-1.002-1.524-.68-2.701-1.606-3.533-2.778-.82-1.172-1.23-2.502-1.23-3.99h3.392c0 1.547.568 2.771 1.705 3.674 1.148.89 2.678 1.336 4.588 1.336 1.781 0 3.146-.364 4.096-1.09.949-.727 1.423-1.717 1.423-2.97 0-1.255-.439-2.221-1.318-2.901-.879-.692-2.473-1.371-4.781-2.04zm29.741-.422h-11.092v9.07h12.884V40h-16.259V14.406h16.084v2.778h-12.709v8.226h11.092v2.76zm14.975.422c-2.895-.832-5.004-1.852-6.328-3.059-1.313-1.219-1.969-2.719-1.969-4.5 0-2.015.803-3.68 2.408-4.992 1.617-1.324 3.715-1.986 6.293-1.986 1.758 0 3.322.34 4.693 1.02 1.383.679 2.45 1.616 3.2 2.812a7.157 7.157 0 011.142 3.92h-3.392c0-1.547-.493-2.76-1.477-3.639-.984-.89-2.373-1.336-4.166-1.336-1.664 0-2.965.37-3.902 1.107-.926.727-1.389 1.74-1.389 3.041 0 1.043.439 1.928 1.318 2.655.891.715 2.397 1.37 4.518 1.968 2.133.598 3.797 1.26 4.992 1.987 1.207.715 2.098 1.553 2.672 2.514.586.96.879 2.091.879 3.392 0 2.074-.809 3.738-2.426 4.992-1.617 1.242-3.779 1.864-6.486 1.864-1.758 0-3.399-.334-4.922-1.002-1.524-.68-2.701-1.606-3.533-2.778-.821-1.172-1.231-2.502-1.231-3.99h3.393c0 1.547.568 2.771 1.705 3.674 1.148.89 2.678 1.336 4.588 1.336 1.781 0 3.146-.364 4.095-1.09.95-.727 1.424-1.717 1.424-2.97 0-1.255-.439-2.221-1.318-2.901-.879-.692-2.473-1.371-4.781-2.04z" fill="#fff"/><path d="M44.11 31.879l.994.116.13-1.116h-1.123v1zm-3.005 6.275l.658.753-.658-.753zM27.131 37.1l-.767.642.002.002.765-.644zm-1.46-17.438l-.903-.428-.002.005.906.423zm3.622-4.148l.524.85.005-.002-.53-.848zm11.953.826l-.68.733.002.002.678-.735zm2.865 6.293v1h1.105l-.11-1.1-.995.1zm-3.393 0l-.99.142.124.858h.866v-1zm-1.916-4.43l-.684.729.004.004.68-.733zm-9.175 1.02l-.792-.611-.003.003.795.608zm9.088 17.103l.646.763-.646-.763zm2.003-4.447v-1h-.856l-.132.846.988.154zm2.4-.116c-.294 2.516-1.209 4.359-2.671 5.639l1.317 1.505c1.912-1.673 3.002-4.014 3.34-6.912l-1.986-.232zM40.447 37.4c-1.45 1.269-3.429 1.95-6.04 1.95v2c2.969 0 5.456-.782 7.356-2.444l-1.316-1.506zm-6.04 1.95c-2.75 0-4.888-.97-6.512-2.896l-1.529 1.29c2.032 2.409 4.746 3.607 8.042 3.607v-2zm-6.51-2.894c-1.627-1.941-2.491-4.593-2.491-8.059h-2c0 3.8.952 6.95 2.958 9.344l1.533-1.285zm-2.491-8.059v-2.46h-2v2.46h2zm0-2.46c0-2.261.4-4.203 1.171-5.852l-1.811-.847c-.917 1.96-1.36 4.201-1.36 6.698h2zm1.17-5.848c.78-1.646 1.862-2.875 3.241-3.725l-1.05-1.702c-1.737 1.071-3.069 2.608-4 4.57l1.808.857zm3.246-3.728c1.382-.862 2.999-1.307 4.885-1.307v-2c-2.216 0-4.208.527-5.944 1.61l1.059 1.697zm4.885-1.307c2.523 0 4.44.701 5.858 2.018l1.361-1.466c-1.863-1.73-4.305-2.552-7.22-2.552v2zm5.861 2.02c1.425 1.313 2.297 3.164 2.548 5.658l1.99-.2c-.289-2.874-1.326-5.218-3.183-6.929l-1.355 1.471zm3.543 4.558h-3.393v2h3.393v-2zm-2.403.858c-.309-2.151-1.004-3.887-2.225-5.02l-1.361 1.465c.748.694 1.33 1.912 1.606 3.839l1.98-.284zm-2.22-5.017c-1.212-1.137-2.852-1.642-4.781-1.642v2c1.586 0 2.676.41 3.41 1.1l1.37-1.458zm-4.781-1.642c-2.441 0-4.437.921-5.872 2.78l1.583 1.222c1.026-1.33 2.417-2.002 4.289-2.002v-2zm-5.875 2.783c-1.401 1.833-2.034 4.348-2.034 7.41h2c0-2.82.587-4.84 1.623-6.195l-1.589-1.215zm-2.034 7.41v2.479h2v-2.479h-2zm0 2.479c0 2.907.607 5.341 1.924 7.204l1.633-1.154c-1.003-1.419-1.557-3.403-1.557-6.05h-2zm1.924 7.204c1.356 1.918 3.29 2.884 5.686 2.884v-2c-1.776 0-3.088-.675-4.053-2.038l-1.633 1.154zm5.686 2.884c2.01 0 3.711-.451 4.953-1.503l-1.293-1.526c-.75.636-1.92 1.029-3.66 1.029v2zm4.954-1.503c1.274-1.082 2-2.847 2.344-5.056l-1.976-.308c-.312 2.01-.921 3.21-1.663 3.839l1.295 1.525zm1.356-4.21h3.393v-2h-3.393v2zm23.589.441l.939-.343-.24-.657h-.7v1zm-10.723 0v-1h-.702l-.239.661.941.34zM51.176 40v1h.702l.239-.66-.941-.34zm-3.48 0l-.935-.357L46.243 41h1.453v-1zm9.773-25.594v-1h-.689l-.245.643.934.357zm2.953 0l.934-.357-.246-.643h-.688v1zM70.213 40v1h1.453l-.519-1.357-.934.357zm-3.463 0l-.939.343.24.657h.7v-1zm-12.146-9.457l-.94-.341-.487 1.341h1.427v-1zm8.7 0v1h1.43l-.49-1.342-.94.342zm-4.358-11.97l.94-.343-.942-2.585-.939 2.586.94.341zm5.36 13.747H53.585v2h10.723v-2zm-11.663.661l-2.408 6.68 1.882.678 2.408-6.68-1.882-.678zM51.176 39h-3.48v2h3.48v-2zm-2.546 1.357l9.773-25.594-1.868-.713-9.774 25.593 1.869.714zm8.839-24.95h2.953v-2h-2.953v2zm2.019-.643l9.791 25.593 1.868-.714-9.791-25.594-1.868.715zM70.213 39H66.75v2h3.463v-2zm-2.524.657l-2.443-6.68-1.878.687 2.443 6.68 1.878-.688zm-13.085-8.114h8.7v-2h-8.7v2zm9.64-1.342l-4.359-11.97-1.88.683 4.36 11.971 1.88-.684zm-6.239-11.97l-4.341 11.971 1.88.682 4.342-11.97-1.88-.683zM92.8 14.406h1v-1h-1v1zm0 17.403l1 .004v-.004h-1zm-2.285 5.923l-.712-.701-.003.003.715.698zm-6.117 2.584l.04 1 .016-.001.017-.001-.073-.998zm-.896.036v1h.02l.019-.001-.04-1zm-9.229-8.508h-1v.009l1-.01zm0-17.438v-1h-1v1h1zm3.34 0h1v-1h-1v1zm1.53 21.657l-.712.703.004.004.707-.708zm8.736 0l-.707-.708-.005.005.712.703zm1.529-21.657v-1h-1v1h1zm2.392 0V31.81h2V14.406h-2zm0 17.398c-.01 2.187-.691 3.9-1.997 5.227l1.425 1.403c1.717-1.744 2.56-3.98 2.572-6.62l-2-.01zm-2 5.23c-1.296 1.326-3.088 2.111-5.474 2.285l.145 1.995c2.77-.202 5.056-1.139 6.76-2.883l-1.43-1.397zm-5.441 2.283l-.897.035.079 1.999.896-.035-.078-1.999zm-.857.035c-2.616 0-4.587-.702-6.025-2.008l-1.345 1.48c1.89 1.718 4.384 2.528 7.37 2.528v-2zm-6.025-2.008c-1.42-1.29-2.182-3.085-2.204-5.51l-2 .019c.026 2.873.952 5.238 2.859 6.971l1.345-1.48zm-2.204-5.5V14.406h-2v17.438h2zm-1-16.438h3.34v-2h-3.34v2zm2.34-1v17.332h2V14.406h-2zm0 17.332c0 2.039.566 3.761 1.818 5.028l1.422-1.407c-.787-.796-1.24-1.956-1.24-3.62h-2zm1.822 5.032c1.26 1.26 3 1.822 5.067 1.822v-2c-1.707 0-2.873-.457-3.653-1.237l-1.414 1.415zm5.067 1.822c2.085 0 3.836-.56 5.088-1.826l-1.422-1.407c-.764.773-1.931 1.233-3.666 1.233v2zm5.084-1.822c1.256-1.257 1.822-2.976 1.822-5.014h-2c0 1.665-.454 2.817-1.236 3.6l1.414 1.414zm1.822-5.014v-17.35h-2v17.35h2zm-1-16.35h3.392v-2h-3.392v2zm17.7 13.186l.278-.96-.002-.001-.276.96zm-6.328-3.059l-.681.733.007.006.674-.739zm.439-9.492l.633.774h.001l-.634-.774zm10.986-.967l-.444.896.003.002.441-.898zm3.2 2.813l-.847.531.003.006.844-.537zm1.142 3.92v1h1v-1h-1zm-3.392 0h-1v1h1v-1zm-1.477-3.639l-.671.742.005.004.666-.746zm-8.068-.229l.617.787h.001l-.618-.787zm-.071 5.696l-.637.77.006.005.005.005.626-.78zm4.518 1.968l-.271.963h.001l.27-.962zm4.992 1.987l-.519.854.01.006.509-.86zm2.672 2.514l-.858.512.004.008.854-.52zm-1.547 8.384l.609.793.004-.002-.613-.79zm-11.408.862l-.408.913.006.002.402-.915zm-3.533-2.778l-.82.574.004.005.816-.579zm-1.23-3.99v-1h-1v1h1zm3.392 0h1v-1h-1v1zm1.705 3.674l-.622.783.009.007.613-.79zm8.789-5.625l-.618.786.006.005.612-.791zm-4.505-3c-2.835-.815-4.773-1.781-5.931-2.837l-1.347 1.478c1.49 1.359 3.771 2.432 6.725 3.28l.553-1.921zm-5.924-2.83c-1.11-1.031-1.65-2.266-1.65-3.768h-2c0 2.061.774 3.826 2.289 5.233l1.361-1.466zm-1.65-3.768c0-1.706.661-3.089 2.042-4.218l-1.266-1.548c-1.83 1.496-2.775 3.44-2.775 5.766h2zm2.043-4.218c1.399-1.146 3.256-1.76 5.659-1.76v-2c-2.754 0-5.092.71-6.926 2.212l1.267 1.548zm5.659-1.76c1.627 0 3.035.313 4.249.915l.889-1.792c-1.529-.757-3.249-1.123-5.138-1.123v2zm4.252.917c1.232.605 2.151 1.423 2.794 2.446l1.694-1.063c-.858-1.367-2.072-2.424-3.606-3.178l-.882 1.795zm2.797 2.452a6.147 6.147 0 01.986 3.383h2a8.152 8.152 0 00-1.299-4.458l-1.687 1.075zm1.986 2.383h-3.392v2h3.392v-2zm-2.392 1c0-1.778-.577-3.283-1.811-4.385l-1.332 1.492c.735.656 1.143 1.577 1.143 2.893h2zm-1.806-4.38c-1.225-1.108-2.884-1.595-4.837-1.595v2c1.633 0 2.751.404 3.495 1.078l1.342-1.484zm-4.837-1.595c-1.801 0-3.349.399-4.521 1.322l1.237 1.571c.704-.554 1.757-.893 3.284-.893v-2zm-4.52 1.32c-1.195.939-1.771 2.258-1.771 3.828h2c0-1.03.349-1.739 1.006-2.254l-1.235-1.573zm-1.771 3.828c0 1.372.597 2.53 1.681 3.425l1.275-1.541c-.674-.557-.956-1.169-.956-1.884h-2zm1.692 3.435c1.053.845 2.72 1.544 4.873 2.151l.542-1.925c-2.089-.589-3.434-1.202-4.163-1.786l-1.252 1.56zm4.874 2.151c2.09.586 3.657 1.218 4.743 1.878l1.039-1.709c-1.305-.793-3.066-1.485-5.242-2.094l-.54 1.925zm4.753 1.884c1.099.651 1.853 1.38 2.323 2.166l1.716-1.025c-.678-1.136-1.706-2.083-3.02-2.862l-1.019 1.721zm2.327 2.174c.476.781.733 1.726.733 2.872h2c0-1.455-.33-2.772-1.025-3.913l-1.708 1.041zm.733 2.872c0 1.77-.67 3.14-2.039 4.202l1.226 1.58c1.865-1.446 2.813-3.404 2.813-5.782h-2zm-2.035 4.2c-1.393 1.07-3.319 1.656-5.877 1.656v2c2.855 0 5.254-.656 7.095-2.07l-1.218-1.587zm-5.877 1.656c-1.628 0-3.131-.309-4.521-.918l-.803 1.831c1.658.727 3.436 1.087 5.324 1.087v-2zm-4.515-.916c-1.386-.618-2.412-1.439-3.125-2.443l-1.63 1.158c.95 1.34 2.28 2.371 3.94 3.112l.815-1.827zM100.051 36c-.698-.997-1.05-2.125-1.05-3.417h-2c0 1.685.469 3.217 1.411 4.564l1.639-1.147zm-2.05-2.417h3.393v-2h-3.393v2zm2.393-1c0 1.829.69 3.351 2.083 4.457l1.244-1.566c-.881-.7-1.327-1.626-1.327-2.891h-2zm2.092 4.464c1.372 1.064 3.139 1.546 5.201 1.546v-2c-1.758 0-3.05-.41-3.975-1.126l-1.226 1.58zm5.201 1.546c1.898 0 3.513-.384 4.703-1.296l-1.215-1.588c-.708.541-1.824.884-3.488.884v2zm4.703-1.296c1.211-.926 1.816-2.217 1.816-3.765h-2c0 .96-.343 1.65-1.031 2.177l1.215 1.588zm1.816-3.765c0-1.518-.549-2.796-1.706-3.691l-1.224 1.582c.6.464.93 1.12.93 2.11h2zm-1.7-3.686c-1.042-.82-2.799-1.542-5.121-2.214l-.556 1.921c2.294.664 3.725 1.302 4.441 1.865l1.236-1.572zm24.342-1.675v1h1v-1h-1zm-11.092 0v-1h-1v1h1zm0 9.07h-1v1h1v-1zm12.884 0h1v-1h-1v1zm0 2.76v1h1v-1h-1zm-16.259 0h-1v1h1v-1zm0-25.594v-1h-1v1h1zm16.084 0h1v-1h-1v1zm0 2.778v1h1v-1h-1zm-12.709 0v-1h-1v1h1zm0 8.226h-1v1h1v-1zm11.092 0h1v-1h-1v1zm0 1.76h-11.092v2h11.092v-2zm-12.092 1v9.07h2v-9.07h-2zm1 10.07h12.884v-2h-12.884v2zm11.884-1V40h2v-2.76h-2zm1 1.76h-16.259v2h16.259v-2zm-15.259 1V14.406h-2V40h2zm-1-24.594h16.084v-2h-16.084v2zm15.084-1v2.778h2v-2.778h-2zm1 1.778h-12.709v2h12.709v-2zm-13.709 1v8.226h2v-8.226h-2zm1 9.226h11.092v-2h-11.092v2zm10.092-1v2.76h2v-2.76h-2zm15.975 3.182l.278-.96-.002-.001-.276.96zm-6.328-3.059l-.681.733.007.006.674-.739zm.439-9.492l.633.774h.001l-.634-.774zm10.986-.967l-.444.896.003.002.441-.898zm3.2 2.813l-.848.531.004.006.844-.537zm1.142 3.92v1h1v-1h-1zm-3.392 0h-1v1h1v-1zm-1.477-3.639l-.671.742.005.004.666-.746zm-8.068-.229l.617.787h.001l-.618-.787zm-.071 5.696l-.637.77.006.005.005.005.626-.78zm4.518 1.968l-.271.963h.001l.27-.962zm4.992 1.987l-.519.854.01.006.509-.86zm2.672 2.514l-.859.512.005.008.854-.52zm-1.547 8.384l.609.793.004-.002-.613-.79zm-11.408.862l-.408.913.006.002.402-.915zm-3.533-2.778l-.82.574.004.005.816-.579zm-1.231-3.99v-1h-1v1h1zm3.393 0h1v-1h-1v1zm1.705 3.674l-.622.783.009.007.613-.79zm8.789-5.625l-.618.786.006.005.612-.791zm-4.505-3c-2.835-.815-4.773-1.781-5.931-2.837l-1.347 1.478c1.49 1.359 3.771 2.432 6.725 3.28l.553-1.921zm-5.924-2.83c-1.11-1.031-1.649-2.266-1.649-3.768h-2c0 2.061.773 3.826 2.288 5.233l1.361-1.466zm-1.649-3.768c0-1.706.66-3.089 2.041-4.218l-1.266-1.548c-1.83 1.496-2.775 3.44-2.775 5.766h2zm2.042-4.218c1.399-1.146 3.256-1.76 5.659-1.76v-2c-2.754 0-5.092.71-6.927 2.212l1.268 1.548zm5.659-1.76c1.627 0 3.035.313 4.249.915l.888-1.792c-1.528-.757-3.248-1.123-5.137-1.123v2zm4.252.917c1.232.605 2.151 1.423 2.793 2.446l1.695-1.063c-.858-1.367-2.072-2.424-3.606-3.178l-.882 1.795zm2.797 2.452a6.147 6.147 0 01.986 3.383h2a8.152 8.152 0 00-1.299-4.458l-1.687 1.075zm1.986 2.383h-3.392v2h3.392v-2zm-2.392 1c0-1.778-.577-3.283-1.811-4.385l-1.332 1.492c.735.656 1.143 1.577 1.143 2.893h2zm-1.806-4.38c-1.225-1.108-2.884-1.595-4.837-1.595v2c1.633 0 2.751.404 3.495 1.078l1.342-1.484zm-4.837-1.595c-1.802 0-3.349.399-4.521 1.322l1.237 1.571c.703-.554 1.757-.893 3.284-.893v-2zm-4.52 1.32c-1.195.939-1.771 2.258-1.771 3.828h2c0-1.03.349-1.739 1.006-2.254l-1.235-1.573zm-1.771 3.828c0 1.372.597 2.53 1.681 3.425l1.274-1.541c-.673-.557-.955-1.169-.955-1.884h-2zm1.692 3.435c1.053.845 2.72 1.544 4.873 2.151l.542-1.925c-2.09-.589-3.434-1.202-4.163-1.786l-1.252 1.56zm4.874 2.151c2.09.586 3.657 1.218 4.743 1.878l1.038-1.709c-1.304-.793-3.065-1.485-5.241-2.094l-.54 1.925zm4.753 1.884c1.099.651 1.853 1.38 2.323 2.166l1.716-1.025c-.678-1.136-1.706-2.083-3.02-2.862l-1.019 1.721zm2.327 2.174c.476.781.733 1.726.733 2.872h2c0-1.455-.33-2.772-1.025-3.913l-1.708 1.041zm.733 2.872c0 1.77-.67 3.14-2.039 4.202l1.226 1.58c1.865-1.446 2.813-3.404 2.813-5.782h-2zm-2.035 4.2c-1.393 1.07-3.319 1.656-5.877 1.656v2c2.855 0 5.254-.656 7.095-2.07l-1.218-1.587zm-5.877 1.656c-1.628 0-3.131-.309-4.521-.918l-.803 1.831c1.657.727 3.436 1.087 5.324 1.087v-2zm-4.515-.916c-1.386-.618-2.412-1.439-3.125-2.443l-1.631 1.158c.952 1.34 2.281 2.371 3.941 3.112l.815-1.827zM144.767 36c-.698-.997-1.05-2.125-1.05-3.417h-2c0 1.685.469 3.217 1.411 4.564l1.639-1.147zm-2.05-2.417h3.393v-2h-3.393v2zm2.393-1c0 1.829.69 3.351 2.083 4.457l1.244-1.566c-.881-.7-1.327-1.626-1.327-2.891h-2zm2.092 4.464c1.372 1.064 3.139 1.546 5.201 1.546v-2c-1.758 0-3.05-.41-3.975-1.126l-1.226 1.58zm5.201 1.546c1.898 0 3.512-.384 4.703-1.296l-1.215-1.588c-.708.541-1.824.884-3.488.884v2zm4.703-1.296c1.21-.926 1.816-2.217 1.816-3.765h-2c0 .96-.343 1.65-1.031 2.177l1.215 1.588zm1.816-3.765c0-1.518-.549-2.796-1.706-3.691l-1.224 1.582c.6.464.93 1.12.93 2.11h2zm-1.7-3.686c-1.042-.82-2.799-1.542-5.121-2.214l-.556 1.921c2.294.664 3.725 1.302 4.441 1.865l1.236-1.572z" fill="#fff"/></svg>