<svg width="88" height="34" viewBox="0 0 88 34" fill="none" xmlns="http://www.w3.org/2000/svg"><path d="M6.544 19.362c0-.12.048-.222.144-.306.096-.084.258-.126.486-.126.42 0 .63.192.63.576v.306c0 .792-.456 1.188-1.368 1.188h-3.24c-.876 0-1.314-.426-1.314-1.278v-5.13c0-.876.444-1.314 1.332-1.314h3.222c.912 0 1.368.396 1.368 1.188v.27c0 .432-.21.648-.63.648-.42 0-.63-.138-.63-.414 0-.66-.366-.99-1.098-.99H4.222c-.72 0-1.08.312-1.08.936v4.5c0 .612.354.918 1.062.918h1.278c.708 0 1.062-.324 1.062-.972zm5-5.238v5.256c0 .636.36.954 1.08.954h1.26c.695 0 1.043-.318 1.043-.954l.018-5.256c0-.624.21-.936.63-.936.42 0 .63.294.63.882v5.634c0 .864-.498 1.296-1.494 1.296h-2.97c-.984 0-1.476-.426-1.476-1.278V14.07c0-.588.216-.882.648-.882.42 0 .63.312.63.936zM23.04 16.14c.252-.252.378-.57.378-.954v-.396c-.024-.264-.108-.462-.252-.594-.144-.144-.354-.216-.63-.216H21.06c-.696 0-1.044.402-1.044 1.206v.486c0 .804.342 1.206 1.026 1.206h.522c.396 0 .714-.114.954-.342l.522-.396zm.99 4.932c-.408 0-.612-.258-.612-.774V19.02a.558.558 0 00-.108-.306 1.893 1.893 0 00-.288-.36l-.522-.432c-.3-.228-.57-.342-.81-.342h-.648c-.684 0-1.026.342-1.026 1.026v1.638c0 .552-.21.828-.63.828-.42 0-.63-.294-.63-.882v-5.598c0-.876.462-1.314 1.386-1.314h2.988c1.032 0 1.548.408 1.548 1.224v1.188c-.06.348-.318.714-.774 1.098-.18.144-.27.294-.27.45 0 .144.084.294.252.45.48.456.744.828.792 1.116v1.458c0 .54-.216.81-.648.81zm7.43-4.932c.252-.252.378-.57.378-.954v-.396c-.024-.264-.108-.462-.252-.594-.144-.144-.354-.216-.63-.216H29.48c-.696 0-1.044.402-1.044 1.206v.486c0 .804.342 1.206 1.026 1.206h.522c.396 0 .714-.114.954-.342l.522-.396zm.99 4.932c-.408 0-.612-.258-.612-.774V19.02a.558.558 0 00-.108-.306 1.893 1.893 0 00-.288-.36l-.522-.432c-.3-.228-.57-.342-.81-.342h-.648c-.684 0-1.026.342-1.026 1.026v1.638c0 .552-.21.828-.63.828-.42 0-.63-.294-.63-.882v-5.598c0-.876.462-1.314 1.386-1.314h2.988c1.032 0 1.548.408 1.548 1.224v1.188c-.06.348-.318.714-.774 1.098-.18.144-.27.294-.27.45 0 .144.084.294.252.45.48.456.744.828.792 1.116v1.458c0 .54-.216.81-.648.81zm5.539-.738h2.952c.384 0 .576.114.576.342 0 .216-.186.324-.558.324h-3.906c-.972 0-1.458-.396-1.458-1.188v-5.31c0-.816.486-1.224 1.458-1.224h3.906c.372 0 .558.114.558.342 0 .24-.192.36-.576.36h-2.952c-.756 0-1.134.312-1.134.936v.774c0 .636.366.954 1.098.954h2.97c.396 0 .594.102.594.306 0 .252-.192.378-.576.378h-2.988c-.732 0-1.098.318-1.098.954v1.152c0 .6.378.9 1.134.9zm9.727-1.422c.155.348.276.522.36.522.06 0 .09-.108.09-.324l.018-4.806c0-.72.21-1.08.63-1.08.431 0 .648.294.648.882l-.019 5.688c0 .864-.395 1.296-1.188 1.296-.372 0-.684-.282-.936-.846l-2.123-4.842c-.157-.228-.258-.342-.306-.342-.072 0-.108.144-.108.432V20.1c0 .648-.21.972-.63.972-.433 0-.648-.288-.648-.864l.018-5.706c0-.876.39-1.314 1.17-1.314.3 0 .611.294.935.882l2.088 4.842zm3.54-5.292c0-.228.21-.342.63-.342h4.59c.433 0 .649.114.649.342 0 .24-.222.36-.666.36h-.63c-.684 0-1.026.312-1.026.936v5.256c0 .624-.21.936-.63.936-.408 0-.612-.312-.612-.936v-5.256c0-.624-.342-.936-1.026-.936h-.594c-.456 0-.684-.12-.684-.36zm17.087 5.742c0-.12.048-.222.144-.306.096-.084.258-.126.486-.126.42 0 .63.192.63.576v.306c0 .792-.456 1.188-1.368 1.188h-3.24c-.876 0-1.314-.426-1.314-1.278v-5.13c0-.876.444-1.314 1.332-1.314h3.222c.912 0 1.368.396 1.368 1.188v.27c0 .432-.21.648-.63.648-.42 0-.63-.138-.63-.414 0-.66-.366-.99-1.098-.99h-1.224c-.72 0-1.08.312-1.08.936v4.5c0 .612.354.918 1.062.918h1.278c.708 0 1.062-.324 1.062-.972zm5-5.238v5.256c0 .636.36.954 1.08.954h1.26c.695 0 1.043-.318 1.043-.954l.018-5.256c0-.624.21-.936.63-.936.42 0 .63.294.63.882v5.634c0 .864-.498 1.296-1.494 1.296h-2.97c-.984 0-1.476-.426-1.476-1.278V14.07c0-.588.216-.882.648-.882.42 0 .63.312.63.936zm6.51-.504c0-.228.21-.342.63-.342h4.59c.433 0 .649.114.649.342 0 .24-.222.36-.666.36h-.63c-.684 0-1.026.312-1.026.936v5.256c0 .624-.21.936-.63.936-.408 0-.612-.312-.612-.936v-5.256c0-.624-.343-.936-1.026-.936h-.595c-.456 0-.684-.12-.684-.36zM1 23.772h85.01v.45H1v-.45z" fill="#000"/><path d="M7.544 19.362a.615.615 0 01-.197.447l-1.318-1.506c-.297.26-.485.63-.485 1.059h2zm-.197.447a.548.548 0 01-.215.12c-.024.007-.016.001.042.001v-2c-.299 0-.769.045-1.145.373l1.318 1.506zm-.173.121c.077 0-.052.02-.202-.118-.168-.153-.168-.32-.168-.306h2c0-.37-.105-.825-.483-1.17-.36-.33-.804-.406-1.147-.406v2zm-.37-.424v.306h2v-.306h-2zm0 .306a.485.485 0 01-.02.161c0 .004.006-.01.022-.025.027-.024-.036.052-.37.052v2c.578 0 1.199-.122 1.682-.542.51-.443.686-1.056.686-1.646h-2zM6.436 20h-3.24v2h3.24v-2zm-3.24 0c-.29 0-.324-.07-.288-.036.04.04-.026.023-.026-.242h-2c0 .587.153 1.21.631 1.675.474.46 1.098.603 1.683.603v-2zm-.314-.278v-5.13h-2v5.13h2zm0-5.13c0-.28.07-.308.035-.274-.032.032.004-.04.297-.04v-2c-.595 0-1.225.147-1.701.617-.479.472-.631 1.101-.631 1.697h2zm.332-.314h3.222v-2H3.214v2zm3.222 0c.334 0 .397.075.37.052-.016-.014-.023-.03-.021-.025.004.01.019.057.019.161h2c0-.59-.176-1.203-.686-1.646-.483-.42-1.104-.542-1.682-.542v2zm.368.188v.27h2v-.27h-2zm0 .27c0 .069-.017-.065.126-.211.147-.152.293-.141.244-.141v2c.371 0 .832-.097 1.19-.465.352-.362.44-.82.44-1.183h-2zm.37-.352c-.053 0-.07-.005-.062-.003a.434.434 0 01.139.064.666.666 0 01.293.525h-2c0 .435.19.872.608 1.146.345.227.734.268 1.022.268v-2zm.37.586c0-.512-.147-1.072-.605-1.485-.438-.395-.997-.505-1.493-.505v2c.111 0 .17.013.193.02.018.005-.004.002-.04-.03a.265.265 0 01-.062-.086c-.004-.011.007.01.007.086h2zm-2.098-1.99H4.222v2h1.224v-2zm-1.224 0c-.482 0-1.03.101-1.465.478-.462.401-.615.952-.615 1.458h2c0-.062.01-.072 0-.05a.298.298 0 01-.076.104c-.036.032-.06.035-.039.03a.747.747 0 01.195-.02v-2zm-2.08 1.936v4.5h2v-4.5h-2zm0 4.5c0 .501.152 1.048.612 1.445.431.373.975.473 1.45.473v-2a.723.723 0 01-.188-.018c-.018-.006.006-.002.045.032a.31.31 0 01.08.11c.01.024.001.017.001-.042h-2zm2.062 1.918h1.278v-2H4.204v2zm1.278 0c.487 0 1.04-.11 1.472-.505.449-.411.59-.965.59-1.467h-2c0 .074-.01.095-.006.083a.28.28 0 01.11-.124c.01-.006.014-.006.007-.004a.935.935 0 01-.173.017v2zm9.445-1.954l-1-.003v.003h1zm.018-5.256l1 .003v-.003h-1zm-4.402 0v5.256h2v-5.256h-2zm0 5.256c0 .507.15 1.06.608 1.465.435.384.986.489 1.472.489v-2a.717.717 0 01-.19-.019c-.018-.005.005-.002.042.031a.288.288 0 01.071.098c.007.018-.003.003-.003-.064h-2zm2.08 1.954h1.26v-2h-1.26v2zm1.26 0c.481 0 1.028-.108 1.458-.5.446-.408.586-.957.586-1.454h-2c0 .07-.01.089-.005.075a.299.299 0 01.116-.132c.012-.006.017-.007.01-.005a.892.892 0 01-.165.016v2zm2.044-1.95l.018-5.257-2-.006-.018 5.256 2 .006zm.018-5.26c0-.103.01-.163.015-.19.006-.028.005-.003-.028.046a.495.495 0 01-.189.163.398.398 0 01-.168.045v-2c-.497 0-.987.208-1.302.676-.267.397-.328.867-.328 1.26h2zm-.37.064a.37.37 0 01-.147-.039.501.501 0 01-.194-.16c-.04-.054-.045-.089-.041-.073a.72.72 0 01.012.154h2c0-.383-.063-.85-.343-1.243-.326-.455-.814-.639-1.287-.639v2zm-.37-.118v5.634h2V14.07h-2zm0 5.634a.605.605 0 01-.027.208c-.006.018-.008.014-.002.009.006-.006-.089.079-.465.079v2c.62 0 1.272-.131 1.776-.569.531-.46.718-1.1.718-1.727h-2zm-.494.296h-2.97v2h2.97v-2zm-2.97 0c-.37 0-.461-.083-.452-.076.007.007.007.013.002-.002a.585.585 0 01-.026-.2h-2c0 .62.186 1.257.715 1.714.5.434 1.148.564 1.761.564v-2zm-.476-.278V14.07h-2v5.652h2zm0-5.652a.68.68 0 01.012-.148c.003-.013-.003.023-.044.079a.492.492 0 01-.19.153.341.341 0 01-.13.034v-2c-.468 0-.96.176-1.292.628-.29.395-.356.867-.356 1.254h2zm-.352.118a.399.399 0 01-.168-.045.496.496 0 01-.189-.163c-.033-.049-.034-.074-.028-.047a.918.918 0 01.015.191h2c0-.393-.06-.863-.328-1.26-.315-.468-.804-.676-1.302-.676v2zM23.04 16.14l.605.797.054-.042.048-.048-.707-.707zm.378-1.35h1v-.045l-.004-.045-.996.09zm-.252-.594l-.707.707.016.015.016.015.675-.737zm-.648 2.34l-.604-.797-.044.034-.04.038.688.725zm.792 2.178l-.857.515.012.02.013.02.832-.555zm-.288-.36l.708-.707-.034-.033-.036-.03-.638.77zm-.522-.432l.638-.77-.016-.014-.017-.012-.605.796zm2.178-2.232l.986.17.014-.084v-.086h-1zm-.774 1.098l.625.78.01-.007.01-.008-.645-.765zm-.018.9l.69-.725-.01-.008-.68.733zm.792 1.116h1v-.083l-.013-.081-.987.164zm-.93-1.957c.455-.455.67-1.035.67-1.661h-2c0 .142-.036.198-.085.247l1.415 1.414zm.67-1.661v-.396h-2v.396h2zm-.004-.486c-.038-.423-.187-.889-.572-1.241l-1.351 1.474a.342.342 0 01-.074-.099c-.007-.016 0-.005.005.046l1.992-.18zm-.54-1.211c-.39-.39-.893-.509-1.338-.509v2c.054 0 .062.007.04 0a.354.354 0 01-.117-.077l1.415-1.414zm-1.338-.509H21.06v2h1.476v-2zm-1.476 0c-.542 0-1.12.163-1.539.647-.394.456-.505 1.035-.505 1.559h2a.94.94 0 01.027-.25c.01-.037.014-.027-.01 0a.198.198 0 01-.07.053c-.008.003.017-.009.097-.009v-2zm-2.044 2.206v.486h2v-.486h-2zm0 .486c0 .52.108 1.097.495 1.552.414.487.99.654 1.531.654v-2c-.075 0-.096-.011-.084-.007.019.008.05.027.077.057.023.028.018.037.008-.001a.974.974 0 01-.027-.255h-2zm2.026 2.206h.522v-2h-.522v2zm.522 0c.6 0 1.182-.179 1.643-.617l-1.377-1.45c-.019.018-.072.067-.266.067v2zm1.559-.545l.522-.396-1.209-1.594-.522.396 1.209 1.594zm.907 2.739c.002 0 .05 0 .121.03.077.033.15.087.205.156.05.064.066.116.068.124.001.006-.006-.018-.006-.084h-2c0 .363.068.82.369 1.2.337.427.815.574 1.243.574v-2zm.388.226V19.02h-2v1.278h2zm0-1.278c0-.352-.132-.645-.276-.86l-1.664 1.109a.305.305 0 01-.03-.065.557.557 0 01-.03-.184h2zm-.25-.82a2.882 2.882 0 00-.438-.553l-1.415 1.414c.074.074.116.13.138.168l1.715-1.03zm-.508-.616l-.522-.432-1.275 1.54.522.432 1.275-1.54zm-.555-.458c-.38-.29-.863-.546-1.415-.546v2c-.04 0-.045-.01-.006.007.04.017.11.054.211.131l1.21-1.592zm-1.415-.546h-.648v2h.648v-2zm-.648 0c-.496 0-1.052.125-1.476.55-.425.424-.55.98-.55 1.476h2c0-.044.003-.077.006-.099l.007-.034s-.002.008-.01.022a.252.252 0 01-.087.087c-.014.008-.023.011-.022.01l.033-.006a.707.707 0 01.1-.006v-2zm-2.026 2.026v1.638h2v-1.638h-2zm0 1.638a.554.554 0 01-.008.116c0 .003.01-.04.055-.1.05-.066.12-.121.198-.156a.34.34 0 01.125-.032v2c.45 0 .934-.162 1.269-.601.295-.389.361-.853.361-1.227h-2zm.37-.172a.37.37 0 01.148.039c.083.039.15.098.194.16.039.054.044.089.04.073a.728.728 0 01-.012-.154h-2c0 .383.063.85.344 1.243.325.455.814.639 1.286.639v-2zm.37.118v-5.598h-2v5.598h2zm0-5.598c0-.27.069-.292.035-.26-.024.023.03-.054.351-.054v-2c-.603 0-1.241.142-1.727.603-.496.47-.659 1.105-.659 1.711h2zm.386-.314h2.988v-2h-2.988v2zm2.988 0c.412 0 .535.086.541.09l-.007-.007-.004-.006a.41.41 0 01.018.147h2c0-.633-.211-1.264-.766-1.702-.51-.404-1.16-.522-1.782-.522v2zm.548.224v1.188h2v-1.188h-2zm.015 1.018c.001-.006-.005.036-.07.13-.067.093-.18.22-.363.373l1.289 1.53c.522-.44.995-1 1.115-1.693l-1.971-.34zm-.413.487c-.3.24-.646.648-.646 1.231h2a.561.561 0 01-.075.285c-.032.054-.055.066-.03.046l-1.25-1.562zm-.646 1.231c0 .55.318.947.572 1.183l1.36-1.466c-.03-.029-.019-.026.004.015a.556.556 0 01.064.268h-2zm.564 1.175c.212.201.349.36.43.475.09.125.075.146.064.08l1.973-.328c-.06-.354-.23-.663-.405-.91a5.392 5.392 0 00-.685-.767l-1.377 1.45zm.48.391v1.458h2v-1.458h-2zm0 1.458c0 .072-.007.1-.006.097a.34.34 0 01.064-.114.497.497 0 01.193-.147c.066-.027.107-.026.101-.026v2c.437 0 .923-.148 1.267-.578.31-.387.381-.855.381-1.232h-2zm7.782-4.122l.604.797.054-.042.049-.048-.707-.707zm.378-1.35h1v-.045l-.005-.045-.995.09zm-.252-.594l-.707.707.015.015.016.015.676-.737zm-.648 2.34l-.605-.797-.044.034-.04.038.689.725zm.792 2.178l-.858.515.012.02.014.02.832-.555zm-.288-.36l.707-.707-.034-.033-.036-.03-.637.77zm-.522-.432l.637-.77-.016-.014-.016-.012-.605.796zm2.178-2.232l.985.17.015-.084v-.086h-1zm-.774 1.098l.624.78.01-.007.01-.008-.644-.765zm-.018.9l.689-.725-.009-.008-.68.733zm.792 1.116h1v-.083l-.014-.081-.986.164zm-.931-1.957c.455-.455.67-1.035.67-1.661h-2c0 .142-.035.198-.084.247l1.414 1.414zm.67-1.661v-.396h-2v.396h2zm-.004-.486c-.038-.423-.187-.889-.572-1.241l-1.351 1.474a.342.342 0 01-.074-.099c-.007-.016.001-.005.006.046l1.992-.18zm-.54-1.211c-.39-.39-.893-.509-1.337-.509v2c.053 0 .061.007.04 0a.354.354 0 01-.117-.077l1.414-1.414zm-1.337-.509H29.48v2h1.476v-2zm-1.476 0c-.543 0-1.12.163-1.54.647-.394.456-.504 1.035-.504 1.559h2c0-.132.014-.21.026-.25.01-.037.014-.027-.01 0a.198.198 0 01-.07.053c-.008.003.018-.009.098-.009v-2zm-2.044 2.206v.486h2v-.486h-2zm0 .486c0 .52.107 1.097.494 1.552.415.487.99.654 1.532.654v-2c-.076 0-.097-.011-.084-.007a.21.21 0 01.076.057c.023.028.019.037.008-.001a.975.975 0 01-.026-.255h-2zm2.026 2.206h.522v-2h-.522v2zm.522 0c.598 0 1.181-.179 1.642-.617l-1.377-1.45c-.019.018-.072.067-.265.067v2zm1.558-.545l.522-.396-1.209-1.594-.522.396 1.209 1.594zm.908 2.739c.001 0 .05 0 .12.03.078.033.15.087.205.156.05.064.066.116.068.124.002.006-.005-.018-.005-.084h-2c0 .363.067.82.368 1.2.337.427.815.574 1.244.574v-2zm.388.226V19.02h-2v1.278h2zm0-1.278c0-.352-.132-.645-.276-.86l-1.664 1.109a.302.302 0 01-.03-.065.557.557 0 01-.03-.184h2zm-.25-.82a2.885 2.885 0 00-.44-.553l-1.413 1.414c.073.074.115.13.137.168l1.715-1.03zm-.509-.616l-.522-.432-1.275 1.54.522.432 1.275-1.54zm-.554-.458c-.382-.29-.864-.546-1.415-.546v2c-.04 0-.045-.01-.007.007.04.017.11.054.212.131l1.21-1.592zm-1.415-.546h-.648v2h.648v-2zm-.648 0c-.497 0-1.052.125-1.477.55-.425.424-.55.98-.55 1.476h2a.71.71 0 01.014-.133s-.003.008-.012.022a.255.255 0 01-.086.087c-.014.008-.023.011-.022.01.001 0 .011-.003.034-.006a.709.709 0 01.099-.006v-2zm-2.026 2.026v1.638h2v-1.638h-2zm0 1.638a.549.549 0 01-.009.116c0 .003.01-.04.055-.1.05-.066.12-.121.198-.156a.34.34 0 01.126-.032v2c.448 0 .933-.162 1.268-.601.295-.389.362-.853.362-1.227h-2zm.37-.172a.37.37 0 01.147.039c.084.039.15.098.194.16.039.054.045.089.04.073a.731.731 0 01-.011-.154h-2c0 .383.063.85.343 1.243.326.455.814.639 1.287.639v-2zm.37.118v-5.598h-2v5.598h2zm0-5.598c0-.27.068-.292.034-.26-.024.023.03-.054.352-.054v-2c-.604 0-1.242.142-1.728.603-.496.47-.658 1.105-.658 1.711h2zm.386-.314h2.988v-2h-2.988v2zm2.988 0c.41 0 .535.086.54.09l-.007-.007-.004-.006a.409.409 0 01.019.147h2c0-.633-.212-1.264-.767-1.702-.51-.404-1.16-.522-1.781-.522v2zm.548.224v1.188h2v-1.188h-2zm.014 1.018c.001-.006-.005.036-.07.13-.067.093-.18.22-.363.373l1.289 1.53c.522-.44.995-1 1.115-1.693l-1.97-.34zm-.413.487c-.3.24-.645.648-.645 1.231h2a.56.56 0 01-.075.285c-.032.054-.056.066-.03.046l-1.25-1.562zm-.645 1.231c0 .55.317.947.571 1.183l1.361-1.466c-.031-.029-.02-.026.003.015a.556.556 0 01.065.268h-2zm.563 1.175c.212.201.35.36.431.475.089.125.074.146.063.08l1.973-.328c-.059-.354-.23-.663-.405-.91a5.399 5.399 0 00-.685-.767l-1.377 1.45zm.48.391v1.458h2v-1.458h-2zm0 1.458c0 .072-.007.1-.006.097a.34.34 0 01.064-.114.498.498 0 01.194-.147c.065-.027.106-.026.1-.026v2c.437 0 .923-.148 1.268-.578.31-.387.38-.855.38-1.232h-2zm5.892 1.072h2.952v-2h-2.952v2zm2.952 0c.05 0 .066.004.058.002a.451.451 0 01-.137-.057.712.712 0 01-.253-.263.702.702 0 01-.092-.34h2c0-.458-.226-.875-.634-1.116-.325-.194-.684-.226-.942-.226v2zm-.424-.658c0-.093.021-.223.098-.356a.725.725 0 01.26-.266c.134-.077.206-.054.084-.054v2c.25 0 .6-.03.92-.216.403-.234.638-.645.638-1.108h-2zm.442-.676h-3.906v2h3.906v-2zm-3.906 0c-.376 0-.472-.08-.462-.072a.08.08 0 01.014.015c.005.007.007.012.007.01a.414.414 0 01-.017-.141h-2c0 .61.197 1.23.733 1.666.496.405 1.129.522 1.725.522v-2zm-.458-.188v-5.31h-2v5.31h2zm0-5.31c0-.107.016-.155.02-.167.002-.005-.002.006-.013.015-.011.01.08-.072.45-.072v-2c-.6 0-1.238.123-1.736.54-.53.446-.721 1.072-.721 1.684h2zm.458-.224h3.906v-2h-3.906v2zm3.906 0c.116 0 .035.024-.104-.062a.716.716 0 01-.338-.596h2c0-.443-.212-.86-.617-1.11-.326-.199-.685-.232-.941-.232v2zm-.442-.658a.703.703 0 01.326-.578c.139-.087.218-.062.098-.062v2c.264 0 .631-.035.962-.242.409-.256.614-.678.614-1.118h-2zm.424-.64h-2.952v2h2.952v-2zm-2.952 0c-.49 0-1.044.097-1.487.463-.48.396-.647.95-.647 1.473h2c0-.057.009-.062-.002-.035a.283.283 0 01-.078.104c-.034.028-.05.027-.017.018a.91.91 0 01.23-.023v-2zm-2.134 1.936v.774h2v-.774h-2zm0 .774c0 .512.154 1.066.619 1.47.438.38.99.484 1.479.484v-2a.764.764 0 01-.202-.02c-.023-.007-.002-.005.034.027a.28.28 0 01.072.098c.008.02-.002.006-.002-.059h-2zm2.098 1.954h2.97v-2h-2.97v2zm2.97 0a.62.62 0 01.09.005c.007 0-.036-.005-.103-.04a.76.76 0 01-.394-.66h2a1.24 1.24 0 00-.69-1.118c-.311-.16-.652-.187-.903-.187v2zm-.406-.694a.694.694 0 01.307-.552c.144-.095.231-.07.117-.07v2c.27 0 .645-.038.98-.258.41-.269.596-.696.596-1.12h-2zm.424-.622h-2.988v2h2.988v-2zm-2.988 0c-.489 0-1.042.103-1.48.484-.464.404-.618.958-.618 1.47h2c0-.065.01-.078.002-.06a.28.28 0 01-.072.099c-.036.032-.057.034-.034.027a.764.764 0 01.202-.02v-2zm-2.098 1.954v1.152h2v-1.152h-2zm0 1.152c0 .523.176 1.073.662 1.458.441.35.988.442 1.472.442v-2a.983.983 0 01-.24-.023c-.037-.01-.023-.012.011.015a.294.294 0 01.088.114c.014.035.007.04.007-.006h-2zm11.86-.522l-.918.396.003.006.003.007.913-.409zm.45.198l-1-.004v.004h1zm.019-4.806l1 .004v-.004h-1zm1.278-.198l1 .003v-.003h-1zm-.019 5.688l-1-.003v.003h1zm-2.123.45l-.916.402.002.006.913-.408zm-2.124-4.842L46.11 15l-.037-.085-.053-.078-.825.565zm-1.692 4.806l-1-.003v.003h1zm.018-5.706l1 .003v-.003h-1zm2.105-.432l.919-.396-.02-.044-.023-.043-.876.483zm1.176 5.251c.086.193.185.388.296.55.055.08.14.19.258.291.105.09.354.272.718.272v-2c.323 0 .526.16.58.206a.644.644 0 01.09.096l-.01-.016a2.94 2.94 0 01-.108-.217l-1.824.818zm1.273 1.113c.364 0 .642-.182.807-.38.14-.168.198-.342.223-.433.053-.189.06-.38.06-.511h-2c0 .085-.009.056.014-.025.01-.037.049-.17.167-.311a.95.95 0 01.728-.34v2zm1.09-1.32l.018-4.806-2-.008-.018 4.806 2 .008zm.018-4.81c0-.134.01-.225.02-.282.012-.058.02-.056 0-.024a.467.467 0 01-.17.162.46.46 0 01-.22.064v-2c-.563 0-1.05.276-1.337.766-.237.407-.293.89-.293 1.314h2zm-.37-.08c-.005 0-.057 0-.13-.034a.492.492 0 01-.19-.153c-.04-.056-.047-.092-.044-.079a.68.68 0 01.011.148h2c0-.387-.065-.858-.356-1.254-.332-.452-.824-.628-1.291-.628v2zm-.352-.121l-.019 5.688 2 .006.019-5.688-2-.006zm-.019 5.691c0 .298-.07.336-.034.296.018-.02.034-.024.025-.02a.557.557 0 01-.178.02v2c.573 0 1.18-.16 1.628-.648.432-.472.56-1.082.56-1.648h-2zm-.188.296c.037 0 .078.008.114.023.034.014.048.027.044.024a.437.437 0 01-.061-.078 1.532 1.532 0 01-.12-.223l-1.825.816c.297.665.86 1.438 1.849 1.438v-2zm-.02-.248L46.111 15l-1.831.804 2.124 4.842 1.831-.804zm-2.214-5.005a3.583 3.583 0 00-.274-.358 1.485 1.485 0 00-.206-.194c-.051-.039-.293-.225-.651-.225v2a.952.952 0 01-.56-.182.648.648 0 01-.07-.062l-.003-.004.002.003a3.056 3.056 0 01.111.152l1.65-1.13zm-1.132-.777c-.41 0-.697.227-.847.427-.129.172-.18.346-.204.438a2.385 2.385 0 00-.056.567h2c0-.124.01-.132-.003-.082-.005.02-.035.141-.137.277a.942.942 0 01-.753.373v-2zm-1.108 1.432V20.1h2v-4.608h-2zm0 4.608c0 .111-.009.18-.016.214-.008.036-.01.016.02-.029a.49.49 0 01.367-.213v2c.513 0 1.003-.224 1.311-.7.26-.4.319-.872.319-1.272h-2zm.37-.028c.002 0 .051 0 .123.032.078.035.145.09.191.152.043.057.051.096.05.087a.627.627 0 01-.011-.135h-2c0 .384.066.855.361 1.248.336.448.826.616 1.286.616v-2zm.352.14l.019-5.707-2-.006-.018 5.706 2 .006zm.019-5.71c0-.31.071-.357.039-.32-.018.02-.035.026-.03.025a.496.496 0 01.16-.019v-2c-.576 0-1.182.167-1.624.663-.422.475-.545 1.086-.545 1.651h2zm.17-.314c-.197 0-.277-.099-.227-.052.05.047.15.168.287.417l1.751-.966c-.187-.34-.405-.66-.667-.906-.262-.247-.648-.493-1.145-.493v2zm.017.278l2.088 4.842 1.837-.792-2.088-4.842-1.837.792zm7.548-.846a.721.721 0 01-.366.622c-.066.036-.11.043-.102.041a.633.633 0 01.098-.005v-2c-.268 0-.626.03-.95.207a1.28 1.28 0 00-.68 1.135h2zm-.37.658h4.59v-2h-4.59v2zm4.59 0c.067 0 .1.005.11.006.012.002-.027-.003-.091-.036a.727.727 0 01-.371-.628h2a1.273 1.273 0 00-.696-1.14c-.323-.172-.68-.202-.952-.202v2zm-.352-.658a.707.707 0 01.358-.61c.063-.034.102-.039.09-.037a.709.709 0 01-.114.007v2c.28 0 .645-.032.975-.21a1.293 1.293 0 00.691-1.15h-2zm.334-.64h-.63v2h.63v-2zm-.63 0c-.475 0-1.017.106-1.444.495-.444.405-.582.95-.582 1.441h2c0-.067.01-.083.003-.066a.309.309 0 01-.123.14l-.012.005a.887.887 0 01.158-.015v-2zm-2.026 1.936v5.256h2v-5.256h-2zm0 5.256a.926.926 0 01-.015.19c-.007.028-.005.003.028-.046a.495.495 0 01.188-.163.399.399 0 01.169-.045v2c.497 0 .987-.208 1.302-.676.267-.397.328-.867.328-1.26h-2zm.37-.064a.506.506 0 01.378.219c.031.048.032.072.025.041a.972.972 0 01-.015-.196h-2c0 .39.057.854.316 1.25a1.51 1.51 0 001.296.686v-2zm.388.064v-5.256h-2v5.256h2zm0-5.256c0-.491-.14-1.036-.583-1.44-.426-.39-.969-.496-1.443-.496v2a.887.887 0 01.158.015l-.013-.006a.309.309 0 01-.123-.14c-.006-.016.004 0 .004.067h2zm-2.026-1.936h-.594v2h.594v-2zm-.594 0a.786.786 0 01-.127-.008c-.016-.002.019.001.08.033a.713.713 0 01.363.615h-2a1.287 1.287 0 00.705 1.155c.33.173.696.205.979.205v-2zm17.402 6.382a.614.614 0 01-.197.447l-1.317-1.506c-.298.26-.486.63-.486 1.059h2zm-.197.447a.548.548 0 01-.215.12c-.024.007-.016.001.042.001v-2c-.299 0-.769.045-1.144.373l1.317 1.506zm-.173.121c.077 0-.052.02-.202-.118-.168-.153-.168-.32-.168-.306h2c0-.37-.105-.825-.483-1.17-.36-.33-.804-.406-1.147-.406v2zm-.37-.424v.306h2v-.306h-2zm0 .306a.486.486 0 01-.019.161c-.002.004.005-.01.021-.025.027-.024-.036.052-.37.052v2c.578 0 1.199-.122 1.682-.542.51-.443.686-1.056.686-1.646h-2zm-.368.188h-3.24v2h3.24v-2zm-3.24 0c-.29 0-.324-.07-.288-.036.04.04-.026.023-.026-.242h-2c0 .587.153 1.21.631 1.675.474.46 1.098.603 1.683.603v-2zm-.314-.278v-5.13h-2v5.13h2zm0-5.13c0-.28.07-.308.035-.274-.032.032.004-.04.297-.04v-2c-.595 0-1.225.147-1.701.617-.479.472-.63 1.101-.63 1.697h2zm.332-.314h3.222v-2h-3.222v2zm3.222 0c.334 0 .397.075.37.052-.016-.014-.023-.03-.021-.025.004.01.02.057.02.161h2c0-.59-.177-1.203-.687-1.646-.483-.42-1.104-.542-1.682-.542v2zm.368.188v.27h2v-.27h-2zm0 .27c0 .069-.017-.065.126-.211.147-.152.293-.141.244-.141v2c.371 0 .832-.097 1.19-.465.352-.362.44-.82.44-1.183h-2zm.37-.352c-.053 0-.07-.005-.062-.003a.433.433 0 01.139.064.666.666 0 01.293.525h-2c0 .435.19.872.608 1.146.345.227.734.268 1.022.268v-2zm.37.586c0-.512-.147-1.072-.605-1.485-.438-.395-.997-.505-1.493-.505v2c.111 0 .17.013.193.02.018.005-.004.002-.04-.03a.269.269 0 01-.061-.086c-.005-.011.006.01.006.086h2zm-2.098-1.99h-1.224v2h1.224v-2zm-1.224 0c-.482 0-1.03.101-1.465.478-.462.401-.615.952-.615 1.458h2c0-.062.01-.072 0-.05a.294.294 0 01-.076.104c-.036.032-.06.035-.039.03a.747.747 0 01.195-.02v-2zm-2.08 1.936v4.5h2v-4.5h-2zm0 4.5c0 .501.152 1.048.612 1.445.432.373.975.473 1.45.473v-2a.724.724 0 01-.188-.018c-.018-.006.007-.002.046.032a.31.31 0 01.08.11c.009.024 0 .017 0-.042h-2zm2.062 1.918h1.278v-2h-1.278v2zm1.278 0c.487 0 1.04-.11 1.472-.505.449-.411.59-.965.59-1.467h-2c0 .074-.01.095-.006.083a.28.28 0 01.11-.124c.01-.006.014-.006.007-.004a.934.934 0 01-.173.017v2zm9.445-1.954l-1-.003v.003h1zm.018-5.256l1 .003v-.003h-1zm-4.402 0v5.256h2v-5.256h-2zm0 5.256c0 .507.15 1.06.608 1.465.435.384.987.489 1.472.489v-2a.719.719 0 01-.19-.019c-.018-.005.005-.002.042.031a.292.292 0 01.071.098c.007.018-.003.003-.003-.064h-2zm2.08 1.954h1.26v-2h-1.26v2zm1.26 0c.481 0 1.028-.108 1.458-.5.446-.408.586-.957.586-1.454h-2c0 .07-.01.089-.004.075a.291.291 0 01.116-.132l.01-.005a.89.89 0 01-.165.016v2zm2.044-1.95l.018-5.257-2-.006-.018 5.256 2 .006zm.018-5.26c0-.103.01-.163.015-.19.007-.028.005-.003-.028.046a.496.496 0 01-.188.163.399.399 0 01-.169.045v-2c-.497 0-.987.208-1.302.676-.267.397-.328.867-.328 1.26h2zm-.37.064a.37.37 0 01-.147-.039.502.502 0 01-.194-.16c-.039-.054-.045-.089-.04-.073a.72.72 0 01.011.154h2c0-.383-.063-.85-.344-1.243-.325-.455-.813-.639-1.286-.639v2zm-.37-.118v5.634h2V14.07h-2zm0 5.634a.608.608 0 01-.026.208c-.007.018-.008.014-.002.009.005-.006-.09.079-.466.079v2c.62 0 1.272-.131 1.776-.569.531-.46.718-1.1.718-1.727h-2zM76.51 20h-2.97v2h2.97v-2zm-2.97 0c-.37 0-.461-.083-.452-.076.007.007.008.013.002-.002a.582.582 0 01-.026-.2h-2c0 .62.186 1.257.715 1.714.5.434 1.148.564 1.761.564v-2zm-.476-.278V14.07h-2v5.652h2zm0-5.652a.68.68 0 01.012-.148c.003-.013-.003.023-.044.079a.492.492 0 01-.19.153.341.341 0 01-.13.034v-2c-.468 0-.959.176-1.292.628-.29.395-.356.867-.356 1.254h2zm-.352.118a.398.398 0 01-.168-.045.495.495 0 01-.189-.163c-.033-.049-.034-.074-.028-.047a.926.926 0 01.015.191h2c0-.393-.06-.863-.328-1.26-.314-.468-.804-.676-1.302-.676v2zm8.141-.568a.72.72 0 01-.365.622c-.067.036-.11.043-.102.041a.631.631 0 01.098-.005v-2c-.268 0-.626.03-.95.207a1.279 1.279 0 00-.68 1.135h2zm-.37.658h4.59v-2h-4.59v2zm4.59 0c.067 0 .102.005.11.006.012.002-.027-.003-.09-.036a.727.727 0 01-.371-.628h2a1.273 1.273 0 00-.696-1.14c-.323-.172-.681-.202-.953-.202v2zm-.351-.658a.707.707 0 01.358-.61c.063-.034.102-.039.09-.037a.706.706 0 01-.115.007v2c.28 0 .646-.032.975-.21a1.293 1.293 0 00.691-1.15h-2zm.334-.64h-.63v2h.63v-2zm-.63 0c-.475 0-1.018.106-1.444.495-.444.405-.582.95-.582 1.441h2c0-.067.009-.083.003-.066a.309.309 0 01-.123.14l-.012.005a.887.887 0 01.158-.015v-2zM82.4 14.916v5.256h2v-5.256h-2zm0 5.256a.926.926 0 01-.016.19c-.006.028-.005.003.028-.046a.495.495 0 01.19-.163.399.399 0 01.167-.045v2c.498 0 .988-.208 1.303-.676.267-.397.328-.867.328-1.26h-2zm.37-.064a.506.506 0 01.378.219c.031.048.031.072.025.041a.972.972 0 01-.016-.196h-2c0 .39.058.854.317 1.25a1.51 1.51 0 001.295.686v-2zm.388.064v-5.256h-2v5.256h2zm0-5.256c0-.491-.14-1.036-.583-1.44-.426-.39-.969-.496-1.444-.496v2a.887.887 0 01.158.015l-.012-.006a.309.309 0 01-.123-.14c-.006-.016.003 0 .003.067h2zm-2.026-1.936h-.595v2h.594v-2zm-.595 0a.788.788 0 01-.126-.008c-.016-.002.019.001.08.033a.713.713 0 01.363.615h-2a1.287 1.287 0 00.705 1.155c.33.173.695.205.978.205v-2zM1 23.772v-1H0v1h1zm85.01 0h1v-1h-1v1zm0 .45v1h1v-1h-1zm-85.01 0H0v1h1v-1zm0 .55h85.01v-2H1v2zm84.01-1v.45h2v-.45h-2zm1-.55H1v2h85.01v-2zm-84.01 1v-.45H0v.45h2z" fill="#000"/><a><path fill="none" d="M0 5.75h85.01v22.5H0z"/></a></svg>