<svg width="108" height="37" viewBox="0 0 108 37" fill="none" xmlns="http://www.w3.org/2000/svg"><path d="M3.16 19.282v1.836c0 .636-.21.954-.63.954-.432 0-.648-.294-.648-.882l.018-5.598c0-.876.486-1.314 1.458-1.314h3.096c.912 0 1.368.402 1.368 1.206v1.674c0 .852-.468 1.278-1.404 1.278h-2.25c-.672 0-1.008.282-1.008.846zm2.304-4.302H4.24c-.72 0-1.08.396-1.08 1.188v.522c0 .696.354 1.044 1.062 1.044h1.26c.72 0 1.08-.42 1.08-1.26v-.522c0-.648-.366-.972-1.098-.972zm5.728.144v5.256c0 .636.36.954 1.08.954h1.26c.696 0 1.044-.318 1.044-.954l.018-5.256c0-.624.21-.936.63-.936.42 0 .63.294.63.882v5.634c0 .864-.498 1.296-1.494 1.296h-2.97c-.984 0-1.476-.426-1.476-1.278V15.07c0-.588.216-.882.648-.882.42 0 .63.312.63.936zm13.099 4.41v1.242c0 .816-.498 1.224-1.494 1.224h-2.97c-.972 0-1.458-.426-1.458-1.278v-5.13c0-.876.486-1.314 1.458-1.314h2.97c.996 0 1.494.42 1.494 1.26v.864c-.06.36-.318.72-.774 1.08-.18.144-.27.3-.27.468 0 .156.084.312.252.468.48.444.744.816.792 1.116zm-1.656-.486l-.522-.396a2.03 2.03 0 00-.414-.234 1.039 1.039 0 00-.396-.09h-.612c-.708 0-1.062.426-1.062 1.278v.756c0 .648.36.972 1.08.972h1.422c.6 0 .9-.294.9-.882v-.792c0-.084-.042-.174-.126-.27a3.035 3.035 0 00-.27-.342zm0-2.142a1.57 1.57 0 00.27-.36.887.887 0 00.126-.486v-.396c0-.456-.3-.684-.9-.684h-1.422c-.72 0-1.08.432-1.08 1.296v.306c0 .708.342 1.062 1.026 1.062h.648c.132 0 .264-.024.396-.072.144-.048.282-.126.414-.234l.522-.432zm5.413 3.33c0 .732.342 1.098 1.026 1.098h2.574c.456 0 .684.114.684.342 0 .216-.222.324-.666.324h-3.438c-.96 0-1.44-.426-1.44-1.278v-5.634c0-.588.21-.882.63-.882.432 0 .648.312.648.936l-.018 5.094zm6.879 1.8c-.408 0-.612-.294-.612-.882l-.018-6.138c0-.564.204-.846.612-.846.42 0 .63.288.63.864l.018 6.12c0 .588-.21.882-.63.882zm7.947-1.674c0-.12.048-.222.145-.306.096-.084.258-.126.486-.126.42 0 .63.192.63.576v.306c0 .792-.456 1.188-1.368 1.188h-3.24c-.877 0-1.315-.426-1.315-1.278v-5.13c0-.876.444-1.314 1.332-1.314h3.223c.911 0 1.367.396 1.367 1.188v.27c0 .432-.21.648-.63.648-.42 0-.63-.138-.63-.414 0-.66-.366-.99-1.098-.99h-1.224c-.72 0-1.08.312-1.08.936v4.5c0 .612.355.918 1.063.918h1.278c.707 0 1.061-.324 1.061-.972zm12.033.342h-.018c-.144 0-.294.114-.45.342l-.18.27c-.192.252-.354.426-.486.522-.132.096-.228.15-.288.162h-.396a.778.778 0 01-.378-.126c-.132-.096-.252-.258-.36-.486l-.828-1.602a2.155 2.155 0 01-.252-.756 7.095 7.095 0 01-.072-1.098V15.07c0-.588.198-.882.594-.882.408 0 .612.306.612.918v3.708c0 .192.012.366.036.522.036.156.084.276.144.36l.468.828c.072.156.15.234.234.234.06 0 .156-.084.288-.252l.468-.774c.156-.3.234-.648.234-1.044V15.07c0-.588.21-.882.63-.882.408 0 .612.294.612.882v3.618c-.012.06-.018.138-.018.234 0 .312.09.582.27.81l.432.774c.072.156.156.234.252.234s.198-.072.306-.216l.432-.828c.048-.156.09-.306.126-.45.048-.144.072-.288.072-.432v-3.708c0-.612.198-.918.594-.918.408 0 .612.294.612.882v2.862c0 .432-.03.798-.09 1.098-.06.3-.144.552-.252.756l-.828 1.602c-.288.408-.54.612-.756.612h-.396c-.084.012-.186-.042-.306-.162a11.2 11.2 0 01-.432-.522l-.198-.27c-.18-.228-.324-.342-.432-.342zm9.614-5.724h-1.224c-.72 0-1.08.378-1.08 1.134v.684c0 .72.354 1.08 1.062 1.08h1.277c.709 0 1.063-.444 1.063-1.332v-.666c0-.6-.367-.9-1.099-.9zm1.097 6.048v-1.584c0-.588-.365-.882-1.097-.882h-1.224c-.72 0-1.08.294-1.08.882v1.602c0 .624-.21.936-.63.936-.42 0-.63-.282-.63-.846v-5.562c0-.864.438-1.296 1.313-1.296h3.114c.996 0 1.495.432 1.495 1.296v5.544c0 .576-.21.864-.63.864-.42 0-.63-.318-.63-.954zm3.092-6.408c0-.228.21-.342.63-.342h4.59c.432 0 .648.114.648.342 0 .24-.222.36-.666.36h-.63c-.684 0-1.026.312-1.026.936v5.256c0 .624-.21.936-.63.936-.408 0-.612-.312-.612-.936v-5.256c0-.624-.342-.936-1.026-.936h-.594c-.456 0-.684-.12-.684-.36zm10.179 6.714h2.952c.384 0 .576.114.576.342 0 .216-.186.324-.558.324h-3.906c-.972 0-1.458-.396-1.458-1.188v-5.31c0-.816.486-1.224 1.458-1.224h3.906c.372 0 .558.114.558.342 0 .24-.192.36-.576.36h-2.952c-.756 0-1.134.312-1.134.936v.774c0 .636.366.954 1.098.954h2.97c.396 0 .594.102.594.306 0 .252-.192.378-.576.378h-2.988c-.732 0-1.098.318-1.098.954v1.152c0 .6.378.9 1.134.9zm9.835-4.194c.252-.252.378-.57.378-.954v-.396c-.024-.264-.108-.462-.252-.594-.144-.144-.354-.216-.63-.216h-1.476c-.696 0-1.044.402-1.044 1.206v.486c0 .804.342 1.206 1.026 1.206h.522c.396 0 .714-.114.954-.342l.522-.396zm.99 4.932c-.408 0-.612-.258-.612-.774V20.02a.558.558 0 00-.108-.306 1.893 1.893 0 00-.288-.36l-.522-.432c-.3-.228-.57-.342-.81-.342h-.648c-.684 0-1.026.342-1.026 1.026v1.638c0 .552-.21.828-.63.828-.42 0-.63-.294-.63-.882v-5.598c0-.876.462-1.314 1.386-1.314h2.988c1.032 0 1.548.408 1.548 1.224v1.188c-.06.348-.318.714-.774 1.098-.18.144-.27.294-.27.45 0 .144.084.294.252.45.48.456.744.828.792 1.116v1.458c0 .54-.216.81-.648.81zM1 24.772h90.226v.45H1v-.45z" fill="#000"/><path d="M1.882 21.19l-1-.003v.003h1zm.018-5.598l1 .003v-.003h-1zm.26 3.69v1.836h2v-1.836h-2zm0 1.836c0 .107-.01.171-.016.202-.007.032-.007.01.024-.038a.492.492 0 01.362-.21v2c.505 0 .996-.216 1.307-.687.263-.4.323-.87.323-1.267h-2zm.37-.046c.005 0 .056 0 .13.034.079.036.145.092.19.153.04.055.047.092.044.079a.68.68 0 01-.012-.148h-2c0 .387.066.858.356 1.254.333.452.824.628 1.292.628v-2zm.352.121l.018-5.598-2-.006-.018 5.598 2 .006zm.018-5.601c0-.256.066-.272.034-.243-.012.011.068-.071.424-.071v-2c-.616 0-1.265.136-1.763.586C1.077 14.33.9 14.97.9 15.592h2zm.458-.314h3.096v-2H3.358v2zm3.096 0c.33 0 .392.076.365.052-.016-.014-.02-.028-.018-.02.005.014.021.065.021.174h2c0-.591-.173-1.207-.68-1.655-.484-.426-1.107-.551-1.688-.551v2zm.368.206v1.674h2v-1.674h-2zm0 1.674c0 .124-.017.19-.027.215-.007.02-.008.014.003.004.021-.02-.044.059-.38.059v2c.6 0 1.237-.134 1.726-.58.507-.462.678-1.092.678-1.698h-2zm-.404.278h-2.25v2h2.25v-2zm-2.25 0c-.452 0-.977.091-1.399.445-.456.383-.609.914-.609 1.401h2c0-.044.007-.037-.008-.001a.36.36 0 01-.098.133c-.043.036-.073.042-.058.038a.686.686 0 01.172-.016v-2zm1.296-3.456H4.24v2h1.224v-2zm-1.224 0c-.54 0-1.121.153-1.55.624-.412.454-.53 1.036-.53 1.564h2c0-.125.015-.197.025-.23.008-.029.01-.015-.015.012a.2.2 0 01-.057.043h-.001s.037-.013.128-.013v-2zm-2.08 2.188v.522h2v-.522h-2zm0 .522c0 .506.13 1.07.564 1.496.432.424.994.548 1.498.548v-2a.542.542 0 01-.153-.016c-.004 0 .002 0 .014.008a.239.239 0 01.08.08c.008.013.01.02.01.02a.477.477 0 01-.013-.136h-2zm2.062 2.044h1.26v-2h-1.26v2zm1.26 0c.558 0 1.146-.17 1.57-.664.398-.465.51-1.056.51-1.596h-2c0 .142-.016.23-.029.276-.013.045-.02.04 0 .018a.172.172 0 01.06-.045c.004-.002-.026.011-.111.011v2zm2.08-2.26v-.522h-2v.522h2zm0-.522c0-.512-.15-1.07-.612-1.478-.438-.388-.994-.494-1.486-.494v2c.112 0 .173.013.197.02.021.006-.001.003-.036-.028a.274.274 0 01-.067-.093c-.006-.015.004.003.004.073h2zm7.014 4.428l-1-.003v.003h1zm.018-5.256l1 .003v-.003h-1zm-4.402 0v5.256h2v-5.256h-2zm0 5.256c0 .507.149 1.06.608 1.465.435.384.986.489 1.472.489v-2a.718.718 0 01-.19-.019c-.019-.005.005-.002.042.031a.288.288 0 01.07.098c.007.018-.002.003-.002-.064h-2zm2.08 1.954h1.26v-2h-1.26v2zm1.26 0c.48 0 1.028-.108 1.457-.5.447-.408.587-.957.587-1.454h-2c0 .07-.01.089-.005.075a.296.296 0 01.116-.132l.01-.005a.89.89 0 01-.165.016v2zm2.044-1.95l.018-5.257-2-.006-.018 5.256 2 .006zm.018-5.26c0-.103.009-.163.015-.19.006-.028.005-.003-.028.046a.495.495 0 01-.19.163.398.398 0 01-.167.045v-2c-.498 0-.988.208-1.302.676-.268.397-.328.867-.328 1.26h2zm-.37.064a.37.37 0 01-.148-.039.502.502 0 01-.194-.16c-.039-.054-.044-.089-.04-.073a.728.728 0 01.012.154h2c0-.383-.063-.85-.344-1.243-.325-.455-.814-.639-1.286-.639v2zm-.37-.118v5.634h2V15.07h-2zm0 5.634a.604.604 0 01-.027.208c-.007.018-.008.014-.002.009.006-.006-.09.079-.465.079v2c.62 0 1.271-.131 1.775-.569.532-.46.719-1.1.719-1.727h-2zM14.36 21h-2.97v2h2.97v-2zm-2.97 0c-.37 0-.462-.083-.453-.076.008.007.008.013.002-.002a.586.586 0 01-.025-.2h-2c0 .62.186 1.257.714 1.714.501.434 1.148.564 1.762.564v-2zm-.476-.278V15.07h-2v5.652h2zm0-5.652a.68.68 0 01.011-.148c.004-.013-.003.023-.043.079a.492.492 0 01-.19.153.341.341 0 01-.13.034v-2c-.468 0-.96.176-1.292.628-.29.395-.356.867-.356 1.254h2zm-.352.118a.398.398 0 01-.168-.045.495.495 0 01-.19-.163c-.033-.049-.034-.074-.027-.047a.915.915 0 01.015.191h2c0-.393-.06-.863-.328-1.26-.315-.468-.805-.676-1.302-.676v2zm13.729 4.346h1v-.08l-.013-.078-.987.158zm0-3.132l.986.164.014-.081v-.083h-1zm-.774 1.08l-.62-.785-.005.004.625.781zm-.018.936l-.68.733v.001l.68-.734zm-.864.63l.743-.669-.063-.07-.076-.058-.604.797zm-.522-.396l.604-.797-.008-.006-.008-.006-.588.809zm-.414-.234l.384-.923-.384.923zm1.206.972l-.832.555.036.054.043.05.753-.659zm-.27-2.484l.637.77.037-.03.033-.033-.707-.707zm.27-.36l-.844-.537-.018.029-.016.03.878.478zm-1.206 1.026l-.316-.949-.013.005-.013.004.342.94zm.414-.234l.633.774.004-.004-.637-.77zm1.178 2.196v1.242h2v-1.242h-2zm0 1.242c0 .104-.016.15-.02.159 0 .002.005-.008.013-.014.004-.004-.1.079-.487.079v2c.609 0 1.252-.12 1.754-.532.54-.444.74-1.071.74-1.692h-2zm-.494.224h-2.97v2h2.97v-2zm-2.97 0c-.362 0-.447-.082-.435-.072.009.008.009.014.003-.002a.6.6 0 01-.026-.204h-2c0 .617.182 1.252.705 1.71.498.437 1.143.568 1.753.568v-2zm-.458-.278v-5.13h-2v5.13h2zm0-5.13c0-.256.066-.272.034-.243-.012.011.068-.071.424-.071v-2c-.616 0-1.265.136-1.763.586-.518.467-.695 1.107-.695 1.728h2zm.458-.314h2.97v-2h-2.97v2zm2.97 0c.381 0 .481.084.476.08-.007-.007-.01-.014-.006-.004.007.016.024.07.024.184h2c0-.623-.193-1.257-.729-1.71-.503-.424-1.15-.55-1.765-.55v2zm.494.26v.864h2v-.864h-2zm.014.7c-.001.005-.037.166-.408.46l1.24 1.569c.54-.427 1.021-.986 1.14-1.7l-1.973-.33zm-.413.463c-.323.259-.645.675-.645 1.249h2c0 .104-.03.194-.066.257-.032.055-.058.07-.04.056L22.893 16.7zm-.645 1.249c0 .543.296.945.571 1.2l1.361-1.465c-.026-.024-.011-.017.011.025a.514.514 0 01.057.24h-2zm.573 1.202c.209.194.342.345.421.457.084.118.072.141.062.083l1.975-.316c-.057-.358-.226-.671-.406-.925a5.074 5.074 0 00-.694-.767l-1.358 1.468zm.42-.9l-.523-.397-1.208 1.594.521.396 1.21-1.594zm-.539-.409a3.031 3.031 0 00-.617-.348l-.77 1.846c.069.029.139.067.21.12l1.177-1.618zm-.617-.348a2.033 2.033 0 00-.781-.167v2c-.024 0-.035-.003-.033-.002.003 0 .017.004.044.015l.77-1.846zm-.781-.167h-.612v2h.612v-2zm-.612 0c-.562 0-1.148.178-1.566.68-.388.467-.496 1.058-.496 1.598h2c0-.147.015-.24.03-.292.014-.05.023-.05.005-.027a.182.182 0 01-.066.049c-.01.004.014-.008.093-.008v-2zm-2.062 2.278v.756h2v-.756h-2zm0 .756c0 .507.145 1.063.6 1.472.436.392.99.5 1.48.5v-2a.685.685 0 01-.185-.019c-.017-.005.007 0 .044.033a.278.278 0 01.066.092c.005.013-.005-.006-.005-.078h-2zm2.08 1.972h1.422v-2h-1.422v2zm1.422 0c.449 0 .97-.11 1.375-.506.408-.4.525-.923.525-1.376h-2c0 .065-.009.08-.003.064a.316.316 0 01.078-.117.3.3 0 01.108-.07c.01-.004-.012.005-.083.005v2zm1.9-1.882v-.792h-2v.792h2zm0-.792c0-.425-.21-.741-.373-.928l-1.506 1.317a.419.419 0 01-.059-.097.695.695 0 01-.062-.292h2zm-.294-.825a4.037 4.037 0 00-.359-.456l-1.486 1.338c.083.092.141.168.18.228l1.665-1.11zm-.395-1.222c.174-.174.322-.371.44-.588l-1.755-.958a.571.571 0 01-.1.132l1.415 1.414zm.407-.53c.207-.326.282-.684.282-1.023h-2c0 .024-.003.027 0 .015a.24.24 0 01.03-.066l1.688 1.074zm.282-1.023v-.396h-2v.396h2zm0-.396c0-.467-.168-.966-.62-1.31-.4-.303-.882-.374-1.28-.374v2c.09 0 .135.009.148.012.012.003-.024-.004-.078-.045a.467.467 0 01-.142-.18c-.029-.066-.028-.109-.028-.103h2zm-1.9-1.684h-1.422v2h1.422v-2zm-1.422 0c-.567 0-1.157.179-1.578.684-.392.47-.502 1.066-.502 1.612h2c0-.15.016-.245.03-.3.015-.051.025-.052.008-.032a.17.17 0 01-.06.045c-.007.003.02-.009.102-.009v-2zm-2.08 2.296v.306h2v-.306h-2zm0 .306c0 .5.12 1.06.537 1.491.423.438.984.571 1.489.571v-2a.661.661 0 01-.094-.006c-.02-.003-.03-.006-.029-.006a.252.252 0 01.106.095c.007.012.008.018.007.013a.562.562 0 01-.016-.158h-2zm2.026 2.062h.648v-2h-.648v2zm.648 0c.256 0 .503-.047.738-.132l-.684-1.88a.158.158 0 01-.054.012v2zm.712-.123c.273-.091.517-.233.731-.409l-1.266-1.548a.316.316 0 01-.097.06l.632 1.897zm.735-.413l.522-.432-1.275-1.54-.522.432 1.275 1.54zm5.298 2.128l-1-.003v.003h1zm.018-5.094l1 .004v-.004h-1zm-1.018 5.094c0 .504.117 1.068.526 1.506.421.451.986.592 1.5.592v-2c-.085 0-.116-.012-.113-.01.003 0 .013.004.028.014.015.01.032.023.046.039.032.033.037.057.032.042a.656.656 0 01-.019-.183h-2zm2.026 2.098h2.574v-2h-2.574v2zm2.574 0c.075 0 .118.005.135.008.02.003-.011 0-.07-.028a.738.738 0 01-.382-.638h2.001c0-.232-.06-.48-.21-.704a1.32 1.32 0 00-.514-.447c-.323-.161-.68-.191-.96-.191v2zm-.316-.658c0-.127.036-.281.133-.423a.692.692 0 01.263-.233c.058-.028.089-.03.07-.027a.87.87 0 01-.132.007v2c.271 0 .62-.028.937-.182a1.31 1.31 0 00.512-.435c.154-.223.217-.472.217-.707h-2zm.334-.676h-3.438v2h3.438v-2zm-3.438 0c-.353 0-.431-.081-.416-.067.01.008.009.014.002-.003a.62.62 0 01-.026-.208h-2c0 .613.178 1.247.696 1.706.496.44 1.137.572 1.744.572v-2zm-.44-.278v-5.634h-2v5.634h2zm0-5.634a.72.72 0 01.012-.154c.004-.016-.002.019-.04.074a.502.502 0 01-.195.16.37.37 0 01-.147.038v-2c-.473 0-.961.184-1.286.64-.281.392-.344.86-.344 1.242h2zm-.37.118a.368.368 0 01-.15-.04.485.485 0 01-.186-.157c-.035-.05-.037-.077-.03-.052a.871.871 0 01.014.185h2c0-.396-.063-.871-.34-1.271-.323-.467-.816-.665-1.308-.665v2zm-.352-.067l-.018 5.094 2 .006.018-5.094-2-.006zm7.249 6.015h1v-.003l-1 .003zm-.018-6.138h-1v.003l1-.003zm1.242.018h-1v.003l1-.003zm.018 6.12h1v-.003l-1 .003zm-.63-.118a.4.4 0 01.165.043.513.513 0 01.198.166c.037.055.042.088.038.07a.765.765 0 01-.013-.161h-2c0 .379.06.84.332 1.232.317.457.802.65 1.28.65v-2zm.388.115l-.018-6.138-2 .006.018 6.138 2-.006zm-.018-6.135c0-.084.008-.125.01-.136.003-.01-.005.03-.047.088a.518.518 0 01-.2.163.381.381 0 01-.151.039v-2c-.462 0-.945.177-1.27.625-.28.388-.342.848-.342 1.221h2zm-.388.154a.362.362 0 01-.14-.037.506.506 0 01-.195-.158c-.042-.056-.049-.094-.046-.083a.668.668 0 01.011.142h2c0-.38-.064-.846-.35-1.237-.328-.45-.815-.627-1.28-.627v2zm-.37-.133l.018 6.12 2-.006-.018-6.12-2 .006zm.018 6.117c0 .09-.008.138-.012.154-.004.016.002-.019.04-.074a.502.502 0 01.195-.16.37.37 0 01.147-.038v2c.473 0 .961-.184 1.286-.64.281-.392.344-.86.344-1.242h-2zm9.317-.792a.614.614 0 01-.197.447l-1.317-1.506c-.297.26-.486.63-.486 1.059h2zm-.197.447a.548.548 0 01-.214.12c-.025.007-.016.001.041.001v-2c-.298 0-.768.045-1.144.373l1.317 1.506zm-.172.121c.076 0-.053.02-.203-.118-.167-.153-.167-.32-.167-.306h2c0-.37-.106-.825-.483-1.17-.36-.33-.805-.406-1.148-.406v2zm-.37-.424v.306h2v-.306h-2zm0 .306a.486.486 0 01-.02.161c-.001.004.005-.01.022-.025.027-.024-.037.052-.37.052v2c.578 0 1.198-.122 1.681-.542.51-.443.687-1.056.687-1.646h-2zm-.368.188h-3.24v2h3.24v-2zm-3.24 0c-.291 0-.324-.07-.289-.036.04.04-.026.023-.026-.242h-2c0 .587.153 1.21.632 1.675.473.46 1.097.603 1.682.603v-2zm-.315-.278v-5.13h-2v5.13h2zm0-5.13c0-.28.07-.308.036-.274-.032.032.003-.04.297-.04v-2c-.595 0-1.226.147-1.702.617-.478.472-.63 1.101-.63 1.697h2zm.332-.314h3.223v-2h-3.223v2zm3.223 0c.333 0 .397.075.37.052-.017-.014-.023-.03-.022-.025.004.01.02.057.02.161h2c0-.59-.177-1.203-.687-1.646-.483-.42-1.103-.542-1.681-.542v2zm.367.188v.27h2v-.27h-2zm0 .27c0 .069-.017-.065.126-.211.148-.152.293-.141.245-.141v2c.37 0 .831-.097 1.189-.465.352-.362.44-.82.44-1.183h-2zm.37-.352c-.053 0-.07-.005-.061-.003a.433.433 0 01.138.064.666.666 0 01.293.525h-2c0 .435.191.872.609 1.146.344.227.734.268 1.022.268v-2zm.37.586c0-.512-.146-1.072-.604-1.485-.439-.395-.998-.505-1.494-.505v2c.111 0 .17.013.193.02.019.005-.004.002-.039-.03a.269.269 0 01-.062-.086c-.004-.011.006.01.006.086h2zm-2.098-1.99h-1.224v2h1.224v-2zm-1.224 0c-.481 0-1.03.101-1.465.478-.462.401-.615.952-.615 1.458h2c0-.062.01-.072.001-.05a.294.294 0 01-.076.104c-.037.032-.06.035-.04.03a.747.747 0 01.196-.02v-2zm-2.08 1.936v4.5h2v-4.5h-2zm0 4.5c0 .501.152 1.048.612 1.445.432.373.975.473 1.45.473v-2a.724.724 0 01-.187-.018c-.019-.006.006-.002.045.032a.31.31 0 01.08.11c.01.024 0 .017 0-.042h-2zm2.063 1.918h1.278v-2h-1.279v2zm1.278 0c.487 0 1.039-.11 1.471-.505.45-.411.59-.965.59-1.467h-2c0 .074-.01.095-.006.083a.28.28 0 01.11-.124c.01-.006.014-.006.007-.004a.934.934 0 01-.173.017v2zm12.626-1.288l-.826-.565-.006.01.832.555zm-.18.27l.795.606.02-.025.017-.026-.832-.555zm-.486.522l-.588-.809.588.809zm-.288.162v1h.099l.097-.02-.196-.98zm-.774-.126l-.588.809.04.03.044.025.504-.864zm-.36-.486l.904-.428-.008-.016-.008-.015-.888.459zm-.828-1.602l.888-.46-.012-.023-.014-.024-.862.507zm.918-.45l-.989.152.006.037.008.036.975-.225zm.144.36l.87-.492-.026-.046-.03-.043-.814.581zm.468.828l.908-.42-.017-.036-.02-.036-.871.492zm.522-.018l.786.618.038-.048.032-.053-.856-.517zm.468-.774l.855.517.017-.027.015-.029-.887-.461zm1.476-1.044l.98.196.02-.097v-.099h-1zm.252 1.044l.873-.487-.039-.07-.05-.063-.784.62zm.432.774l.908-.42-.016-.034-.019-.033-.873.487zm.558.018l.8.6.049-.065.037-.072-.886-.463zm.432-.828l.886.463.043-.081.026-.088-.955-.294zm.126-.45l-.949-.316-.012.036-.01.037.97.243zm.936.54l-.884-.468-.005.009.889.459zm-.828 1.602l.817.577.04-.057.031-.06-.888-.46zM56.275 22v-1h-.071l-.07.01.14.99zm-.306-.162l-.744.669.018.02.019.018.707-.707zm-.432-.522l-.807.591.01.015.012.014.785-.62zm-.198-.27l.806-.591-.01-.015-.011-.014-.785.62zm-.432-1.342h-.018v2h.018v-2zm-.018 0c-.683 0-1.094.512-1.276.777l1.651 1.13c.043-.063.05-.056.01-.025a.643.643 0 01-.385.118v-2zm-1.282.787l-.18.27 1.664 1.11.18-.27-1.664-1.11zm-.144.219c-.082.108-.149.188-.202.244-.055.06-.08.078-.076.075l1.176 1.618c.253-.185.487-.454.693-.725l-1.59-1.212zm-.278.32a1.44 1.44 0 01-.074.049l.01-.005a.467.467 0 01.078-.031.794.794 0 01.09-.024l.392 1.962c.184-.037.332-.115.411-.159.094-.053.185-.114.269-.175l-1.176-1.618zm.3-.03h-.396v2h.396v-2zm-.396 0c.075 0 .124.014.14.02.017.005.013.006-.014-.01l-1.008 1.728c.22.129.526.262.882.262v-2zm.21.065c.033.024.04.038.026.02a.788.788 0 01-.07-.125l-1.808.856c.144.304.354.633.676.867l1.176-1.618zm-.06-.136l-.828-1.602-1.777.918.828 1.602 1.777-.918zm-.854-1.65a1.18 1.18 0 01-.127-.407l-1.975.316c.063.39.18.768.378 1.105l1.724-1.014zm-.127-.407a6.122 6.122 0 01-.06-.94h-2c0 .465.026.887.085 1.256l1.975-.316zm-.06-.94V15.07h-2v2.862h2zm0-2.862a.82.82 0 01.014-.167c.004-.02 0 .01-.035.064a.525.525 0 01-.2.172.432.432 0 01-.184.049v-2c-.485 0-.966.203-1.275.662-.262.388-.32.845-.32 1.22h2zm-.405.118a.508.508 0 01-.373-.216c-.034-.05-.035-.077-.03-.05a.898.898 0 01.015.184h2c0-.386-.059-.85-.321-1.243-.31-.465-.796-.675-1.291-.675v2zm-.388-.082v3.708h2v-3.708h-2zm0 3.708c0 .232.014.458.047.674l1.977-.304a2.464 2.464 0 01-.024-.37h-2zm.061.747a2 2 0 00.305.716l1.627-1.162c.014.019.023.034.028.043l.006.014-.005-.017a.65.65 0 01-.012-.044l-1.949.45zm.248.627l.468.828 1.741-.984-.468-.828-1.74.984zm.43.755c.062.132.159.308.314.464.166.165.446.351.829.351v-2c.298 0 .498.147.585.234.078.078.1.137.089.113l-1.816.838zm1.143.815c.24 0 .425-.08.526-.135.107-.058.191-.125.25-.175.115-.101.216-.22.298-.324l-1.573-1.236c-.05.063-.062.071-.043.054a.644.644 0 01.12-.08.891.891 0 01.422-.104v2zm1.144-.735l.468-.774-1.712-1.034-.468.774 1.712 1.034zm.499-.83c.242-.465.347-.976.347-1.505h-2c0 .263-.051.448-.121.583l1.774.922zm.347-1.505V15.07h-2v3.618h2zm0-3.618c0-.09.008-.138.012-.154.004-.016-.002.019-.041.074a.502.502 0 01-.194.16.37.37 0 01-.147.038v-2c-.473 0-.961.184-1.286.64-.281.392-.344.86-.344 1.242h2zm-.37.118a.4.4 0 01-.165-.043.514.514 0 01-.198-.166c-.037-.055-.042-.088-.038-.07a.765.765 0 01.013.161h2c0-.379-.06-.84-.332-1.232-.317-.457-.802-.65-1.28-.65v2zm-.388-.118v3.618h2V15.07h-2zm.02 3.422c-.03.15-.038.3-.038.43h2l.001-.054v-.002a.294.294 0 01-.003.018l-1.96-.392zm-.038.43c0 .52.155 1.012.485 1.43l1.57-1.24c-.03-.038-.055-.085-.055-.19h-2zm.397 1.297l.432.774 1.746-.974-.432-.774-1.746.974zm.397.706c.1.218.431.815 1.16.815v-2c.252 0 .44.111.545.209.09.082.117.151.11.138l-1.815.838zm1.16.815c.6 0 .964-.427 1.106-.616l-1.6-1.2c-.017.022.003-.01.066-.055a.747.747 0 01.428-.129v2zm1.192-.753l.432-.828-1.773-.926-.432.828 1.773.926zm.502-.997c.052-.171.1-.339.14-.502l-1.94-.485a7.63 7.63 0 01-.112.399l1.911.588zm.118-.428c.08-.24.124-.49.124-.748h-2c0 .03-.005.068-.02.116l1.896.632zm.124-.748v-3.708h-2v3.708h2zm0-3.708c0-.102.008-.162.014-.19.007-.03.006-.005-.026.045a.517.517 0 01-.394.227v-2c-.502 0-.984.22-1.285.686-.253.391-.31.85-.31 1.232h2zm-.406.082a.4.4 0 01-.166-.043.514.514 0 01-.197-.166c-.038-.055-.042-.088-.038-.07a.765.765 0 01.013.161h2c0-.379-.06-.84-.332-1.232-.317-.457-.802-.65-1.28-.65v2zm-.388-.118v2.862h2V15.07h-2zm0 2.862c0 .39-.028.687-.07.902l1.96.392c.077-.385.11-.82.11-1.294h-2zm-.07.902a1.816 1.816 0 01-.156.484l1.768.936c.165-.312.275-.662.348-1.028l-1.96-.392zm-.16.493l-.829 1.602 1.777.918.828-1.602-1.777-.918zm-.757 1.484a2.167 2.167 0 01-.142.183.69.69 0 01-.075.076c-.011.009.004-.006.047-.025a.583.583 0 01.23-.045v2c.428 0 .762-.199.981-.376.225-.182.421-.416.593-.66l-1.634-1.153zm.06.189h-.395v2h.396v-2zm-.537.01c.231-.033.4.038.47.075.068.036.092.065.073.046l-1.414 1.414c.1.1.235.217.405.307.172.091.434.183.75.138l-.284-1.98zm.58.159c-.087-.096-.216-.25-.391-.473l-1.57 1.24c.184.233.344.427.473.571l1.487-1.338zm-.37-.444l-.198-.27-1.613 1.182.198.27 1.613-1.182zm-.22-.299a2.545 2.545 0 00-.406-.42 1.31 1.31 0 00-.81-.302v2a.79.79 0 01-.325-.067.518.518 0 01-.107-.064c-.014-.01.013.009.079.093l1.57-1.24zm8.398-6.446h-1.224v2h1.224v-2zm-1.224 0c-.527 0-1.103.14-1.535.594-.422.444-.545 1.02-.545 1.54h2c0-.113.013-.172.02-.194.006-.017.002.003-.026.033a.178.178 0 01-.057.042.48.48 0 01.142-.015v-2zm-2.08 2.134v.684h2v-.684h-2zm0 .684c0 .51.125 1.077.552 1.511.43.438.997.569 1.51.569v-2a.493.493 0 01-.144-.015c-.002 0 .005.002.017.01a.226.226 0 01.075.075l.006.011a.56.56 0 01-.016-.161h-2zm2.062 2.08h1.277v-2H63.28v2zm1.277 0c.576 0 1.166-.192 1.579-.71.378-.474.483-1.072.483-1.622h-2c0 .159-.016.263-.032.326-.016.06-.029.067-.015.05a.178.178 0 01.064-.05c.014-.006-.004.006-.079.006v2zm2.063-2.332v-.666h-2v.666h2zm0-.666c0-.512-.166-1.06-.641-1.448-.437-.358-.98-.452-1.457-.452v2c.117 0 .185.012.216.02.029.009.01.009-.027-.022a.315.315 0 01-.086-.115c-.013-.032-.005-.033-.005.017h2zm0 5.148v-1.584h-2v1.584h2zm0-1.584c0-.513-.171-1.057-.649-1.441-.436-.35-.976-.441-1.45-.441v2c.12 0 .19.012.222.021.03.008.013.009-.024-.02a.32.32 0 01-.092-.122c-.015-.035-.008-.042-.008.003h2zm-2.099-1.882h-1.223v2h1.224v-2zm-1.223 0c-.471 0-1.01.092-1.443.446-.472.386-.637.928-.637 1.436h2c0-.047.007-.042-.007-.008a.296.296 0 01-.091.121c-.038.031-.06.032-.032.025a.842.842 0 01.21-.02v-2zm-2.08 1.882v1.602h2v-1.602h-2zm0 1.602a.915.915 0 01-.016.19c-.006.028-.005.003.028-.046a.495.495 0 01.19-.163.398.398 0 01.168-.045v2c.497 0 .987-.208 1.301-.676.268-.397.329-.867.329-1.26h-2zm.37-.064a.35.35 0 01.132.034c.08.036.15.093.197.157.043.058.052.1.05.092a.597.597 0 01-.01-.129h-2c0 .377.066.842.356 1.232.332.445.818.614 1.275.614v-2zm.37.154v-5.562h-2v5.562h2zm0-5.562c0-.274.068-.297.03-.26-.035.035-.004-.036.283-.036v-2c-.588 0-1.214.145-1.687.612-.476.47-.627 1.094-.627 1.684h2zm.313-.296h3.114v-2H62.27v2zm3.114 0c.376 0 .472.085.466.08-.006-.006-.005-.01.002.008a.604.604 0 01.026.208h2c0-.626-.187-1.267-.718-1.727-.504-.438-1.156-.569-1.775-.569v2zm.495.296v5.544h2v-5.544h-2zm0 5.544c0 .087-.009.13-.012.142-.002.011.005-.027.046-.083a.506.506 0 01.195-.159.362.362 0 01.14-.036v2c.465 0 .953-.177 1.281-.627.285-.391.35-.857.35-1.237h-2zm.37-.136a.491.491 0 01.362.21c.03.048.03.07.023.038a.989.989 0 01-.016-.202h-2c0 .396.06.868.324 1.267.31.471.801.687 1.307.687v-2zm3.46-6.362a.72.72 0 01-.365.622c-.066.036-.11.043-.102.041a.631.631 0 01.098-.005v-2c-.268 0-.626.03-.95.207a1.279 1.279 0 00-.68 1.135h2zm-.37.658h4.59v-2h-4.59v2zm4.59 0c.067 0 .102.005.11.006.013.002-.026-.003-.09-.036a.727.727 0 01-.371-.628h2a1.274 1.274 0 00-.696-1.14c-.323-.172-.681-.202-.952-.202v2zm-.351-.658a.707.707 0 01.358-.61c.063-.034.102-.039.09-.037a.706.706 0 01-.114.007v2c.28 0 .645-.032.975-.21a1.293 1.293 0 00.691-1.15h-2zm.334-.64h-.63v2h.63v-2zm-.63 0c-.475 0-1.017.106-1.444.495-.444.405-.582.95-.582 1.441h2c0-.067.01-.083.003-.066a.31.31 0 01-.123.14l-.012.005a.89.89 0 01.158-.015v-2zm-2.026 1.936v5.256h2v-5.256h-2zm0 5.256a.926.926 0 01-.015.19c-.007.028-.005.003.028-.046a.494.494 0 01.357-.208v2c.497 0 .987-.208 1.302-.676.267-.397.328-.867.328-1.26h-2zm.37-.064a.505.505 0 01.378.219c.031.048.032.072.025.041a.972.972 0 01-.015-.196h-2c0 .39.058.854.316 1.25a1.51 1.51 0 001.296.686v-2zm.388.064v-5.256h-2v5.256h2zm0-5.256c0-.491-.14-1.036-.583-1.44-.426-.39-.969-.496-1.443-.496v2a.888.888 0 01.158.015l-.013-.006a.305.305 0 01-.123-.14c-.006-.016.004 0 .004.067h2zm-2.026-1.936h-.594v2h.594v-2zm-.594 0a.788.788 0 01-.127-.008c-.016-.002.019.001.08.033a.714.714 0 01.363.615h-2a1.287 1.287 0 00.705 1.155c.33.173.695.205.979.205v-2zm9.495 8.354h2.952v-2h-2.952v2zm2.952 0c.05 0 .066.004.058.002a.45.45 0 01-.137-.057.712.712 0 01-.253-.263.702.702 0 01-.092-.34h2c0-.458-.226-.875-.633-1.116-.326-.194-.685-.226-.943-.226v2zm-.424-.658c0-.093.021-.223.098-.356a.725.725 0 01.26-.266c.134-.077.206-.054.084-.054v2c.25 0 .6-.03.92-.216.403-.234.638-.645.638-1.108h-2zm.442-.676h-3.906v2h3.906v-2zm-3.906 0c-.376 0-.472-.08-.462-.072a.084.084 0 01.014.015c.005.007.007.012.007.01a.412.412 0 01-.017-.141h-2c0 .61.197 1.23.733 1.666.496.405 1.129.522 1.725.522v-2zm-.458-.188v-5.31h-2v5.31h2zm0-5.31c0-.107.016-.155.02-.167.002-.005-.002.006-.013.015-.01.01.08-.072.45-.072v-2c-.6 0-1.238.123-1.736.54-.53.446-.721 1.072-.721 1.684h2zm.458-.224h3.906v-2h-3.906v2zm3.906 0c.116 0 .035.024-.104-.062a.716.716 0 01-.338-.596h2c0-.443-.211-.86-.617-1.11-.326-.199-.685-.232-.941-.232v2zm-.442-.658a.703.703 0 01.326-.578c.139-.087.218-.062.098-.062v2c.264 0 .631-.035.962-.242.409-.256.614-.678.614-1.118h-2zm.424-.64h-2.952v2h2.952v-2zm-2.952 0c-.49 0-1.044.097-1.487.463-.48.396-.647.95-.647 1.473h2c0-.057.009-.062-.002-.035a.283.283 0 01-.078.104c-.034.028-.05.027-.017.018a.91.91 0 01.23-.023v-2zm-2.134 1.936v.774h2v-.774h-2zm0 .774c0 .512.154 1.066.619 1.47.438.38.99.484 1.479.484v-2a.764.764 0 01-.202-.02c-.023-.007-.001-.005.034.027a.284.284 0 01.072.098c.008.02-.002.006-.002-.059h-2zm2.098 1.954h2.97v-2h-2.97v2zm2.97 0a.62.62 0 01.09.005c.007 0-.036-.005-.102-.04a.76.76 0 01-.394-.66h2a1.24 1.24 0 00-.69-1.118c-.312-.16-.653-.187-.904-.187v2zm-.406-.694a.694.694 0 01.307-.552c.144-.095.231-.07.117-.07v2c.27 0 .645-.038.98-.258.41-.269.596-.696.596-1.12h-2zm.424-.622h-2.988v2h2.988v-2zm-2.988 0c-.488 0-1.041.103-1.48.484-.464.404-.618.958-.618 1.47h2c0-.065.01-.078.002-.06a.284.284 0 01-.072.099c-.035.032-.057.034-.034.027a.764.764 0 01.202-.02v-2zm-2.098 1.954v1.152h2v-1.152h-2zm0 1.152c0 .523.176 1.073.662 1.458.441.35.989.442 1.472.442v-2a.982.982 0 01-.24-.023c-.037-.01-.023-.012.011.015a.297.297 0 01.088.114c.014.035.007.04.007-.006h-2zm11.969-3.294l.604.797.054-.042.049-.048-.707-.707zm.378-1.35h1v-.045l-.005-.045-.995.09zm-.252-.594l-.707.707.015.015.016.015.676-.737zm-.648 2.34l-.605-.797-.044.034-.04.038.689.725zm.792 2.178l-.858.515.012.02.014.02.832-.555zm-.288-.36l.707-.707-.034-.033-.036-.03-.637.77zm-.522-.432l.637-.77-.016-.014-.016-.012-.605.796zm2.178-2.232l.985.17.015-.084v-.086h-1zm-.774 1.098l.624.78.01-.007.01-.008-.644-.765zm-.018.9l.688-.725-.008-.008-.68.733zm.792 1.116h1v-.083l-.014-.081-.986.164zm-.931-1.957c.455-.455.67-1.035.67-1.661h-2c0 .142-.036.198-.085.247l1.415 1.414zm.67-1.661v-.396h-2v.396h2zm-.004-.486c-.038-.423-.187-.889-.572-1.241l-1.351 1.474a.342.342 0 01-.074-.099c-.007-.016.001-.005.006.046l1.992-.18zm-.54-1.211c-.39-.39-.893-.509-1.337-.509v2c.053 0 .061.007.04 0a.35.35 0 01-.117-.077l1.414-1.414zm-1.337-.509h-1.476v2h1.476v-2zm-1.476 0c-.543 0-1.12.163-1.54.647-.394.456-.504 1.035-.504 1.559h2c0-.132.014-.21.026-.25.01-.037.014-.027-.01 0a.198.198 0 01-.07.053c-.008.003.017-.009.098-.009v-2zM84.7 16.186v.486h2v-.486h-2zm0 .486c0 .52.107 1.097.494 1.552.414.487.99.654 1.532.654v-2c-.076 0-.097-.011-.085-.006a.21.21 0 01.077.056c.023.028.019.037.008-.001a.975.975 0 01-.026-.255h-2zm2.026 2.206h.522v-2h-.522v2zm.522 0c.598 0 1.181-.179 1.642-.617l-1.377-1.45c-.019.018-.072.067-.265.067v2zm1.558-.545l.522-.396-1.209-1.594-.522.396 1.209 1.594zm.908 2.739c.001 0 .05 0 .12.03.078.033.15.087.205.156.05.064.066.116.068.124.002.006-.005-.018-.005-.084h-2c0 .363.067.82.368 1.2.337.427.815.574 1.244.574v-2zm.388.226V20.02h-2v1.278h2zm0-1.278c0-.352-.133-.645-.276-.86l-1.664 1.109a.302.302 0 01-.03-.065.557.557 0 01-.03-.184h2zm-.25-.82a2.89 2.89 0 00-.44-.553L88 20.06c.073.074.115.13.137.168l1.715-1.03zm-.509-.616l-.522-.432-1.275 1.54.522.432 1.275-1.54zm-.554-.458c-.382-.29-.864-.546-1.415-.546v2c-.04 0-.045-.01-.007.007.04.017.11.054.212.131l1.21-1.592zm-1.415-.546h-.648v2h.648v-2zm-.648 0c-.497 0-1.052.125-1.477.55-.425.424-.55.98-.55 1.476h2a.71.71 0 01.013-.133s-.002.008-.01.022a.255.255 0 01-.087.087c-.014.008-.023.011-.022.01l.033-.006a.709.709 0 01.1-.006v-2zM84.7 19.606v1.638h2v-1.638h-2zm0 1.638a.549.549 0 01-.01.116c0 .003.01-.04.056-.1.05-.066.12-.121.198-.156a.34.34 0 01.126-.032v2c.448 0 .933-.162 1.268-.601.295-.389.362-.853.362-1.227h-2zm.37-.172a.37.37 0 01.147.039c.083.039.15.098.194.16.039.054.044.089.04.073a.731.731 0 01-.011-.154h-2c0 .383.063.85.343 1.243.326.455.814.639 1.287.639v-2zm.37.118v-5.598h-2v5.598h2zm0-5.598c0-.27.068-.292.034-.26-.024.023.03-.054.352-.054v-2c-.604 0-1.242.142-1.728.603-.496.47-.658 1.105-.658 1.711h2zm.386-.314h2.988v-2h-2.988v2zm2.988 0c.41 0 .535.086.54.09l-.007-.007-.004-.006a.409.409 0 01.019.147h2c0-.633-.212-1.264-.767-1.702-.51-.404-1.16-.522-1.781-.522v2zm.548.224v1.188h2v-1.188h-2zm.014 1.018c.001-.006-.005.036-.07.13a2.09 2.09 0 01-.363.373l1.289 1.53c.522-.44.995-1 1.115-1.693l-1.97-.34zm-.413.487c-.3.24-.645.648-.645 1.231h2a.562.562 0 01-.075.285c-.033.054-.056.066-.03.046l-1.25-1.562zm-.645 1.231c0 .55.317.947.571 1.183l1.361-1.466c-.031-.029-.02-.026.003.015a.556.556 0 01.065.268h-2zm.563 1.175c.212.201.35.36.431.475.089.125.074.146.063.08l1.973-.328c-.059-.354-.23-.663-.405-.91a5.399 5.399 0 00-.685-.767l-1.377 1.45zm.48.391v1.458h2v-1.458h-2zm0 1.458c0 .072-.007.1-.006.097a.34.34 0 01.064-.114.498.498 0 01.193-.147c.066-.027.107-.026.102-.026v2c.436 0 .922-.148 1.266-.578.31-.387.382-.855.382-1.232h-2zM1 24.772v-1H0v1h1zm90.226 0h1v-1h-1v1zm0 .45v1h1v-1h-1zM1 25.222H0v1h1v-1zm0 .55h90.226v-2H1v2zm89.226-1v.45h2v-.45h-2zm1-.55H1v2h90.226v-2zM2 25.222v-.45H0v.45h2z" fill="#000"/><a><path fill="none" d="M0 7.25h90.226v22.5H0z"/></a></svg>