<svg width="97" height="31" viewBox="0 0 97 31" fill="none" xmlns="http://www.w3.org/2000/svg"><path d="M6.202 14.14c.252-.252.378-.57.378-.954v-.396c-.024-.264-.108-.462-.252-.594-.144-.144-.354-.216-.63-.216H4.222c-.696 0-1.044.402-1.044 1.206v.486c0 .804.342 1.206 1.026 1.206h.522c.396 0 .714-.114.954-.342l.522-.396zm.99 4.932c-.408 0-.612-.258-.612-.774V17.02a.558.558 0 00-.108-.306 1.893 1.893 0 00-.288-.36l-.522-.432c-.3-.228-.57-.342-.81-.342h-.648c-.684 0-1.026.342-1.026 1.026v1.638c0 .552-.21.828-.63.828-.42 0-.63-.294-.63-.882v-5.598c0-.876.462-1.314 1.386-1.314h2.988c1.032 0 1.548.408 1.548 1.224v1.188c-.06.348-.318.714-.774 1.098-.18.144-.27.294-.27.45 0 .144.084.294.252.45.48.456.744.828.792 1.116v1.458c0 .54-.216.81-.648.81zm5.45-.738h1.26c.72 0 1.08-.354 1.08-1.062v-4.266c0-.684-.367-1.026-1.099-1.026H12.66c-.72 0-1.08.342-1.08 1.026v4.302c0 .684.354 1.026 1.062 1.026zm3.6-.558c0 .816-.487 1.224-1.459 1.224h-3.006c-.972 0-1.458-.408-1.458-1.224v-5.238c0-.84.486-1.26 1.458-1.26h2.988c.984 0 1.476.42 1.476 1.26v5.238zm6.042-5.796H21.06c-.72 0-1.08.378-1.08 1.134v.684c0 .72.354 1.08 1.062 1.08h1.278c.708 0 1.062-.444 1.062-1.332v-.666c0-.6-.366-.9-1.098-.9zm1.098 6.048v-1.584c0-.588-.366-.882-1.098-.882H21.06c-.72 0-1.08.294-1.08.882v1.602c0 .624-.21.936-.63.936-.42 0-.63-.282-.63-.846v-5.562c0-.864.438-1.296 1.314-1.296h3.114c.996 0 1.494.432 1.494 1.296v5.544c0 .576-.21.864-.63.864-.42 0-.63-.318-.63-.954zm9.284-5.67c.12.132.216.3.288.504.072.192.108.426.108.702v3.204c0 .3-.036.552-.108.756a1.275 1.275 0 01-.288.486l-.612.648a1.24 1.24 0 01-.504.252c-.216.06-.456.09-.72.09h-2.232c-.972 0-1.458-.456-1.458-1.368v-4.95c0-.936.486-1.404 1.458-1.404h2.16c.576.036.99.162 1.242.378l.324.342.342.36zm-3.204-.378c-.708 0-1.062.342-1.062 1.026v4.302c0 .684.36 1.026 1.08 1.026h.414c.54.012.948-.096 1.224-.324l.252-.216c.288-.312.432-.684.432-1.116v-3.042a2.247 2.247 0 00-.144-.558 1.7 1.7 0 00-.342-.522l-.18-.18a1.145 1.145 0 00-.504-.27 7.3 7.3 0 00-.63-.126h-.54zm16.298.378c.12.132.216.3.288.504.072.192.108.426.108.702v3.204c0 .3-.036.552-.108.756a1.275 1.275 0 01-.288.486l-.612.648a1.24 1.24 0 01-.504.252c-.216.06-.456.09-.72.09h-2.232c-.972 0-1.458-.456-1.458-1.368v-4.95c0-.936.486-1.404 1.458-1.404h2.16c.576.036.99.162 1.242.378l.324.342.342.36zm-3.204-.378c-.708 0-1.062.342-1.062 1.026v4.302c0 .684.36 1.026 1.08 1.026h.414c.54.012.948-.096 1.224-.324l.252-.216c.288-.312.432-.684.432-1.116v-3.042a2.247 2.247 0 00-.144-.558 1.7 1.7 0 00-.342-.522l-.18-.18a1.145 1.145 0 00-.504-.27 7.3 7.3 0 00-.63-.126h-.54zm9.661 0h-1.224c-.72 0-1.08.378-1.08 1.134v.684c0 .72.354 1.08 1.062 1.08h1.278c.708 0 1.062-.444 1.062-1.332v-.666c0-.6-.366-.9-1.098-.9zm1.098 6.048v-1.584c0-.588-.366-.882-1.098-.882h-1.224c-.72 0-1.08.294-1.08.882v1.602c0 .624-.21.936-.63.936-.42 0-.63-.282-.63-.846v-5.562c0-.864.438-1.296 1.314-1.296h3.114c.996 0 1.494.432 1.494 1.296v5.544c0 .576-.21.864-.63.864-.42 0-.63-.318-.63-.954zm7.321-1.638c-.408 0-.612-.318-.612-.954 0-.384-.09-.804-.27-1.26a7.794 7.794 0 00-.72-1.458 1.48 1.48 0 00-.306-.342.725.725 0 00-.216-.126c-.108 0-.162.102-.162.306v5.562c0 .576-.216.864-.648.864-.42 0-.63-.288-.63-.864v-5.58c0-.876.348-1.314 1.044-1.314h.342c.456 0 .876.288 1.26.864l.9 1.512.918-1.512a2.6 2.6 0 01.54-.63c.204-.156.438-.234.702-.234h.378c.684 0 1.026.438 1.026 1.314v5.58c0 .576-.21.864-.63.864-.42 0-.63-.288-.63-.864v-5.562c-.048-.204-.114-.306-.198-.306-.132 0-.3.156-.504.468-.324.504-.564.99-.72 1.458a3.917 3.917 0 00-.234 1.26c0 .636-.21.954-.63.954zm9.65-4.41h-1.224c-.72 0-1.08.378-1.08 1.134v.684c0 .72.354 1.08 1.062 1.08h1.278c.708 0 1.062-.444 1.062-1.332v-.666c0-.6-.366-.9-1.098-.9zm1.098 6.048v-1.584c0-.588-.366-.882-1.098-.882h-1.224c-.72 0-1.08.294-1.08.882v1.602c0 .624-.21.936-.63.936-.42 0-.63-.282-.63-.846v-5.562c0-.864.438-1.296 1.314-1.296h3.114c.996 0 1.494.432 1.494 1.296v5.544c0 .576-.21.864-.63.864-.42 0-.63-.318-.63-.954zm8.96-6.048h-2.935c-.672 0-1.008.342-1.008 1.026v4.302c0 .684.354 1.026 1.062 1.026h1.278c.708 0 1.062-.426 1.062-1.278v-.99c0-.492-.282-.738-.846-.738h-.81c-.456 0-.684-.114-.684-.342 0-.228.216-.342.648-.342h1.62c.888 0 1.332.378 1.332 1.134v2.016c0 .804-.498 1.206-1.494 1.206h-2.988c-.96 0-1.44-.426-1.44-1.278v-5.13c0-.876.486-1.314 1.458-1.314h3.78c.456 0 .684.114.684.342 0 .24-.24.36-.72.36zm5.647 6.354h2.951c.385 0 .577.114.577.342 0 .216-.187.324-.559.324h-3.905c-.973 0-1.459-.396-1.459-1.188v-5.31c0-.816.486-1.224 1.459-1.224h3.905c.373 0 .559.114.559.342 0 .24-.193.36-.577.36h-2.951c-.757 0-1.135.312-1.135.936v.774c0 .636.367.954 1.099.954h2.97c.395 0 .594.102.594.306 0 .252-.193.378-.577.378h-2.987c-.733 0-1.099.318-1.099.954v1.152c0 .6.379.9 1.135.9zM1 21.772h88.897v.45H1v-.45z" fill="#000"/><path d="M6.202 14.14l.604.797.055-.042.048-.048-.707-.707zm.378-1.35h1v-.045l-.004-.045-.996.09zm-.252-.594l-.707.707.015.015.016.015.676-.737zm-.648 2.34l-.604-.797-.045.034-.04.038.689.725zm.792 2.178l-.857.515.012.02.013.02.832-.555zm-.288-.36l.707-.707-.033-.033-.036-.03-.638.77zm-.522-.432l.638-.77-.016-.014-.017-.012-.605.796zM7.84 13.69l.985.17.015-.084v-.086h-1zm-.774 1.098l.625.78.01-.007.01-.008-.645-.765zm-.018.9l.689-.725-.009-.008-.68.733zm.792 1.116h1v-.083l-.014-.081-.986.164zm-.93-1.957c.454-.455.67-1.034.67-1.661h-2c0 .142-.036.198-.085.247l1.414 1.414zm.67-1.661v-.396h-2v.396h2zm-.004-.486c-.038-.423-.188-.889-.572-1.241l-1.352 1.474a.342.342 0 01-.074-.099c-.006-.016.001-.005.006.046l1.992-.18zm-.54-1.211c-.391-.39-.894-.509-1.338-.509v2c.053 0 .061.007.04 0a.354.354 0 01-.117-.077l1.414-1.414zm-1.338-.509H4.222v2h1.476v-2zm-1.476 0c-.543 0-1.12.163-1.54.647-.394.456-.504 1.035-.504 1.559h2a.94.94 0 01.026-.25c.01-.037.014-.027-.009 0a.199.199 0 01-.07.053c-.009.003.017-.009.097-.009v-2zm-2.044 2.206v.486h2v-.486h-2zm0 .486c0 .52.107 1.097.495 1.553.414.486.989.653 1.531.653v-2c-.075 0-.096-.011-.084-.007a.21.21 0 01.076.057c.023.028.02.037.008-.001a.971.971 0 01-.026-.255h-2zm2.026 2.206h.522v-2h-.522v2zm.522 0c.599 0 1.181-.179 1.643-.617l-1.378-1.45c-.018.018-.072.067-.265.067v2zm1.558-.545l.522-.396-1.208-1.594-.522.396 1.208 1.594zm.908 2.739c.002 0 .05 0 .12.03.078.033.15.087.205.156.051.064.066.116.068.124.002.006-.005-.018-.005-.084h-2c0 .363.067.82.369 1.2.336.427.814.574 1.243.574v-2zm.388.226V17.02h-2v1.278h2zm0-1.278c0-.352-.132-.645-.276-.86L5.64 17.268a.306.306 0 01-.03-.065.557.557 0 01-.03-.184h2zm-.25-.82a2.887 2.887 0 00-.439-.553L5.477 17.06a.91.91 0 01.138.168l1.714-1.03zm-.508-.616l-.522-.432-1.276 1.54.522.432 1.276-1.54zm-.555-.458c-.381-.29-.863-.546-1.415-.546v2c-.04 0-.045-.01-.006.007.04.017.11.054.21.131l1.211-1.592zm-1.415-.546h-.648v2h.648v-2zm-.648 0c-.496 0-1.052.125-1.477.55-.424.424-.549.98-.549 1.476h2a.71.71 0 01.013-.133l-.011.022a.255.255 0 01-.087.087c-.014.008-.022.011-.022.01l.034-.006a.708.708 0 01.099-.006v-2zm-2.026 2.026v1.638h2v-1.638h-2zm0 1.638a.545.545 0 01-.009.116c0 .003.01-.04.056-.1.05-.066.119-.121.197-.156a.34.34 0 01.126-.032v2c.449 0 .934-.162 1.268-.601.296-.389.362-.853.362-1.227h-2zm.37-.172a.37.37 0 01.147.039c.084.039.15.098.194.16.04.054.045.089.041.073a.723.723 0 01-.012-.154h-2c0 .383.063.85.344 1.243.325.455.813.639 1.286.639v-2zm.37.118v-5.598h-2v5.598h2zm0-5.598c0-.27.069-.292.035-.26-.025.023.03-.054.351-.054v-2c-.603 0-1.241.142-1.728.603-.496.47-.658 1.105-.658 1.711h2zm.386-.314h2.988v-2H3.304v2zm2.988 0c.411 0 .535.086.54.09l-.006-.007-.004-.006a.411.411 0 01.018.147h2c0-.633-.212-1.264-.767-1.702-.51-.404-1.16-.522-1.781-.522v2zm.548.224v1.188h2v-1.188h-2zm.015 1.018c0-.006-.005.036-.07.13-.067.093-.18.22-.363.373l1.288 1.53c.523-.44.996-1 1.115-1.693l-1.97-.34zm-.414.487c-.3.24-.645.648-.645 1.231h2a.561.561 0 01-.075.285c-.032.054-.055.066-.03.046l-1.25-1.562zm-.645 1.231c0 .55.317.947.572 1.183l1.36-1.466c-.031-.029-.02-.026.004.015a.556.556 0 01.064.268h-2zm.563 1.175c.212.201.35.36.431.475.09.125.075.146.064.08l1.972-.328c-.059-.354-.23-.663-.404-.91a5.394 5.394 0 00-.685-.767l-1.378 1.45zm.481.391v1.458h2v-1.458h-2zm0 1.458c0 .072-.008.1-.007.097a.34.34 0 01.064-.114.498.498 0 01.194-.147c.065-.027.107-.026.101-.026v2c.437 0 .923-.148 1.267-.578.31-.387.381-.855.381-1.232h-2zm5.801 1.072h1.26v-2h-1.26v2zm1.26 0c.51 0 1.077-.125 1.511-.552.438-.43.57-.998.57-1.51h-2a.5.5 0 01-.015.144c-.001.002.001-.005.009-.018a.227.227 0 01.075-.075c.011-.006.016-.007.011-.006a.564.564 0 01-.16.017v2zm2.08-2.062v-4.266h-2v4.266h2zm0-4.266c0-.514-.14-1.079-.591-1.5-.439-.41-1.003-.526-1.507-.526v2c.109 0 .164.013.183.019.015.005-.008 0-.042-.032a.25.25 0 01-.053-.074c-.001-.003.01.028.01.113h2zm-2.098-2.026H12.66v2h1.224v-2zm-1.224 0c-.502 0-1.064.118-1.498.531-.445.423-.582.985-.582 1.495h2c0-.086.012-.12.011-.118a.248.248 0 01-.094.105c-.01.006-.014.007-.007.005a.607.607 0 01.17-.018v-2zm-2.08 2.026v4.302h2v-4.302h-2zm0 4.302c0 .505.133 1.066.57 1.489.433.417.993.537 1.492.537v-2a.563.563 0 01-.158-.016l.013.007a.249.249 0 01.095.106s-.003-.008-.006-.029a.643.643 0 01-.006-.094h-2zm4.662.468a.485.485 0 01-.02.166c-.002.006.002-.005.013-.014.011-.01-.08.072-.45.072v2c.6 0 1.238-.123 1.736-.54.53-.446.721-1.072.721-1.684h-2zm-.458.224h-3.006v2h3.006v-2zm-3.006 0c-.37 0-.462-.081-.45-.072.01.009.015.02.013.014a.48.48 0 01-.02-.166h-2c0 .613.19 1.238.72 1.684.498.417 1.136.54 1.737.54v-2zm-.458-.224v-5.238h-2v5.238h2zm0-5.238c0-.116.017-.173.024-.191.005-.013.004-.005-.005.003-.012.01.075-.072.44-.072v-2c-.608 0-1.25.128-1.748.558-.526.455-.71 1.087-.71 1.702h2zm.458-.26h2.988v-2h-2.988v2zm2.988 0c.373 0 .467.083.458.076-.008-.007-.01-.015-.006-.003a.545.545 0 01.024.187h2c0-.62-.189-1.252-.72-1.706-.5-.427-1.145-.554-1.756-.554v2zm.476.26v5.238h2v-5.238h-2zm7.043-1.558H21.06v2h1.224v-2zm-1.224 0c-.526 0-1.102.14-1.534.594-.422.444-.546 1.02-.546 1.54h2c0-.113.014-.172.021-.194.006-.017.002.003-.026.033a.178.178 0 01-.057.042.48.48 0 01.142-.015v-2zm-2.08 2.134v.684h2v-.684h-2zm0 .684c0 .51.126 1.077.553 1.511.43.438.997.569 1.51.569v-2a.493.493 0 01-.144-.015c-.002 0 .005.002.017.01a.226.226 0 01.075.075l.006.011a.558.558 0 01-.017-.161h-2zm2.062 2.08h1.278v-2h-1.278v2zm1.278 0c.576 0 1.166-.192 1.579-.71.378-.474.483-1.072.483-1.622h-2c0 .159-.016.263-.032.326-.017.06-.029.067-.015.05a.18.18 0 01.064-.05c.014-.006-.004.006-.079.006v2zm2.062-2.332v-.666h-2v.666h2zm0-.666c0-.512-.166-1.06-.64-1.448-.437-.358-.98-.452-1.458-.452v2c.118 0 .186.012.217.02.029.009.01.009-.027-.022a.312.312 0 01-.087-.115c-.012-.032-.005-.033-.005.017h2zm0 5.148v-1.584h-2v1.584h2zm0-1.584c0-.513-.17-1.057-.648-1.441-.436-.35-.976-.441-1.45-.441v2c.12 0 .19.012.222.021.03.008.013.009-.024-.02a.32.32 0 01-.092-.122c-.015-.035-.008-.042-.008.003h2zm-2.098-1.882H21.06v2h1.224v-2zm-1.224 0c-.47 0-1.009.092-1.442.446-.472.386-.638.928-.638 1.436h2c0-.047.008-.042-.006-.008a.296.296 0 01-.091.121c-.038.031-.06.032-.032.025a.842.842 0 01.21-.02v-2zm-2.08 1.882v1.602h2v-1.602h-2zm0 1.602a.918.918 0 01-.015.19c-.006.028-.005.003.028-.046a.495.495 0 01.19-.163.398.398 0 01.167-.045v2c.498 0 .988-.208 1.302-.676.268-.397.328-.867.328-1.26h-2zm.37-.064a.35.35 0 01.133.034c.08.036.15.093.197.157.043.058.052.1.05.092a.593.593 0 01-.01-.129h-2c0 .377.066.842.356 1.232.331.445.818.614 1.274.614v-2zm.37.154v-5.562h-2v5.562h2zm0-5.562c0-.274.069-.297.031-.26-.035.035-.004-.036.283-.036v-2c-.588 0-1.214.145-1.687.612-.476.47-.627 1.094-.627 1.684h2zm.314-.296h3.114v-2h-3.114v2zm3.114 0c.376 0 .472.085.466.08-.006-.006-.005-.01.002.008a.605.605 0 01.026.208h2c0-.626-.187-1.267-.718-1.727-.504-.438-1.155-.569-1.776-.569v2zm.494.296v5.544h2v-5.544h-2zm0 5.544c0 .087-.008.13-.01.142-.003.011.004-.027.045-.083a.506.506 0 01.195-.159.362.362 0 01.14-.036v2c.465 0 .953-.177 1.28-.627.286-.391.35-.857.35-1.237h-2zm.37-.136a.491.491 0 01.362.21c.032.048.031.07.024.038a.997.997 0 01-.016-.202h-2c0 .396.06.868.323 1.267.312.471.802.687 1.307.687v-2zm8.654-5.624l.74-.673-.008-.008-.007-.008-.725.689zm.288.504l-.943.333.003.009.003.01.937-.352zm0 4.662l-.943-.333.943.333zm-.288.486l-.707-.707-.01.01-.01.01.727.687zm-.612.648l.669.743.03-.027.028-.03-.727-.686zm-.504.252l-.268-.963.268.963zm-.792-7.632l.062-.998-.031-.002h-.031v1zm1.242.378l.726-.688-.036-.037-.04-.034-.65.759zm.324.342l-.726.688.726-.688zm-2.43 6.336l.022-1h-.022v1zm1.224-.324l.637.771.007-.006.006-.006-.65-.759zm.252-.216l.65.76.045-.039.04-.043-.735-.678zm.432-4.158h1v-.062l-.008-.062-.992.124zm-.144-.558l.928-.371-.928.371zm-.342-.522l.732-.68-.012-.014-.013-.013-.707.707zm-.18-.18l.707-.707-.016-.016-.016-.014-.675.737zm-.504-.27l.242-.97-.242.97zm-.63-.126l.156-.988-.078-.012h-.078v1zm1.924 1.05c.013.016.048.06.085.165l1.886-.666a2.456 2.456 0 00-.491-.844l-1.48 1.346zm.091.183c.018.048.045.156.045.351h2c0-.357-.046-.717-.172-1.053l-1.873.702zm.045.351v3.204h2v-3.204h-2zm0 3.204c0 .227-.029.359-.051.423l1.886.666c.12-.344.165-.716.165-1.089h-2zm-.051.423c-.036.1-.063.122-.053.112l1.415 1.414c.25-.25.415-.553.524-.86l-1.886-.666zm-.072.132l-.612.648 1.454 1.374.612-.648-1.454-1.374zm-.554.592c.016-.015.022-.016.005-.007a.626.626 0 01-.108.038l.535 1.927c.31-.086.635-.228.906-.472l-1.338-1.486zm-.103.032a1.697 1.697 0 01-.452.053v2c.339 0 .67-.038.987-.127l-.535-1.927zM30.83 18h-2.232v2h2.232v-2zm-2.232 0c-.168 0-.276-.02-.34-.04a.303.303 0 01-.067-.03h-.002v-.001l-.002-.002a.157.157 0 01-.014-.031.812.812 0 01-.033-.264h-2c0 .627.17 1.277.68 1.755.498.468 1.153.613 1.778.613v-2zm-.458-.368v-4.95h-2v4.95h2zm0-4.95c0-.15.02-.24.036-.287a.199.199 0 01.017-.04l.005-.006.011-.008a.294.294 0 01.056-.023c.061-.02.167-.04.333-.04v-2c-.631 0-1.29.151-1.787.63-.505.487-.671 1.142-.671 1.774h2zm.458-.404h2.16v-2h-2.16v2zm2.097-.002c.235.015.401.046.514.08.113.035.146.064.14.06l1.301-1.52c-.5-.428-1.18-.576-1.83-.616l-.125 1.996zm.579.068l.324.342 1.452-1.376-.324-.342-1.452 1.376zm.325.343l.342.36 1.45-1.378-.342-.36-1.45 1.378zm-2.137-1.707c-.5 0-1.06.12-1.492.537-.438.424-.57.984-.57 1.489h2c0-.043.002-.074.006-.094l.005-.029a.252.252 0 01-.095.106l-.012.007a.562.562 0 01.158-.016v-2zM27.4 13.006v4.302h2v-4.302h-2zm0 4.302c0 .51.136 1.072.58 1.494.436.414.998.532 1.5.532v-2a.608.608 0 01-.171-.017l.008.004a.248.248 0 01.094.105c0 .001-.011-.032-.011-.118h-2zm2.08 2.026h.414v-2h-.414v2zm.391 0c.663.015 1.348-.11 1.884-.553l-1.274-1.542c-.017.014-.147.104-.565.095l-.045 2zm1.897-.565l.252-.216-1.301-1.518-.252.216 1.301 1.518zm.337-.297c.461-.5.697-1.116.697-1.794h-2a.592.592 0 01-.167.438l1.47 1.356zm.697-1.794v-3.042h-2v3.042h2zm-.008-3.166a3.245 3.245 0 00-.208-.805l-1.857.742c.04.101.067.204.08.311l1.985-.248zm-.208-.805a2.698 2.698 0 00-.538-.832l-1.465 1.361a.713.713 0 01.146.213l1.857-.742zm-.563-.858l-.18-.18-1.415 1.414.18.18 1.415-1.414zm-.212-.21a2.145 2.145 0 00-.937-.503l-.485 1.94c.033.008.051.02.07.037l1.352-1.474zm-.937-.503a8.308 8.308 0 00-.716-.144l-.312 1.976c.203.032.384.068.543.108l.485-1.94zm-.872-.156h-.54v2h.54v-2zm15.758 1.378l.74-.673-.008-.008-.007-.008-.725.689zm.288.504l-.943.333.003.009.004.01.936-.352zm0 4.662l-.943-.333.943.333zm-.288.486l-.707-.707-.01.01-.01.01.727.687zm-.612.648l.669.743.03-.027.028-.03-.727-.686zm-.504.252l-.268-.963.268.963zm-.792-7.632l.062-.998-.03-.002h-.032v1zm1.242.378l.726-.688-.036-.037-.04-.034-.65.759zm.324.342l-.726.688h.001l.725-.688zm-2.43 6.336l.022-1h-.022v1zm1.224-.324l.637.771.007-.006.007-.006-.651-.759zm.252-.216l.65.76.045-.039.04-.043-.735-.678zm.432-4.158h1v-.062l-.008-.062-.992.124zm-.144-.558l.928-.371-.928.371zm-.342-.522l.733-.68-.013-.014-.013-.013-.707.707zm-.18-.18l.707-.707-.015-.016-.016-.014-.676.737zm-.504-.27l.242-.97-.242.97zm-.63-.126l.156-.988-.078-.012h-.078v1zm1.924 1.05c.013.016.048.06.085.165l1.886-.666a2.456 2.456 0 00-.491-.844l-1.48 1.346zm.092.183c.018.048.044.156.044.351h2c0-.357-.046-.717-.172-1.053l-1.872.702zm.044.351v3.204h2v-3.204h-2zm0 3.204c0 .227-.028.359-.051.423l1.886.666c.121-.344.165-.716.165-1.089h-2zm-.051.423c-.036.1-.063.122-.052.112l1.414 1.414c.25-.25.416-.553.524-.86l-1.886-.666zm-.072.132l-.612.648 1.454 1.374.612-.648-1.454-1.374zm-.554.592c.017-.015.022-.016.006-.007a.626.626 0 01-.109.038l.536 1.927c.31-.086.634-.228.905-.472l-1.338-1.486zm-.103.032a1.697 1.697 0 01-.452.053v2c.339 0 .67-.038.988-.127l-.536-1.927zm-.452.053h-2.232v2h2.232v-2zm-2.232 0c-.168 0-.276-.02-.34-.04a.303.303 0 01-.067-.03h-.002v-.001l-.002-.002a.157.157 0 01-.014-.031.812.812 0 01-.033-.264h-2c0 .627.17 1.277.68 1.755.498.468 1.153.613 1.778.613v-2zm-.458-.368v-4.95h-2v4.95h2zm0-4.95c0-.15.02-.24.036-.287a.199.199 0 01.018-.04l.004-.006.012-.008a.294.294 0 01.056-.023c.06-.02.166-.04.332-.04v-2c-.63 0-1.29.151-1.787.63-.505.487-.671 1.142-.671 1.774h2zm.458-.404h2.16v-2h-2.16v2zm2.098-.002c.234.015.4.046.513.08.113.035.146.064.14.06l1.302-1.52c-.5-.428-1.181-.576-1.83-.616l-.125 1.996zm.578.068l.324.342 1.452-1.376-.324-.342-1.452 1.376zm.325.343l.342.36 1.45-1.378-.342-.36-1.45 1.378zm-2.137-1.707c-.5 0-1.06.12-1.491.537-.438.424-.571.984-.571 1.489h2c0-.043.003-.074.006-.094.003-.02.006-.03.006-.029a.252.252 0 01-.095.106l-.013.007a.562.562 0 01.158-.016v-2zm-2.062 2.026v4.302h2v-4.302h-2zm0 4.302c0 .51.137 1.072.581 1.494.435.414.997.532 1.499.532v-2a.608.608 0 01-.17-.017l.007.004a.248.248 0 01.094.105c0 .001-.011-.032-.011-.118h-2zm2.08 2.026h.414v-2h-.414v2zm.392 0c.662.015 1.347-.11 1.883-.553l-1.274-1.542c-.017.014-.147.104-.565.095l-.044 2zm1.897-.565l.252-.216-1.302-1.518-.252.216 1.302 1.518zm.336-.297c.462-.5.697-1.116.697-1.794h-2a.592.592 0 01-.167.438l1.47 1.356zm.697-1.794v-3.042h-2v3.042h2zm-.008-3.166a3.245 3.245 0 00-.208-.805l-1.856.742c.04.101.066.204.08.311l1.984-.248zm-.208-.805a2.698 2.698 0 00-.537-.832l-1.466 1.361a.713.713 0 01.147.213l1.856-.742zm-.563-.858l-.18-.18-1.414 1.414.18.18 1.414-1.414zm-.211-.21a2.145 2.145 0 00-.938-.503l-.485 1.94c.033.008.052.02.071.037l1.352-1.474zm-.938-.503a8.308 8.308 0 00-.716-.144l-.312 1.976c.204.032.384.068.543.108l.486-1.94zm-.872-.156h-.54v2h.54v-2zm9.121 0h-1.224v2h1.224v-2zm-1.224 0c-.527 0-1.102.14-1.534.594-.423.444-.546 1.02-.546 1.54h2a.68.68 0 01.02-.194c.006-.017.003.003-.026.033a.178.178 0 01-.056.042.481.481 0 01.142-.015v-2zm-2.08 2.134v.684h2v-.684h-2zm0 .684c0 .51.126 1.077.553 1.511.43.438.997.569 1.51.569v-2a.494.494 0 01-.144-.015c-.003 0 .004.002.017.01a.223.223 0 01.075.075c.006.011.007.016.006.011a.56.56 0 01-.017-.161h-2zm2.062 2.08h1.278v-2h-1.278v2zm1.278 0c.576 0 1.166-.192 1.579-.71.378-.474.483-1.072.483-1.622h-2c0 .159-.016.263-.033.326-.016.06-.028.067-.014.05a.179.179 0 01.064-.05c.014-.006-.005.006-.079.006v2zm2.062-2.332v-.666h-2v.666h2zm0-.666c0-.512-.166-1.06-.64-1.448-.437-.358-.98-.452-1.458-.452v2c.118 0 .186.012.217.02.029.009.01.009-.027-.022a.315.315 0 01-.087-.115c-.013-.032-.005-.033-.005.017h2zm0 5.148v-1.584h-2v1.584h2zm0-1.584c0-.513-.17-1.057-.648-1.441-.436-.35-.976-.441-1.45-.441v2c.12 0 .19.012.222.021.03.008.013.009-.025-.02a.32.32 0 01-.091-.122c-.015-.035-.008-.042-.008.003h2zm-2.098-1.882h-1.224v2h1.224v-2zm-1.224 0c-.47 0-1.009.092-1.442.446-.473.386-.638.928-.638 1.436h2c0-.047.008-.042-.006-.008a.32.32 0 01-.09.121c-.04.031-.06.032-.034.025a.843.843 0 01.21-.02v-2zm-2.08 1.882v1.602h2v-1.602h-2zm0 1.602a.926.926 0 01-.015.19c-.006.028-.005.003.028-.046a.495.495 0 01.189-.163.398.398 0 01.168-.045v2c.497 0 .987-.208 1.302-.676.268-.397.328-.867.328-1.26h-2zm.37-.064a.35.35 0 01.133.034c.08.036.15.093.197.157.043.058.052.1.05.092a.605.605 0 01-.01-.129h-2c0 .377.065.842.356 1.232.331.445.818.614 1.274.614v-2zm.37.154v-5.562h-2v5.562h2zm0-5.562c0-.274.069-.297.03-.26-.034.035-.003-.036.284-.036v-2c-.588 0-1.214.145-1.688.612-.475.47-.626 1.094-.626 1.684h2zm.314-.296h3.114v-2h-3.114v2zm3.114 0c.376 0 .471.085.465.08-.006-.006-.004-.01.002.008a.604.604 0 01.027.208h2c0-.626-.187-1.267-.718-1.727-.504-.438-1.156-.569-1.776-.569v2zm.494.296v5.544h2v-5.544h-2zm0 5.544c0 .087-.008.13-.01.142-.004.011.004-.027.045-.083a.505.505 0 01.195-.159.362.362 0 01.14-.036v2c.465 0 .952-.177 1.28-.627.286-.391.35-.857.35-1.237h-2zm.37-.136a.491.491 0 01.362.21c.031.048.031.07.024.038a.989.989 0 01-.016-.202h-2c0 .396.06.868.323 1.267.312.471.802.687 1.307.687v-2zm5.81-3.806l-.942.338.005.015.006.014.93-.367zm-.72-1.458l.85-.526-.014-.022-.014-.021-.823.569zm-.307-.342l.6-.8-.6.8zm-.216-.126l.243-.97-.12-.03h-.123v1zm1.206-.162l.86-.511-.013-.022-.015-.022-.832.555zm.9 1.512l-.859.511.85 1.43.864-1.422-.855-.519zm.918-1.512l-.843-.537-.006.009-.005.009.854.519zm.54-.63l-.607-.794-.012.009-.011.009.63.776zm.846 1.098h1v-.116l-.026-.113-.974.229zm-.702.162l-.837-.547-.004.006.841.541zm-.72 1.458l.947.324.002-.008-.949-.316zm-.864 1.214a.502.502 0 01.383.221c.03.047.029.068.022.033a1.053 1.053 0 01-.017-.208h-2c0 .393.058.86.312 1.256.303.471.788.698 1.3.698v-2zm.388.046c0-.54-.126-1.085-.34-1.627l-1.86.734c.146.37.2.664.2.893h2zm-.328-1.598a8.793 8.793 0 00-.811-1.646l-1.7 1.052c.281.456.488.879.628 1.27l1.883-.676zm-.84-1.69c-.137-.198-.31-.41-.528-.572l-1.2 1.6c-.016-.012-.015-.014.004.006.017.02.044.054.08.105l1.645-1.138zm-.528-.572a1.66 1.66 0 00-.573-.296l-.485 1.94a.758.758 0 01-.128-.043c-.024-.011-.039-.02-.044-.023l.03.022 1.2-1.6zm-.816-.326a1.13 1.13 0 00-1.005.609c-.141.267-.157.54-.157.697h2c0-.046.012.073-.075.238a.87.87 0 01-.762.456v-2zm-1.162 1.306v5.562h2v-5.562h-2zm0 5.562a.616.616 0 01-.01.136c-.002.008.006-.031.048-.088a.493.493 0 01.192-.152.33.33 0 01.122-.032v2c.46 0 .95-.168 1.286-.616.295-.393.362-.864.362-1.248h-2zm.352-.136c.009 0 .064.002.14.037.083.037.15.095.196.158.041.056.048.094.046.083a.657.657 0 01-.012-.142h-2c0 .38.064.846.35 1.237.328.45.816.627 1.28.627v-2zm.37.136v-5.58h-2v5.58h2zm0-5.58c0-.156.016-.258.032-.319.016-.059.028-.064.012-.044a.19.19 0 01-.07.053c-.016.007 0-.004.07-.004v-2c-.57 0-1.156.191-1.566.706-.374.472-.478 1.064-.478 1.608h2zm.044-.314h.342v-2h-.342v2zm.342 0c.003 0 .028-.003.092.04.074.052.191.161.336.379l1.664-1.11c-.468-.702-1.153-1.309-2.092-1.309v2zm.401.376l.9 1.511 1.719-1.023-.9-1.511-1.719 1.023zm2.614 1.519l.918-1.512-1.71-1.038-.917 1.512 1.71 1.038zm.907-1.494c.125-.196.237-.318.327-.39l-1.261-1.553a3.593 3.593 0 00-.753.87l1.687 1.073zm.304-.373c.024-.018.043-.028.094-.028v-2c-.477 0-.925.146-1.31.44l1.216 1.588zm.094-.028h.378v-2h-.378v2zm.378 0c.066 0 .077.01.057.002a.203.203 0 01-.075-.058c-.015-.02-.003-.014.013.047.016.062.031.166.031.323h2c0-.54-.1-1.13-.468-1.6-.404-.519-.986-.714-1.558-.714v2zm.026.314v5.58h2v-5.58h-2zm0 5.58c0 .087-.008.13-.01.142-.003.011.004-.027.045-.083a.505.505 0 01.195-.159.36.36 0 01.14-.036v2c.465 0 .952-.177 1.28-.627.286-.391.35-.857.35-1.237h-2zm.37-.136a.36.36 0 01.14.037c.083.037.15.095.196.158.041.056.048.094.046.083a.657.657 0 01-.012-.142h-2c0 .38.064.846.35 1.237.328.45.816.627 1.28.627v-2zm.37.136v-5.562h-2v5.562h2zm-.026-5.791a1.73 1.73 0 00-.22-.544c-.128-.198-.434-.533-.952-.533v2a.868.868 0 01-.727-.38c-.058-.09-.062-.144-.048-.085l1.947-.458zm-1.172-1.077c-.448 0-.761.25-.905.384-.169.157-.313.35-.436.537l1.674 1.094c.038-.058.07-.1.093-.13.023-.03.034-.039.03-.035-.002.002-.035.033-.1.066a.774.774 0 01-.356.084v-2zm-1.345.927c-.36.56-.64 1.121-.827 1.683l1.897.632a5.56 5.56 0 01.613-1.233l-1.683-1.082zm-.825 1.675a4.91 4.91 0 00-.288 1.584h2c0-.25.052-.56.18-.936l-1.892-.648zm-.288 1.584c0 .107-.009.171-.016.202-.007.032-.007.01.024-.038a.492.492 0 01.362-.21v2c.506 0 .996-.216 1.307-.687.264-.4.323-.87.323-1.267h-2zm10.02-4.456h-1.224v2h1.224v-2zm-1.224 0c-.527 0-1.103.14-1.534.594-.423.444-.546 1.02-.546 1.54h2a.68.68 0 01.02-.194c.006-.017.003.003-.026.033a.176.176 0 01-.056.042.482.482 0 01.142-.015v-2zm-2.08 2.134v.684h2v-.684h-2zm0 .684c0 .51.126 1.077.553 1.511.43.438.997.569 1.51.569v-2a.494.494 0 01-.145-.015l.018.01a.223.223 0 01.075.075c.006.011.007.016.006.011a.564.564 0 01-.017-.161h-2zm2.062 2.08h1.278v-2h-1.278v2zm1.278 0c.576 0 1.166-.192 1.578-.71.379-.474.484-1.072.484-1.622h-2c0 .159-.016.263-.033.326-.016.06-.028.067-.014.05a.179.179 0 01.064-.05c.014-.006-.005.006-.079.006v2zm2.062-2.332v-.666h-2v.666h2zm0-.666c0-.512-.166-1.06-.64-1.448-.437-.358-.98-.452-1.458-.452v2c.118 0 .186.012.217.02.029.009.01.009-.027-.022a.308.308 0 01-.087-.115c-.013-.032-.005-.033-.005.017h2zm0 5.148v-1.584h-2v1.584h2zm0-1.584c0-.513-.17-1.057-.648-1.441-.436-.35-.976-.441-1.45-.441v2c.12 0 .19.012.222.021.03.008.012.009-.025-.02a.32.32 0 01-.091-.122c-.015-.035-.008-.042-.008.003h2zm-2.098-1.882h-1.224v2h1.224v-2zm-1.224 0c-.47 0-1.009.092-1.442.446-.473.386-.638.928-.638 1.436h2c0-.047.007-.042-.007-.008a.32.32 0 01-.09.121c-.039.031-.06.032-.033.025a.844.844 0 01.21-.02v-2zm-2.08 1.882v1.602h2v-1.602h-2zm0 1.602a.926.926 0 01-.015.19c-.006.028-.005.003.028-.046a.495.495 0 01.189-.163.398.398 0 01.168-.045v2c.497 0 .987-.208 1.302-.676.268-.397.328-.867.328-1.26h-2zm.37-.064a.35.35 0 01.133.034c.08.036.15.093.197.157.043.058.052.1.05.092a.605.605 0 01-.01-.129h-2c0 .377.065.842.356 1.232.331.445.817.614 1.274.614v-2zm.37.154v-5.562h-2v5.562h2zm0-5.562c0-.274.069-.297.03-.26-.034.035-.003-.036.284-.036v-2c-.589 0-1.215.145-1.688.612-.475.47-.626 1.094-.626 1.684h2zm.314-.296h3.114v-2h-3.114v2zm3.114 0c.376 0 .471.085.465.08-.006-.006-.004-.01.002.008a.604.604 0 01.027.208h2c0-.626-.187-1.267-.718-1.727-.504-.438-1.156-.569-1.776-.569v2zm.494.296v5.544h2v-5.544h-2zm0 5.544c0 .087-.008.13-.011.142-.003.011.004-.027.046-.083a.506.506 0 01.195-.159.362.362 0 01.14-.036v2c.465 0 .952-.177 1.28-.627.286-.391.35-.857.35-1.237h-2zm.37-.136a.491.491 0 01.362.21c.031.048.031.07.024.038a.989.989 0 01-.016-.202h-2c0 .396.06.868.323 1.267.312.471.802.687 1.307.687v-2zm8.33-7.002h-2.935v2h2.934v-2zm-2.935 0c-.494 0-1.048.127-1.469.556-.418.425-.539.978-.539 1.47h2a.752.752 0 01.014-.138c0-.001-.002.007-.01.02a.254.254 0 01-.115.103l.027-.005a.658.658 0 01.092-.006v-2zm-2.008 2.026v4.302h2v-4.302h-2zm0 4.302c0 .505.133 1.066.571 1.489.432.417.992.537 1.491.537v-2a.562.562 0 01-.158-.016l.013.007a.252.252 0 01.095.106s-.003-.008-.006-.029a.661.661 0 01-.006-.094h-2zm2.062 2.026h1.278v-2h-1.278v2zm1.278 0c.562 0 1.148-.178 1.566-.68.388-.467.496-1.058.496-1.598h-2c0 .147-.015.24-.03.292-.014.05-.022.05-.004.027a.182.182 0 01.065-.049c.01-.004-.014.008-.093.008v2zm2.062-2.278v-.99h-2v.99h2zm0-.99c0-.438-.132-.939-.554-1.307-.396-.346-.886-.431-1.292-.431v2c.072 0 .097.008.091.006a.33.33 0 01-.114-.068.43.43 0 01-.118-.166c-.017-.046-.013-.064-.013-.034h2zm-1.846-1.738h-.81v2h.81v-2zm-.81 0a.878.878 0 01-.135-.008c-.02-.003.012 0 .07.028a.738.738 0 01.382.638h-2c0 .232.06.48.21.704.146.219.337.36.513.447.323.161.681.191.96.191v-2zm.316.658a.727.727 0 01-.37.628c-.065.034-.104.038-.092.036a.692.692 0 01.11-.006v-2c-.271 0-.629.03-.953.201a1.273 1.273 0 00-.695 1.14h2zm-.352.658h1.62v-2h-1.62v2zm1.62 0c.326 0 .384.073.351.045a.142.142 0 01-.023-.026l-.01-.017c0 .002.014.039.014.132h2c0-.578-.177-1.18-.684-1.612-.477-.406-1.085-.522-1.648-.522v2zm.332.134v2.016h2v-2.016h-2zm0 2.016c0 .1-.015.14-.017.146l.005-.008a.066.066 0 01.01-.012c.005-.003-.102.08-.492.08v2c.607 0 1.247-.118 1.749-.523.543-.439.745-1.063.745-1.683h-2zM79.57 18h-2.988v2h2.988v-2zm-2.988 0c-.353 0-.431-.081-.416-.067.01.008.009.014.002-.003a.62.62 0 01-.026-.208h-2c0 .613.178 1.247.697 1.706.495.44 1.137.572 1.743.572v-2zm-.44-.278v-5.13h-2v5.13h2zm0-5.13c0-.256.066-.272.034-.243-.012.011.068-.071.424-.071v-2c-.616 0-1.264.136-1.763.586-.518.467-.695 1.107-.695 1.728h2zm.458-.314h3.78v-2H76.6v2zm3.78 0a.88.88 0 01.135.008c.02.003-.011 0-.069-.028a.738.738 0 01-.382-.638h2c0-.232-.06-.48-.21-.704a1.32 1.32 0 00-.513-.447c-.323-.161-.682-.191-.96-.191v2zm-.316-.658a.724.724 0 01.373-.624c.055-.028.082-.029.058-.025a.98.98 0 01-.15.009v2c.29 0 .658-.031.987-.196.178-.089.372-.231.52-.452.15-.227.212-.477.212-.712h-2zm5.927 7.714h2.953v-2H85.99v2zm2.953 0c.049 0 .065.004.057.002a.45.45 0 01-.136-.057.713.713 0 01-.346-.603h2c0-.458-.226-.875-.633-1.116-.325-.194-.684-.226-.943-.226v2zm-.424-.658c0-.093.02-.223.097-.356a.724.724 0 01.26-.266c.135-.077.206-.054.084-.054v2c.25 0 .601-.03.921-.216.403-.234.638-.645.638-1.108h-2zM88.96 18h-3.905v2h3.905v-2zm-3.905 0c-.376 0-.473-.08-.462-.072a.088.088 0 01.014.015l.006.01a.409.409 0 01-.016-.141h-2c0 .61.197 1.23.732 1.666.497.405 1.13.522 1.726.522v-2zm-.459-.188v-5.31h-2v5.31h2zm0-5.31a.48.48 0 01.021-.167c.002-.005-.003.006-.013.015-.011.01.08-.072.45-.072v-2c-.601 0-1.239.123-1.736.54-.53.446-.721 1.072-.721 1.684h2zm.459-.224h3.905v-2h-3.905v2zm3.905 0c.117 0 .036.024-.103-.062a.715.715 0 01-.338-.596h2c0-.443-.212-.86-.617-1.11-.326-.199-.686-.232-.942-.232v2zm-.441-.658a.703.703 0 01.326-.578c.138-.087.218-.062.097-.062v2c.264 0 .632-.035.963-.242.409-.256.614-.678.614-1.118h-2zm.423-.64h-2.951v2h2.951v-2zm-2.951 0c-.49 0-1.045.097-1.488.463-.48.396-.647.95-.647 1.473h2c0-.057.01-.062-.001-.035a.283.283 0 01-.078.104c-.034.028-.05.027-.017.018a.909.909 0 01.23-.023v-2zm-2.135 1.936v.774h2v-.774h-2zm0 .774c0 .512.154 1.066.62 1.47.437.38.99.484 1.478.484v-2a.765.765 0 01-.202-.02c-.022-.007-.001-.005.035.027a.284.284 0 01.072.098c.007.02-.002.006-.002-.059h-2zm2.099 1.954h2.97v-2h-2.97v2zm2.97 0a.62.62 0 01.09.005c.007 0-.036-.005-.103-.04a.76.76 0 01-.394-.66h2a1.24 1.24 0 00-.69-1.117c-.312-.161-.652-.188-.904-.188v2zm-.406-.694a.694.694 0 01.307-.552c.143-.095.231-.07.117-.07v2c.27 0 .645-.038.98-.258.409-.269.596-.696.596-1.12h-2zm.423-.622h-2.987v2h2.987v-2zm-2.987 0c-.489 0-1.042.103-1.48.484-.465.404-.618.958-.618 1.47h2c0-.065.01-.078.002-.06a.284.284 0 01-.072.099c-.036.032-.057.034-.035.027a.765.765 0 01.203-.02v-2zm-2.099 1.954v1.152h2v-1.152h-2zm0 1.152c0 .523.177 1.073.662 1.458.442.35.99.442 1.472.442v-2a.984.984 0 01-.24-.023c-.036-.01-.022-.012.012.015a.3.3 0 01.087.114c.015.035.007.04.007-.006h-2zM1 21.772v-1H0v1h1zm88.897 0h1v-1h-1v1zm0 .45v1h1v-1h-1zM1 22.222H0v1h1v-1zm0 .55h88.897v-2H1v2zm87.897-1v.45h2v-.45h-2zm1-.55H1v2h88.897v-2zM2 22.222v-.45H0v.45h2z" fill="#000"/><a><path fill="none" d="M0 4.25h88.897v22.5H0z"/></a></svg>