<svg width="156" height="45" viewBox="0 0 156 45" fill="none" xmlns="http://www.w3.org/2000/svg"><g filter="url(#filter0_i)"><path d="M0 22.5C0 10.074 10.074 0 22.5 0h111C145.926 0 156 10.074 156 22.5S145.926 45 133.5 45h-111C10.074 45 0 34.926 0 22.5z" fill="#BC0E6C"/><path d="M50.317 25.643c0-.498-.176-.88-.527-1.143-.352-.27-.984-.55-1.899-.844-.914-.299-1.637-.591-2.17-.879-1.454-.785-2.18-1.842-2.18-3.172 0-.692.193-1.307.58-1.846.392-.545.952-.97 1.679-1.275.732-.304 1.552-.457 2.46-.457.915 0 1.73.167 2.444.501.715.328 1.268.794 1.661 1.398.398.603.598 1.289.598 2.056h-2.637c0-.585-.185-1.04-.554-1.362-.369-.328-.887-.492-1.555-.492-.645 0-1.146.138-1.503.413-.358.27-.536.627-.536 1.072 0 .416.208.765.624 1.046.421.281 1.04.545 1.854.791 1.5.451 2.593 1.01 3.278 1.679.686.668 1.029 1.5 1.029 2.496 0 1.107-.42 1.977-1.257 2.61-.838.627-1.966.94-3.384.94-.984 0-1.88-.178-2.69-.535-.808-.364-1.426-.859-1.854-1.486-.422-.627-.633-1.353-.633-2.18h2.646c0 1.413.844 2.119 2.531 2.119.627 0 1.116-.126 1.468-.378.351-.258.527-.615.527-1.072zm14.844-9.44v8.429c0 1.4-.44 2.508-1.318 3.322-.873.815-2.069 1.222-3.586 1.222-1.494 0-2.68-.396-3.56-1.187-.879-.79-1.327-1.878-1.344-3.26v-8.526h2.636v8.446c0 .838.2 1.45.598 1.837.404.381.96.572 1.67.572 1.482 0 2.235-.78 2.259-2.338v-8.517h2.645zM68.043 29V16.203h4.483c1.553 0 2.73.299 3.533.897.803.591 1.204 1.461 1.204 2.61 0 .627-.161 1.18-.483 1.661-.323.475-.77.823-1.345 1.046.656.164 1.172.495 1.547.993.38.498.571 1.108.571 1.828 0 1.23-.392 2.162-1.178 2.795-.785.633-1.904.955-3.357.967h-4.975zm2.637-5.572v3.454h2.259c.62 0 1.104-.147 1.45-.44.352-.298.527-.709.527-1.23 0-1.172-.606-1.767-1.819-1.784H70.68zm0-1.864h1.951c1.33-.023 1.995-.553 1.995-1.59 0-.58-.17-.997-.51-1.248-.333-.258-.864-.387-1.59-.387H70.68v3.226zm13.025-5.36l3.287 9.28 3.27-9.28h3.462V29H91.08v-3.498l.263-6.038L87.888 29h-1.81l-3.446-9.527.264 6.029V29H80.26V16.203h3.446zM99.55 29h-2.637V16.203h2.637V29zm12.541-10.661h-3.92V29h-2.637V18.339h-3.867v-2.136h10.424v2.136zM42.539 30.758h69.913v.879H42.539v-.88z" fill="#fff"/><a><path fill="none" d="M9.539 3.953h69.913v21.094H9.539z"/></a><path d="M22.5 1h111v-2h-111v2zm111 43h-111v2h111v-2zm-111 0C10.626 44 1 34.374 1 22.5h-2C-1 35.479 9.521 46 22.5 46v-2zM155 22.5c0 11.874-9.626 21.5-21.5 21.5v2c12.979 0 23.5-10.521 23.5-23.5h-2zM133.5 1c11.874 0 21.5 9.626 21.5 21.5h2C157 9.521 146.479-1 133.5-1v2zm-111-2C9.521-1-1 9.521-1 22.5h2C1 10.626 10.626 1 22.5 1v-2z" fill="#E5E5E5"/></g><defs><filter id="filter0_i" x="0" y="0" width="156" height="49" filterUnits="userSpaceOnUse" color-interpolation-filters="sRGB"><feFlood flood-opacity="0" result="BackgroundImageFix"/><feBlend in="SourceGraphic" in2="BackgroundImageFix" result="shape"/><feColorMatrix in="SourceAlpha" values="0 0 0 0 0 0 0 0 0 0 0 0 0 0 0 0 0 0 127 0" result="hardAlpha"/><feOffset dy="4"/><feGaussianBlur stdDeviation="2"/><feComposite in2="hardAlpha" operator="arithmetic" k2="-1" k3="1"/><feColorMatrix values="0 0 0 0 0 0 0 0 0 0 0 0 0 0 0 0 0 0 0.25 0"/><feBlend in2="shape" result="effect1_innerShadow"/></filter></defs></svg>