<svg width="118" height="37" viewBox="0 0 118 37" fill="none" xmlns="http://www.w3.org/2000/svg"><path d="M.5 18.5c0-9.941 8.059-18 18-18h81c9.941 0 18 8.059 18 18s-8.059 18-18 18h-81c-9.941 0-18-8.059-18-18z" fill="#fff"/><path d="M.5 18.5c0-9.941 8.059-18 18-18h81c9.941 0 18 8.059 18 18s-8.059 18-18 18h-81c-9.941 0-18-8.059-18-18z" stroke="#1C0DBE"/><path d="M.5 18.5c0-9.941 8.059-18 18-18h81c9.941 0 18 8.059 18 18s-8.059 18-18 18h-81c-9.941 0-18-8.059-18-18z" stroke="url(#paint0_linear)"/><path d="M.5 18.5c0-9.941 8.059-18 18-18h81c9.941 0 18 8.059 18 18s-8.059 18-18 18h-81c-9.941 0-18-8.059-18-18z" stroke="url(#paint1_linear)"/><defs><linearGradient id="paint0_linear" x1="59" y1="0" x2="59" y2="37" gradientUnits="userSpaceOnUse"><stop stop-color="#1C0DBE"/><stop offset="1" stop-color="#fff" stop-opacity="0"/></linearGradient><linearGradient id="paint1_linear" x1="59" y1="0" x2="59" y2="37" gradientUnits="userSpaceOnUse"><stop stop-color="#1C0DBE"/><stop offset="1" stop-color="#fff" stop-opacity="0"/></linearGradient></defs></svg>