<svg width="99" height="37" viewBox="0 0 99 37" fill="none" xmlns="http://www.w3.org/2000/svg"><path d="M3.43 18.328c-1.032 0-1.548-.402-1.548-1.206V15.52c0-.828.486-1.242 1.458-1.242h3.744c.48 0 .72.126.72.378 0 .216-.24.324-.72.324H4.15c-.672 0-1.008.36-1.008 1.08v.45c0 .756.33 1.134.99 1.134h2.124c1.032 0 1.548.402 1.548 1.206v1.944c0 .804-.498 1.206-1.494 1.206H2.584c-.468 0-.702-.114-.702-.342 0-.216.24-.324.72-.324h2.97c.648 0 .972-.318.972-.954v-.846c0-.804-.342-1.206-1.026-1.206H3.43zm6.205-3.708c0-.228.21-.342.63-.342h4.59c.432 0 .648.114.648.342 0 .24-.222.36-.666.36h-.63c-.684 0-1.026.312-1.026.936v5.256c0 .624-.21.936-.63.936-.408 0-.612-.312-.612-.936v-5.256c0-.624-.342-.936-1.026-.936h-.594c-.456 0-.684-.12-.684-.36zm12.07 2.52c.252-.252.378-.57.378-.954v-.396c-.024-.264-.108-.462-.252-.594-.145-.144-.354-.216-.63-.216h-1.477c-.695 0-1.044.402-1.044 1.206v.486c0 .804.343 1.206 1.026 1.206h.523c.396 0 .713-.114.954-.342l.521-.396zm.99 4.932c-.409 0-.613-.258-.613-.774V20.02a.558.558 0 00-.108-.306 1.893 1.893 0 00-.288-.36l-.521-.432c-.3-.228-.57-.342-.81-.342h-.649c-.683 0-1.026.342-1.026 1.026v1.638c0 .552-.21.828-.63.828-.42 0-.63-.294-.63-.882v-5.598c0-.876.462-1.314 1.386-1.314h2.988c1.032 0 1.549.408 1.549 1.224v1.188c-.06.348-.319.714-.774 1.098-.18.144-.27.294-.27.45 0 .144.084.294.252.45.48.456.744.828.792 1.116v1.458c0 .54-.216.81-.648.81zm5.539-.738h2.952c.384 0 .576.114.576.342 0 .216-.186.324-.558.324h-3.906c-.972 0-1.458-.396-1.458-1.188v-5.31c0-.816.486-1.224 1.458-1.224h3.906c.372 0 .558.114.558.342 0 .24-.192.36-.576.36h-2.952c-.756 0-1.134.312-1.134.936v.774c0 .636.366.954 1.098.954h2.97c.396 0 .594.102.594.306 0 .252-.192.378-.576.378h-2.988c-.732 0-1.098.318-1.098.954v1.152c0 .6.378.9 1.134.9zm7.944 0h2.952c.384 0 .576.114.576.342 0 .216-.186.324-.558.324h-3.906c-.972 0-1.458-.396-1.458-1.188v-5.31c0-.816.486-1.224 1.458-1.224h3.906c.372 0 .558.114.558.342 0 .24-.192.36-.576.36h-2.952c-.756 0-1.134.312-1.134.936v.774c0 .636.366.954 1.098.954h2.97c.396 0 .594.102.594.306 0 .252-.192.378-.576.378h-2.988c-.732 0-1.098.318-1.098.954v1.152c0 .6.378.9 1.134.9zm4.849-6.714c0-.228.21-.342.63-.342h4.59c.432 0 .648.114.648.342 0 .24-.222.36-.666.36h-.63c-.684 0-1.026.312-1.026.936v5.256c0 .624-.21.936-.63.936-.408 0-.612-.312-.612-.936v-5.256c0-.624-.342-.936-1.026-.936h-.594c-.456 0-.684-.12-.684-.36zm13.684 5.616c0 .732.342 1.098 1.026 1.098h2.574c.456 0 .684.114.684.342 0 .216-.222.324-.666.324h-3.438c-.96 0-1.44-.426-1.44-1.278v-5.634c0-.588.21-.882.63-.882.432 0 .648.312.648.936l-.018 5.094zm6.88 1.8c-.409 0-.613-.294-.613-.882l-.018-6.138c0-.564.204-.846.612-.846.42 0 .63.288.63.864l.018 6.12c0 .588-.21.882-.63.882zm8.487-7.056h-2.934c-.672 0-1.008.342-1.008 1.026v4.302c0 .684.354 1.026 1.062 1.026h1.278c.708 0 1.062-.426 1.062-1.278v-.99c0-.492-.282-.738-.846-.738h-.81c-.456 0-.684-.114-.684-.342 0-.228.216-.342.648-.342h1.62c.888 0 1.332.378 1.332 1.134v2.016c0 .804-.498 1.206-1.494 1.206h-2.988c-.96 0-1.44-.426-1.44-1.278v-5.13c0-.876.486-1.314 1.458-1.314h3.78c.456 0 .684.114.684.342 0 .24-.24.36-.72.36zm7.843 6.174v-1.89c0-.624-.36-.936-1.08-.936h-1.224c-.72 0-1.08.312-1.08.936l-.018 1.89c0 .6-.21.9-.63.9-.42 0-.63-.276-.63-.828V15.07c0-.564.21-.846.63-.846.432 0 .648.3.648.9v1.566c0 .636.36.954 1.08.954h1.26c.696 0 1.044-.318 1.044-.954v-1.566c0-.6.21-.9.63-.9.432 0 .648.282.648.846v6.156c0 .552-.216.828-.648.828-.42 0-.63-.3-.63-.9zm3.127-6.534c0-.228.21-.342.63-.342h4.59c.432 0 .648.114.648.342 0 .24-.222.36-.666.36h-.63c-.684 0-1.026.312-1.026.936v5.256c0 .624-.21.936-.63.936-.408 0-.612-.312-.612-.936v-5.256c0-.624-.342-.936-1.026-.936h-.594c-.456 0-.684-.12-.684-.36zM1 24.772h86.204v.45H1v-.45z" fill="#000"/><path d="M3.43 17.328c-.414 0-.54-.085-.546-.09l.008.009c.005.006.006.01.006.01 0-.003-.016-.04-.016-.135h-2c0 .632.216 1.26.772 1.693.51.397 1.158.513 1.776.513v-2zm-.548-.206V15.52h-2v1.602h2zm0-1.602a.52.52 0 01.022-.179c.004-.009 0 0-.009.009-.012.01.077-.072.445-.072v-2c-.604 0-1.244.125-1.742.55-.528.45-.716 1.078-.716 1.692h2zm.458-.242h3.744v-2H3.34v2zm3.744 0a.88.88 0 01.143.009c.02.003-.01.001-.068-.03a.7.7 0 01-.355-.602h2a1.301 1.301 0 00-.715-1.168c-.335-.176-.71-.209-1.005-.209v2zm-.28-.622c0-.144.045-.31.151-.454a.673.673 0 01.259-.215c.048-.022.068-.02.037-.016-.029.004-.082.009-.167.009v2c.284 0 .635-.027.95-.17.17-.075.37-.203.529-.417.166-.225.241-.485.241-.737h-2zm.28-.676H4.15v2h2.934v-2zm-2.934 0c-.509 0-1.069.14-1.487.588-.406.435-.521.994-.521 1.492h2c0-.105.013-.159.018-.175.002-.008.002-.005-.004.005a.26.26 0 01-.11.099c-.006.002.023-.009.104-.009v-2zm-2.008 2.08v.45h2v-.45h-2zm0 .45c0 .501.106 1.064.494 1.508.41.47.974.626 1.496.626v-2c-.072 0-.09-.01-.076-.005.007.003.022.01.04.021a.26.26 0 01.047.043c.028.033.029.05.021.024a.815.815 0 01-.022-.217h-2zm1.99 2.134h2.124v-2H4.132v2zm2.124 0c.414 0 .54.085.546.09l-.008-.009c-.005-.006-.006-.01-.006-.01 0 .003.016.04.016.135h2c0-.632-.216-1.26-.772-1.693-.51-.397-1.158-.513-1.776-.513v2zm.548.206v1.944h2V18.85h-2zm0 1.944c0 .1-.016.14-.018.146 0 .002 0-.001.005-.008a.067.067 0 01.011-.012c.004-.003-.102.08-.492.08v2c.606 0 1.247-.118 1.749-.523.543-.439.745-1.063.745-1.683h-2zM6.31 21H2.584v2H6.31v-2zm-3.726 0a.985.985 0 01-.147-.008c-.024-.004.004-.003.058.023a.677.677 0 01.256.228c.096.14.131.292.131.415h-2c0 .237.064.489.219.714.149.218.343.356.519.442.322.157.68.186.964.186v-2zm.298.658c0 .144-.045.31-.151.453a.673.673 0 01-.259.216c-.048.022-.068.02-.037.016.029-.004.082-.009.167-.009v-2c-.284 0-.635.027-.95.17-.17.075-.37.203-.529.417a1.232 1.232 0 00-.241.737h2zm-.28.676h2.97v-2h-2.97v2zm2.97 0c.473 0 1.013-.116 1.43-.525.42-.412.542-.952.542-1.429h-2a.565.565 0 01-.005.08l-.003.016a.305.305 0 01.15-.152l-.025.005a.653.653 0 01-.089.005v2zm1.972-1.954v-.846h-2v.846h2zm0-.846c0-.52-.107-1.097-.495-1.552-.414-.487-.989-.654-1.531-.654v2c.075 0 .096.011.084.006a.21.21 0 01-.076-.056c-.023-.028-.02-.037-.008.001a.971.971 0 01.026.255h2zm-2.026-2.206H3.43v2h2.088v-2zm5.117-2.708a.721.721 0 01-.365.622c-.067.036-.11.043-.102.041a.63.63 0 01.097-.005v-2c-.268 0-.625.03-.95.207-.176.096-.359.244-.493.462a1.28 1.28 0 00-.187.673h2zm-.37.658h4.59v-2h-4.59v2zm4.59 0c.067 0 .101.005.11.006.012.002-.027-.003-.09-.036a.727.727 0 01-.371-.628h2a1.273 1.273 0 00-.696-1.14c-.324-.172-.681-.202-.953-.202v2zm-.352-.658a.708.708 0 01.358-.61c.064-.034.102-.039.09-.037a.708.708 0 01-.114.007v2c.28 0 .646-.032.975-.21a1.294 1.294 0 00.691-1.15h-2zm.334-.64h-.63v2h.63v-2zm-.63 0c-.474 0-1.017.106-1.443.495-.444.405-.583.95-.583 1.441h2c0-.067.01-.083.004-.066a.305.305 0 01-.123.14c-.012.006-.018.007-.013.005a.887.887 0 01.158-.015v-2zm-2.026 1.936v5.256h2v-5.256h-2zm0 5.256a.918.918 0 01-.015.19c-.006.028-.005.003.028-.046a.495.495 0 01.189-.163.399.399 0 01.168-.045v2c.498 0 .987-.208 1.302-.676.268-.397.328-.867.328-1.26h-2zm.37-.064a.506.506 0 01.378.219c.032.048.032.072.025.041a.98.98 0 01-.015-.196h-2c0 .39.058.854.316 1.25a1.51 1.51 0 001.296.686v-2zm.388.064v-5.256h-2v5.256h2zm0-5.256c0-.491-.139-1.036-.582-1.44-.427-.39-.97-.496-1.444-.496v2a.89.89 0 01.158.015l-.013-.006a.31.31 0 01-.122-.14c-.006-.016.003 0 .003.067h2zm-2.026-1.936h-.594v2h.594v-2zm-.594 0a.786.786 0 01-.126-.008c-.017-.002.018.001.079.033a.713.713 0 01.363.615h-2a1.288 1.288 0 00.705 1.155c.33.173.696.205.98.205v-2zm11.385 3.16l.605.797.054-.042.049-.048-.707-.707zm.378-1.35h1v-.045l-.004-.045-.995.09zm-.252-.594l-.707.707.016.015.016.015.675-.737zm-.647 2.34l-.605-.797-.044.034-.04.038.689.725zm.791 2.178l-.857.515.012.02.013.02.832-.555zm-.288-.36l.708-.707-.034-.033-.036-.03-.638.77zm-.521-.432l.637-.77-.016-.014-.016-.012-.605.796zm2.178-2.232l.985.17.015-.084v-.086h-1zm-.774 1.098l.624.78.01-.007.01-.008-.645-.765zm-.018.9l.688-.725-.008-.008-.68.733zm.792 1.116h1v-.083l-.014-.081-.986.164zm-.931-1.957c.455-.455.67-1.035.67-1.661h-2c0 .142-.036.198-.085.247l1.415 1.414zm.67-1.661v-.396h-2v.396h2zm-.004-.486c-.038-.423-.187-.889-.572-1.241l-1.351 1.474a.343.343 0 01-.074-.099c-.007-.016 0-.005.006.046l1.991-.18zm-.54-1.211c-.39-.39-.893-.509-1.337-.509v2c.053 0 .06.007.04 0a.354.354 0 01-.117-.077l1.414-1.414zM21.2 13.98h-1.477v2h1.477v-2zm-1.477 0c-.542 0-1.12.163-1.539.647-.394.456-.505 1.035-.505 1.559h2a.94.94 0 01.027-.25c.01-.037.014-.027-.01 0a.198.198 0 01-.07.053c-.008.003.017-.009.098-.009v-2zm-2.044 2.206v.486h2v-.486h-2zm0 .486c0 .52.108 1.097.495 1.552.414.487.99.654 1.531.654v-2c-.075 0-.096-.011-.084-.006a.21.21 0 01.077.056c.023.028.019.037.008-.001a.969.969 0 01-.027-.255h-2zm2.026 2.206h.523v-2h-.523v2zm.523 0c.598 0 1.18-.179 1.642-.617l-1.377-1.45c-.019.018-.072.067-.265.067v2zm1.558-.545l.522-.396-1.209-1.594-.522.396 1.209 1.594zm.908 2.739c.001 0 .05 0 .12.03.077.033.15.087.205.156a.36.36 0 01.068.124c.001.006-.006-.018-.006-.084h-2c0 .363.068.82.37 1.2.336.427.814.574 1.242.574v-2zm.387.226V20.02h-2v1.278h2zm0-1.278c0-.352-.131-.645-.275-.86l-1.665 1.109a.305.305 0 01-.03-.065.557.557 0 01-.03-.184h2zm-.25-.82a2.89 2.89 0 00-.438-.553l-1.415 1.414c.074.074.116.13.138.168l1.715-1.03zm-.508-.616l-.522-.432-1.275 1.54.522.432 1.275-1.54zm-.554-.458c-.382-.29-.864-.546-1.415-.546v2c-.04 0-.045-.01-.007.007.04.017.11.054.211.131l1.21-1.592zm-1.415-.546h-.649v2h.649v-2zm-.649 0c-.496 0-1.051.125-1.476.55-.425.424-.55.98-.55 1.476h2c0-.044.003-.077.006-.099l.007-.034s-.002.008-.01.022a.256.256 0 01-.087.087c-.014.008-.023.011-.022.01 0 0 .011-.003.034-.006a.707.707 0 01.098-.006v-2zm-2.026 2.026v1.638h2v-1.638h-2zm0 1.638a.54.54 0 01-.008.116c0 .003.01-.04.055-.1.05-.066.12-.121.198-.156a.34.34 0 01.125-.032v2c.45 0 .934-.162 1.269-.601.295-.389.361-.853.361-1.227h-2zm.37-.172a.37.37 0 01.148.039c.083.039.15.098.194.16.039.054.044.089.04.073a.72.72 0 01-.011-.154h-2c0 .383.062.85.343 1.243.325.455.814.639 1.287.639v-2zm.37.118v-5.598h-2v5.598h2zm0-5.598c0-.27.069-.292.035-.26-.024.023.03-.054.352-.054v-2c-.604 0-1.242.142-1.728.603-.496.47-.659 1.105-.659 1.711h2zm.386-.314h2.988v-2h-2.988v2zm2.988 0c.412 0 .535.086.541.09l-.007-.007-.004-.006a.41.41 0 01.018.147h2c0-.633-.211-1.264-.766-1.702-.51-.404-1.16-.522-1.782-.522v2zm.549.224v1.188h2v-1.188h-2zm.014 1.018c.001-.006-.005.036-.07.13-.067.094-.18.22-.363.373l1.289 1.53c.522-.44.995-1 1.115-1.693l-1.971-.34zm-.413.487c-.3.24-.645.648-.645 1.231h2a.562.562 0 01-.075.285c-.033.054-.056.066-.03.046l-1.25-1.562zm-.645 1.231c0 .55.317.947.571 1.183l1.361-1.466c-.032-.029-.02-.026.003.015a.556.556 0 01.064.268h-2zm.563 1.175c.212.201.349.36.431.475.089.125.074.146.063.08l1.973-.328c-.06-.354-.23-.663-.405-.91a5.398 5.398 0 00-.685-.767l-1.377 1.45zm.48.391v1.458h2v-1.458h-2zm0 1.458c0 .072-.007.1-.006.097a.339.339 0 01.064-.114.498.498 0 01.193-.147c.066-.027.107-.026.102-.026v2c.436 0 .922-.148 1.266-.578.31-.387.382-.855.382-1.232h-2zm5.892 1.072h2.952v-2h-2.952v2zm2.952 0c.05 0 .066.004.058.002a.45.45 0 01-.137-.057.713.713 0 01-.345-.603h2c0-.458-.227-.875-.634-1.116-.325-.194-.684-.226-.942-.226v2zm-.424-.658c0-.093.021-.223.098-.356a.724.724 0 01.26-.266c.134-.077.206-.054.084-.054v2c.25 0 .6-.03.92-.216.403-.234.638-.645.638-1.108h-2zm.442-.676h-3.906v2h3.906v-2zm-3.906 0c-.376 0-.472-.08-.462-.072a.088.088 0 01.014.015l.006.01a.409.409 0 01-.016-.141h-2c0 .61.197 1.23.733 1.666.496.405 1.129.522 1.725.522v-2zm-.458-.188v-5.31h-2v5.31h2zm0-5.31a.48.48 0 01.02-.167c.002-.005-.003.006-.013.015-.011.01.08-.072.45-.072v-2c-.6 0-1.238.123-1.736.54-.53.446-.721 1.072-.721 1.684h2zm.458-.224h3.906v-2h-3.906v2zm3.906 0c.116 0 .035.024-.104-.062a.716.716 0 01-.338-.596h2c0-.443-.212-.86-.617-1.11-.326-.199-.686-.232-.941-.232v2zm-.442-.658a.703.703 0 01.326-.578c.138-.087.218-.062.098-.062v2c.264 0 .631-.035.962-.242.409-.256.614-.678.614-1.118h-2zm.424-.64h-2.952v2h2.952v-2zm-2.952 0c-.49 0-1.045.097-1.487.463-.48.396-.647.95-.647 1.473h2c0-.057.008-.062-.002-.035a.283.283 0 01-.078.104c-.034.028-.05.027-.017.018a.909.909 0 01.23-.023v-2zM26.1 15.916v.774h2v-.774h-2zm0 .774c0 .512.153 1.066.618 1.47.438.38.991.484 1.48.484v-2a.765.765 0 01-.203-.02c-.022-.007 0-.005.035.027a.284.284 0 01.072.098c.007.02-.002.006-.002-.059h-2zm2.098 1.954h2.97v-2h-2.97v2zm2.97 0c.059 0 .086.004.09.005.007 0-.036-.005-.103-.04a.76.76 0 01-.394-.66h2a1.24 1.24 0 00-.69-1.118c-.311-.16-.652-.187-.903-.187v2zm-.406-.694a.694.694 0 01.307-.552c.143-.095.231-.07.117-.07v2c.27 0 .645-.038.98-.258.409-.269.596-.696.596-1.12h-2zm.424-.622h-2.988v2h2.988v-2zm-2.988 0c-.489 0-1.042.103-1.48.484-.465.404-.618.958-.618 1.47h2c0-.065.01-.078.002-.06a.284.284 0 01-.072.099c-.036.032-.057.034-.035.027a.765.765 0 01.203-.02v-2zM26.1 19.282v1.152h2v-1.152h-2zm0 1.152c0 .523.176 1.073.662 1.458.44.35.988.442 1.472.442v-2a.984.984 0 01-.24-.023c-.037-.01-.023-.012.01.015a.3.3 0 01.089.114c.014.035.007.04.007-.006h-2zm10.078 1.9h2.952v-2h-2.952v2zm2.952 0c.05 0 .066.004.058.002a.45.45 0 01-.136-.057.713.713 0 01-.346-.603h2c0-.458-.226-.875-.633-1.116-.325-.194-.684-.226-.943-.226v2zm-.424-.658c0-.093.022-.223.098-.356a.724.724 0 01.26-.266c.135-.077.206-.054.084-.054v2c.25 0 .601-.03.921-.216.403-.234.637-.645.637-1.108h-2zm.442-.676h-3.906v2h3.906v-2zm-3.906 0c-.376 0-.472-.08-.461-.072a.084.084 0 01.014.015l.006.01a.412.412 0 01-.017-.141h-2c0 .61.198 1.23.733 1.666.496.405 1.13.522 1.725.522v-2zm-.458-.188v-5.31h-2v5.31h2zm0-5.31a.48.48 0 01.02-.167c.003-.005-.002.006-.012.015-.011.01.08-.072.45-.072v-2c-.601 0-1.239.123-1.736.54-.531.446-.722 1.072-.722 1.684h2zm.458-.224h3.906v-2h-3.906v2zm3.906 0c.117 0 .036.024-.104-.062a.716.716 0 01-.338-.596h2c0-.443-.211-.86-.617-1.11-.325-.199-.685-.232-.94-.232v2zm-.442-.658a.703.703 0 01.326-.578c.139-.087.219-.062.098-.062v2c.264 0 .632-.035.962-.242.41-.256.614-.678.614-1.118h-2zm.424-.64h-2.952v2h2.952v-2zm-2.952 0c-.49 0-1.044.097-1.487.463-.48.396-.647.95-.647 1.473h2c0-.057.01-.062-.002-.035a.283.283 0 01-.078.104c-.033.028-.049.027-.017.018a.909.909 0 01.231-.023v-2zm-2.134 1.936v.774h2v-.774h-2zm0 .774c0 .512.154 1.066.619 1.47.438.38.991.484 1.48.484v-2a.765.765 0 01-.203-.02c-.023-.007-.001-.005.035.027a.284.284 0 01.072.098c.007.02-.003.006-.003-.059h-2zm2.098 1.954h2.97v-2h-2.97v2zm2.97 0c.06 0 .087.004.091.005.007 0-.036-.005-.103-.04a.76.76 0 01-.394-.66h2a1.24 1.24 0 00-.69-1.118c-.312-.16-.652-.187-.904-.187v2zm-.406-.694a.693.693 0 01.307-.552c.144-.095.232-.07.117-.07v2c.27 0 .646-.038.981-.258.409-.269.595-.696.595-1.12h-2zm.424-.622h-2.988v2h2.988v-2zm-2.988 0c-.488 0-1.041.103-1.479.484-.465.404-.619.958-.619 1.47h2c0-.065.01-.078.003-.06a.284.284 0 01-.072.099c-.036.032-.058.034-.035.027a.765.765 0 01.202-.02v-2zm-2.098 1.954v1.152h2v-1.152h-2zm0 1.152c0 .523.177 1.073.662 1.458.441.35.989.442 1.472.442v-2a.982.982 0 01-.24-.023c-.037-.01-.023-.012.011.015a.3.3 0 01.088.114c.015.035.007.04.007-.006h-2zm7.983-5.814a.721.721 0 01-.366.622c-.066.036-.109.043-.102.041a.63.63 0 01.098-.005v-2c-.268 0-.626.03-.95.207-.177.096-.359.244-.493.462a1.28 1.28 0 00-.187.673h2zm-.37.658h4.59v-2h-4.59v2zm4.59 0c.067 0 .1.005.11.006.012.002-.027-.003-.09-.036a.728.728 0 01-.371-.628h1.999a1.273 1.273 0 00-.695-1.14c-.324-.172-.682-.202-.953-.202v2zm-.352-.658a.708.708 0 01.358-.61c.063-.034.102-.039.09-.037a.708.708 0 01-.114.007v2c.28 0 .645-.032.975-.21a1.293 1.293 0 00.69-1.15h-2zm.334-.64h-.63v2h.63v-2zm-.63 0c-.475 0-1.017.106-1.443.495-.444.405-.583.95-.583 1.441h2c0-.067.01-.083.003-.066a.305.305 0 01-.122.14l-.013.005a.89.89 0 01.158-.015v-2zm-2.026 1.936v5.256h2v-5.256h-2zm0 5.256a.918.918 0 01-.015.19c-.006.028-.005.003.028-.046a.495.495 0 01.189-.163.398.398 0 01.168-.045v2c.497 0 .987-.208 1.302-.676.268-.397.328-.867.328-1.26h-2zm.37-.064a.505.505 0 01.378.219c.032.048.032.072.025.041a.98.98 0 01-.015-.196h-2c0 .39.058.854.316 1.25a1.51 1.51 0 001.296.686v-2zm.388.064v-5.256h-2v5.256h2zm0-5.256c0-.491-.139-1.036-.583-1.44-.426-.39-.968-.496-1.443-.496v2a.89.89 0 01.158.015l-.013-.006a.305.305 0 01-.123-.14c-.006-.016.004 0 .004.067h2zm-2.026-1.936h-.594v2h.594v-2zm-.594 0a.786.786 0 01-.127-.008c-.016-.002.02.001.08.033a.713.713 0 01.363.615h-2a1.288 1.288 0 00.705 1.155c.33.173.696.205.979.205v-2zm13 6.256l-1-.003v.003h1zm.018-5.094l1 .004v-.004h-1zm-1.018 5.094c0 .504.117 1.068.526 1.506.422.451.986.592 1.5.592v-2c-.084 0-.116-.012-.113-.01.003 0 .013.004.028.014.016.01.032.023.047.039.03.033.036.057.031.042a.656.656 0 01-.019-.183h-2zm2.026 2.098h2.574v-2h-2.574v2zm2.574 0c.075 0 .118.005.135.008.02.003-.011 0-.069-.028a.738.738 0 01-.382-.638h2c0-.232-.06-.48-.21-.704a1.32 1.32 0 00-.513-.447c-.323-.161-.682-.191-.96-.191v2zm-.316-.658c0-.127.036-.281.134-.423a.693.693 0 01.262-.233c.058-.028.09-.03.07-.027a.87.87 0 01-.132.007v2c.271 0 .62-.028.937-.182a1.31 1.31 0 00.513-.435c.153-.223.216-.472.216-.707h-2zM58.33 21h-3.438v2h3.438v-2zm-3.438 0c-.353 0-.431-.081-.416-.067.01.008.009.014.002-.003a.62.62 0 01-.026-.208h-2c0 .613.178 1.247.697 1.706.495.44 1.137.572 1.743.572v-2zm-.44-.278v-5.634h-2v5.634h2zm0-5.634a.72.72 0 01.013-.154c.003-.016-.002.019-.041.074a.502.502 0 01-.194.16.37.37 0 01-.148.038v-2c-.473 0-.96.184-1.286.64-.28.392-.344.86-.344 1.242h2zm-.37.118a.368.368 0 01-.15-.04.485.485 0 01-.186-.157c-.034-.05-.036-.077-.03-.052a.871.871 0 01.014.185h2c0-.396-.063-.871-.34-1.271-.322-.467-.816-.665-1.308-.665v2zm-.352-.067l-.018 5.094 2 .006.018-5.094-2-.006zm7.25 6.015h1v-.003l-1 .003zm-.019-6.138h-1v.003l1-.003zm1.242.018h-1v.003l1-.003zm.018 6.12h1v-.003l-1 .003zm-.63-.118a.4.4 0 01.165.043.513.513 0 01.198.166c.037.055.042.088.038.07a.768.768 0 01-.013-.161h-2c0 .379.06.84.332 1.232.317.457.802.65 1.28.65v-2zm.388.115l-.018-6.138-2 .006.018 6.138 2-.006zm-.018-6.135c0-.084.008-.125.01-.136.003-.01-.005.03-.047.088a.518.518 0 01-.2.163.381.381 0 01-.15.039v-2c-.463 0-.946.177-1.27.625-.28.388-.343.848-.343 1.221h2zm-.388.154a.362.362 0 01-.14-.037.506.506 0 01-.195-.158c-.041-.056-.049-.094-.046-.083a.664.664 0 01.011.142h2c0-.38-.064-.846-.35-1.237-.328-.45-.815-.627-1.28-.627v2zm-.37-.133l.018 6.12 2-.006-.018-6.12-2 .006zm.018 6.117c0 .09-.008.138-.012.154-.004.016.002-.019.041-.074a.502.502 0 01.194-.16.37.37 0 01.147-.038v2c.473 0 .961-.184 1.286-.64.281-.392.344-.86.344-1.242h-2zm8.858-7.174h-2.934v2h2.934v-2zm-2.934 0c-.495 0-1.049.127-1.47.556-.417.425-.538.978-.538 1.47h2a.752.752 0 01.013-.138c0-.001-.002.007-.01.02a.259.259 0 01-.115.103l.027-.005a.658.658 0 01.093-.006v-2zm-2.008 2.026v4.302h2v-4.302h-2zm0 4.302c0 .505.132 1.066.57 1.489.432.417.992.537 1.492.537v-2a.562.562 0 01-.158-.016l.012.007a.252.252 0 01.082.081c.01.014.013.024.013.025 0 0-.003-.008-.006-.029a.661.661 0 01-.005-.094h-2zm2.062 2.026h1.278v-2h-1.278v2zm1.278 0c.561 0 1.148-.178 1.565-.68.388-.467.497-1.058.497-1.598h-2c0 .147-.016.24-.03.292-.014.05-.023.05-.005.027a.18.18 0 01.065-.049c.01-.004-.014.008-.092.008v2zm2.062-2.278v-.99h-2v.99h2zm0-.99c0-.438-.132-.939-.554-1.307-.396-.346-.887-.431-1.292-.431v2c.071 0 .097.008.09.006a.33.33 0 01-.113-.068.43.43 0 01-.118-.166c-.018-.046-.013-.064-.013-.034h2zm-1.846-1.738h-.81v2h.81v-2zm-.81 0a.88.88 0 01-.135-.008c-.02-.003.011 0 .069.028a.738.738 0 01.382.638h-2c0 .232.06.48.21.704.146.219.338.36.513.447.323.161.682.191.96.191v-2zm.316.658a.728.728 0 01-.372.628c-.063.034-.102.038-.09.036a.717.717 0 01.11-.006v-2c-.272 0-.63.03-.953.201a1.273 1.273 0 00-.695 1.14h2zm-.352.658h1.62v-2h-1.62v2zm1.62 0c.325 0 .383.073.35.045a.138.138 0 01-.023-.026l-.01-.017c0 .002.015.039.015.132h2c0-.578-.178-1.18-.685-1.612-.477-.406-1.085-.522-1.647-.522v2zm.332.134v2.016h2v-2.016h-2zm0 2.016c0 .1-.016.14-.018.146 0 .002 0-.001.005-.008a.066.066 0 01.011-.012c.004-.003-.103.08-.492.08v2c.606 0 1.246-.118 1.748-.523.543-.439.746-1.063.746-1.683h-2zm-.494.206h-2.988v2h2.988v-2zm-2.988 0c-.354 0-.432-.081-.416-.067.009.008.008.014.002-.003a.62.62 0 01-.026-.208h-2c0 .613.178 1.247.696 1.706.495.44 1.137.572 1.744.572v-2zm-.44-.278v-5.13h-2v5.13h2zm0-5.13c0-.256.066-.272.034-.243-.013.011.068-.071.424-.071v-2c-.616 0-1.265.136-1.763.586-.518.467-.695 1.107-.695 1.728h2zm.458-.314h3.78v-2h-3.78v2zm3.78 0c.075 0 .117.005.135.008.02.003-.012 0-.07-.028a.737.737 0 01-.382-.638h2c0-.232-.06-.48-.21-.704a1.32 1.32 0 00-.513-.447c-.323-.161-.681-.191-.96-.191v2zm-.316-.658a.724.724 0 01.373-.624c.054-.028.082-.029.057-.025a.98.98 0 01-.15.009v2c.29 0 .658-.031.987-.196.178-.089.373-.231.52-.452.151-.227.213-.477.213-.712h-2zm4.739 4.644l1 .01v-.01h-1zm-.018 1.89l-1-.01v.01h1zm4.402 0v-1.89h-2v1.89h2zm0-1.89c0-.506-.153-1.057-.615-1.458-.435-.377-.983-.478-1.465-.478v2c.11 0 .171.012.195.02.02.005-.003.002-.04-.03a.298.298 0 01-.076-.105c-.008-.021 0-.011 0 .051h2zm-2.08-1.936h-1.224v2h1.224v-2zm-1.224 0c-.482 0-1.03.101-1.465.478-.462.401-.615.952-.615 1.458h2c0-.062.01-.072 0-.05a.298.298 0 01-.076.104c-.037.032-.06.035-.04.03a.748.748 0 01.196-.02v-2zm-2.08 1.927l-.018 1.89 2 .018.018-1.89-2-.018zm-.018 1.899a.787.787 0 01-.013.166c-.005.02 0-.012.036-.064a.5.5 0 01.193-.161.38.38 0 01.154-.041v2c.48 0 .97-.192 1.292-.651.276-.395.338-.863.338-1.249h-2zm.37-.1a.34.34 0 01.126.032c.078.035.148.09.197.155.046.06.056.104.056.101a.54.54 0 01-.01-.116h-2c0 .374.067.838.363 1.227.334.44.82.601 1.268.601v-2zm.37.172V15.07h-2v6.156h2zm0-6.156c0-.082.008-.121.01-.13.001-.006-.007.035-.05.093a.506.506 0 01-.197.157.35.35 0 01-.133.034v-2c-.457 0-.943.169-1.275.614-.29.39-.355.855-.355 1.232h2zm-.37.154a.35.35 0 01-.137-.036.49.49 0 01-.189-.155c-.038-.053-.043-.086-.039-.07a.74.74 0 01.013.161h2c0-.39-.065-.863-.35-1.26-.33-.457-.822-.64-1.298-.64v2zm-.352-.1v1.566h2v-1.566h-2zm0 1.566c0 .506.149 1.06.608 1.465.435.384.986.489 1.472.489v-2a.719.719 0 01-.19-.019c-.019-.005.005-.002.042.031a.292.292 0 01.071.098c.007.018-.003.003-.003-.064h-2zm2.08 1.954h1.26v-2h-1.26v2zm1.26 0c.48 0 1.028-.108 1.458-.5.446-.408.586-.957.586-1.454h-2c0 .07-.01.089-.005.075a.291.291 0 01.116-.132l.01-.005a.89.89 0 01-.165.016v2zm2.044-1.954v-1.566h-2v1.566h2zm0-1.566c0-.095.008-.147.013-.167.005-.02 0 .012-.036.066a.5.5 0 01-.193.16.38.38 0 01-.154.041v-2c-.481 0-.97.192-1.292.652-.276.394-.338.862-.338 1.248h2zm-.37.1s-.011 0-.032-.004a.496.496 0 01-.276-.177c-.045-.058-.055-.1-.054-.096.002.006.01.043.01.123h2c0-.382-.068-.851-.368-1.243-.339-.442-.828-.603-1.28-.603v2zm-.352-.154v6.156h2V15.07h-2zm0 6.156a.765.765 0 01-.004.083l-.004.027s.012-.046.058-.105a.497.497 0 01.194-.149c.067-.029.11-.028.108-.028v2c.444 0 .932-.154 1.273-.59.305-.39.375-.859.375-1.238h-2zm.352-.172a.38.38 0 01.154.04.5.5 0 01.193.162c.037.052.04.084.036.064a.787.787 0 01-.013-.166h-2c0 .386.062.854.338 1.248.322.46.81.652 1.292.652v-2zm3.497-6.434a.721.721 0 01-.365.622c-.067.036-.11.043-.103.041a.633.633 0 01.098-.005v-2c-.268 0-.625.03-.95.207-.176.096-.359.244-.493.462a1.28 1.28 0 00-.187.673h2zm-.37.658h4.59v-2h-4.59v2zm4.59 0c.067 0 .101.005.11.006.012.002-.027-.003-.09-.036a.727.727 0 01-.371-.628h2a1.273 1.273 0 00-.696-1.14c-.324-.172-.681-.202-.953-.202v2zm-.352-.658a.707.707 0 01.358-.61c.064-.034.102-.039.09-.037a.709.709 0 01-.114.007v2c.28 0 .646-.032.975-.21a1.294 1.294 0 00.691-1.15h-2zm.334-.64h-.63v2h.63v-2zm-.63 0c-.475 0-1.017.106-1.443.495-.444.405-.583.95-.583 1.441h2c0-.067.01-.083.004-.066a.309.309 0 01-.123.14c-.012.006-.018.007-.013.005a.887.887 0 01.158-.015v-2zm-2.026 1.936v5.256h2v-5.256h-2zm0 5.256a.926.926 0 01-.015.19c-.006.028-.005.003.028-.046a.495.495 0 01.189-.163.399.399 0 01.168-.045v2c.497 0 .987-.208 1.302-.676.268-.397.328-.867.328-1.26h-2zm.37-.064a.506.506 0 01.378.219c.032.048.032.072.025.041a.972.972 0 01-.015-.196h-2c0 .39.058.854.316 1.25a1.51 1.51 0 001.296.686v-2zm.388.064v-5.256h-2v5.256h2zm0-5.256c0-.491-.139-1.036-.582-1.44-.427-.39-.97-.496-1.444-.496v2a.887.887 0 01.158.015l-.013-.006a.309.309 0 01-.123-.14c-.005-.016.004 0 .004.067h2zm-2.026-1.936h-.594v2h.594v-2zm-.594 0a.786.786 0 01-.126-.008c-.017-.002.018.001.079.033a.713.713 0 01.363.615h-2a1.287 1.287 0 00.705 1.155c.33.173.696.205.98.205v-2zM1 24.772v-1H0v1h1zm86.204 0h1v-1h-1v1zm0 .45v1h1v-1h-1zM1 25.222H0v1h1v-1zm0 .55h86.204v-2H1v2zm85.204-1v.45h2v-.45h-2zm1-.55H1v2h86.204v-2zM2 25.222v-.45H0v.45h2z" fill="#000"/><a><path fill="none" d="M0 7.25h86.204v22.5H0z"/></a></svg>