<svg width="267" height="29" viewBox="0 0 267 29" fill="none" xmlns="http://www.w3.org/2000/svg"><path d="M17.125 15.356h-1.634V19h-2.05V9.047h3.698c1.175 0 2.082.262 2.72.786.638.524.957 1.265.957 2.222 0 .679-.148 1.246-.444 1.702-.292.451-.736.811-1.333 1.08l2.153 4.067V19h-2.2l-1.867-3.644zm-1.634-1.66h1.654c.515 0 .914-.13 1.197-.39.282-.265.424-.627.424-1.087 0-.47-.135-.839-.404-1.108-.264-.269-.672-.403-1.223-.403H15.49v2.987zm12.88.99h-3.938v2.666h4.62V19h-6.671V9.047h6.658v1.661h-4.607v2.372h3.937v1.607zm9.76 3.056c-.368.442-.89.786-1.565 1.032-.674.242-1.422.363-2.242.363-.861 0-1.618-.187-2.27-.56-.646-.38-1.148-.926-1.503-1.642-.351-.715-.531-1.556-.54-2.522v-.677c0-.993.166-1.852.499-2.577.337-.729.82-1.285 1.449-1.668.633-.387 1.374-.58 2.222-.58 1.18 0 2.103.282 2.768.847.666.56 1.06 1.378 1.183 2.454h-1.996c-.091-.57-.294-.987-.609-1.251-.31-.264-.738-.396-1.285-.396-.697 0-1.228.261-1.593.786-.364.524-.549 1.303-.553 2.337v.636c0 1.044.198 1.832.594 2.365.397.534.978.8 1.744.8.77 0 1.319-.164 1.647-.492v-1.716h-1.866v-1.51h3.917v3.971zM41.982 19H39.93V9.047h2.05V19zm7.068-2.611c0-.388-.137-.684-.41-.889-.274-.21-.766-.428-1.477-.656-.71-.233-1.274-.46-1.688-.684-1.13-.61-1.696-1.433-1.696-2.468a2.4 2.4 0 01.452-1.435c.305-.424.74-.754 1.305-.991.57-.237 1.208-.356 1.914-.356.711 0 1.345.13 1.9.39.557.255.987.617 1.293 1.087.31.47.464 1.002.464 1.6h-2.05c0-.456-.144-.81-.431-1.06-.287-.255-.69-.383-1.21-.383-.501 0-.89.107-1.169.321a.994.994 0 00-.417.834c0 .324.162.595.486.814.328.218.808.424 1.442.615 1.166.35 2.016.786 2.55 1.306.533.52.8 1.166.8 1.941 0 .861-.326 1.538-.978 2.03-.652.488-1.53.732-2.632.732-.766 0-1.463-.14-2.092-.417-.629-.283-1.11-.668-1.442-1.155-.328-.488-.492-1.053-.492-1.696h2.057c0 1.098.657 1.648 1.97 1.648.487 0 .867-.098 1.14-.294.274-.2.41-.479.41-.834zm10.944-5.681h-3.049V19h-2.05v-8.292h-3.008V9.047h8.107v1.661zm7.164 3.979H63.22v2.665h4.62V19H61.17V9.047h6.658v1.661H63.22v2.372h3.937v1.607zm5.572.67h-1.634V19h-2.051V9.047h3.698c1.176 0 2.083.262 2.72.786.639.524.958 1.265.958 2.222 0 .679-.148 1.246-.444 1.702-.292.451-.736.811-1.333 1.08l2.153 4.067V19h-2.201l-1.867-3.644zm-1.634-1.662h1.654c.515 0 .914-.13 1.196-.39.283-.264.424-.626.424-1.086 0-.47-.134-.839-.403-1.108-.264-.269-.672-.403-1.224-.403h-1.647v2.987zm18.552.554c0 .98-.173 1.839-.52 2.577-.345.738-.842 1.308-1.49 1.71-.642.4-1.38.6-2.214.6-.825 0-1.561-.197-2.208-.594-.647-.397-1.149-.962-1.504-1.695-.355-.739-.535-1.586-.54-2.543v-.492c0-.98.175-1.842.526-2.585.356-.747.855-1.319 1.497-1.715.647-.401 1.386-.602 2.215-.602.83 0 1.566.2 2.208.602.647.396 1.146.968 1.497 1.715.356.743.533 1.602.533 2.578v.444zm-2.078-.451c0-1.044-.187-1.837-.56-2.38-.374-.541-.907-.813-1.6-.813-.688 0-1.219.27-1.593.807-.373.533-.562 1.317-.567 2.352v.485c0 1.016.187 1.805.56 2.365.374.56.912.841 1.614.841.688 0 1.217-.269 1.586-.807.369-.542.556-1.33.56-2.365v-.485zm7.253 1.558H93.19V19h-2.051V9.047h3.698c1.176 0 2.083.262 2.72.786.639.524.958 1.265.958 2.222 0 .679-.148 1.246-.445 1.702-.291.451-.736.811-1.333 1.08l2.154 4.067V19h-2.201l-1.867-3.644zm-1.633-1.66h1.654c.515 0 .913-.13 1.196-.39.283-.265.424-.627.424-1.087 0-.47-.134-.839-.403-1.108-.265-.269-.673-.403-1.224-.403h-1.647v2.987zm15.538 2.693c0-.388-.137-.684-.411-.889-.273-.21-.765-.428-1.476-.656-.711-.233-1.274-.46-1.689-.684-1.13-.61-1.695-1.433-1.695-2.468a2.4 2.4 0 01.451-1.435c.306-.424.741-.754 1.306-.991.57-.237 1.208-.356 1.914-.356.711 0 1.344.13 1.9.39.556.255.987.617 1.292 1.087.31.47.465 1.002.465 1.6h-2.051c0-.456-.143-.81-.43-1.06-.287-.255-.691-.383-1.21-.383-.502 0-.891.107-1.169.321a.994.994 0 00-.417.834c0 .324.162.595.485.814.328.218.809.424 1.443.615 1.166.35 2.016.786 2.549 1.306.534.52.8 1.166.8 1.941 0 .861-.326 1.538-.977 2.03-.652.488-1.529.732-2.632.732-.766 0-1.463-.14-2.092-.417-.629-.283-1.11-.668-1.442-1.155-.329-.488-.493-1.053-.493-1.696h2.058c0 1.098.656 1.648 1.969 1.648.487 0 .868-.098 1.141-.294.274-.2.411-.479.411-.834zM114.359 19h-2.05V9.047h2.05V19zm9.783-1.258c-.37.442-.891.786-1.566 1.032-.674.242-1.422.363-2.242.363-.861 0-1.618-.187-2.27-.56-.647-.38-1.148-.926-1.503-1.642-.351-.715-.531-1.556-.54-2.522v-.677c0-.993.166-1.852.499-2.577.337-.729.82-1.285 1.449-1.668.633-.387 1.374-.58 2.221-.58 1.181 0 2.104.282 2.769.847.665.56 1.06 1.378 1.183 2.454h-1.996c-.092-.57-.294-.987-.609-1.251-.31-.264-.738-.396-1.285-.396-.697 0-1.228.261-1.593.786-.364.524-.549 1.303-.554 2.337v.636c0 1.044.199 1.832.595 2.365.397.534.978.8 1.743.8.771 0 1.32-.164 1.648-.492v-1.716h-1.866v-1.51h3.917v3.971zM133.903 19h-2.05l-3.993-6.549V19h-2.05V9.047h2.05l3.999 6.562V9.047h2.044V19zm9.325-9.953v6.555c0 1.09-.342 1.951-1.026 2.584-.679.634-1.609.95-2.789.95-1.162 0-2.085-.307-2.768-.922-.684-.615-1.033-1.46-1.046-2.536V9.047h2.05v6.57c0 .65.155 1.127.465 1.428.315.296.748.444 1.299.444 1.153 0 1.739-.606 1.757-1.818V9.047h2.058zm3.732 6.446V19h-2.051V9.047h3.883c.747 0 1.404.137 1.969.41a3.012 3.012 0 011.312 1.169c.306.501.458 1.073.458 1.716 0 .975-.335 1.745-1.005 2.31-.665.56-1.588.841-2.768.841h-1.798zm0-1.661h1.832c.542 0 .955-.128 1.237-.383.287-.255.431-.62.431-1.094 0-.487-.144-.881-.431-1.182-.287-.3-.683-.456-1.189-.465h-1.88v3.124zm16.461 1.1h-3.938V19h-2.05V9.047h6.48v1.661h-4.43v2.57h3.938v1.655zm9.857-.683c0 .98-.173 1.839-.519 2.577-.347.738-.843 1.308-1.49 1.71-.643.4-1.381.6-2.215.6-.825 0-1.561-.197-2.208-.594-.647-.397-1.149-.962-1.504-1.695-.356-.739-.536-1.586-.54-2.543v-.492c0-.98.175-1.842.526-2.585.356-.747.855-1.319 1.497-1.715.647-.401 1.386-.602 2.215-.602s1.565.2 2.208.602c.647.396 1.146.968 1.497 1.715.356.743.533 1.602.533 2.578v.444zm-2.078-.451c0-1.044-.187-1.837-.56-2.38-.374-.541-.907-.813-1.6-.813-.688 0-1.219.27-1.593.807-.373.533-.563 1.317-.567 2.352v.485c0 1.016.187 1.805.56 2.365.374.56.912.841 1.614.841.688 0 1.217-.269 1.586-.807.369-.542.556-1.33.56-2.365v-.485zm7.253 1.558h-1.634V19h-2.05V9.047h3.698c1.176 0 2.082.262 2.721.786.638.524.957 1.265.957 2.222 0 .679-.149 1.246-.445 1.702-.291.451-.736.811-1.333 1.08l2.154 4.067V19h-2.202l-1.866-3.644zm-1.634-1.66h1.655c.515 0 .913-.13 1.196-.39.282-.265.424-.627.424-1.087 0-.47-.135-.839-.404-1.108-.264-.269-.672-.403-1.223-.403h-1.648v2.987zM195.29 19h-2.051l-3.992-6.549V19h-2.051V9.047h2.051l3.999 6.562V9.047h2.044V19zm7.779-4.313h-3.937v2.665h4.621V19h-6.672V9.047h6.658v1.661h-4.607v2.372h3.937v1.607zm9.639 1.442l1.34-7.082h2.044L213.884 19h-2.065l-1.62-6.658-1.62 6.658h-2.064l-2.208-9.953h2.044l1.346 7.068 1.641-7.068h1.736l1.634 7.082zm15.518-7.082v6.555c0 1.09-.342 1.951-1.026 2.584-.679.634-1.609.95-2.789.95-1.162 0-2.085-.307-2.768-.922-.684-.615-1.033-1.46-1.046-2.536V9.047h2.05v6.57c0 .65.155 1.127.465 1.428.315.296.748.444 1.299.444 1.153 0 1.739-.606 1.757-1.818V9.047h2.058zm6.842 7.342c0-.388-.136-.684-.41-.889-.273-.21-.765-.428-1.476-.656-.711-.233-1.274-.46-1.689-.684-1.13-.61-1.695-1.433-1.695-2.468a2.4 2.4 0 01.451-1.435c.305-.424.741-.754 1.306-.991.569-.237 1.207-.356 1.914-.356.711 0 1.344.13 1.9.39.556.255.987.617 1.292 1.087.31.47.465 1.002.465 1.6h-2.051c0-.456-.143-.81-.43-1.06-.288-.255-.691-.383-1.21-.383-.502 0-.891.107-1.169.321a.994.994 0 00-.417.834c0 .324.161.595.485.814.328.218.809.424 1.442.615 1.167.35 2.017.786 2.55 1.306.533.52.8 1.166.8 1.941 0 .861-.326 1.538-.978 2.03-.651.488-1.529.732-2.631.732-.766 0-1.463-.14-2.092-.417-.629-.283-1.11-.668-1.443-1.155-.328-.488-.492-1.053-.492-1.696h2.058c0 1.098.656 1.648 1.969 1.648.487 0 .868-.098 1.141-.294.274-.2.41-.479.41-.834zm9.441-1.702h-3.938v2.665h4.621V19h-6.671V9.047h6.658v1.661h-4.608v2.372h3.938v1.607zm5.571.67h-1.634V19h-2.05V9.047h3.698c1.176 0 2.082.262 2.72.786.638.524.957 1.265.957 2.222 0 .679-.148 1.246-.444 1.702-.292.451-.736.811-1.333 1.08l2.153 4.067V19h-2.201l-1.866-3.644zm-1.634-1.662h1.655c.515 0 .913-.13 1.196-.39.282-.264.424-.626.424-1.086 0-.47-.135-.839-.404-1.108-.264-.269-.672-.403-1.223-.403h-1.648v2.987z" fill="#fff"/></svg>