<svg width="293" height="114" viewBox="0 0 293 114" fill="none" xmlns="http://www.w3.org/2000/svg"><path d="M59.823 33.544h-.048c-.384 0-.784.304-1.2.912l-.48.72c-.512.672-.944 1.136-1.296 1.392-.352.256-.608.4-.768.432h-1.056c-.288 0-.624-.112-1.008-.336-.352-.256-.672-.688-.96-1.296L50.8 31.096c-.32-.544-.544-1.216-.672-2.016s-.192-1.776-.192-2.928V18.52c0-1.568.528-2.352 1.584-2.352 1.088 0 1.632.816 1.632 2.448v9.888c0 .512.032.976.096 1.392.096.416.224.736.384.96l1.248 2.208c.192.416.4.624.624.624.16 0 .416-.224.768-.672l1.248-2.064c.416-.8.624-1.728.624-2.784V18.52c0-1.568.56-2.352 1.68-2.352 1.088 0 1.632.784 1.632 2.352v9.648a3.29 3.29 0 00-.048.624c0 .832.24 1.552.72 2.16l1.152 2.064c.192.416.416.624.672.624.256 0 .528-.192.816-.576l1.152-2.208c.128-.416.24-.816.336-1.2.128-.384.192-.768.192-1.152v-9.888c0-1.632.528-2.448 1.584-2.448 1.088 0 1.632.784 1.632 2.352v7.632c0 1.152-.08 2.128-.24 2.928-.16.8-.384 1.472-.672 2.016l-2.208 4.272C65.775 36.456 65.103 37 64.527 37h-1.056c-.224.032-.496-.112-.816-.432-.288-.32-.672-.784-1.152-1.392l-.528-.72c-.48-.608-.864-.912-1.152-.912zm21.173 1.68h7.872c1.024 0 1.536.304 1.536.912 0 .576-.496.864-1.488.864H78.5c-2.592 0-3.888-1.056-3.888-3.168v-14.16c0-2.176 1.296-3.264 3.888-3.264h10.416c.992 0 1.488.304 1.488.912 0 .64-.512.96-1.536.96h-7.872c-2.016 0-3.024.832-3.024 2.496v2.064c0 1.696.976 2.544 2.928 2.544h7.92c1.056 0 1.584.272 1.584.816 0 .672-.512 1.008-1.536 1.008H80.9c-1.952 0-2.928.848-2.928 2.544v3.072c0 1.6 1.008 2.4 3.024 2.4zm16.625-2.928c0 1.952.912 2.928 2.736 2.928h6.864c1.216 0 1.824.304 1.824.912 0 .576-.592.864-1.776.864h-9.168c-2.56 0-3.84-1.136-3.84-3.408V18.568c0-1.568.56-2.352 1.68-2.352 1.152 0 1.728.832 1.728 2.496l-.048 13.584zm27.224.336c0-.32.128-.592.384-.816.256-.224.688-.336 1.296-.336 1.12 0 1.68.512 1.68 1.536v.816c0 2.112-1.216 3.168-3.648 3.168h-8.64c-2.336 0-3.504-1.136-3.504-3.408v-13.68c0-2.336 1.184-3.504 3.552-3.504h8.592c2.432 0 3.648 1.056 3.648 3.168v.72c0 1.152-.56 1.728-1.68 1.728-1.12 0-1.68-.368-1.68-1.104 0-1.76-.976-2.64-2.928-2.64h-3.264c-1.92 0-2.88.832-2.88 2.496v12c0 1.632.944 2.448 2.832 2.448h3.408c1.888 0 2.832-.864 2.832-2.592zm14.819 2.592h3.36c1.92 0 2.88-.944 2.88-2.832V21.016c0-1.824-.976-2.736-2.928-2.736h-3.264c-1.92 0-2.88.912-2.88 2.736v11.472c0 1.824.944 2.736 2.832 2.736zm9.6-1.488c0 2.176-1.296 3.264-3.888 3.264h-8.016c-2.592 0-3.888-1.088-3.888-3.264V19.768c0-2.24 1.296-3.36 3.888-3.36h7.968c2.624 0 3.936 1.12 3.936 3.36v13.968zm14.676-3.696c-1.088 0-1.632-.848-1.632-2.544 0-1.024-.24-2.144-.72-3.36-.448-1.248-1.088-2.544-1.92-3.888-.288-.416-.56-.72-.816-.912-.256-.192-.448-.304-.576-.336-.288 0-.432.272-.432.816v14.832c0 1.536-.576 2.304-1.728 2.304-1.12 0-1.68-.768-1.68-2.304v-14.88c0-2.336.928-3.504 2.784-3.504h.912c1.216 0 2.336.768 3.36 2.304l2.4 4.032 2.448-4.032c.448-.704.928-1.264 1.44-1.68a2.998 2.998 0 011.872-.624h1.008c1.824 0 2.736 1.168 2.736 3.504v14.88c0 1.536-.56 2.304-1.68 2.304-1.12 0-1.68-.768-1.68-2.304V19.816c-.128-.544-.304-.816-.528-.816-.352 0-.8.416-1.344 1.248-.864 1.344-1.504 2.64-1.92 3.888-.416 1.216-.624 2.336-.624 3.36 0 1.696-.56 2.544-1.68 2.544zm21.268 5.184h7.872c1.024 0 1.536.304 1.536.912 0 .576-.496.864-1.488.864h-10.416c-2.592 0-3.888-1.056-3.888-3.168v-14.16c0-2.176 1.296-3.264 3.888-3.264h10.416c.992 0 1.488.304 1.488.912 0 .64-.512.96-1.536.96h-7.872c-2.016 0-3.024.832-3.024 2.496v2.064c0 1.696.976 2.544 2.928 2.544h7.92c1.056 0 1.584.272 1.584.816 0 .672-.512 1.008-1.536 1.008h-7.968c-1.952 0-2.928.848-2.928 2.544v3.072c0 1.6 1.008 2.4 3.024 2.4zm22.517-17.904c0-.608.56-.912 1.68-.912h12.24c1.152 0 1.728.304 1.728.912 0 .64-.592.96-1.776.96h-1.68c-1.824 0-2.736.832-2.736 2.496v14.016c0 1.664-.56 2.496-1.68 2.496-1.088 0-1.632-.832-1.632-2.496V20.776c0-1.664-.912-2.496-2.736-2.496h-1.584c-1.216 0-1.824-.32-1.824-.96zm25.465 17.904h3.36c1.92 0 2.88-.944 2.88-2.832V21.016c0-1.824-.976-2.736-2.928-2.736h-3.264c-1.92 0-2.88.912-2.88 2.736v11.472c0 1.824.944 2.736 2.832 2.736zm9.6-1.488c0 2.176-1.296 3.264-3.888 3.264h-8.016c-2.592 0-3.888-1.088-3.888-3.264V19.768c0-2.24 1.296-3.36 3.888-3.36h7.968c2.624 0 3.936 1.12 3.936 3.36v13.968zM37.105 91.432c.416.928.736 1.392.96 1.392.16 0 .24-.288.24-.864l.048-12.816c0-1.92.56-2.88 1.68-2.88 1.152 0 1.728.784 1.728 2.352l-.048 15.168c0 2.304-1.056 3.456-3.168 3.456-.992 0-1.824-.752-2.496-2.256l-5.664-12.912c-.416-.608-.688-.912-.816-.912-.192 0-.288.384-.288 1.152V94.6c0 1.728-.56 2.592-1.68 2.592-1.152 0-1.728-.768-1.728-2.304l.048-15.216c0-2.336 1.04-3.504 3.12-3.504.8 0 1.632.784 2.496 2.352l5.568 12.912zM56.388 78.28h-3.264c-1.92 0-2.88 1.008-2.88 3.024v1.824c0 1.92.944 2.88 2.832 2.88h3.408c1.888 0 2.832-1.184 2.832-3.552V80.68c0-1.6-.976-2.4-2.928-2.4zm2.928 16.128v-4.224c0-1.568-.976-2.352-2.928-2.352h-3.264c-1.92 0-2.88.784-2.88 2.352v4.272c0 1.664-.56 2.496-1.68 2.496-1.12 0-1.68-.752-1.68-2.256V79.864c0-2.304 1.168-3.456 3.504-3.456h8.304c2.656 0 3.984 1.152 3.984 3.456v14.784c0 1.536-.56 2.304-1.68 2.304-1.12 0-1.68-.848-1.68-2.544zm18.083-4.368c-1.088 0-1.632-.848-1.632-2.544 0-1.024-.24-2.144-.72-3.36-.448-1.248-1.088-2.544-1.92-3.888-.288-.416-.56-.72-.816-.912-.256-.192-.448-.304-.576-.336-.288 0-.432.272-.432.816v14.832c0 1.536-.576 2.304-1.728 2.304-1.12 0-1.68-.768-1.68-2.304v-14.88c0-2.336.928-3.504 2.784-3.504h.912c1.216 0 2.336.768 3.36 2.304l2.4 4.032 2.448-4.032c.448-.704.928-1.264 1.44-1.68a2.998 2.998 0 011.872-.624h1.008c1.824 0 2.736 1.168 2.736 3.504v14.88c0 1.536-.56 2.304-1.68 2.304-1.12 0-1.68-.768-1.68-2.304V79.816c-.128-.544-.304-.816-.528-.816-.352 0-.8.416-1.344 1.248-.864 1.344-1.504 2.64-1.92 3.888-.416 1.216-.624 2.336-.624 3.36 0 1.696-.56 2.544-1.68 2.544zm24.293 0c-1.088 0-1.632-.848-1.632-2.544 0-1.024-.24-2.144-.72-3.36-.448-1.248-1.088-2.544-1.92-3.888-.288-.416-.56-.72-.816-.912-.256-.192-.448-.304-.576-.336-.288 0-.432.272-.432.816v14.832c0 1.536-.576 2.304-1.728 2.304-1.12 0-1.68-.768-1.68-2.304v-14.88c0-2.336.928-3.504 2.784-3.504h.912c1.216 0 2.336.768 3.36 2.304l2.4 4.032 2.448-4.032c.448-.704.928-1.264 1.44-1.68a2.998 2.998 0 011.872-.624h1.008c1.824 0 2.736 1.168 2.736 3.504v14.88c0 1.536-.56 2.304-1.68 2.304-1.12 0-1.68-.768-1.68-2.304V79.816c-.128-.544-.304-.816-.528-.816-.352 0-.8.416-1.344 1.248-.864 1.344-1.504 2.64-1.92 3.888-.416 1.216-.624 2.336-.624 3.36 0 1.696-.56 2.544-1.68 2.544zm24.292-11.76h-3.264c-1.92 0-2.88 1.008-2.88 3.024v1.824c0 1.92.944 2.88 2.832 2.88h3.408c1.888 0 2.832-1.184 2.832-3.552V80.68c0-1.6-.976-2.4-2.928-2.4zm2.928 16.128v-4.224c0-1.568-.976-2.352-2.928-2.352h-3.264c-1.92 0-2.88.784-2.88 2.352v4.272c0 1.664-.56 2.496-1.68 2.496-1.12 0-1.68-.752-1.68-2.256V79.864c0-2.304 1.168-3.456 3.504-3.456h8.304c2.656 0 3.984 1.152 3.984 3.456v14.784c0 1.536-.56 2.304-1.68 2.304-1.12 0-1.68-.848-1.68-2.544zm29.11-16.128h-3.264c-1.92 0-2.88 1.008-2.88 3.024v1.824c0 1.92.944 2.88 2.832 2.88h3.408c1.888 0 2.832-1.184 2.832-3.552V80.68c0-1.6-.976-2.4-2.928-2.4zm2.928 16.128v-4.224c0-1.568-.976-2.352-2.928-2.352h-3.264c-1.92 0-2.88.784-2.88 2.352v4.272c0 1.664-.56 2.496-1.68 2.496-1.12 0-1.68-.752-1.68-2.256V79.864c0-2.304 1.168-3.456 3.504-3.456h8.304c2.656 0 3.984 1.152 3.984 3.456v14.784c0 1.536-.56 2.304-1.68 2.304-1.12 0-1.68-.848-1.68-2.544zm20.099-10.368c.672-.672 1.008-1.52 1.008-2.544V80.44c-.064-.704-.288-1.232-.672-1.584-.384-.384-.944-.576-1.68-.576h-3.936c-1.856 0-2.784 1.072-2.784 3.216v1.296c0 2.144.912 3.216 2.736 3.216h1.392c1.056 0 1.904-.304 2.544-.912l1.392-1.056zm2.64 13.152c-1.088 0-1.632-.688-1.632-2.064V91.72c0-.256-.096-.528-.288-.816a5.047 5.047 0 00-.768-.96l-1.392-1.152c-.8-.608-1.52-.912-2.16-.912h-1.728c-1.824 0-2.736.912-2.736 2.736v4.368c0 1.472-.56 2.208-1.68 2.208-1.12 0-1.68-.784-1.68-2.352V79.912c0-2.336 1.232-3.504 3.696-3.504h7.968c2.752 0 4.128 1.088 4.128 3.264v3.168c-.16.928-.848 1.904-2.064 2.928-.48.384-.72.784-.72 1.2 0 .384.224.784.672 1.2 1.28 1.216 1.984 2.208 2.112 2.976v3.888c0 1.44-.576 2.16-1.728 2.16zm13.332-1.968h7.872c1.024 0 1.536.304 1.536.912 0 .576-.496.864-1.488.864h-10.416c-2.592 0-3.888-1.056-3.888-3.168v-14.16c0-2.176 1.296-3.264 3.888-3.264h10.416c.992 0 1.488.304 1.488.912 0 .64-.512.96-1.536.96h-7.872c-2.016 0-3.024.832-3.024 2.496v2.064c0 1.696.976 2.544 2.928 2.544h7.92c1.056 0 1.584.272 1.584.816 0 .672-.512 1.008-1.536 1.008h-7.968c-1.952 0-2.928.848-2.928 2.544v3.072c0 1.6 1.008 2.4 3.024 2.4zM219.79 78.28h-3.264c-1.92 0-2.88 1.008-2.88 3.024v1.824c0 1.92.944 2.88 2.832 2.88h3.408c1.888 0 2.832-1.184 2.832-3.552V80.68c0-1.6-.976-2.4-2.928-2.4zm2.928 16.128v-4.224c0-1.568-.976-2.352-2.928-2.352h-3.264c-1.92 0-2.88.784-2.88 2.352v4.272c0 1.664-.56 2.496-1.68 2.496-1.12 0-1.68-.752-1.68-2.256V79.864c0-2.304 1.168-3.456 3.504-3.456h8.304c2.656 0 3.984 1.152 3.984 3.456v14.784c0 1.536-.56 2.304-1.68 2.304-1.12 0-1.68-.848-1.68-2.544zm21.863-3.984c-1.28 0-1.92-.752-1.92-2.256V78.28c0-1.568.64-2.352 1.92-2.352 1.248 0 1.872.784 1.872 2.352l.048 9.84c0 1.536-.64 2.304-1.92 2.304zm0 6.768c-1.28 0-1.92-.496-1.92-1.488 0-1.088.64-1.632 1.92-1.632 1.312 0 1.968.544 1.968 1.632 0 .992-.656 1.488-1.968 1.488zm9.995-6.768c-1.28 0-1.92-.752-1.92-2.256V78.28c0-1.568.64-2.352 1.92-2.352 1.248 0 1.872.784 1.872 2.352l.048 9.84c0 1.536-.64 2.304-1.92 2.304zm0 6.768c-1.28 0-1.92-.496-1.92-1.488 0-1.088.64-1.632 1.92-1.632 1.312 0 1.968.544 1.968 1.632 0 .992-.656 1.488-1.968 1.488zm9.996-6.768c-1.28 0-1.92-.752-1.92-2.256V78.28c0-1.568.64-2.352 1.92-2.352 1.248 0 1.872.784 1.872 2.352l.048 9.84c0 1.536-.64 2.304-1.92 2.304zm0 6.768c-1.28 0-1.92-.496-1.92-1.488 0-1.088.64-1.632 1.92-1.632 1.312 0 1.968.544 1.968 1.632 0 .992-.656 1.488-1.968 1.488z" fill="#fff"/><path d="M58.575 34.456L56.1 32.762l-.01.015-.01.015 2.496 1.664zm-.48.72l2.386 1.818.058-.075.052-.079-2.496-1.664zM56.8 36.568l-1.764-2.426 1.764 2.426zm-.768.432v3h.297l.292-.058L56.03 37zm-2.064-.336l-1.764 2.426.122.09.13.075 1.512-2.591zm-.96-1.296l2.712-1.284-.023-.047-.024-.047-2.665 1.378zM50.8 31.096l2.665-1.378-.037-.072-.042-.071-2.586 1.521zm2.448-1.2l-2.965.456.017.11.025.109 2.923-.675zm.384.96l2.612-1.476-.078-.139-.093-.129-2.44 1.744zm1.248 2.208l2.724-1.257-.052-.112-.06-.107-2.612 1.476zm1.392-.048l2.36 1.854.112-.145.095-.157-2.567-1.552zm1.248-2.064l2.567 1.552.05-.082.045-.086-2.662-1.384zm3.936-2.784l2.942.588.058-.29v-.298h-3zm.672 2.784l2.62-1.462-.117-.21-.148-.187-2.355 1.859zm1.152 2.064l2.724-1.257-.048-.105-.056-.1-2.62 1.462zm1.488.048l2.4 1.8.147-.196.113-.216-2.66-1.388zm1.152-2.208l2.66 1.388.127-.243.08-.263-2.867-.882zm.336-1.2l-2.846-.949-.036.11-.028.111 2.91.728zm2.496 1.44L66.1 29.692l-.007.013-.007.014 2.665 1.377zm-2.208 4.272l2.451 1.73.12-.169.094-.184-2.665-1.377zM63.471 37v-3h-.213l-.211.03.424 2.97zm-.816-.432l-2.23 2.007.053.058.056.056 2.121-2.121zm-1.152-1.392l-2.419 1.774.032.043.033.042 2.354-1.859zm-.528-.72l2.42-1.774-.032-.043-.033-.042-2.355 1.859zm-1.152-3.912h-.048v6h.048v-6zm-.048 0c-1.999 0-3.184 1.5-3.676 2.218l4.952 3.388c.103-.15.097-.1-.049.01-.16.123-.586.384-1.227.384v-6zm-3.696 2.248l-.48.72 4.992 3.328.48-.72-4.992-3.328zm-.37.566a8.506 8.506 0 01-.517.626c-.139.148-.19.181-.157.158l3.529 4.852c.716-.52 1.362-1.27 1.917-2l-4.772-3.636zm-.674.784c-.122.089-.172.116-.162.111.006-.003.05-.029.127-.06.07-.03.224-.091.443-.135l1.177 5.884a4.089 4.089 0 001.194-.46c.265-.148.52-.32.75-.488l-3.53-4.852zM56.03 34h-1.056v6h1.056v-6zm-1.056 0c.243 0 .41.047.48.07.071.023.08.036.024.003l-3.023 5.182c.614.359 1.487.745 2.52.745v-6zm.757.238c.12.088.161.15.142.124a1.78 1.78 0 01-.156-.278l-5.422 2.568c.396.837.986 1.768 1.907 2.438l3.529-4.852zm-.06-.248l-2.208-4.272-5.33 2.756 2.208 4.272 5.33-2.756zm-2.287-4.415c-.085-.144-.21-.438-.295-.969l-5.925.948c.171 1.07.493 2.12 1.048 3.063l5.172-3.042zm-.295-.969c-.095-.593-.155-1.4-.155-2.454h-6c0 1.25.069 2.395.23 3.402l5.925-.948zm-.155-2.454V18.52h-6v7.632h6zm0-7.632c0-.233.02-.347.026-.372.006-.026-.017.098-.141.284a1.73 1.73 0 01-.663.572c-.289.143-.53.164-.638.164v-6c-1.389 0-2.782.585-3.676 1.912-.752 1.117-.908 2.414-.908 3.44h6zm-1.416.648c-.105 0-.342-.021-.627-.164a1.687 1.687 0 01-.645-.56c-.118-.177-.135-.289-.126-.248.008.04.03.17.03.42h6c0-1.055-.158-2.37-.912-3.5-.896-1.345-2.302-1.948-3.72-1.948v6zm-1.368-.552v9.888h6v-9.888h-6zm0 9.888c0 .633.04 1.253.131 1.848l5.93-.912a6.227 6.227 0 01-.06-.936h-6zm.173 2.067c.141.61.386 1.356.866 2.029l4.882-3.488a1.36 1.36 0 01.129.222c.004.012-.01-.02-.03-.113l-5.847 1.35zm.696 1.761l1.248 2.208 5.223-2.952-1.248-2.208-5.223 2.952zm1.135 1.99c.171.37.45.878.903 1.331.483.484 1.312 1.035 2.445 1.035v-6c.91 0 1.522.447 1.798.723.245.245.323.441.302.396l-5.448 2.514zm3.348 2.366a3.29 3.29 0 001.56-.4c.316-.17.562-.365.728-.51a6.75 6.75 0 00.84-.908l-4.719-3.707c-.127.16-.146.164-.072.1.038-.034.167-.144.379-.258a2.711 2.711 0 011.284-.317v6zm3.335-2.12l1.248-2.064-5.134-3.104-1.248 2.064 5.134 3.104zm1.343-2.232c.673-1.295.962-2.713.962-4.168h-6c0 .657-.127 1.095-.285 1.4l5.323 2.768zm.962-4.168V18.52h-6v9.648h6zm0-9.648c0-.223.021-.323.024-.334.002-.01-.028.125-.163.314-.148.207-.37.404-.647.534a1.31 1.31 0 01-.534.134v-6c-1.348 0-2.76.528-3.701 1.844-.807 1.13-.979 2.457-.979 3.508h6zm-1.32.648c-.088 0-.31-.017-.585-.149a1.703 1.703 0 01-.655-.553c-.13-.187-.157-.317-.153-.299.005.018.025.125.025.353h6c0-1.038-.163-2.35-.943-3.474-.918-1.323-2.321-1.878-3.689-1.878v6zm-1.368-.648v9.648h6V18.52h-6zm.059 9.06a6.23 6.23 0 00-.107 1.212h6a2.295 2.295 0 01.003-.118l-.001.011a1.022 1.022 0 01-.012.071l-5.884-1.176zm-.107 1.212c0 1.453.436 2.841 1.366 4.019l4.709-3.718c-.03-.038-.075-.09-.075-.301h-6zm1.1 3.622l1.153 2.064 5.239-2.924-1.152-2.064-5.24 2.924zm1.048 1.86c.278.601 1.243 2.366 3.396 2.366v-6c.772 0 1.353.34 1.682.646.15.138.242.264.292.339.051.076.075.126.078.134l-5.448 2.514zm3.396 2.366c1.771 0 2.826-1.256 3.216-1.776l-4.8-3.6c-.031.042.044-.074.25-.219.219-.154.68-.405 1.334-.405v6zm3.476-2.188l1.152-2.208-5.32-2.776-1.151 2.208 5.319 2.776zm1.36-2.714c.142-.462.268-.914.379-1.354l-5.821-1.456c-.082.328-.18.676-.293 1.046l5.735 1.764zm.314-1.133a6.624 6.624 0 00.346-2.101h-6a.631.631 0 01-.038.203l5.692 1.898zm.346-2.101v-9.888h-6v9.888h6zm0-9.888c0-.256.022-.392.032-.439.01-.048-.004.058-.117.233-.126.194-.34.419-.65.578-.299.154-.555.18-.68.18v-6c-1.442 0-2.836.636-3.707 1.982-.726 1.122-.878 2.423-.878 3.466h6zm-1.416.552c-.088 0-.31-.017-.585-.149a1.703 1.703 0 01-.656-.553c-.13-.187-.156-.317-.152-.299.004.018.025.125.025.353h6c0-1.038-.163-2.35-.943-3.474-.918-1.323-2.321-1.878-3.689-1.878v6zm-1.368-.648v7.632h6V18.52h-6zm0 7.632c0 1.028-.072 1.794-.181 2.34l5.883 1.176c.21-1.054.298-2.24.298-3.516h-6zm-.181 2.34c-.12.602-.266.98-.382 1.2l5.303 2.808c.46-.868.762-1.834.962-2.832l-5.883-1.176zm-.396 1.226l-2.208 4.272 5.33 2.755 2.208-4.271-5.33-2.755zm-1.994 3.92a5.455 5.455 0 01-.356.46c-.096.108-.15.154-.16.162-.012.01.055-.048.203-.112.154-.067.412-.148.748-.148v6c1.246 0 2.21-.58 2.824-1.076.633-.513 1.176-1.164 1.643-1.826l-4.902-3.46zm.435.362h-1.056v6h1.056v-6zm-1.48.03c.706-.1 1.23.115 1.456.235.22.117.312.22.274.182l-4.243 4.242c.282.282.669.617 1.162.878.498.264 1.27.536 2.2.403l-.849-5.94zm1.838.531a27.13 27.13 0 01-1.027-1.244l-4.71 3.718c.494.626.925 1.148 1.277 1.54l4.46-4.014zm-.963-1.16l-.527-.72-4.839 3.55.528.72 4.838-3.55zm-.592-.804a7.127 7.127 0 00-1.14-1.177c-.386-.305-1.215-.876-2.367-.876v6c-.456 0-.803-.12-1.002-.21a1.714 1.714 0 01-.356-.21c-.065-.051-.013-.023.156.19l4.709-3.717zm17.666 5.627h7.872v-6h-7.872v6zm7.872 0c.313 0 .052.064-.38-.192a2.232 2.232 0 01-.796-.826 2.204 2.204 0 01-.288-1.07h6a3.742 3.742 0 00-1.853-3.264c-.943-.56-1.972-.648-2.683-.648v6zm-1.464-2.088c0-.297.068-.702.305-1.116.238-.414.555-.678.816-.83.433-.252.695-.19.39-.19v6c.689 0 1.695-.083 2.623-.622a3.7 3.7 0 001.866-3.242h-6zM88.916 34H78.5v6h10.416v-6zM78.5 34c-.454 0-.746-.047-.915-.093-.162-.044-.167-.075-.106-.025.074.06.13.144.152.2.016.038-.02-.023-.02-.25h-6c0 1.7.552 3.459 2.078 4.702C75.097 39.68 76.873 40 78.499 40v-6zm-.888-.168v-14.16h-6v14.16h6zm0-14.16c0-.253.038-.338.031-.32a.489.489 0 01-.13.17c-.06.05-.059.022.094-.021.16-.045.445-.093.893-.093v-6c-1.643 0-3.434.334-4.845 1.518-1.512 1.27-2.043 3.044-2.043 4.746h6zm.888-.264h10.416v-6H78.5v6zm10.416 0c.287 0-.002.061-.452-.214a2.242 2.242 0 01-.789-.84 2.184 2.184 0 01-.271-1.034h6c0-1.29-.619-2.515-1.805-3.242-.945-.58-1.978-.67-2.683-.67v6zm-1.512-2.088c0-.245.051-.607.257-.992a2.21 2.21 0 01.769-.832c.447-.28.734-.216.438-.216v6c.727 0 1.782-.096 2.742-.696 1.195-.747 1.794-1.985 1.794-3.264h-6zm1.464-2.04h-7.872v6h7.872v-6zm-7.872 0c-1.346 0-2.912.266-4.178 1.31-1.376 1.136-1.846 2.724-1.846 4.186h6c0-.12.018-.087-.03.031a1.092 1.092 0 01-.305.41c-.132.11-.219.125-.168.111.057-.015.22-.048.527-.048v-6zm-6.024 5.496v2.064h6v-2.064h-6zm0 2.064c0 1.429.43 3.014 1.764 4.173 1.253 1.088 2.82 1.371 4.164 1.371v-6c-.28 0-.416-.032-.447-.04-.022-.007.08.02.218.14.067.058.13.126.181.201a.935.935 0 01.104.193c.037.098.016.105.016-.038h-6zm5.928 5.544h7.92v-6H80.9v6zm7.92 0c.368 0 .188.064-.186-.13a2.36 2.36 0 01-1.23-2.055h6c0-.642-.164-1.342-.58-1.986a3.75 3.75 0 00-1.442-1.292c-.903-.465-1.874-.537-2.562-.537v6zM87.404 26.2c0-.216.042-.55.229-.918.192-.378.47-.656.74-.834.462-.303.774-.24.495-.24v6c.744 0 1.824-.105 2.798-.744 1.194-.783 1.738-2.034 1.738-3.264h-6zm1.464-1.992H80.9v6h7.968v-6zm-7.968 0c-1.343 0-2.91.283-4.164 1.371-1.334 1.16-1.764 2.744-1.764 4.173h6c0-.143.021-.136-.016-.038a.935.935 0 01-.104.193 1.095 1.095 0 01-.18.202c-.139.12-.24.146-.219.14.031-.01.166-.041.447-.041v-6zm-5.928 5.544v3.072h6v-3.072h-6zm0 3.072c0 1.47.498 3.044 1.89 4.15 1.262 1 2.81 1.25 4.134 1.25v-6c-.316 0-.488-.032-.556-.05-.062-.017.019-.006.153.1a1.133 1.133 0 01.334.438c.06.142.045.202.045.112h-6zm22.65-.528l-3-.01v.01h3zm.047-13.584l3 .01v-.01h-3zm-3.048 13.584c0 1.39.321 2.99 1.492 4.244 1.208 1.292 2.816 1.684 4.244 1.684v-6c-.196 0-.241-.027-.189-.009.029.01.08.032.143.073a.972.972 0 01.312.325c.026.047.034.074.034.072a1.435 1.435 0 01-.036-.389h-6zm5.736 5.928h6.864v-6h-6.864v6zm6.864 0c.187 0 .282.012.305.016.032.005-.086-.009-.278-.105a2.155 2.155 0 01-.813-.734 2.3 2.3 0 01-.39-1.265h6a3.7 3.7 0 00-.617-2.063 3.859 3.859 0 00-1.497-1.304c-.931-.466-1.948-.545-2.71-.545v6zm-1.176-2.088c0-.398.112-.877.415-1.318.286-.418.628-.634.829-.732.191-.093.308-.106.277-.101a2.06 2.06 0 01-.297.015v6c.74 0 1.732-.074 2.645-.518a3.824 3.824 0 001.495-1.272c.45-.657.636-1.388.636-2.074h-6zM107.269 34h-9.168v6h9.168v-6zm-9.168 0c-.9 0-1.014-.207-.888-.096a.46.46 0 01.074.084c.02.03.025.046.023.04-.006-.017-.049-.142-.049-.436h-6c0 1.697.495 3.492 1.969 4.8C94.636 39.639 96.441 40 98.101 40v-6zm-.84-.408V18.568h-6v15.024h6zm0-15.024c0-.223.021-.323.024-.334.002-.01-.028.125-.162.314-.148.207-.37.404-.648.534a1.31 1.31 0 01-.534.134v-6c-1.348 0-2.76.528-3.7 1.844-.808 1.13-.98 2.457-.98 3.508h6zm-1.32.648c-.073 0-.282-.014-.545-.141a1.625 1.625 0 01-.625-.527c-.121-.175-.141-.29-.133-.253.009.036.031.164.031.417h6c0-1.085-.171-2.432-.965-3.58-.933-1.347-2.36-1.916-3.763-1.916v6zm-1.272-.515l-.048 13.584 6 .022.048-13.584-6-.022zm33.176 13.931a1.971 1.971 0 01-.64 1.442l-3.951-4.516a4.042 4.042 0 00-1.409 3.074h6zm-.64 1.442a1.785 1.785 0 01-.707.394c-.1.026-.108.012.027.012v-6c-.82 0-2.177.12-3.271 1.078l3.951 4.516zm-.68.406c.161 0-.278.043-.764-.402-.537-.49-.556-1.039-.556-1.062h6c0-1.047-.298-2.363-1.395-3.366-1.046-.956-2.326-1.17-3.285-1.17v6zm-1.32-1.464v.816h6v-.816h-6zm0 .816c0 .247-.036.33-.029.311a.577.577 0 01.15-.2c.078-.068.105-.055-.007-.023-.121.035-.361.08-.762.08v6c1.583 0 3.33-.334 4.703-1.527 1.454-1.263 1.945-3.004 1.945-4.641h-6zm-.648.168h-8.64v6h8.64v-6zm-8.64 0c-.35 0-.536-.044-.608-.067-.057-.019-.007-.012.072.064.08.078.099.141.089.113-.015-.043-.057-.198-.057-.518h-6c0 1.62.422 3.38 1.785 4.707 1.347 1.31 3.109 1.701 4.719 1.701v-6zm-.504-.408v-13.68h-6v13.68h6zm0-13.68c0-.34.044-.513.064-.573.015-.044.004.008-.069.08-.072.072-.119.077-.06.058.074-.024.263-.069.617-.069v-6c-1.636 0-3.416.404-4.771 1.74-1.361 1.344-1.781 3.123-1.781 4.764h6zm.552-.504h8.592v-6h-8.592v6zm8.592 0c.401 0 .641.045.762.08.112.032.085.045.007-.023a.577.577 0 01-.15-.2c-.007-.02.029.064.029.311h6c0-1.637-.491-3.378-1.945-4.641-1.373-1.193-3.12-1.527-4.703-1.527v6zm.648.168v.72h6v-.72h-6zm0 .72c0 .134-.033-.32.429-.795.478-.492.967-.477.891-.477v6c1.044 0 2.374-.274 3.411-1.34 1.023-1.052 1.269-2.37 1.269-3.388h-6zm1.32-1.272c-.327 0-.05-.071.388.217.26.17.527.438.713.805.18.355.219.675.219.874h-6c0 1.26.555 2.535 1.773 3.335.998.656 2.114.769 2.907.769v-6zm1.32 1.896c0-1.427-.41-3.024-1.723-4.208-1.254-1.13-2.839-1.432-4.205-1.432v6c.272 0 .397.032.418.038.01.003-.096-.028-.231-.15a1.023 1.023 0 01-.256-.363c-.027-.074-.003-.055-.003.115h6zm-5.928-5.64h-3.264v6h3.264v-6zm-3.264 0c-1.325 0-2.88.278-4.125 1.357-1.327 1.15-1.755 2.724-1.755 4.139h6c0-.134.02-.12-.02-.015a.993.993 0 01-.108.202 1.142 1.142 0 01-.187.208c-.142.123-.249.152-.232.147.026-.007.154-.038.427-.038v-6zm-5.88 5.496v12h6v-12h-6zm0 12c0 1.402.426 2.964 1.746 4.106 1.237 1.069 2.778 1.342 4.086 1.342v-6c-.265 0-.388-.03-.408-.036-.012-.003.1.028.246.154a1.1 1.1 0 01.306.426c.043.11.024.134.024.008h-6zm5.832 5.448h3.408v-6h-3.408v6zm3.408 0c1.344 0 2.912-.302 4.15-1.435 1.288-1.18 1.682-2.759 1.682-4.157h-6c0 .167-.023.184.004.107a.85.85 0 01.089-.172c.047-.072.106-.142.174-.204a.78.78 0 01.265-.17s-.027.008-.089.016a2.15 2.15 0 01-.275.015v6zm17.651 0h3.36v-6h-3.36v6zm3.36 0c1.41 0 3.021-.347 4.264-1.569 1.252-1.231 1.616-2.844 1.616-4.263h-6c0 .227-.029.301-.021.276.006-.016.021-.057.056-.113a.913.913 0 01.411-.359c.01-.003-.082.028-.326.028v6zm5.88-5.832V21.016h-6v11.376h6zm0-11.376c0-1.428-.391-3.037-1.683-4.244-1.254-1.171-2.855-1.492-4.244-1.492v6c.263 0 .378.032.388.035.003.001-.025-.007-.071-.034a1.005 1.005 0 01-.326-.312.722.722 0 01-.072-.142c-.019-.052.008-.008.008.189h6zm-5.927-5.736h-3.265v6h3.265v-6zm-3.265 0c-1.385 0-2.981.326-4.226 1.509-1.274 1.21-1.654 2.812-1.654 4.227h6c0-.201.028-.251.011-.204a.705.705 0 01-.069.139.995.995 0 01-.331.32c-.05.029-.082.039-.085.04-.002 0 .023-.007.083-.015.06-.009.149-.016.271-.016v-6zm-5.88 5.736v11.472h6V21.016h-6zm0 11.472c0 1.401.369 2.997 1.624 4.21 1.236 1.194 2.827 1.526 4.208 1.526v-6c-.239 0-.33-.03-.319-.027a.508.508 0 01.098.047.953.953 0 01.336.328c.039.062.058.11.066.134.015.043-.013-.012-.013-.218h-6zm12.432 1.248c0 .253-.038.338-.031.32a.48.48 0 01.131-.17c.06-.05.058-.022-.095.021-.161.045-.445.093-.893.093v6c1.643 0 3.434-.334 4.845-1.518 1.512-1.27 2.043-3.044 2.043-4.746h-6zm-.888.264h-8.016v6h8.016v-6zm-8.016 0c-.447 0-.731-.048-.892-.093-.153-.043-.155-.071-.095-.02a.48.48 0 01.131.17c.007.017-.032-.069-.032-.321h-6c0 1.702.532 3.477 2.044 4.746 1.41 1.184 3.202 1.518 4.844 1.518v-6zm-.888-.264V19.768h-6v13.968h6zm0-13.968c0-.278.041-.387.042-.39a.433.433 0 01-.108.14c-.058.05-.06.024.084-.017.153-.044.429-.093.87-.093v-6c-1.659 0-3.464.35-4.877 1.57-1.497 1.293-2.011 3.084-2.011 4.79h6zm.888-.36h7.968v-6h-7.968v6zm7.968 0c.453 0 .739.05.901.095.154.044.159.074.104.027a.412.412 0 01-.109-.14c0-.002.04.104.04.378h6c0-1.717-.525-3.512-2.036-4.802-1.42-1.212-3.231-1.558-4.9-1.558v6zm.936.36v13.968h6V19.768h-6zm15.324 4.368l-2.824 1.014.016.044.017.044 2.791-1.102zm-1.92-3.888l2.551-1.58-.041-.064-.044-.064-2.466 1.708zm-.816-.912l1.8-2.4-1.8 2.4zm-.576-.336l.727-2.91-.358-.09h-.369v3zm3.216-.432l2.578-1.535-.04-.065-.042-.064-2.496 1.664zm2.4 4.032l-2.578 1.534 2.552 4.288 2.59-4.265-2.564-1.557zm2.448-4.032l-2.531-1.61-.017.026-.017.027 2.565 1.557zm1.44-1.68l-1.823-2.383-.035.027-.034.028 1.892 2.328zm2.256 2.928h3v-.348l-.08-.34-2.92.688zm-1.872.432l-2.511-1.642-.007.01-.006.01 2.524 1.622zm-1.92 3.888l2.838.971.004-.011.004-.011-2.846-.949zm-2.304 2.904c.121 0 .374.026.669.179.305.158.513.38.632.565.106.166.116.26.102.198a2.512 2.512 0 01-.035-.486h-6c0 1.072.154 2.393.883 3.528.874 1.363 2.28 2.016 3.749 2.016v-6zm1.368.456c0-1.49-.348-2.988-.93-4.461l-5.581 2.203c.378.958.511 1.7.511 2.258h6zm-.897-4.374c-.531-1.479-1.27-2.963-2.192-4.453l-5.102 3.158c.742 1.198 1.282 2.305 1.647 3.323l5.647-2.028zm-2.277-4.582c-.378-.545-.863-1.14-1.482-1.604l-3.6 4.8c-.066-.05-.078-.07-.04-.028.036.04.1.119.189.248l4.933-3.416zm-1.482-1.604c-.246-.184-.87-.652-1.649-.846l-1.455 5.82a2.342 2.342 0 01-.544-.21c-.036-.022-.024-.018.048.036l3.6-4.8zM158.276 16c-.563 0-1.196.14-1.788.512A3.4 3.4 0 00155.3 17.8c-.415.784-.456 1.577-.456 2.016h6c0-.105.03.28-.241.792A2.653 2.653 0 01158.276 22v-6zm-3.432 3.816v14.832h6V19.816h-6zm0 14.832c0 .206-.021.288-.019.28.003-.01.041-.158.187-.352.158-.21.382-.394.641-.51a1.2 1.2 0 01.463-.114v6c1.308 0 2.725-.481 3.696-1.776.849-1.132 1.032-2.471 1.032-3.528h-6zm1.272-.696c.06 0 .256.01.512.128.272.124.498.317.652.529.141.193.175.336.176.338 0 0-.02-.088-.02-.299h-6c0 1.044.174 2.369.996 3.495.95 1.304 2.36 1.809 3.684 1.809v-6zm1.32.696v-14.88h-6v14.88h6zm0-14.88c0-.395.04-.638.074-.765.032-.122.045-.09-.029.003a.872.872 0 01-.319.243c-.093.04-.097.015.058.015v-6c-1.598 0-3.267.537-4.437 2.01-1.066 1.34-1.347 3.01-1.347 4.494h6zm-.216-.504h.912v-6h-.912v6zm.912 0c-.068 0-.066-.033.055.05.153.105.437.361.809.918l4.992-3.328c-1.277-1.915-3.192-3.64-5.856-3.64v6zm.782.838l2.4 4.032 5.156-3.069-2.4-4.032-5.156 3.07zm7.542 4.055l2.448-4.032-5.129-3.114-2.448 4.032 5.129 3.114zm2.415-3.978c.318-.501.595-.796.801-.963l-3.784-4.656c-.818.665-1.502 1.49-2.079 2.397l5.062 3.222zm.731-.908l.014-.01a.067.067 0 01-.012.005.313.313 0 01.048-.002v-6a6 6 0 00-3.695 1.24l3.645 4.767zm.05-.007h1.008v-6h-1.008v6zm1.008 0c.14 0 .123.023.019-.022a.867.867 0 01-.332-.256c-.073-.094-.059-.123-.026.005.035.132.075.378.075.777h6c0-1.476-.274-3.136-1.32-4.474-1.155-1.48-2.817-2.03-4.416-2.03v6zm-.264.504v14.88h6v-14.88h-6zm0 14.88c0 .211-.02.3-.02.3 0-.003.035-.146.176-.34.154-.21.379-.404.651-.528.256-.117.452-.128.513-.128v6c1.324 0 2.734-.505 3.684-1.808.821-1.127.996-2.452.996-3.496h-6zm1.32-.696c.06 0 .256.01.512.128.272.124.498.317.652.529.141.193.175.336.176.338 0 0-.02-.088-.02-.299h-6c0 1.044.174 2.369.996 3.495.95 1.304 2.36 1.809 3.684 1.809v-6zm1.32.696V19.816h-6v14.832h6zm-.08-15.52c-.094-.4-.267-.993-.63-1.554-.374-.578-1.28-1.574-2.818-1.574v6a2.646 2.646 0 01-2.219-1.166c-.187-.29-.207-.474-.174-.33l5.841-1.375zM169.508 16c-1.325 0-2.238.74-2.642 1.114-.478.444-.88.982-1.213 1.492l5.022 3.284c.21-.322.304-.408.274-.38-.02.02-.133.122-.339.23-.211.11-.592.26-1.102.26v-6zm-3.868 2.626c-.971 1.51-1.733 3.032-2.242 4.561l5.692 1.898c.322-.967.841-2.038 1.597-3.215l-5.047-3.244zm-2.235 4.539c-.497 1.452-.785 2.905-.785 4.331h6c0-.622.127-1.41.462-2.389l-5.677-1.942zm-.785 4.331c0 .268-.023.414-.035.468-.012.055 0-.045.111-.213.125-.188.333-.4.627-.548.282-.142.516-.163.617-.163v6c1.446 0 2.864-.621 3.763-1.983.755-1.143.917-2.478.917-3.561h-6zm22.588 10.728h7.872v-6h-7.872v6zm7.872 0c.313 0 .052.064-.379-.192a2.234 2.234 0 01-.797-.826 2.205 2.205 0 01-.288-1.07h6a3.74 3.74 0 00-1.852-3.264c-.944-.56-1.973-.648-2.684-.648v6zm-1.464-2.088c0-.297.068-.702.305-1.116.238-.414.555-.678.817-.83.432-.252.694-.19.39-.19v6c.688 0 1.694-.083 2.623-.622a3.7 3.7 0 001.865-3.242h-6zM193.128 34h-10.416v6h10.416v-6zm-10.416 0c-.454 0-.746-.047-.914-.093-.163-.044-.168-.075-.107-.025.074.06.13.144.153.2.016.038-.02-.023-.02-.25h-6c0 1.7.552 3.459 2.077 4.702 1.408 1.147 3.185 1.466 4.811 1.466v-6zm-.888-.168v-14.16h-6v14.16h6zm0-14.16c0-.253.038-.338.031-.32a.488.488 0 01-.13.17c-.06.05-.058.022.095-.021.16-.045.444-.093.892-.093v-6c-1.643 0-3.434.334-4.845 1.518-1.511 1.27-2.043 3.044-2.043 4.746h6zm.888-.264h10.416v-6h-10.416v6zm10.416 0c.287 0-.002.061-.451-.214a2.239 2.239 0 01-.789-.84 2.188 2.188 0 01-.272-1.034h6c0-1.29-.618-2.515-1.804-3.242-.946-.58-1.979-.67-2.684-.67v6zm-1.512-2.088a2.214 2.214 0 011.026-1.824c.448-.28.735-.216.438-.216v6c.728 0 1.782-.096 2.742-.696 1.195-.747 1.794-1.985 1.794-3.264h-6zm1.464-2.04h-7.872v6h7.872v-6zm-7.872 0c-1.345 0-2.912.266-4.177 1.31-1.376 1.136-1.847 2.724-1.847 4.186h6c0-.12.019-.087-.029.031a1.094 1.094 0 01-.305.41c-.133.11-.219.125-.169.111.057-.015.22-.048.527-.048v-6zm-6.024 5.496v2.064h6v-2.064h-6zm0 2.064c0 1.429.431 3.014 1.765 4.173 1.253 1.088 2.82 1.371 4.163 1.371v-6c-.28 0-.415-.032-.446-.04-.022-.007.08.02.218.14a1.1 1.1 0 01.181.201.928.928 0 01.103.193c.038.098.016.105.016-.038h-6zm5.928 5.544h7.92v-6h-7.92v6zm7.92 0c.368 0 .188.064-.186-.13a2.256 2.256 0 01-.847-.781 2.36 2.36 0 01-.383-1.273h6a3.64 3.64 0 00-.58-1.987 3.744 3.744 0 00-1.442-1.292c-.902-.465-1.874-.537-2.562-.537v6zm-1.416-2.184c0-.216.043-.55.23-.918.192-.378.469-.656.74-.834.462-.303.774-.24.494-.24v6c.745 0 1.824-.105 2.798-.744 1.194-.783 1.738-2.034 1.738-3.264h-6zm1.464-1.992h-7.968v6h7.968v-6zm-7.968 0c-1.343 0-2.91.283-4.163 1.371-1.334 1.16-1.765 2.744-1.765 4.173h6c0-.143.022-.136-.016-.038a.928.928 0 01-.103.193 1.1 1.1 0 01-.181.202c-.138.12-.24.146-.218.14.031-.01.166-.041.446-.041v-6zm-5.928 5.544v3.072h6v-3.072h-6zm0 3.072c0 1.47.498 3.044 1.891 4.15 1.261 1 2.809 1.25 4.133 1.25v-6c-.315 0-.488-.032-.555-.05-.063-.017.018-.006.152.1a1.129 1.129 0 01.334.438c.06.142.045.202.045.112h-6zm31.541-15.504c0 .325-.081.75-.339 1.17a2.19 2.19 0 01-.81.783c-.217.117-.368.143-.372.144-.011.002.048-.009.201-.009v-6c-.734 0-1.754.083-2.692.591a3.818 3.818 0 00-1.44 1.352 3.743 3.743 0 00-.548 1.969h6zm-1.32 2.088h12.24v-6h-12.24v6zm12.24 0c.079 0 .138.003.179.006.042.003.06.006.057.006a1.593 1.593 0 01-.341-.13 2.186 2.186 0 01-.812-.767 2.272 2.272 0 01-.355-1.203h6c0-.645-.16-1.348-.572-2.001a3.822 3.822 0 00-1.46-1.336c-.935-.494-1.954-.575-2.696-.575v6zm-1.272-2.088c0-.32.079-.74.335-1.155a2.15 2.15 0 01.794-.764c.109-.059.197-.092.251-.11.055-.017.087-.023.089-.024a2.452 2.452 0 01-.245.012v6.001c.764 0 1.807-.087 2.758-.6a3.853 3.853 0 001.46-1.365 3.78 3.78 0 00.558-1.995h-6zm1.224-2.04h-1.68v6h1.68v-6zm-1.68 0c-1.31 0-2.852.293-4.074 1.408-1.274 1.162-1.662 2.719-1.662 4.088h6c0-.15.021-.152-.011-.062a1.075 1.075 0 01-.577.592c-.007.002.086-.026.324-.026v-6zm-5.736 5.496v14.016h6V20.776h-6zm0 14.016c0 .257-.023.392-.032.435-.01.044.006-.065.123-.238a1.65 1.65 0 01.632-.545 1.39 1.39 0 01.597-.156v6c1.421 0 2.839-.597 3.749-1.949.767-1.14.931-2.473.931-3.547h-6zm1.32-.504c.113 0 .358.023.648.171.302.154.513.372.639.563.112.172.125.275.114.223a2.304 2.304 0 01-.033-.453h-6c0 1.063.156 2.381.897 3.514.885 1.354 2.292 1.982 3.735 1.982v-6zm1.368.504V20.776h-6v14.016h6zm0-14.016c0-1.369-.388-2.926-1.662-4.088-1.222-1.115-2.765-1.408-4.074-1.408v6c.237 0 .33.028.324.026a1.075 1.075 0 01-.577-.593c-.033-.089-.011-.087-.011.063h6zm-5.736-5.496h-1.584v6h1.584v-6zm-1.584 0c-.181 0-.266-.012-.28-.015-.02-.004.108.015.309.12.215.114.537.342.795.75.266.419.352.85.352 1.185h-6c0 .654.162 1.366.579 2.025.41.648.96 1.076 1.48 1.35.949.5 1.991.585 2.765.585v-6zm23.64 22.944h3.36v-6h-3.36v6zm3.36 0c1.41 0 3.021-.347 4.264-1.569 1.252-1.231 1.617-2.844 1.617-4.263h-6c0 .227-.03.301-.022.276.006-.016.021-.057.056-.113a.913.913 0 01.411-.359c.01-.003-.082.028-.326.028v6zm5.881-5.832V21.016h-6v11.376h6zm0-11.376c0-1.428-.392-3.037-1.684-4.244-1.254-1.171-2.855-1.492-4.244-1.492v6c.263 0 .378.032.388.035.003.001-.025-.007-.071-.034a1.005 1.005 0 01-.326-.312.722.722 0 01-.072-.142c-.019-.052.009-.008.009.189h6zm-5.928-5.736h-3.264v6h3.264v-6zm-3.264 0c-1.386 0-2.982.326-4.227 1.509-1.274 1.21-1.654 2.812-1.654 4.227h6c0-.201.028-.251.011-.204a.705.705 0 01-.069.139.995.995 0 01-.331.32c-.05.029-.082.039-.085.04-.002 0 .023-.007.083-.015.06-.009.149-.016.272-.016v-6zm-5.881 5.736v11.472h6V21.016h-6zm0 11.472c0 1.401.369 2.997 1.624 4.21 1.236 1.194 2.827 1.526 4.208 1.526v-6c-.239 0-.33-.03-.319-.027a.508.508 0 01.098.047.953.953 0 01.336.328c.039.062.058.11.066.134.015.043-.013-.012-.013-.218h-6zm12.433 1.248c0 .253-.039.338-.032.32a.48.48 0 01.131-.17c.06-.05.058-.022-.095.021-.161.045-.445.093-.892.093v6c1.642 0 3.433-.334 4.844-1.518 1.512-1.27 2.044-3.044 2.044-4.746h-6zm-.888.264h-8.017v6h8.017v-6zm-8.017 0c-.447 0-.731-.048-.892-.093-.153-.043-.155-.071-.095-.02a.48.48 0 01.131.17c.007.017-.032-.069-.032-.321h-6c0 1.702.532 3.477 2.044 4.746 1.411 1.184 3.202 1.518 4.844 1.518v-6zm-.888-.264V19.768h-6v13.968h6zm0-13.968c0-.278.041-.387.043-.39l-.008.015a.433.433 0 01-.101.125c-.058.05-.06.024.084-.017.153-.044.429-.093.87-.093v-6c-1.659 0-3.464.35-4.877 1.57-1.497 1.293-2.011 3.084-2.011 4.79h6zm.888-.36h7.969v-6h-7.969v6zm7.969 0c.452 0 .738.05.9.095.154.044.159.074.104.027a.412.412 0 01-.109-.14c0-.002.041.104.041.378h6c0-1.717-.526-3.512-2.037-4.802-1.42-1.212-3.231-1.558-4.899-1.558v6zm.936.36v13.968h6V19.768h-6zM37.105 91.432L34.35 92.62l.008.02.01.02 2.737-1.228zm1.2.528l-3-.011v.011h3zm.048-12.816l3 .011v-.011h-3zm3.408-.528l3 .01v-.01h-3zm-.048 15.168l-3-.01v.01h3zm-5.664 1.2L33.3 96.189l.004.01.005.009 2.739-1.224zm-5.664-12.912l2.747-1.205-.113-.257-.158-.232-2.476 1.694zm-4.512 12.816l-3-.01v.01h3zm.048-15.216l3 .01v-.01h-3zm5.616-1.152l2.754-1.188-.057-.133-.07-.127-2.627 1.448zm2.83 14.14c.233.52.505 1.063.82 1.52.154.222.398.544.745.84.306.26 1.045.804 2.133.804v-6c.976 0 1.59.485 1.76.63a2.058 2.058 0 01.301.319c.007.01-.018-.027-.075-.134a7.552 7.552 0 01-.209-.434l-5.475 2.454zm3.698 3.164a3.133 3.133 0 002.41-1.133c.416-.5.586-1.014.66-1.28.152-.547.17-1.093.17-1.451h-6c0 .218-.023.104.05-.155.033-.122.153-.528.51-.956a2.868 2.868 0 012.2-1.025v6zm3.24-3.853l.048-12.816-6-.022-.048 12.816 6 .022zm.048-12.827c0-.343.025-.564.05-.687.025-.13.035-.089-.039.039a1.576 1.576 0 01-.578.553c-.31.177-.595.215-.753.215v-6c-1.617 0-3.029.798-3.852 2.208-.677 1.162-.828 2.519-.828 3.672h6zm-1.32.12c-.05 0-.236-.009-.484-.121a1.645 1.645 0 01-.638-.515 1.265 1.265 0 01-.139-.235c-.025-.057-.033-.09-.033-.092a2.325 2.325 0 01.022.315h6c0-1.063-.18-2.404-1.015-3.54-.961-1.31-2.382-1.812-3.713-1.812v6zm-1.272-.657l-.048 15.168 6 .018.048-15.168-6-.019zm-.048 15.177c0 .356-.042.553-.067.635-.022.071-.019.02.063-.07a.573.573 0 01.196-.144c.004-.002-.097.035-.36.035v6c1.588 0 3.312-.445 4.587-1.837 1.23-1.342 1.58-3.066 1.58-4.619h-6zm-.168.456c.142 0 .292.03.43.086a.77.77 0 01.213.124c.01.01-.031-.026-.11-.143a3.772 3.772 0 01-.29-.547l-5.478 2.448c.807 1.807 2.395 4.032 5.235 4.032v-6zm.25-.461l-5.663-12.912-5.495 2.41 5.664 12.912 5.495-2.41zm-5.934-13.401a9.886 9.886 0 00-.757-.99 4.303 4.303 0 00-.597-.56c-.147-.111-.866-.668-1.938-.668v6c-.561 0-.984-.16-1.207-.264a2.631 2.631 0 01-.486-.29 2.085 2.085 0 01-.243-.218c-.005-.005.018.02.072.092.051.068.119.162.204.286l4.952-3.388zm-3.292-2.218c-1.227 0-2.08.678-2.526 1.272a3.59 3.59 0 00-.6 1.288c-.14.56-.162 1.147-.162 1.592h6c0-.323.026-.312-.018-.136-.018.072-.11.442-.42.856a2.847 2.847 0 01-2.274 1.128v-6zm-3.288 4.152V94.6h6V82.312h-6zm0 12.288c0 .28-.024.436-.038.5-.014.067-.005-.025.1-.188.119-.182.324-.397.62-.55.287-.147.529-.17.638-.17v6c1.47 0 2.889-.646 3.777-2.016.743-1.147.903-2.484.903-3.576h-6zm1.32-.408c.042 0 .22.007.462.115.26.115.484.298.642.509.145.194.183.342.186.352.002.008-.018-.074-.018-.28h-6c0 1.056.182 2.396 1.032 3.528.97 1.294 2.388 1.776 3.696 1.776v-6zm1.272.706l.048-15.216-6-.02-.048 15.216 6 .02zm.048-15.226c0-.371.042-.583.07-.68.026-.086.029-.041-.05.047a.605.605 0 01-.214.158c-.018.007.067-.029.314-.029v-6c-1.599 0-3.32.465-4.58 1.881-1.203 1.35-1.54 3.073-1.54 4.623h6zm.12-.504c-.64 0-.931-.32-.834-.229.038.037.126.128.254.307.127.176.278.412.448.722l5.255-2.896c-.507-.92-1.108-1.808-1.842-2.5-.734-.691-1.842-1.404-3.281-1.404v6zm-.26.54L34.35 92.62l5.51-2.376-5.569-12.912-5.51 2.376zm27.607-4.428h-3.264v6h3.264v-6zm-3.264 0c-1.46 0-3.098.39-4.333 1.687-1.208 1.269-1.547 2.902-1.547 4.337h6c0-.134.008-.234.017-.304a.72.72 0 01.022-.111c.002-.006-.005.018-.03.06a.889.889 0 01-.286.294.58.58 0 01-.112.058c-.016.005-.006 0 .039-.007s.12-.014.23-.014v-6zm-5.88 6.024v1.824h6v-1.824h-6zm0 1.824c0 1.41.347 3.02 1.569 4.263 1.23 1.252 2.844 1.617 4.263 1.617v-6c-.227 0-.301-.03-.276-.021a.591.591 0 01.113.055.937.937 0 01.313.317.51.51 0 01.046.095c.003.01-.028-.083-.028-.326h-6zm5.832 5.88h3.408v-6h-3.408v6zm3.408 0c1.61 0 3.29-.538 4.47-2.018 1.076-1.35 1.362-3.031 1.362-4.534h-6c0 .403-.041.651-.077.783-.033.127-.048.1.023.01a.802.802 0 01.304-.23c.086-.037.081-.011-.082-.011v6zm5.832-6.552V80.68h-6v1.776h6zm0-1.776c0-1.437-.467-3.003-1.83-4.12-1.25-1.024-2.789-1.28-4.098-1.28v6c.293 0 .443.031.49.044.04.01-.055-.008-.196-.124a1.144 1.144 0 01-.328-.44c-.054-.132-.038-.18-.038-.08h6zm0 13.728v-4.224h-6v4.224h6zm0-4.224c0-1.442-.481-3-1.853-4.103-1.247-1.001-2.776-1.249-4.075-1.249v6c.297 0 .453.03.505.045.047.012-.046-.004-.188-.118a1.179 1.179 0 01-.343-.454c-.06-.145-.046-.207-.046-.121h6zm-5.928-5.352h-3.264v6h3.264v-6zm-3.264 0c-1.292 0-2.817.251-4.058 1.264-1.356 1.108-1.822 2.663-1.822 4.088h6c0-.092.014-.035-.043.105a1.18 1.18 0 01-.34.455c-.145.118-.245.14-.21.13a1.95 1.95 0 01.473-.042v-6zm-5.88 5.352v4.272h6v-4.272h-6zm0 4.272c0 .257-.023.392-.032.435-.01.044.006-.065.123-.238.13-.194.343-.402.633-.545a1.39 1.39 0 01.596-.156v6c1.422 0 2.839-.597 3.749-1.949.767-1.14.93-2.473.93-3.547h-6zm1.32-.504c.053 0 .24.009.49.12.267.12.496.31.656.524.147.198.187.35.19.364.003.012-.016-.064-.016-.264h-6c0 1.037.178 2.36 1.014 3.484.96 1.289 2.366 1.772 3.666 1.772v-6zm1.32.744V79.864h-6v14.832h6zm0-14.832c0-.331.043-.498.061-.552.013-.038-.001.02-.078.096-.077.075-.128.084-.075.066.067-.022.25-.066.596-.066v-6c-1.62 0-3.388.4-4.735 1.728-1.354 1.336-1.77 3.103-1.77 4.728h6zm.504-.456h8.304v-6h-8.304v6zm8.304 0c.962 0 1.123.218 1.022.13a.408.408 0 01-.066-.073c-.018-.028-.024-.043-.022-.037.007.016.05.141.05.436h6c0-1.734-.52-3.548-2.03-4.858-1.43-1.24-3.26-1.598-4.954-1.598v6zm.984.456v14.784h6V79.864h-6zm0 14.784c0 .211-.02.3-.02.3 0-.003.035-.146.176-.34.154-.21.38-.404.652-.528.255-.117.451-.128.512-.128v6c1.324 0 2.734-.505 3.684-1.808.821-1.127.996-2.452.996-3.496h-6zm1.32-.696c.1 0 .335.02.617.163.293.148.502.36.626.548.111.168.124.268.112.213a2.353 2.353 0 01-.035-.468h-6c0 1.083.161 2.418.916 3.561.9 1.362 2.318 1.983 3.764 1.983v-6zm14.051-9.816l-2.823 1.014.015.044.018.043 2.79-1.101zm-1.92-3.888l2.55-1.58-.04-.064-.043-.064-2.467 1.708zm-.816-.912l1.8-2.4-1.8 2.4zM71.735 79l.728-2.91-.359-.09h-.369v3zm3.216-.432l2.578-1.534-.04-.066-.042-.064-2.496 1.664zm2.4 4.032l-2.578 1.535 2.553 4.287 2.59-4.265L77.35 82.6zm2.448-4.032l-2.53-1.61-.018.026-.016.027 2.564 1.557zm1.44-1.68l-1.822-2.383-.035.027-.035.028 1.892 2.328zm2.256 2.928h3v-.348l-.08-.34-2.92.688zm-1.872.432l-2.51-1.642-.007.01-.006.01 2.523 1.622zm-1.92 3.888l2.839.971.003-.011.004-.011-2.846-.949zM77.4 87.04c.122 0 .374.026.67.179.304.158.512.38.631.565.106.166.116.26.103.198a2.486 2.486 0 01-.036-.486h-6c0 1.072.155 2.392.883 3.528.874 1.363 2.28 2.016 3.75 2.016v-6zm1.368.456c0-1.49-.348-2.988-.93-4.462l-5.58 2.203c.378.959.51 1.7.51 2.259h6zm-.896-4.374c-.531-1.478-1.271-2.963-2.193-4.453l-5.102 3.158c.742 1.198 1.282 2.305 1.648 3.323l5.647-2.028zm-2.277-4.582c-.378-.545-.864-1.14-1.483-1.604l-3.6 4.8c-.066-.05-.078-.07-.04-.028.037.04.1.119.19.248l4.933-3.416zm-1.483-1.604c-.246-.184-.87-.652-1.648-.846l-1.456 5.82a2.365 2.365 0 01-.395-.135 1.59 1.59 0 01-.148-.076c-.037-.021-.025-.017.047.037l3.6-4.8zM71.735 76a3.346 3.346 0 00-2.975 1.8c-.415.784-.457 1.577-.457 2.016h6c0-.105.03.28-.24.792A2.654 2.654 0 0171.736 82v-6zm-3.432 3.816v14.832h6V79.816h-6zm0 14.832c0 .206-.02.288-.018.28.002-.01.04-.158.186-.352a1.65 1.65 0 01.642-.51c.242-.107.42-.114.462-.114v6c1.308 0 2.725-.481 3.696-1.776.85-1.132 1.032-2.472 1.032-3.528h-6zm1.272-.696c.06 0 .257.01.512.128.273.124.498.317.652.529.141.193.176.336.176.339 0 0-.02-.089-.02-.3h-6c0 1.044.175 2.369.996 3.496.95 1.303 2.36 1.808 3.684 1.808v-6zm1.32.696v-14.88h-6v14.88h6zm0-14.88c0-.395.04-.638.074-.765.032-.122.046-.09-.029.003a.836.836 0 01-.318.243c-.094.04-.097.015.057.015v-6c-1.597 0-3.267.537-4.437 2.01-1.065 1.34-1.347 3.01-1.347 4.494h6zm-.216-.504h.912v-6h-.912v6zm.912 0c-.067 0-.066-.033.056.05.152.105.437.361.808.918l4.992-3.328c-1.276-1.915-3.191-3.64-5.856-3.64v6zm.782.839l2.4 4.032 5.156-3.07-2.4-4.031-5.156 3.069zm7.542 4.054l2.448-4.032-5.128-3.114-2.448 4.032 5.128 3.114zm2.415-3.978c.319-.501.595-.796.8-.963l-3.783-4.656c-.818.665-1.501 1.49-2.079 2.397l5.062 3.222zm.731-.908l.015-.01a.102.102 0 01-.012.005.315.315 0 01.047-.002v-6a5.997 5.997 0 00-3.694 1.24l3.644 4.767zm.05-.007h1.008v-6h-1.008v6zm1.008 0c.14 0 .124.023.02-.022a.839.839 0 01-.332-.256c-.074-.094-.06-.123-.026.005.034.132.074.378.074.777h6c0-1.476-.274-3.136-1.32-4.474-1.155-1.48-2.816-2.03-4.416-2.03v6zm-.264.504v14.88h6v-14.88h-6zm0 14.88c0 .211-.02.3-.02.3 0-.003.035-.146.176-.34.154-.21.38-.404.652-.528.255-.117.451-.128.512-.128v6c1.324 0 2.734-.505 3.684-1.808.822-1.127.996-2.452.996-3.496h-6zm1.32-.696c.06 0 .257.01.512.128.273.124.498.317.652.529.141.193.176.336.176.339 0 0-.02-.089-.02-.3h-6c0 1.044.174 2.369.996 3.496.95 1.303 2.36 1.808 3.684 1.808v-6zm1.32.696V79.816h-6v14.832h6zm-.08-15.52c-.094-.4-.266-.993-.63-1.554-.373-.578-1.28-1.574-2.818-1.574v6c-1.314 0-2.02-.86-2.219-1.166-.187-.29-.207-.474-.173-.33l5.84-1.375zM82.967 76c-1.324 0-2.238.74-2.641 1.114-.479.444-.88.982-1.214 1.492l5.022 3.284c.21-.322.305-.408.275-.38-.02.02-.133.122-.34.23-.21.11-.592.26-1.102.26v-6zM79.1 78.626c-.972 1.51-1.733 3.032-2.243 4.561l5.692 1.898c.322-.967.841-2.038 1.598-3.215L79.1 78.626zm-2.235 4.539c-.497 1.452-.786 2.905-.786 4.331h6c0-.622.128-1.41.463-2.389l-5.677-1.942zm-.786 4.331c0 .268-.023.414-.035.468-.012.055 0-.045.112-.213.124-.188.333-.4.626-.548.282-.142.516-.163.617-.163v6c1.446 0 2.864-.621 3.763-1.983.756-1.143.917-2.478.917-3.561h-6zm23.26-3.36l-2.823 1.014.016.044.017.043 2.79-1.101zm-1.92-3.888l2.551-1.58-.04-.064-.044-.064-2.466 1.708zm-.815-.912l1.8-2.4-1.8 2.4zM96.028 79l.727-2.91-.358-.09h-.37v3zm3.216-.432l2.578-1.534-.04-.066-.042-.064-2.496 1.664zm2.4 4.032l-2.578 1.535 2.552 4.287 2.59-4.265-2.564-1.557zm2.448-4.032l-2.531-1.61-.017.026-.017.027 2.565 1.557zm1.44-1.68l-1.823-2.383-.035.027-.034.028 1.892 2.328zm2.256 2.928h3v-.348l-.08-.34-2.92.688zm-1.872.432l-2.511-1.642-.007.01-.006.01 2.524 1.622zm-1.92 3.888l2.838.971.004-.011.004-.011-2.846-.949zm-2.304 2.904c.121 0 .374.026.669.179.305.158.512.38.632.565.106.166.116.26.102.198a2.512 2.512 0 01-.035-.486h-6c0 1.072.154 2.392.882 3.528.875 1.363 2.281 2.016 3.75 2.016v-6zm1.368.456c0-1.49-.348-2.988-.93-4.462l-5.58 2.203c.377.959.51 1.7.51 2.259h6zm-.897-4.374c-.531-1.478-1.27-2.963-2.193-4.453l-5.101 3.158c.742 1.198 1.282 2.305 1.647 3.323l5.647-2.028zm-2.277-4.582c-.378-.545-.863-1.14-1.482-1.604l-3.6 4.8c-.067-.05-.078-.07-.04-.028.036.04.1.119.189.248l4.933-3.416zm-1.482-1.604c-.246-.184-.87-.652-1.649-.846L95.3 81.91a2.365 2.365 0 01-.395-.135 1.59 1.59 0 01-.149-.076c-.037-.021-.024-.017.048.037l3.6-4.8zM96.028 76a3.346 3.346 0 00-2.976 1.8c-.415.784-.456 1.577-.456 2.016h6c0-.105.03.28-.241.792A2.654 2.654 0 0196.028 82v-6zm-3.432 3.816v14.832h6V79.816h-6zm0 14.832c0 .206-.02.288-.019.28.003-.01.041-.158.187-.352a1.65 1.65 0 01.641-.51c.242-.107.42-.114.463-.114v6c1.308 0 2.725-.481 3.696-1.776.849-1.132 1.032-2.472 1.032-3.528h-6zm1.272-.696c.06 0 .256.01.512.128.272.124.498.317.652.529.14.193.175.336.176.339 0 0-.02-.089-.02-.3h-6c0 1.044.174 2.369.996 3.496.95 1.303 2.36 1.808 3.684 1.808v-6zm1.32.696v-14.88h-6v14.88h6zm0-14.88c0-.395.04-.638.074-.765.032-.122.045-.09-.03.003a.836.836 0 01-.318.243c-.093.04-.097.015.058.015v-6c-1.598 0-3.267.537-4.437 2.01-1.066 1.34-1.347 3.01-1.347 4.494h6zm-.216-.504h.912v-6h-.912v6zm.912 0c-.068 0-.066-.033.055.05.153.105.437.361.809.918l4.992-3.328c-1.277-1.915-3.192-3.64-5.856-3.64v6zm.782.839l2.4 4.032 5.156-3.07-2.4-4.031-5.156 3.069zm7.542 4.054l2.448-4.032-5.129-3.114-2.448 4.032 5.129 3.114zm2.415-3.978c.318-.501.595-.796.8-.963l-3.783-4.656c-.819.665-1.502 1.49-2.079 2.397l5.062 3.222zm.731-.908l.014-.01a.067.067 0 01-.012.005.313.313 0 01.048-.002v-6a6 6 0 00-3.695 1.24l3.645 4.767zm.05-.007h1.008v-6h-1.008v6zm1.008 0c.14 0 .123.023.019-.022a.867.867 0 01-.332-.256c-.073-.094-.059-.122-.026.005.035.132.075.378.075.777h6c0-1.476-.274-3.136-1.32-4.474-1.155-1.48-2.817-2.03-4.416-2.03v6zm-.264.504v14.88h6v-14.88h-6zm0 14.88c0 .211-.021.3-.021.3.001-.003.036-.146.177-.34.154-.21.379-.404.651-.528.256-.117.452-.128.513-.128v6c1.324 0 2.733-.505 3.684-1.808.821-1.127.996-2.452.996-3.496h-6zm1.32-.696c.06 0 .256.01.512.128.272.124.498.317.652.529.141.193.175.336.176.339 0 0-.02-.089-.02-.3h-6c0 1.044.174 2.369.996 3.496.95 1.303 2.359 1.808 3.684 1.808v-6zm1.32.696V79.816h-6v14.832h6zm-.08-15.52c-.094-.4-.267-.993-.63-1.554-.374-.578-1.28-1.574-2.818-1.574v6a2.646 2.646 0 01-2.219-1.166c-.187-.29-.207-.474-.174-.33l5.841-1.375zM107.26 76c-1.325 0-2.238.74-2.642 1.114-.478.444-.88.982-1.213 1.492l5.022 3.284c.21-.322.304-.408.274-.38-.02.02-.133.122-.339.23-.211.11-.592.26-1.102.26v-6zm-3.868 2.626c-.971 1.51-1.733 3.032-2.242 4.561l5.692 1.898c.322-.967.841-2.038 1.597-3.215l-5.047-3.244zm-2.235 4.539c-.497 1.452-.785 2.905-.785 4.331h6c0-.622.127-1.41.462-2.389l-5.677-1.942zm-.785 4.331c0 .268-.023.414-.035.468-.012.055 0-.045.111-.213.124-.188.333-.4.627-.548.282-.142.516-.163.617-.163v6c1.446 0 2.864-.621 3.763-1.983.755-1.143.917-2.478.917-3.561h-6zm25.612-12.216h-3.264v6h3.264v-6zm-3.264 0c-1.461 0-3.098.39-4.332 1.687-1.209 1.269-1.548 2.902-1.548 4.337h6c0-.134.008-.234.018-.304a.704.704 0 01.021-.111c.002-.006-.005.018-.029.06a.856.856 0 01-.399.352c-.016.005-.006 0 .039-.007s.12-.014.23-.014v-6zm-5.88 6.024v1.824h6v-1.824h-6zm0 1.824c0 1.41.347 3.02 1.569 4.263 1.231 1.252 2.844 1.617 4.263 1.617v-6c-.226 0-.301-.03-.276-.021a.579.579 0 01.113.055.933.933 0 01.313.317c.031.052.043.087.046.095.003.01-.028-.083-.028-.326h-6zm5.832 5.88h3.408v-6h-3.408v6zm3.408 0c1.61 0 3.29-.538 4.47-2.018 1.076-1.35 1.362-3.031 1.362-4.534h-6c0 .403-.041.651-.076.783-.034.127-.049.1.022.01a.806.806 0 01.304-.23c.086-.037.082-.011-.082-.011v6zm5.832-6.552V80.68h-6v1.776h6zm0-1.776c0-1.437-.467-3.003-1.83-4.12-1.249-1.024-2.788-1.28-4.098-1.28v6c.293 0 .443.031.49.044.041.01-.055-.008-.196-.124a1.147 1.147 0 01-.328-.44c-.054-.132-.038-.18-.038-.08h6zm0 13.728v-4.224h-6v4.224h6zm0-4.224c0-1.442-.481-3-1.853-4.103-1.247-1.001-2.776-1.249-4.075-1.249v6c.297 0 .453.03.505.045.047.012-.046-.004-.188-.118a1.186 1.186 0 01-.343-.454c-.06-.145-.046-.207-.046-.121h6zm-5.928-5.352h-3.264v6h3.264v-6zm-3.264 0c-1.291 0-2.817.251-4.057 1.264-1.357 1.108-1.823 2.663-1.823 4.088h6c0-.092.015-.035-.042.105a1.186 1.186 0 01-.34.455c-.145.118-.245.14-.21.13.042-.012.186-.042.472-.042v-6zm-5.88 5.352v4.272h6v-4.272h-6zm0 4.272c0 .257-.022.392-.032.435-.01.044.007-.065.123-.238.13-.194.343-.402.633-.545.277-.138.503-.156.596-.156v6c1.422 0 2.839-.597 3.749-1.949.767-1.14.931-2.473.931-3.547h-6zm1.32-.504c.053 0 .241.009.491.12.267.12.495.31.655.524.148.198.187.35.191.364.003.012-.017-.064-.017-.264h-6c0 1.037.178 2.36 1.014 3.484.96 1.289 2.366 1.772 3.666 1.772v-6zm1.32.744V79.864h-6v14.832h6zm0-14.832c0-.331.043-.498.061-.552.013-.038-.001.02-.078.096-.077.075-.128.084-.075.066.067-.022.25-.066.596-.066v-6c-1.62 0-3.388.4-4.735 1.728-1.354 1.336-1.769 3.103-1.769 4.728h6zm.504-.456h8.304v-6h-8.304v6zm8.304 0c.962 0 1.123.218 1.022.13a.405.405 0 01-.065-.073c-.019-.028-.025-.043-.022-.037.006.016.049.141.049.436h6c0-1.734-.519-3.548-2.03-4.858-1.429-1.24-3.26-1.598-4.954-1.598v6zm.984.456v14.784h6V79.864h-6zm0 14.784c0 .211-.02.3-.02.3.001-.003.035-.146.176-.34.154-.21.38-.404.652-.528.255-.117.451-.128.512-.128v6c1.324 0 2.734-.505 3.684-1.808.822-1.127.996-2.452.996-3.496h-6zm1.32-.696c.101 0 .335.02.617.163.294.148.502.36.627.548.11.168.123.268.111.213a2.33 2.33 0 01-.035-.468h-6c0 1.083.162 2.418.917 3.561.899 1.362 2.317 1.983 3.763 1.983v-6zm27.43-18.672h-3.264v6h3.264v-6zm-3.264 0c-1.461 0-3.098.39-4.332 1.687-1.209 1.269-1.548 2.902-1.548 4.337h6c0-.134.008-.234.018-.304.009-.07.02-.105.022-.111.001-.006-.006.018-.03.06a.911.911 0 01-.286.294.562.562 0 01-.113.058c-.016.005-.006 0 .039-.007s.12-.014.23-.014v-6zm-5.88 6.024v1.824h6v-1.824h-6zm0 1.824c0 1.41.347 3.02 1.569 4.263 1.231 1.252 2.844 1.617 4.263 1.617v-6c-.226 0-.301-.03-.276-.021a.579.579 0 01.113.055.933.933 0 01.313.317c.031.052.043.087.046.095.003.01-.028-.083-.028-.326h-6zm5.832 5.88h3.408v-6h-3.408v6zm3.408 0c1.61 0 3.291-.538 4.47-2.018 1.076-1.35 1.362-3.031 1.362-4.534h-6c0 .403-.041.651-.076.783-.034.127-.049.1.023.01a.765.765 0 01.303-.23c.087-.037.082-.011-.082-.011v6zm5.832-6.552V80.68h-6v1.776h6zm0-1.776c0-1.437-.467-3.003-1.83-4.12-1.249-1.024-2.788-1.28-4.098-1.28v6c.293 0 .443.031.491.044.04.01-.055-.008-.197-.124a1.157 1.157 0 01-.328-.44c-.054-.132-.038-.18-.038-.08h6zm0 13.728v-4.224h-6v4.224h6zm0-4.224c0-1.442-.481-3-1.853-4.103-1.247-1.001-2.776-1.249-4.075-1.249v6c.297 0 .453.03.505.045.047.012-.046-.004-.188-.118a1.186 1.186 0 01-.343-.454c-.06-.145-.046-.207-.046-.121h6zm-5.928-5.352h-3.264v6h3.264v-6zm-3.264 0c-1.291 0-2.817.251-4.057 1.264-1.357 1.108-1.823 2.663-1.823 4.088h6c0-.092.015-.035-.042.105a1.186 1.186 0 01-.34.455c-.145.118-.245.14-.21.13.042-.012.187-.042.472-.042v-6zm-5.88 5.352v4.272h6v-4.272h-6zm0 4.272c0 .257-.022.392-.032.435-.01.044.007-.065.123-.238a1.66 1.66 0 01.633-.545c.277-.138.503-.156.596-.156v6c1.422 0 2.839-.597 3.749-1.949.768-1.14.931-2.473.931-3.547h-6zm1.32-.504c.053 0 .241.009.491.12.267.12.495.31.655.524.148.198.187.35.191.364.003.012-.017-.064-.017-.264h-6c0 1.037.178 2.36 1.014 3.484.96 1.289 2.366 1.772 3.666 1.772v-6zm1.32.744V79.864h-6v14.832h6zm0-14.832c0-.331.043-.498.061-.552.013-.038-.001.02-.078.096-.077.075-.128.084-.075.066.068-.022.25-.066.596-.066v-6c-1.62 0-3.388.4-4.734 1.728-1.354 1.336-1.77 3.103-1.77 4.728h6zm.504-.456h8.304v-6h-8.304v6zm8.304 0c.962 0 1.123.218 1.022.13a.405.405 0 01-.065-.073c-.019-.028-.024-.043-.022-.037.006.016.049.141.049.436h6c0-1.734-.519-3.548-2.03-4.858-1.429-1.24-3.26-1.598-4.954-1.598v6zm.984.456v14.784h6V79.864h-6zm0 14.784c0 .211-.02.3-.02.3.001-.003.035-.146.176-.34.154-.21.38-.404.652-.528.256-.117.452-.128.512-.128v6c1.324 0 2.734-.505 3.684-1.808.822-1.127.996-2.452.996-3.496h-6zm1.32-.696c.101 0 .335.02.617.163.294.148.502.36.627.548.111.168.123.268.111.213a2.33 2.33 0 01-.035-.468h-6c0 1.083.162 2.418.917 3.561.899 1.362 2.317 1.983 3.763 1.983v-6zm18.419-9.912l1.814 2.39.163-.124.145-.145-2.122-2.121zm1.008-3.6h3v-.136l-.012-.136-2.988.272zm-.672-1.584l-2.121 2.121.046.046.048.044 2.027-2.211zm-1.728 6.24l-1.813-2.39-.132.1-.121.115 2.066 2.175zm2.112 5.808l-2.572 1.544.037.06.039.06 2.496-1.664zm-.768-.96l2.122-2.121-.1-.1-.109-.09-1.913 2.311zm-1.392-1.152l1.913-2.311-.048-.04-.049-.038-1.816 2.389zm5.808-5.952l2.957.51.043-.253v-.257h-3zm-2.064 2.928l1.875 2.343.029-.024.029-.024-1.933-2.295zm-.048 2.4l2.067-2.175-.013-.012-.012-.011-2.042 2.198zm2.112 2.976h3v-.248l-.04-.245-2.96.493zm-2.246-4.983c1.281-1.28 1.886-2.913 1.886-4.665h-6c0 .297-.066.36-.129.423l4.243 4.242zm1.886-4.665V80.44h-6v1.056h6zm-.012-1.328c-.107-1.178-.527-2.51-1.632-3.524l-4.055 4.423a1.13 1.13 0 01-.278-.38c-.034-.08-.02-.087-.01.025l5.975-.544zm-1.538-3.433c-1.123-1.123-2.56-1.455-3.802-1.455v6c.115 0 .098.016 0-.018a1.193 1.193 0 01-.441-.285l4.243-4.242zm-3.802-1.455h-3.936v6h3.936v-6zm-3.936 0c-1.512 0-3.158.457-4.356 1.84-1.126 1.301-1.428 2.94-1.428 4.376h6c0-.33.037-.507.057-.575.017-.06.007.012-.092.126a.902.902 0 01-.32.234c-.069.026-.043-.001.139-.001v-6zm-5.784 6.216v1.296h6v-1.296h-6zm0 1.296c0 1.427.294 3.056 1.4 4.356 1.184 1.393 2.824 1.86 4.336 1.86v-6c-.168 0-.182-.025-.102.006a.881.881 0 01.335.246c.099.115.107.185.089.12-.021-.072-.058-.255-.058-.588h-6zm5.736 6.216h1.392v-6h-1.392v6zm1.392 0c1.665 0 3.307-.498 4.611-1.737l-4.133-4.35a.14.14 0 01-.062.035 1.263 1.263 0 01-.416.052v6zm4.358-1.522l1.392-1.056-3.627-4.78-1.392 1.056 3.627 4.78zm2.218 6.706c.04 0 .213.006.452.107.257.108.497.288.678.516.326.413.238.686.238.313h-6c0 1.002.185 2.308 1.055 3.409.977 1.234 2.359 1.655 3.577 1.655v-6zm1.368.936V91.72h-6v3.408h6zm0-3.408c0-1.023-.384-1.868-.791-2.48l-4.993 3.328c-.023-.035-.216-.337-.216-.848h6zm-.715-2.36a8.056 8.056 0 00-1.219-1.537l-4.243 4.242c.182.182.275.312.317.383l5.145-3.087zm-1.428-1.727l-1.392-1.152-3.825 4.622 1.392 1.152 3.825-4.622zm-1.489-1.23c-1.044-.793-2.4-1.523-3.976-1.523v6c-.159 0-.217-.038-.146-.008.074.031.237.115.491.308l3.631-4.777zm-3.976-1.523h-1.728v6h1.728v-6zm-1.728 0c-1.374 0-2.956.346-4.173 1.563s-1.563 2.799-1.563 4.173h6c0-.215.028-.28.018-.248a.893.893 0 01-.212.317.884.884 0 01-.318.212c-.032.01.034-.017.248-.017v-6zm-5.736 5.736v4.368h6v-4.368h-6zm0 4.368c0 .188-.018.252-.012.229.006-.028.051-.187.205-.39.166-.218.397-.402.659-.517.243-.107.424-.114.468-.114v6c1.276 0 2.679-.462 3.648-1.735.851-1.12 1.032-2.442 1.032-3.473h-6zm1.32-.792c.069 0 .273.013.534.135.277.129.5.326.648.533.134.189.164.324.162.314a1.598 1.598 0 01-.024-.334h-6c0 1.05.172 2.377.979 3.508.941 1.316 2.353 1.844 3.701 1.844v-6zm1.32.648V79.912h-6V94.84h6zm0-14.928c0-.329.045-.49.062-.538.011-.032-.004.022-.073.087-.15.142-.101-.053.707-.053v-6c-1.655 0-3.454.39-4.836 1.699-1.411 1.338-1.86 3.133-1.86 4.805h6zm.696-.504h7.968v-6h-7.968v6zm7.968 0c.501 0 .835.05 1.042.105.201.053.236.097.194.064a.463.463 0 01-.13-.168c-.015-.034.022.03.022.263h6c0-1.762-.592-3.553-2.171-4.801-1.444-1.142-3.266-1.463-4.957-1.463v6zm1.128.264v3.168h6v-3.168h-6zm.044 2.658c.013-.076.023-.01-.132.21-.156.221-.436.536-.908.933l3.865 4.59c1.415-1.192 2.749-2.748 3.088-4.713l-5.913-1.02zm-.982 1.095c-.841.673-1.846 1.846-1.846 3.543h6c0 .4-.122.723-.247.931-.111.186-.204.248-.158.212l-3.749-4.686zm-1.846 3.543c0 1.602.925 2.743 1.631 3.398l4.083-4.396c-.067-.062-.01-.026.072.12.09.161.214.466.214.878h-6zm1.606 3.375c.557.528.906.933 1.108 1.217.222.313.152.323.111.077l5.919-.986c-.169-1.014-.655-1.884-1.137-2.563-.502-.708-1.145-1.407-1.868-2.095l-4.133 4.35zm1.178.801v3.888h6v-3.888h-6zm0 3.888c0 .4-.093.144.226-.254.176-.22.407-.39.649-.49.223-.093.378-.096.397-.096v6c1.239 0 2.642-.42 3.639-1.666.895-1.118 1.089-2.453 1.089-3.494h-6zm14.604 3.192h7.872v-6h-7.872v6zm7.872 0c.313 0 .052.064-.38-.192a2.232 2.232 0 01-.796-.826 2.205 2.205 0 01-.288-1.07h6a3.742 3.742 0 00-1.853-3.264c-.943-.56-1.972-.648-2.683-.648v6zm-1.464-2.088c0-.297.068-.702.305-1.116a2.27 2.27 0 01.816-.83c.433-.251.695-.19.391-.19v6c.688 0 1.694-.083 2.622-.622a3.699 3.699 0 001.866-3.242h-6zM204.941 94h-10.416v6h10.416v-6zm-10.416 0c-.454 0-.746-.047-.915-.093-.162-.044-.168-.075-.106-.025a.55.55 0 01.152.2c.016.038-.019-.023-.019-.25h-6c0 1.7.551 3.459 2.077 4.702 1.408 1.147 3.184 1.466 4.811 1.466v-6zm-.888-.168v-14.16h-6v14.16h6zm0-14.16c0-.252.038-.338.031-.32a.487.487 0 01-.13.17c-.06.05-.059.022.094-.021.161-.045.445-.093.893-.093v-6c-1.643 0-3.434.334-4.845 1.518-1.512 1.27-2.043 3.044-2.043 4.746h6zm.888-.264h10.416v-6h-10.416v6zm10.416 0c.287 0-.002.061-.452-.214a2.247 2.247 0 01-.789-.84 2.185 2.185 0 01-.271-1.034h6c0-1.29-.619-2.515-1.805-3.242-.945-.58-1.978-.67-2.683-.67v6zm-1.512-2.088c0-.245.051-.606.257-.992.209-.393.501-.665.769-.832.448-.28.734-.216.438-.216v6c.727 0 1.782-.096 2.742-.696 1.195-.747 1.794-1.984 1.794-3.264h-6zm1.464-2.04h-7.872v6h7.872v-6zm-7.872 0c-1.346 0-2.913.266-4.178 1.31-1.376 1.136-1.846 2.724-1.846 4.186h6c0-.12.018-.087-.03.031a.983.983 0 01-.118.212 1.098 1.098 0 01-.187.199c-.132.11-.219.124-.168.11.057-.015.219-.048.527-.048v-6zm-6.024 5.496v2.064h6v-2.064h-6zm0 2.064c0 1.429.43 3.014 1.764 4.173 1.253 1.088 2.821 1.371 4.164 1.371v-6a1.77 1.77 0 01-.447-.04c-.022-.007.08.02.218.14a1.1 1.1 0 01.181.202.94.94 0 01.104.192c.037.098.016.105.016-.038h-6zm5.928 5.544h7.92v-6h-7.92v6zm7.92 0c.368 0 .188.064-.186-.13a2.25 2.25 0 01-.848-.781 2.358 2.358 0 01-.382-1.273h6a3.64 3.64 0 00-.581-1.987 3.749 3.749 0 00-1.441-1.292c-.902-.465-1.874-.537-2.562-.537v6zm-1.416-2.184c0-.216.042-.55.229-.918.192-.378.469-.656.741-.834.462-.303.773-.24.494-.24v6c.744 0 1.824-.105 2.798-.744 1.194-.783 1.738-2.034 1.738-3.264h-6zm1.464-1.992h-7.968v6h7.968v-6zm-7.968 0c-1.343 0-2.911.283-4.164 1.371-1.334 1.16-1.764 2.744-1.764 4.173h6c0-.143.021-.136-.016-.038a.94.94 0 01-.104.192 1.1 1.1 0 01-.181.203c-.138.12-.24.146-.218.14.031-.01.166-.041.447-.041v-6zm-5.928 5.544v3.072h6v-3.072h-6zm0 3.072c0 1.47.498 3.044 1.891 4.15 1.261 1 2.808 1.25 4.133 1.25v-6c-.316 0-.488-.032-.556-.05-.062-.017.019-.006.153.1a1.125 1.125 0 01.334.438c.059.142.045.202.045.112h-6zM219.79 75.28h-3.264v6h3.264v-6zm-3.264 0c-1.46 0-3.098.39-4.332 1.687-1.208 1.269-1.548 2.902-1.548 4.337h6c0-.134.008-.234.018-.304.01-.07.02-.105.022-.111.002-.006-.006.018-.03.06a.88.88 0 01-.286.294.536.536 0 01-.113.058c-.016.005-.005 0 .039-.007.046-.007.121-.014.23-.014v-6zm-5.88 6.024v1.824h6v-1.824h-6zm0 1.824c0 1.41.347 3.02 1.569 4.263 1.231 1.252 2.844 1.617 4.263 1.617v-6c-.226 0-.301-.03-.276-.021a.579.579 0 01.113.055.933.933 0 01.359.412c.003.01-.028-.083-.028-.326h-6zm5.832 5.88h3.408v-6h-3.408v6zm3.408 0c1.61 0 3.291-.538 4.47-2.018 1.076-1.35 1.362-3.031 1.362-4.534h-6c0 .403-.041.651-.076.783-.034.127-.049.1.023.01a.797.797 0 01.303-.23c.087-.037.082-.011-.082-.011v6zm5.832-6.552V80.68h-6v1.776h6zm0-1.776c0-1.437-.467-3.003-1.83-4.12-1.249-1.024-2.788-1.28-4.098-1.28v6c.293 0 .444.031.491.044.04.01-.055-.008-.196-.124a1.15 1.15 0 01-.329-.44c-.053-.132-.038-.18-.038-.08h6zm0 13.728v-4.224h-6v4.224h6zm0-4.224c0-1.442-.481-3-1.853-4.103-1.246-1.001-2.776-1.249-4.075-1.249v6c.297 0 .453.03.505.045.047.012-.046-.004-.187-.118a1.18 1.18 0 01-.344-.454c-.059-.145-.046-.207-.046-.121h6zm-5.928-5.352h-3.264v6h3.264v-6zm-3.264 0c-1.291 0-2.817.251-4.057 1.264-1.357 1.108-1.823 2.663-1.823 4.088h6c0-.092.015-.035-.042.105a1.186 1.186 0 01-.34.455c-.145.118-.245.14-.21.13.042-.012.187-.042.472-.042v-6zm-5.88 5.352v4.272h6v-4.272h-6zm0 4.272c0 .257-.022.392-.032.435-.01.044.007-.065.124-.238a1.65 1.65 0 01.632-.545 1.39 1.39 0 01.596-.156v6c1.422 0 2.839-.597 3.749-1.949.768-1.14.931-2.473.931-3.547h-6zm1.32-.504c.053 0 .241.009.491.12.267.12.495.31.656.524.147.198.186.35.19.364.003.012-.017-.064-.017-.264h-6c0 1.037.178 2.36 1.014 3.484.96 1.289 2.366 1.772 3.666 1.772v-6zm1.32.744V79.864h-6v14.832h6zm0-14.832c0-.331.043-.498.061-.552.013-.038-.001.02-.078.096-.076.075-.128.084-.075.066.068-.022.25-.066.596-.066v-6c-1.62 0-3.388.4-4.734 1.728-1.354 1.336-1.77 3.103-1.77 4.728h6zm.504-.456h8.304v-6h-8.304v6zm8.304 0c.962 0 1.124.218 1.023.13a.375.375 0 01-.066-.073c-.019-.028-.024-.043-.022-.037.006.016.049.141.049.436h6c0-1.734-.519-3.548-2.03-4.858-1.429-1.24-3.26-1.598-4.954-1.598v6zm.984.456v14.784h6V79.864h-6zm0 14.784c0 .211-.02.3-.02.3.001-.003.035-.146.176-.34.154-.21.38-.404.652-.528.256-.117.452-.128.512-.128v6c1.325 0 2.734-.505 3.684-1.808.822-1.127.996-2.452.996-3.496h-6zm1.32-.696c.101 0 .335.02.617.163.294.148.503.36.627.548.111.168.123.268.111.213a2.33 2.33 0 01-.035-.468h-6c0 1.083.162 2.418.917 3.561.899 1.362 2.317 1.983 3.763 1.983v-6zm22.054-15.672h-3v.007l.001.008 2.999-.015zm.049 9.84h3v-.007l-.001-.008-2.999.015zm-1.92-.696c-.033 0 .072-.006.254.066.199.078.415.22.59.426.33.388.236.65.236.252h-6c0 1.107.225 2.496 1.195 3.636 1.049 1.233 2.484 1.62 3.725 1.62v-6zm1.08.744V78.28h-6v9.888h6zm0-9.888c0-.198.021-.265.014-.241-.008.03-.056.185-.211.374a1.506 1.506 0 01-.589.44c-.194.078-.314.075-.294.075v-6c-1.282 0-2.729.422-3.764 1.69-.941 1.153-1.156 2.547-1.156 3.662h6zm-1.08.648c-.001 0-.033 0-.092-.01a1.202 1.202 0 01-.248-.076 1.548 1.548 0 01-.604-.458 1.071 1.071 0 01-.201-.364c-.005-.017.016.057.016.26h6c0-1.102-.205-2.483-1.12-3.632-1.019-1.28-2.46-1.72-3.751-1.72v6zm-1.128-.633l.048 9.84 5.999-.03-.048-9.84-5.999.03zm.048 9.825c0 .425-.1.186.215-.193.17-.204.384-.35.59-.432.188-.076.301-.071.275-.071v6c1.26 0 2.702-.404 3.744-1.655.955-1.147 1.176-2.538 1.176-3.649h-6zm1.08 6.072c-.336 0-.036-.08.397.257.242.187.438.44.558.72.113.263.125.465.125.535h-6c0 1.192.423 2.543 1.642 3.487 1.073.832 2.333 1.001 3.278 1.001v-6zm1.08 1.512c0 .016-.002.163-.088.381a1.733 1.733 0 01-.49.68c-.443.378-.788.307-.502.307v-6c-.995 0-2.3.2-3.383 1.122-1.178 1-1.537 2.364-1.537 3.51h6zm-1.08 1.368c.316 0-.006.077-.44-.283a1.745 1.745 0 01-.499-.68 1.13 1.13 0 01-.093-.405h6c0-1.17-.38-2.54-1.577-3.533-1.09-.904-2.396-1.099-3.391-1.099v6zm-1.032-1.368c0-.08.013-.29.131-.56a1.85 1.85 0 01.567-.717c.422-.319.697-.235.334-.235v6c.948 0 2.207-.164 3.285-.979 1.236-.934 1.683-2.29 1.683-3.509h-6zm12.899-17.424h-3v.015l3-.015zm.048 9.84h3v-.015l-3 .015zm-1.92-.696c-.033 0 .073-.006.254.066.2.078.416.22.591.426.33.388.235.65.235.252h-6c0 1.107.225 2.496 1.195 3.636 1.049 1.233 2.485 1.62 3.725 1.62v-6zm1.08.744V78.28h-6v9.888h6zm0-9.888c0-.198.021-.265.015-.241-.008.03-.056.185-.211.374a1.516 1.516 0 01-.59.44c-.193.078-.313.075-.294.075v-6c-1.281 0-2.728.422-3.764 1.69-.941 1.153-1.156 2.547-1.156 3.662h6zm-1.08.648s-.033 0-.091-.01a1.19 1.19 0 01-.249-.076 1.545 1.545 0 01-.603-.458 1.084 1.084 0 01-.202-.364c-.004-.017.017.057.017.26h6c0-1.102-.206-2.483-1.121-3.632-1.018-1.28-2.459-1.72-3.751-1.72v6zm-1.128-.633l.048 9.84 6-.03-.048-9.84-6 .03zm.048 9.825c0 .425-.1.186.215-.193.17-.204.385-.35.591-.432.188-.076.3-.071.274-.071v6c1.261 0 2.702-.404 3.745-1.655.955-1.147 1.175-2.538 1.175-3.649h-6zm1.08 6.072c-.336 0-.036-.08.398.257.241.187.437.44.558.72.113.263.124.465.124.535h-6c0 1.192.424 2.543 1.642 3.487 1.074.832 2.334 1.001 3.278 1.001v-6zm1.08 1.512c0 .016-.002.163-.087.381a1.743 1.743 0 01-.49.68c-.444.378-.789.307-.503.307v-6c-.994 0-2.299.2-3.383 1.122-1.177 1-1.537 2.364-1.537 3.51h6zm-1.08 1.368c.316 0-.005.077-.439-.283a1.735 1.735 0 01-.499-.68 1.144 1.144 0 01-.094-.405h6c0-1.17-.379-2.54-1.577-3.533-1.09-.904-2.395-1.099-3.391-1.099v6zm-1.032-1.368c0-.08.013-.29.132-.56a1.84 1.84 0 01.567-.717c.421-.319.697-.235.333-.235v6c.948 0 2.208-.164 3.285-.979 1.236-.934 1.683-2.29 1.683-3.509h-6zm12.9-17.424h-3v.015l3-.015zm.048 9.84h3v-.015l-3 .015zm-1.92-.696c-.033 0 .072-.006.254.066.2.078.415.22.59.426.33.388.236.65.236.252h-6c0 1.107.225 2.496 1.195 3.636 1.049 1.233 2.484 1.62 3.725 1.62v-6zm1.08.744V78.28h-6v9.888h6zm0-9.888c0-.198.021-.265.015-.241-.009.03-.057.185-.211.374a1.516 1.516 0 01-.59.44c-.194.078-.314.075-.294.075v-6c-1.282 0-2.728.422-3.764 1.69-.941 1.153-1.156 2.547-1.156 3.662h6zm-1.08.648s-.033 0-.092-.01a1.202 1.202 0 01-.248-.076 1.556 1.556 0 01-.604-.458 1.071 1.071 0 01-.201-.364c-.004-.017.017.057.017.26h6c0-1.102-.206-2.483-1.121-3.632-1.019-1.28-2.46-1.72-3.751-1.72v6zm-1.128-.633l.048 9.84 6-.03-.048-9.84-6 .03zm.048 9.825c0 .425-.1.186.215-.193.17-.204.385-.35.591-.432.187-.076.3-.071.274-.071v6c1.261 0 2.702-.404 3.744-1.655.956-1.147 1.176-2.538 1.176-3.649h-6zm1.08 6.072c-.336 0-.036-.08.397.257.242.187.438.44.559.72.113.263.124.465.124.535h-6c0 1.192.423 2.543 1.642 3.487 1.074.832 2.333 1.001 3.278 1.001v-6zm1.08 1.512c0 .016-.002.163-.087.381a1.743 1.743 0 01-.49.68c-.444.378-.789.307-.503.307v-6c-.994 0-2.299.2-3.383 1.122-1.177 1-1.537 2.364-1.537 3.51h6zm-1.08 1.368c.316 0-.005.077-.439-.283a1.738 1.738 0 01-.5-.68 1.156 1.156 0 01-.093-.405h6c0-1.17-.38-2.54-1.577-3.533-1.09-.904-2.395-1.099-3.391-1.099v6zm-1.032-1.368c0-.08.013-.29.132-.56.126-.286.328-.537.566-.717.422-.319.697-.235.334-.235v6c.948 0 2.207-.164 3.285-.979 1.236-.934 1.683-2.29 1.683-3.509h-6z" fill="#1C0DBE"/></svg>