<svg width="178" height="42" viewBox="0 0 178 42" fill="none" xmlns="http://www.w3.org/2000/svg"><path d="M43.549 14h-2.637L35.78 5.58V14h-2.636V1.203h2.636l5.142 8.438V1.203h2.628V14zm9.685-2.637h-4.623L47.732 14H44.93l4.763-12.797h2.444L56.926 14h-2.804l-.888-2.637zm-3.91-2.135h3.199l-1.609-4.79-1.59 4.79zm12.242-8.025l3.287 9.281 3.27-9.28h3.463V14H68.94v-3.498l.264-6.038L65.75 14h-1.81l-3.446-9.527.264 6.029V14H58.12V1.203h3.445zm15.768 0l3.287 9.281 3.27-9.28h3.462V14h-2.645v-3.498l.264-6.038L81.518 14h-1.811l-3.445-9.527.263 6.029V14H73.89V1.203h3.445zm19.705 10.16h-4.623L91.537 14h-2.804l4.764-12.797h2.443L100.73 14h-2.803l-.888-2.637zm-3.911-2.135h3.2l-1.61-4.79-1.59 4.79zm20.505 2.135h-4.623L108.131 14h-2.804l4.764-12.797h2.443L117.324 14h-2.803l-.888-2.637zm-3.911-2.135h3.199l-1.609-4.79-1.59 4.79zm13.535.087h-2.101V14h-2.636V1.203h4.754c1.512 0 2.678.337 3.498 1.01.821.675 1.231 1.627 1.231 2.857 0 .873-.191 1.603-.571 2.189-.375.58-.947 1.043-1.714 1.388l2.768 5.23V14h-2.83l-2.399-4.685zm-2.101-2.135h2.127c.662 0 1.175-.167 1.538-.501.364-.34.545-.806.545-1.398 0-.603-.173-1.078-.518-1.424-.34-.345-.865-.518-1.574-.518h-2.118v3.84zm16.559 1.274h-5.063v3.428h5.942V14h-8.578V1.203h8.56V3.34h-5.924v3.05h5.063v2.065zm9.65 2.91h-4.623L141.863 14h-2.803l4.763-12.797h2.444L151.057 14h-2.804l-.888-2.637zm-3.911-2.136h3.199l-1.608-4.79-1.591 4.79zM32 15.758h119.109v.879H32v-.88z" fill="#BC0E6C"/><path d="M43.549 14v1h1v-1h-1zm-2.637 0l-.854.52.293.48h.561v-1zM35.78 5.58l.854-.52-1.854-3.042V5.58h1zm0 8.42v1h1v-1h-1zm-2.636 0h-1v1h1v-1zm0-12.797v-1h-1v1h1zm2.636 0l.854-.52-.292-.48h-.562v1zm5.142 8.438l-.854.52 1.854 3.042V9.641h-1zm0-8.438v-1h-1v1h1zm2.628 0h1v-1h-1v1zm0 11.797h-2.637v2h2.637v-2zm-1.783.48l-5.133-8.42-1.708 1.04 5.133 8.42 1.708-1.04zm-6.987-7.9V14h2V5.58h-2zm1 7.42h-2.636v2h2.636v-2zm-1.636 1V1.203h-2V14h2zm-1-11.797h2.636v-2h-2.636v2zm1.782-.48l5.142 8.438 1.708-1.04L36.633.682l-1.708 1.04zm6.996 7.918V1.203h-2v8.438h2zm-1-7.438h2.628v-2H40.92v2zm1.628-1V14h2V1.203h-2zm10.685 10.16l.948-.319-.23-.68h-.718v1zm-4.623 0v-1h-.72l-.228.684.948.316zM47.732 14v1h.721l.228-.684-.949-.316zm-2.803 0l-.938-.349L43.49 15h1.44v-1zm4.763-12.797v-1h-.694l-.243.651.937.35zm2.444 0l.936-.35-.243-.65h-.693v1zM56.926 14v1h1.442l-.506-1.35-.936.35zm-2.804 0l-.948.32.23.68h.718v-1zm-4.799-4.772l-.949-.316-.437 1.315h1.386v-1zm3.2 0v1h1.39l-.443-1.319-.947.319zm-1.609-4.79l.948-.319-.953-2.839-.944 2.842.95.316zm2.32 5.925h-4.623v2h4.623v-2zm-5.571.684l-.88 2.637 1.898.632.879-2.636-1.897-.633zm.07 1.953h-2.804v2h2.803v-2zm-1.867 1.349L50.63 1.552 48.755.854l-4.764 12.797 1.875.698zm3.826-12.146h2.444v-2h-2.444v2zm1.507-.65l4.79 12.798 1.873-.702L53.072.853l-1.873.7zM56.926 13h-2.804v2h2.804v-2zm-1.856.68l-.888-2.636-1.895.638.887 2.637 1.896-.638zm-5.747-3.453h3.2v-2h-3.2v2zM53.47 8.91l-1.608-4.79-1.896.637 1.608 4.79 1.896-.637zm-3.505-4.787l-1.59 4.79 1.897.63 1.591-4.79-1.898-.63zm11.601-2.919L62.51.87l-.236-.666h-.707v1zm3.287 9.281l-.942.334.945 2.669.94-2.67-.943-.333zm3.27-9.28v-1h-.708L67.18.87l.943.332zm3.463 0h1v-1h-1v1zm0 12.796v1h1v-1h-1zm-2.646 0h-1v1h1v-1zm0-3.498l-.999-.044v.044h1zm.264-6.038l1 .043-1.94-.384.94.34zM65.75 14v1h.701l.24-.66-.941-.34zm-1.81 0l-.94.34.238.66h.702v-1zm-3.446-9.527l.94-.34-1.939.383 1-.043zm.264 6.029h1v-.022l-.001-.022-1 .044zm0 3.498v1h1v-1h-1zm-2.637 0h-1v1h1v-1zm0-12.797v-1h-1v1h1zm2.503.334l3.287 9.281 1.885-.668L62.51.87l-1.885.667zm5.173 9.28l3.27-9.282L67.18.871l-3.27 9.281 1.887.665zm2.326-8.614h3.463v-2h-3.463v2zm2.463-1V14h2V1.203h-2zm1 11.797H68.94v2h2.646v-2zm-1.646 1v-3.498h-2V14h2zm0-3.454l.263-6.039-1.998-.087-.264 6.038 1.998.088zm-1.676-6.423L64.81 13.66l1.88.682 3.454-9.537-1.88-.68zM65.75 13h-1.81v2h1.81v-2zm-.87.66l-3.445-9.527-1.881.68 3.445 9.527 1.88-.68zm-5.385-9.144l.264 6.03 1.998-.088-.264-6.029-1.998.087zm.263 5.986V14h2v-3.498h-2zm1 2.498H58.12v2h2.637v-2zm-1.637 1V1.203h-2V14h2zm-1-11.797h3.445v-2h-3.445v2zm19.213-1l.943-.334-.236-.666h-.707v1zm3.287 9.281l-.942.334.945 2.669.94-2.67-.943-.333zm3.27-9.28v-1h-.708l-.236.667.944.332zm3.462 0h1v-1h-1v1zm0 12.796v1h1v-1h-1zm-2.645 0h-1v1h1v-1zm0-3.498l-.999-.044-.001.022v.022h1zm.264-6.038l.999.043-1.94-.384.94.34zM81.518 14v1h.7l.24-.66-.94-.34zm-1.811 0l-.94.34.238.66h.702v-1zm-3.445-9.527l.94-.34-1.94.383 1-.043zm.263 6.029h1v-.044l-1 .044zm0 3.498v1h1v-1h-1zm-2.636 0h-1v1h1v-1zm0-12.797v-1h-1v1h1zm2.502.334l3.287 9.281 1.886-.668L78.277.87l-1.886.667zm5.173 9.28l3.27-9.282-1.887-.664-3.27 9.281 1.887.665zm2.327-8.614h3.462v-2h-3.462v2zm2.462-1V14h2V1.203h-2zm1 11.797h-2.645v2h2.645v-2zm-1.645 1v-3.498h-2V14h2zm0-3.454l.263-6.039-1.998-.087-.264 6.038 1.998.088zM84.03 4.123l-3.454 9.536 1.88.682 3.455-9.537-1.88-.68zM81.518 13h-1.811v2h1.81v-2zm-.87.66l-3.446-9.527-1.88.68 3.445 9.527 1.88-.68zm-5.385-9.144l.263 6.03 1.998-.088-.263-6.029-1.998.087zm.262 5.986V14h2v-3.498h-2zm1 2.498H73.89v2h2.636v-2zm-1.636 1V1.203h-2V14h2zm-1-11.797h3.445v-2h-3.445v2zm23.15 9.16l.948-.319-.23-.68h-.718v1zm-4.623 0v-1h-.72l-.229.684.949.316zM91.537 14v1h.72l.229-.684-.949-.316zm-2.804 0l-.937-.349L87.294 15h1.44v-1zm4.764-12.797v-1h-.695l-.242.651.937.35zm2.443 0l.937-.35-.243-.65h-.694v1zM100.73 14v1h1.443l-.506-1.35-.937.35zm-2.803 0l-.948.32.23.68h.718v-1zm-4.8-4.772l-.948-.316-.437 1.315h1.386v-1zm3.2 0v1h1.39l-.442-1.319-.948.319zm-1.608-4.79l.948-.319-.954-2.839-.943 2.842.949.316zm2.32 5.925h-4.623v2h4.623v-2zm-5.572.684l-.879 2.637 1.898.632.879-2.636-1.898-.633zm.07 1.953h-2.804v2h2.804v-2zm-1.866 1.349l4.763-12.797L92.56.854l-4.764 12.797 1.875.698zm3.826-12.146h2.443v-2h-2.443v2zm1.507-.65l4.79 12.798 1.873-.702L96.877.853l-1.873.7zM100.73 13h-2.803v2h2.803v-2zm-1.856.68l-.887-2.636-1.896.638.888 2.637 1.895-.638zm-5.746-3.453h3.2v-2h-3.2v2zm4.147-1.318l-1.608-4.79-1.896.637 1.608 4.79 1.896-.637zM93.77 4.122l-1.591 4.79 1.898.63 1.59-4.79-1.897-.63zm19.863 7.241l.948-.319-.23-.68h-.718v1zm-4.623 0v-1h-.721l-.228.684.949.316zM108.131 14v1h.721l.228-.684-.949-.316zm-2.804 0l-.937-.349-.502 1.349h1.439v-1zm4.764-12.797v-1h-.695l-.242.651.937.35zm2.443 0l.937-.35-.243-.65h-.694v1zM117.324 14v1h1.442l-.505-1.35-.937.35zm-2.803 0l-.948.32.229.68h.719v-1zm-4.799-4.772l-.949-.316-.437 1.315h1.386v-1zm3.199 0v1h1.391l-.443-1.319-.948.319zm-1.609-4.79l.948-.319-.953-2.839-.944 2.842.949.316zm2.321 5.925h-4.623v2h4.623v-2zm-5.572.684l-.879 2.637 1.898.632.878-2.636-1.897-.633zm.07 1.953h-2.804v2h2.804v-2zm-1.867 1.349l4.764-12.797-1.874-.698-4.764 12.797 1.874.698zm3.827-12.146h2.443v-2h-2.443v2zm1.507-.65l4.79 12.798 1.873-.702-4.79-12.796-1.873.7zM117.324 13h-2.803v2h2.803v-2zm-1.856.68l-.887-2.636-1.896.638.888 2.637 1.895-.638zm-5.746-3.453h3.199v-2h-3.199v2zm4.147-1.318l-1.609-4.79-1.895.637 1.608 4.79 1.896-.637zm-3.506-4.787l-1.59 4.79 1.898.63 1.591-4.79-1.899-.63zm12.894 5.193l.89-.455-.279-.545h-.611v1zm-2.101 0v-1h-1v1h1zm0 4.685v1h1v-1h-1zm-2.636 0h-1v1h1v-1zm0-12.797v-1h-1v1h1zm8.912 6.056l-.839-.545-.001.002.84.543zm-1.714 1.388l-.411-.911-.972.437.499.942.884-.468zm2.768 5.23h1v-.248l-.116-.22-.884.468zm0 .123v1h1v-1h-1zm-2.83 0l-.89.456.279.544h.611v-1zm-4.5-6.82h-1v1h1v-1zm3.665-.501l.677.736.006-.006-.683-.73zm.027-2.822l-.713.701.006.007.707-.708zm-3.692-.518v-1h-1v1h1zm2.101 4.976h-2.101v2h2.101v-2zm-3.101 1V14h2V9.315h-2zm1 3.685h-2.636v2h2.636v-2zm-1.636 1V1.203h-2V14h2zm-1-11.797h4.754v-2h-4.754v2zm4.754 0c1.377 0 2.285.308 2.864.784l1.269-1.546C126.346.57 124.921.203 123.274.203v2zm2.864.784c.551.452.865 1.099.865 2.083h2c0-1.476-.506-2.734-1.596-3.629l-1.269 1.546zm.865 2.083c0 .728-.158 1.256-.41 1.644l1.677 1.09c.51-.785.733-1.715.733-2.734h-2zm-.411 1.646c-.25.386-.654.736-1.285 1.02l.821 1.823c.905-.407 1.643-.983 2.143-1.757l-1.679-1.086zm-1.758 2.4l2.769 5.229 1.767-.936-2.768-5.23-1.768.936zm2.652 4.761V14h2v-.123h-2zm1-.877h-2.83v2h2.83v-2zm-1.94.544l-2.399-4.684-1.78.911 2.399 4.685 1.78-.912zm-5.39-5.364h2.127v-2h-2.127v2zm2.127 0c.826 0 1.612-.21 2.215-.765l-1.354-1.472c-.123.113-.362.237-.861.237v2zm2.221-.771c.604-.565.862-1.316.862-2.128h-2c0 .372-.105.552-.228.667l1.366 1.461zm.862-2.128c0-.803-.236-1.555-.811-2.13l-1.414 1.414c.116.116.225.312.225.716h2zm-.805-2.125c-.6-.61-1.434-.817-2.287-.817v2c.565 0 .781.138.861.22l1.426-1.403zm-2.287-.817h-2.118v2h2.118v-2zm-3.118 1v3.84h2V3.34h-2zm17.559 5.115v1h1v-1h-1zm-5.063 0v-1h-1v1h1zm0 3.428h-1v1h1v-1zm5.942 0h1v-1h-1v1zm0 2.118v1h1v-1h-1zm-8.578 0h-1v1h1v-1zm0-12.797v-1h-1v1h1zm8.56 0h1v-1h-1v1zm0 2.136v1h1v-1h-1zm-5.924 0v-1h-1v1h1zm0 3.05h-1v1h1v-1zm5.063 0h1v-1h-1v1zm0 1.065h-5.063v2h5.063v-2zm-6.063 1v3.428h2V8.454h-2zm1 4.428h5.942v-2h-5.942v2zm4.942-1V14h2v-2.118h-2zm1 1.118h-8.578v2h8.578v-2zm-7.578 1V1.203h-2V14h2zm-1-11.797h8.56v-2h-8.56v2zm7.56-1V3.34h2V1.203h-2zm1 1.136h-5.924v2h5.924v-2zm-6.924 1v3.05h2v-3.05h-2zm1 4.05h5.063v-2h-5.063v2zm4.063-1v2.065h2V6.39h-2zm10.65 4.974l.948-.319-.229-.68h-.719v1zm-4.623 0v-1h-.721l-.227.684.948.316zM141.863 14v1h.721l.228-.684-.949-.316zm-2.803 0l-.938-.349L137.62 15h1.44v-1zm4.763-12.797v-1h-.695l-.242.651.937.35zm2.444 0l.936-.35-.243-.65h-.693v1zM151.057 14v1h1.442l-.506-1.35-.936.35zm-2.804 0l-.948.32.229.68h.719v-1zm-4.799-4.772l-.949-.316-.437 1.315h1.386v-1zm3.199 0v1h1.391l-.443-1.319-.948.319zm-1.608-4.79l.948-.319-.953-2.839-.944 2.842.949.316zm2.32 5.925h-4.623v2h4.623v-2zm-5.571.684l-.879 2.637 1.897.632.879-2.636-1.897-.633zm.069 1.953h-2.803v2h2.803v-2zm-1.866 1.349l4.763-12.797-1.874-.698-4.764 12.797 1.875.698zm3.826-12.146h2.444v-2h-2.444v2zm1.507-.65l4.79 12.798 1.873-.702-4.79-12.796-1.873.7zM151.057 13h-2.804v2h2.804v-2zm-1.856.68l-.888-2.636-1.895.638.887 2.637 1.896-.638zm-5.747-3.453h3.199v-2h-3.199v2zm4.147-1.318l-1.608-4.79-1.896.637 1.608 4.79 1.896-.637zm-3.505-4.787l-1.591 4.79 1.898.63 1.591-4.79-1.898-.63z" fill="#E3DC36"/><path d="M32 15.758v-1h-1v1h1zm119.109 0h1v-1h-1v1zm0 .879v1h1v-1h-1zM32 16.637h-1v1h1v-1zm0 .12h119.109v-2H32v2zm118.109-1v.88h2v-.88h-2zm1-.12H32v2h119.109v-2zM33 16.637v-.88h-2v.88h2z" fill="#E3DC36"/><a><path fill="none" d="M0-.047h119.109v21.094H0z"/></a><path d="M57.203 35.598c-.047 1.083-.316 1.944-.806 2.583-.487.635-1.143.952-1.968.952-.364 0-.68-.078-.946-.235a1.493 1.493 0 01-.597-.672c-.423.592-.975.888-1.656.888-.618 0-1.096-.26-1.435-.78-.339-.521-.465-1.209-.38-2.064.075-.698.251-1.318.526-1.86.28-.545.63-.964 1.054-1.256.423-.292.88-.438 1.37-.438.606 0 1.122.14 1.55.419l.4.273-.324 3.669c-.042.334-.007.59.108.768.118.178.305.266.558.266.39 0 .716-.226.978-.679.262-.457.406-1.054.431-1.79.072-1.477-.226-2.61-.895-3.402-.664-.796-1.65-1.194-2.957-1.194-.817 0-1.545.208-2.184.623-.64.414-1.143 1.004-1.51 1.77-.369.762-.576 1.636-.623 2.622-.068 1.498.233 2.656.901 3.472.67.821 1.67 1.232 3.003 1.232.351 0 .72-.04 1.104-.121a4.32 4.32 0 00.997-.311l.241.977c-.258.17-.607.305-1.047.407a5.577 5.577 0 01-1.32.159c-1.118 0-2.07-.227-2.857-.68-.787-.448-1.375-1.113-1.765-1.993-.385-.876-.552-1.923-.501-3.142.05-1.168.317-2.215.8-3.142.482-.927 1.138-1.642 1.967-2.146.834-.507 1.774-.761 2.819-.761 1.062 0 1.976.228 2.742.685.766.453 1.34 1.103 1.72 1.949.381.846.548 1.83.502 2.952zm-6.38.672c-.046.56.002.984.146 1.276a.728.728 0 00.699.432c.207 0 .404-.091.59-.273.186-.182.34-.444.463-.787l.267-3.002a1.596 1.596 0 00-.508-.083c-.486 0-.865.207-1.136.622-.267.415-.44 1.02-.52 1.816zm10.233-6.512l2.374 6.703 2.361-6.703h2.501V39h-1.91v-2.526l.19-4.361L64.077 39H62.77l-2.489-6.88.19 4.354V39h-1.903v-9.242h2.488zm11.343 6.646l1.27-4.272h1.967l-2.76 7.934-.153.362c-.41.897-1.088 1.346-2.031 1.346-.267 0-.538-.04-.813-.12v-1.39l.28.005c.346 0 .604-.052.774-.158.173-.106.309-.282.406-.527l.216-.565-2.406-6.887h1.974l1.276 4.272zm6.157-5.96v1.688h1.175v1.346h-1.175v3.427c0 .254.049.436.146.546.098.11.284.165.559.165.203 0 .383-.015.54-.044v1.39c-.36.11-.73.165-1.111.165-1.287 0-1.943-.65-1.968-1.949v-3.7h-1.003v-1.346h1.003v-1.689h1.834zm3.987 2.437c.486-.584 1.098-.876 1.834-.876 1.49 0 2.245.865 2.266 2.596V39H84.81v-4.348c0-.394-.085-.684-.254-.87-.17-.19-.45-.285-.844-.285-.538 0-.927.207-1.168.622V39h-1.835v-9.75h1.835v3.63zM89.963 39h-1.84v-6.868h1.84V39zm-1.949-8.645c0-.276.091-.502.273-.68.186-.177.438-.266.756-.266.313 0 .562.089.749.266.186.178.279.404.279.68 0 .279-.095.507-.286.685-.186.178-.433.267-.742.267-.31 0-.559-.09-.75-.267a.906.906 0 01-.279-.685zM93.416 39h-1.84v-9.75h1.84V39zm3.453 0h-1.84v-6.868h1.84V39zm-1.948-8.645c0-.276.09-.502.272-.68.187-.177.439-.266.756-.266.313 0 .563.089.749.266.186.178.28.404.28.68 0 .279-.096.507-.286.685-.187.178-.434.267-.743.267-.31 0-.559-.09-.75-.267a.906.906 0 01-.278-.685zm8.55 10.08h-5.783V39h5.783v1.435zm4.259-4.818h-1.517V39h-1.904v-9.242h3.434c1.092 0 1.934.243 2.526.73.593.486.889 1.174.889 2.063 0 .63-.138 1.157-.413 1.58-.271.42-.683.754-1.238 1.003l2 3.777V39h-2.044l-1.733-3.383zm-1.517-1.543h1.536c.478 0 .849-.12 1.111-.362.262-.245.394-.582.394-1.009 0-.436-.125-.779-.375-1.028-.245-.25-.624-.375-1.136-.375h-1.53v2.774zM116.471 39a2.024 2.024 0 01-.184-.616c-.445.495-1.022.743-1.733.743-.673 0-1.232-.195-1.676-.584-.44-.39-.66-.88-.66-1.473 0-.728.269-1.286.806-1.675.542-.39 1.322-.587 2.342-.59h.845v-.394c0-.318-.083-.572-.248-.762-.161-.19-.417-.286-.768-.286-.309 0-.552.074-.73.222-.174.149-.26.352-.26.61h-1.835c0-.398.123-.766.368-1.105.246-.338.593-.603 1.041-.793a3.762 3.762 0 011.511-.292c.847 0 1.517.214 2.012.641.5.423.749 1.02.749 1.79v2.977c.005.652.096 1.145.273 1.48V39h-1.853zm-1.517-1.276c.271 0 .52-.06.749-.178a1.21 1.21 0 00.508-.488v-1.181h-.686c-.918 0-1.407.317-1.466.952l-.007.108c0 .229.081.417.242.565.16.148.38.222.66.222zm6.227-5.592l.057.768c.487-.597 1.145-.895 1.974-.895.884 0 1.492.349 1.822 1.047.482-.698 1.17-1.047 2.063-1.047.745 0 1.299.218 1.663.654.364.431.546 1.083.546 1.955V39h-1.841v-4.38c0-.39-.076-.673-.229-.85-.152-.182-.421-.273-.806-.273-.55 0-.931.262-1.142.787l.006 4.716h-1.834v-4.373c0-.398-.079-.686-.235-.864-.157-.178-.423-.266-.8-.266-.521 0-.897.215-1.13.647V39h-1.834v-6.868h1.72zm12.701 6.995c-1.007 0-1.828-.309-2.462-.927-.631-.618-.946-1.44-.946-2.469v-.178c0-.69.133-1.305.4-1.847a2.912 2.912 0 011.13-1.257c.49-.296 1.049-.444 1.675-.444.94 0 1.678.296 2.216.889.541.592.812 1.432.812 2.52v.749h-4.373c.059.448.237.808.533 1.079.3.27.679.406 1.136.406.707 0 1.259-.256 1.657-.768l.901 1.01c-.275.389-.647.693-1.117.913-.47.216-.99.324-1.562.324zm-.209-5.637c-.364 0-.66.123-.889.368-.224.246-.368.597-.431 1.054h2.551v-.146c-.008-.406-.118-.72-.33-.94-.211-.224-.512-.336-.901-.336zm7.801 3.612c0-.224-.112-.4-.336-.527-.22-.131-.576-.247-1.067-.349-1.633-.343-2.45-1.037-2.45-2.082 0-.61.252-1.117.756-1.523.507-.41 1.17-.616 1.986-.616.872 0 1.568.205 2.089.616.525.41.787.943.787 1.6h-1.835a.877.877 0 00-.253-.648c-.17-.174-.434-.26-.794-.26-.309 0-.548.07-.717.209a.662.662 0 00-.254.533c0 .203.095.368.286.495.194.123.52.23.977.324.457.089.842.19 1.155.305.969.355 1.454.97 1.454 1.847 0 .626-.269 1.134-.806 1.523-.538.385-1.232.578-2.082.578-.576 0-1.088-.102-1.536-.305a2.609 2.609 0 01-1.048-.844 1.975 1.975 0 01-.381-1.162h1.74c.017.326.137.576.361.75.225.173.525.26.902.26.351 0 .616-.066.793-.197a.628.628 0 00.273-.527zm4.761-4.221c.487-.584 1.098-.876 1.834-.876 1.49 0 2.245.865 2.267 2.596V39h-1.835v-4.348c0-.394-.085-.684-.254-.87-.169-.19-.45-.285-.844-.285-.537 0-.927.207-1.168.622V39h-1.834v-9.75h1.834v3.63z" fill="#1C0DBE"/></svg>