<svg width="254" height="29" viewBox="0 0 254 29" fill="none" xmlns="http://www.w3.org/2000/svg"><path d="M6.043 17.096H2.704L2.07 19H.044l3.44-9.242H5.25L8.709 19H6.684l-.641-1.904zm-2.825-1.543h2.31l-1.16-3.46-1.15 3.46zm10.296.064h-1.517V19h-1.905V9.758h3.434c1.092 0 1.934.243 2.527.73.592.486.888 1.174.888 2.063 0 .63-.137 1.157-.412 1.58-.271.42-.684.754-1.238 1.003l2 3.777V19h-2.044l-1.733-3.383zm-1.517-1.543h1.536c.478 0 .848-.12 1.11-.362.263-.245.394-.582.394-1.009 0-.436-.125-.778-.374-1.028-.246-.25-.625-.375-1.137-.375h-1.53v2.774zm12.479.92h-3.657v2.476h4.291V19h-6.195V9.758h6.183V11.3h-4.279v2.203h3.657v1.492zm7.49 2.102h-3.34L27.992 19h-2.025l3.44-9.242h1.765L34.632 19h-2.026l-.64-1.904zm-2.825-1.543h2.31l-1.162-3.46-1.148 3.46zm7.33 4.24h-1.364l3.402-10.035h1.365l-3.402 10.036zm6.83-2.323h4.044V19h-5.948V9.758H43.3v7.712zm12.847-2.882c0 .91-.16 1.708-.482 2.393-.322.686-.783 1.215-1.384 1.587-.597.373-1.282.559-2.056.559-.767 0-1.45-.184-2.05-.552-.602-.369-1.067-.893-1.397-1.575-.33-.685-.498-1.472-.502-2.36v-.458c0-.91.163-1.71.489-2.4.33-.693.794-1.224 1.39-1.592.601-.373 1.287-.56 2.057-.56s1.453.187 2.05.56c.601.368 1.064.899 1.39 1.593.33.69.495 1.487.495 2.393v.412zm-1.93-.419c0-.969-.173-1.705-.52-2.209-.347-.503-.842-.755-1.485-.755-.64 0-1.132.25-1.48.75-.346.494-.522 1.222-.526 2.183v.45c0 .944.173 1.676.52 2.197.347.52.847.78 1.498.78.64 0 1.13-.25 1.473-.749.343-.503.516-1.235.52-2.196v-.45zm11.09 1.752c-.073.995-.44 1.778-1.105 2.349-.66.571-1.532.857-2.615.857-1.185 0-2.118-.398-2.8-1.193-.677-.8-1.015-1.896-1.015-3.289v-.564c0-.89.156-1.672.47-2.35.313-.676.76-1.194 1.339-1.554.584-.364 1.261-.546 2.031-.546 1.067 0 1.926.285 2.577.857.652.571 1.029 1.373 1.13 2.406h-1.904c-.047-.597-.214-1.029-.502-1.295-.283-.271-.717-.407-1.3-.407-.636 0-1.112.229-1.43.686-.312.453-.473 1.157-.481 2.114v.698c0 .999.15 1.729.45 2.19.305.461.783.692 1.435.692.588 0 1.026-.133 1.314-.4.292-.271.459-.688.501-1.25h1.905zm6.988 1.175h-3.34L68.323 19h-2.025l3.44-9.242h1.765L74.962 19h-2.025l-.641-1.904zm-2.825-1.543h2.31l-1.161-3.46-1.149 3.46zm13.07-4.253h-2.832V19h-1.904v-7.7h-2.793V9.758h7.528V11.3zm3.636 7.7h-1.904V9.758h1.904V19zm9.883-4.412c0 .91-.161 1.708-.483 2.393-.321.686-.782 1.215-1.383 1.587-.597.373-1.283.559-2.057.559-.766 0-1.45-.184-2.05-.552-.601-.369-1.067-.893-1.397-1.575-.33-.685-.497-1.472-.501-2.36v-.458c0-.91.163-1.71.489-2.4.33-.693.793-1.224 1.39-1.592.6-.373 1.286-.56 2.056-.56s1.454.187 2.05.56c.601.368 1.065.899 1.39 1.593.33.69.496 1.487.496 2.393v.412zm-1.93-.419c0-.969-.173-1.705-.52-2.209-.347-.503-.843-.755-1.486-.755-.639 0-1.132.25-1.479.75-.347.494-.522 1.222-.527 2.183v.45c0 .944.174 1.676.52 2.197.348.52.847.78 1.499.78.639 0 1.13-.25 1.473-.749.342-.503.516-1.235.52-2.196v-.45zM105.48 19h-1.904l-3.707-6.081V19h-1.904V9.758h1.904l3.713 6.094V9.758h1.898V19zm5.909-.901c0-.292.097-.53.292-.711.199-.182.446-.273.743-.273.3 0 .548.09.742.273a.919.919 0 01.299.71.923.923 0 01-.292.705c-.195.178-.445.267-.749.267-.301 0-.548-.089-.743-.267a.92.92 0 01-.292-.704zm0-5.2c0-.291.097-.528.292-.71.199-.182.446-.273.743-.273.3 0 .548.091.742.273a.919.919 0 01.299.71.923.923 0 01-.292.706c-.195.177-.445.266-.749.266-.301 0-.548-.089-.743-.267a.92.92 0 01-.292-.704zm6.911 3.21c0-.752.101-1.465.302-2.138.202-.677.498-1.281.889-1.812.391-.534.804-.908 1.24-1.123l.235.694c-.459.348-.832.88-1.119 1.596-.283.713-.437 1.53-.463 2.451l-.005.42c0 .987.138 1.867.415 2.642.28.771.67 1.359 1.172 1.763l-.235.659c-.436-.215-.851-.591-1.245-1.128a5.942 5.942 0 01-.889-1.807 7.84 7.84 0 01-.297-2.217zm8.139-.283h-2.92v2.188h3.413V19h-4.648v-7.11h4.614v.997h-3.379v1.963h2.92v.976zm7.348 2.251c-.257.335-.613.59-1.069.762a4.368 4.368 0 01-1.553.259c-.596 0-1.123-.135-1.582-.406a2.713 2.713 0 01-1.064-1.157c-.248-.504-.376-1.092-.386-1.762v-.557c0-1.074.257-1.913.771-2.515.515-.605 1.232-.908 2.154-.908.791 0 1.419.195 1.884.586.466.39.746.954.84 1.69h-1.211c-.136-.857-.633-1.285-1.489-1.285-.553 0-.975.2-1.265.6-.286.398-.434.982-.444 1.754v.547c0 .768.161 1.365.483 1.792.326.423.777.634 1.353.634.632 0 1.081-.143 1.348-.43V16.29h-1.465v-.938h2.695v2.725zm2.358-.327c.221 0 .392.064.513.19.12.124.18.28.18.47a.64.64 0 01-.18.463c-.121.12-.292.18-.513.18-.211 0-.379-.06-.503-.18a.621.621 0 01-.185-.464c0-.189.06-.345.18-.469.121-.127.29-.19.508-.19zm0-4.146c.221 0 .392.064.513.19.12.125.18.28.18.47a.64.64 0 01-.18.463c-.121.121-.292.181-.513.181-.211 0-.379-.06-.503-.18a.621.621 0 01-.185-.464c0-.19.06-.345.18-.47.121-.126.29-.19.508-.19zm9.062 3.565c0-.313-.111-.553-.332-.723-.218-.169-.614-.34-1.187-.512-.573-.173-1.028-.365-1.367-.577-.648-.406-.972-.937-.972-1.591 0-.573.233-1.045.699-1.416.468-.371 1.076-.557 1.821-.557.495 0 .936.091 1.323.273.388.183.692.443.913.782.222.335.332.708.332 1.118h-1.23c0-.371-.117-.661-.352-.87-.231-.21-.563-.317-.996-.317-.403 0-.718.087-.942.26-.222.172-.332.412-.332.722 0 .26.12.478.361.654.241.173.638.342 1.192.508.553.163.997.35 1.333.561.335.209.581.45.737.723.156.27.234.588.234.952 0 .593-.228 1.065-.683 1.416-.453.349-1.068.523-1.846.523-.514 0-.988-.095-1.421-.284-.43-.192-.765-.455-1.006-.79a1.978 1.978 0 01-.356-1.172h1.235c0 .403.134.716.4.937.267.221.65.332 1.148.332.43 0 .752-.086.967-.259a.847.847 0 00.327-.693zm6.874-1.343h-2.919v2.188h3.413V19h-4.649v-7.11h4.614v.997h-3.378v1.963h2.919v.976zm6.055 0h-2.92v2.188h3.413V19h-4.649v-7.11h4.615v.997h-3.379v1.963h2.92v.976zm7.133-2.94h-2.217V19h-1.225v-6.113h-2.197v-.996h5.639v.996zM172.25 19h-1.23v-3.16h-3.179V19h-1.235v-7.11h1.235v2.96h3.179v-2.96h1.23V19zm5.932-1.655h-2.753L174.852 19h-1.284l2.686-7.11h1.108l2.691 7.11h-1.29l-.581-1.655zm-2.407-.996h2.061l-1.031-2.95-1.03 2.95zm8.1-.088h-1.377V19h-1.235v-7.11h2.5c.82 0 1.454.184 1.9.552.445.368.668.9.668 1.597 0 .475-.115.874-.346 1.196a2.183 2.183 0 01-.957.738l1.596 2.963V19h-1.323l-1.426-2.74zm-1.377-.991h1.27c.417 0 .742-.105.977-.313.234-.212.351-.5.351-.864 0-.381-.109-.676-.327-.884-.215-.208-.537-.316-.967-.322h-1.304v2.383zm9.385 2.075h-2.754L188.553 19h-1.284l2.685-7.11h1.108l2.691 7.11h-1.289l-.581-1.655zm-2.407-.996h2.06l-1.03-2.95-1.03 2.95zm7.089-4.458l2.051 5.449 2.046-5.45h1.596V19h-1.23v-2.344l.122-3.134-2.1 5.478h-.883l-2.095-5.474.122 3.13V19h-1.231v-7.11h1.602zM212.653 19h-1.235l-3.169-5.044V19h-1.236v-7.11h1.236l3.179 5.064v-5.063h1.225V19zm5.927-1.655h-2.753L215.25 19h-1.284l2.686-7.11h1.108l2.691 7.11h-1.289l-.582-1.655zm-2.407-.996h2.061l-1.03-2.95-1.031 2.95zm10.83 1.728c-.257.335-.614.59-1.069.762a4.368 4.368 0 01-1.553.259c-.596 0-1.123-.135-1.582-.406a2.72 2.72 0 01-1.065-1.157c-.247-.504-.376-1.092-.385-1.762v-.557c0-1.074.257-1.913.771-2.515.514-.605 1.232-.908 2.153-.908.791 0 1.42.195 1.885.586.466.39.746.954.84 1.69h-1.211c-.137-.857-.633-1.285-1.489-1.285-.554 0-.975.2-1.265.6-.286.398-.434.982-.444 1.754v.547c0 .768.161 1.365.483 1.792.326.423.777.634 1.353.634.631 0 1.081-.143 1.347-.43V16.29h-1.464v-.938h2.695v2.725zm5.737-.732h-2.754L229.41 19h-1.284l2.685-7.11h1.109l2.69 7.11h-1.289l-.581-1.655zm-2.407-.996h2.06l-1.03-2.95-1.03 2.95zm8.1-.088h-1.377V19h-1.235v-7.11h2.5c.82 0 1.453.184 1.899.552.446.368.669.9.669 1.597 0 .475-.116.874-.347 1.196a2.183 2.183 0 01-.957.738l1.597 2.963V19h-1.323l-1.426-2.74zm-1.377-.991h1.269c.417 0 .743-.105.977-.313.234-.212.352-.5.352-.864 0-.381-.11-.676-.328-.884-.214-.208-.537-.316-.966-.322h-1.304v2.383zm7.578.918c0 .722-.1 1.42-.298 2.094-.199.67-.5 1.281-.904 1.831-.403.554-.825.936-1.264 1.148l-.235-.66c.489-.377.874-.953 1.158-1.728.286-.778.429-1.665.429-2.661V16.1c0-.905-.123-1.729-.371-2.471-.247-.745-.602-1.343-1.064-1.792l-.152-.137.235-.664c.416.202.82.56 1.211 1.074.39.515.69 1.09.898 1.729.208.635.326 1.29.352 1.968l.005.38z" fill="#000"/></svg>