<svg width="183" height="21" viewBox="0 0 183 21" fill="none" xmlns="http://www.w3.org/2000/svg"><path d="M6.233 10.995H2.691L2.26 13.47h4.164L6.157 15H.133L1.74 5.758H7.75L7.478 7.3H3.333l-.388 2.203H6.5l-.267 1.492zM15.12 15h-1.803l-2.57-6.164L9.672 15h-1.86L9.42 5.758h1.797l2.577 6.176 1.073-6.176h1.853L15.12 15zm10.092-7.7H22.47L21.137 15h-1.86l1.333-7.7H17.9l.272-1.542h7.313L25.212 7.3zm6.398 3.695h-3.542l-.432 2.475H31.8L31.534 15H25.51l1.606-9.242h6.01L32.855 7.3h-4.145l-.387 2.203h3.554l-.266 1.492zm5.54.622h-1.51L35.05 15h-1.86l1.606-9.242 3.06.006c1.023 0 1.81.241 2.36.724.555.482.8 1.153.737 2.012-.089 1.27-.766 2.152-2.031 2.647l1.301 3.751V15h-1.98l-1.092-3.383zm-1.243-1.543l1.384.013c.49-.008.895-.14 1.212-.394.322-.258.514-.607.578-1.047.059-.41-.007-.732-.197-.965-.19-.233-.493-.357-.908-.374L36.389 7.3l-.482 2.774zM53.267 7.3h-2.743L49.191 15h-1.86l1.333-7.7h-2.71l.273-1.542h7.312L53.266 7.3zm7.61 7.7h-1.86l.685-3.96h-3.586L55.424 15h-1.86l1.606-9.242h1.86l-.654 3.745h3.593l.648-3.745h1.86L60.876 15zm8.283-4.005h-3.542l-.432 2.475h4.164L69.084 15H63.06l1.606-9.242h6.011L70.404 7.3H66.26l-.387 2.203h3.555l-.267 1.492zm10.396 1.536c.09-.504-.158-.889-.742-1.155l-1.225-.49c-1.422-.634-2.097-1.508-2.025-2.62.03-.517.199-.974.508-1.372.308-.398.742-.709 1.3-.933a4.571 4.571 0 011.81-.33c.893.017 1.614.283 2.165.8.55.512.82 1.2.812 2.063h-1.854c.022-.42-.072-.745-.279-.978-.203-.233-.52-.353-.952-.362-.423-.008-.791.09-1.105.292-.313.2-.499.474-.558.825-.08.462.228.828.927 1.099l.838.317.482.222c1.248.618 1.832 1.486 1.752 2.603a2.514 2.514 0 01-.527 1.415c-.309.394-.732.696-1.27.908a4.5 4.5 0 01-1.764.298c-.656-.012-1.24-.15-1.752-.412a2.72 2.72 0 01-1.168-1.111c-.25-.444-.366-.952-.35-1.524l1.86.007c-.058 1.003.435 1.513 1.48 1.53.453 0 .825-.1 1.117-.299.292-.199.465-.463.52-.793zm11.35-5.23h-2.743L86.83 15h-1.86l1.334-7.7h-2.711l.273-1.542h7.313L90.906 7.3zm4.258 4.316h-1.51L93.064 15h-1.86l1.605-9.242 3.06.006c1.024 0 1.811.241 2.361.724.555.482.8 1.153.737 2.012-.09 1.27-.766 2.152-2.032 2.647l1.302 3.751V15h-1.98l-1.093-3.383zm-1.244-1.543l1.384.013c.49-.008.895-.14 1.212-.394.322-.258.514-.607.578-1.047.06-.41-.006-.732-.197-.965-.19-.233-.493-.357-.907-.374L94.403 7.3l-.483 2.774zm12.016.92h-3.542l-.432 2.476h4.164L105.86 15h-6.024l1.606-9.242h6.011L107.18 7.3h-4.145l-.387 2.203h3.554l-.266 1.492zm7.68 0h-3.542l-.432 2.476h4.164L113.54 15h-6.024l1.606-9.242h6.011L114.86 7.3h-4.145l-.387 2.203h3.555l-.267 1.492zm9.8-3.694h-2.742l-1.333 7.7h-1.86l1.333-7.7h-2.71l.273-1.542h7.312l-.273 1.542zm10.955 7.7h-1.802l-2.571-6.164L128.925 15h-1.86l1.606-9.242h1.796l2.578 6.176 1.072-6.176h1.854l-1.6 9.242zm7.738-1.904h-3.225L137.932 15h-2.051l4.939-9.242h1.72L144.298 15h-1.897l-.292-1.904zm-2.463-1.543h2.228l-.521-3.44-1.707 3.44zm10.098-5.795l1.136 6.684 3.447-6.684h2.476L155.197 15h-1.866l.457-2.634.901-4.114L151.147 15h-1.276l-1.238-6.982-.596 4.55-.426 2.432h-1.859l1.606-9.242h2.386zm13.736 5.237h-3.542l-.432 2.475h4.165l-.267 1.53h-6.024l1.606-9.242h6.011l-.273 1.542h-4.145l-.387 2.203h3.555l-.267 1.492zm7.521 1.168h-1.492l.902-6.405h1.91l-1.32 6.405zm-2.082 2.005a.925.925 0 01.267-.704.983.983 0 01.711-.305.974.974 0 01.704.254.902.902 0 01.311.686.945.945 0 01-.266.71.994.994 0 01-.718.305c-.296 0-.539-.093-.73-.279a.91.91 0 01-.279-.667z" fill="#fff"/></svg>