<svg width="234" height="17" viewBox="0 0 234 17" fill="none" xmlns="http://www.w3.org/2000/svg"><path d="M9.965 8.995H6.423l-.431 2.475h4.164L9.889 13H3.865l1.606-9.242h6.011L11.21 5.3H7.064l-.387 2.203h3.555l-.267 1.492zM18.852 13h-1.803l-2.571-6.164L13.405 13h-1.86l1.606-9.242h1.797l2.577 6.176 1.073-6.176h1.853L18.851 13zm10.092-7.7h-2.742L24.869 13h-1.86l1.333-7.7h-2.71l.272-1.542h7.313L28.944 5.3zm6.398 3.695H31.8l-.432 2.475h4.164L35.266 13h-6.024l1.606-9.242h6.01L36.587 5.3H32.44l-.387 2.203h3.554l-.266 1.492zm5.54.622h-1.51L38.782 13h-1.86l1.606-9.242 3.06.006c1.023 0 1.81.241 2.36.724.555.482.8 1.153.737 2.012-.089 1.27-.766 2.152-2.031 2.647l1.301 3.751V13h-1.98l-1.092-3.383zM39.64 8.074l1.383.013c.491-.009.895-.14 1.213-.394.321-.258.514-.607.577-1.047.06-.41-.006-.732-.196-.965-.19-.233-.493-.357-.908-.374L40.12 5.3l-.482 2.774zm13.576-.165L55.8 3.758h2.133L53.894 9.75 53.336 13h-1.892l.603-3.46-1.917-5.776 1.962-.006 1.123 4.151zm7.972 5.218c-.613-.013-1.155-.157-1.625-.432a2.99 2.99 0 01-1.11-1.2c-.271-.524-.428-1.125-.47-1.802-.047-.694.027-1.435.222-2.222a5.93 5.93 0 01.94-2.075c.431-.597.937-1.044 1.517-1.34a3.954 3.954 0 011.891-.425c.622.013 1.166.16 1.631.444.466.28.832.684 1.099 1.213.266.524.419 1.121.457 1.79a7.467 7.467 0 01-.242 2.297c-.203.788-.518 1.469-.945 2.044-.428.576-.93 1.008-1.505 1.295a3.908 3.908 0 01-1.86.413zm2.635-5.002l.05-.603c.043-.753-.059-1.325-.304-1.714-.241-.39-.61-.592-1.105-.61-.774-.025-1.39.318-1.847 1.029-.453.711-.709 1.705-.768 2.983-.042.75.057 1.327.298 1.733.242.402.616.612 1.124.629.664.03 1.214-.229 1.65-.775.436-.55.722-1.326.857-2.33l.045-.342zm11.374-4.367l-1.04 6.094c-.145 1.02-.568 1.826-1.27 2.418-.703.593-1.575.88-2.616.863-.651-.012-1.218-.154-1.7-.425a2.525 2.525 0 01-1.06-1.155c-.23-.5-.308-1.065-.236-1.695l1.035-6.1h1.86l-1.035 6.106c-.03.237-.032.46-.006.667.084.685.493 1.04 1.225 1.066.525.017.954-.127 1.288-.431.335-.305.55-.741.648-1.308l1.04-6.1h1.867zm4.418 5.859h-1.511L77.513 13h-1.86l1.606-9.242 3.06.006c1.023 0 1.81.241 2.36.724.555.482.8 1.153.737 2.012-.089 1.27-.766 2.152-2.031 2.647l1.3 3.751V13h-1.98l-1.091-3.383zm-1.245-1.543l1.384.013c.491-.009.895-.14 1.213-.394.321-.258.514-.607.577-1.047.06-.41-.006-.732-.197-.965-.19-.233-.493-.357-.907-.374L78.852 5.3l-.483 2.774zm15.081 3.022h-3.224L89.274 13h-2.05l4.938-9.242h1.72L95.64 13h-1.898l-.292-1.904zm-2.462-1.543h2.228l-.52-3.44-1.708 3.44zm10.066.064h-1.51L98.954 13h-1.86L98.7 3.758l3.059.006c1.024 0 1.811.241 2.361.724.555.482.8 1.153.737 2.012-.089 1.27-.766 2.152-2.032 2.647l1.302 3.751V13h-1.981l-1.092-3.383zM99.81 8.074l1.384.013c.491-.009.895-.14 1.212-.394.322-.258.515-.607.578-1.047.059-.41-.006-.732-.197-.965-.19-.233-.493-.357-.907-.374l-1.587-.007-.483 2.774zm12.016.92h-3.542l-.432 2.476h4.164L111.75 13h-6.024l1.606-9.242h6.011L113.07 5.3h-4.145l-.387 2.203h3.554l-.266 1.492zm7.014 2.102h-3.225L114.663 13h-2.05l4.938-9.242h1.72L121.029 13h-1.897l-.292-1.904zm-2.463-1.543h2.228l-.521-3.44-1.707 3.44zm10.067.064h-1.511L124.342 13h-1.859l1.606-9.242 3.059.006c1.024 0 1.811.241 2.361.724.555.482.8 1.153.737 2.012-.089 1.27-.766 2.152-2.031 2.647l1.301 3.751V13h-1.981l-1.091-3.383zm-1.245-1.543l1.384.013c.491-.009.895-.14 1.213-.394.321-.258.514-.607.577-1.047.059-.41-.006-.732-.197-.965-.19-.233-.493-.357-.907-.374l-1.587-.007-.483 2.774zm13.361 5.053c-.613-.013-1.155-.157-1.625-.432a2.994 2.994 0 01-1.111-1.2c-.27-.524-.427-1.125-.469-1.802-.047-.694.027-1.435.222-2.222a5.928 5.928 0 01.939-2.075c.432-.597.938-1.044 1.517-1.34a3.955 3.955 0 011.892-.425c.622.013 1.166.16 1.631.444.466.28.832.684 1.098 1.213.267.524.419 1.121.457 1.79a7.448 7.448 0 01-.241 2.297c-.203.788-.518 1.469-.946 2.044-.427.576-.928 1.008-1.504 1.295a3.907 3.907 0 01-1.86.413zm2.634-5.002l.051-.603c.043-.753-.059-1.325-.304-1.714-.242-.39-.61-.592-1.105-.61-.774-.025-1.39.318-1.847 1.029-.453.711-.709 1.705-.768 2.983-.042.75.057 1.327.298 1.733.241.402.616.612 1.124.629.664.03 1.214-.229 1.65-.775.436-.55.722-1.326.857-2.33l.044-.342zm6.906 1.492h-1.511l-.59 3.383h-1.86l1.606-9.242 3.06.006c1.024 0 1.811.241 2.361.724.554.482.8 1.153.736 2.012-.088 1.27-.765 2.152-2.031 2.647l1.301 3.751V13h-1.98L148.1 9.617zm-1.244-1.543l1.384.013c.491-.009.895-.14 1.212-.394.322-.258.514-.607.578-1.047.059-.41-.006-.732-.197-.965-.19-.233-.493-.357-.908-.374l-1.586-.007-.483 2.774zm11.774 3.396h3.923l-.267 1.53h-5.783l1.606-9.242h1.86l-1.339 7.712zm8.232 1.657c-.799-.017-1.417-.288-1.853-.813-.436-.524-.66-1.256-.673-2.196a7.044 7.044 0 01.051-.94l.26-1.732c.207-1.261.616-2.218 1.225-2.87.61-.651 1.39-.966 2.342-.945.8.017 1.418.288 1.854.812.44.52.666 1.249.679 2.184a7.1 7.1 0 01-.051.946l-.266 1.72c-.212 1.27-.62 2.232-1.225 2.888-.601.652-1.382.967-2.343.946zm2.152-6.716c0-.842-.296-1.278-.888-1.307-.855-.039-1.399.613-1.632 1.955l-.317 2.145a7.712 7.712 0 00-.102 1.117c-.021.86.273 1.304.883 1.333.859.055 1.405-.615 1.637-2.012l.337-2.26c.055-.368.082-.692.082-.97zm10.258 3.504a3.476 3.476 0 01-.654 1.701c-.364.491-.838.87-1.422 1.136a4.361 4.361 0 01-1.892.375c-.609-.013-1.14-.152-1.593-.419-.453-.27-.81-.66-1.073-1.168-.258-.512-.404-1.1-.438-1.765-.029-.52.024-1.168.159-1.942.14-.774.385-1.462.736-2.063.356-.6.777-1.077 1.263-1.428.686-.491 1.469-.728 2.349-.711.956.017 1.714.313 2.273.889.562.57.871 1.366.926 2.386l-1.853-.006c0-.584-.117-1.011-.349-1.282-.233-.271-.595-.415-1.086-.432-.635-.021-1.157.205-1.568.68-.406.473-.679 1.165-.819 2.075-.135.884-.194 1.547-.177 1.987.021.558.146.97.374 1.237.229.263.548.4.959.413.567.021 1.02-.112 1.358-.4.343-.292.569-.709.679-1.25l1.848-.013zm6.734 1.18h-3.225L181.829 13h-2.05l4.938-9.242h1.721L188.196 13h-1.898l-.292-1.904zm-2.463-1.542h2.228l-.52-3.44-1.708 3.44zM196.98 5.3h-2.742l-1.333 7.7h-1.86l1.333-7.7h-2.71l.273-1.542h7.312L196.98 5.3zm2.279 7.7h-1.86l1.6-9.242h1.859L199.259 13zm5.998.127c-.614-.013-1.155-.157-1.625-.432a2.987 2.987 0 01-1.111-1.2c-.271-.524-.427-1.125-.47-1.802-.046-.694.028-1.435.222-2.222a5.93 5.93 0 01.94-2.075c.431-.597.937-1.044 1.517-1.34a3.953 3.953 0 011.892-.425c.622.013 1.165.16 1.631.444.465.28.831.684 1.098 1.213.267.524.419 1.121.457 1.79a7.479 7.479 0 01-.241 2.297c-.203.788-.519 1.469-.946 2.044-.427.576-.929 1.008-1.504 1.295a3.912 3.912 0 01-1.86.413zm2.634-5.002l.051-.603c.042-.753-.059-1.325-.305-1.714-.241-.39-.609-.592-1.104-.61-.775-.025-1.39.318-1.847 1.029-.453.711-.709 1.705-.769 2.983-.042.75.058 1.327.299 1.733.241.402.615.612 1.123.629.665.03 1.215-.229 1.651-.775.436-.55.721-1.326.857-2.33l.044-.342zM218.142 13h-1.803l-2.571-6.164L212.696 13h-1.86l1.606-9.242h1.796l2.577 6.176 1.073-6.176h1.854l-1.6 9.242zm11.862-2.837h-1.491l.901-6.405h1.911l-1.321 6.405zm-2.082 2.005a.929.929 0 01.267-.704.983.983 0 01.711-.305.973.973 0 01.704.254.902.902 0 01.311.686.945.945 0 01-.266.71.99.99 0 01-.717.305.999.999 0 01-.73-.279.907.907 0 01-.28-.667z" fill="#fff"/></svg>