<svg width="252" height="79" viewBox="0 0 252 79" fill="none" xmlns="http://www.w3.org/2000/svg"><g filter="url(#filter0_i)"><path d="M33.545 43.932l.493 3.375.72-3.041 5.063-17.86h2.847l4.94 17.86.703 3.093.545-3.445 3.973-17.508h3.392L50.016 52H46.94l-5.273-18.65-.405-1.952-.404 1.952L35.39 52h-3.076l-6.188-25.594h3.375l4.043 17.526zM75.89 40.17H64.798v9.07h12.885V52h-16.26V26.406h16.084v2.778h-12.71v8.226H75.89v2.76zm10.826 9.07h12.13V52H83.323V26.406h3.392V49.24zm35.085-5.361c-.316 2.707-1.318 4.799-3.006 6.275-1.676 1.465-3.908 2.198-6.697 2.198-3.024 0-5.449-1.084-7.278-3.252-1.816-2.168-2.724-5.069-2.724-8.702v-2.46c0-2.38.422-4.471 1.265-6.276.856-1.805 2.063-3.187 3.622-4.148 1.558-.973 3.363-1.46 5.414-1.46 2.718 0 4.898.762 6.539 2.286 1.64 1.512 2.595 3.61 2.865 6.293h-3.393c-.293-2.04-.931-3.516-1.916-4.43-.972-.914-2.338-1.371-4.095-1.371-2.157 0-3.85.797-5.08 2.39-1.219 1.594-1.829 3.862-1.829 6.803v2.479c0 2.777.581 4.986 1.741 6.627 1.16 1.64 2.783 2.46 4.869 2.46 1.875 0 3.31-.421 4.306-1.265 1.008-.855 1.676-2.338 2.004-4.447h3.393zm25.75-3.85c0 2.508-.421 4.7-1.265 6.574-.844 1.864-2.039 3.288-3.586 4.272-1.547.984-3.352 1.477-5.414 1.477-2.016 0-3.803-.493-5.361-1.477-1.559-.996-2.772-2.408-3.639-4.236-.856-1.84-1.295-3.967-1.319-6.381v-1.846c0-2.46.428-4.635 1.284-6.521.855-1.887 2.062-3.328 3.621-4.325 1.57-1.007 3.363-1.511 5.379-1.511 2.05 0 3.855.498 5.414 1.494 1.57.984 2.777 2.42 3.621 4.306.844 1.875 1.265 4.061 1.265 6.557v1.617zm-3.357-1.652c0-3.035-.609-5.361-1.828-6.979-1.219-1.628-2.924-2.443-5.115-2.443-2.133 0-3.815.815-5.045 2.443-1.219 1.618-1.846 3.868-1.881 6.75v1.881c0 2.942.615 5.256 1.846 6.944 1.242 1.675 2.947 2.513 5.115 2.513 2.18 0 3.867-.79 5.062-2.373 1.196-1.593 1.811-3.873 1.846-6.838v-1.898zm14.219-11.97l8.368 20.882 8.367-20.883h4.377V52h-3.375v-9.967l.316-10.758L168.064 52h-2.584l-8.385-20.672.334 10.705V52h-3.375V26.406h4.359zM201.39 40.17h-11.091v9.07h12.884V52h-16.259V26.406h16.084v2.778h-12.709v8.226h11.091v2.76zm20.933 4.605h-2.935l-.229-18.369h3.41l-.246 18.37zm-3.287 5.59c0-.527.158-.967.475-1.318.328-.363.808-.545 1.441-.545s1.113.182 1.442.545c.328.351.492.79.492 1.318s-.164.967-.492 1.319c-.329.34-.809.51-1.442.51-.633 0-1.113-.17-1.441-.51-.317-.352-.475-.791-.475-1.319z" fill="#1C0DBE"/></g><path d="M33.545 43.932l.99-.145-.006-.04-.01-.04-.974.225zm.493 3.375l-.99.144 1.963.086-.973-.23zm.72-3.041l-.962-.273-.006.02-.005.022.973.23zm5.063-17.86v-1h-.756l-.206.728.962.272zm2.847 0l.964-.266-.203-.734h-.76v1zm4.94 17.86l.975-.222-.005-.023-.006-.022-.964.267zm.703 3.093l-.975.222 1.963-.065-.988-.157zm.545-3.445l-.975-.221-.008.032-.005.033.988.156zm3.973-17.508v-1h-.799l-.177.779.976.221zm3.392 0l.972.236.3-1.236H56.22v1zM50.016 52v1h.787l.185-.764-.972-.236zm-3.076 0l-.962.272.206.728h.756v-1zm-5.273-18.65l-.98.203.008.034.01.035.962-.272zm-.405-1.952l.98-.203h-1.959l.98.203zm-.404 1.952l.96.28.01-.038.01-.04-.98-.202zM35.39 52v1h.749l.21-.719-.959-.281zm-3.076 0l-.972.235.185.765h.787v-1zm-6.188-25.594v-1h-1.27l.298 1.235.972-.235zm3.375 0l.975-.224-.179-.776h-.796v1zm3.054 17.67l.492 3.375 1.98-.289-.493-3.375-1.98.289zm2.455 3.461l.72-3.04-1.946-.462-.72 3.041 1.946.461zm.71-2.999l5.062-17.859-1.924-.545-5.063 17.859 1.924.545zm4.1-17.132h2.847v-2h-2.847v2zm1.884-.733l4.94 17.86 1.927-.534-4.94-17.86-1.927.534zm4.928 17.814l.703 3.094 1.95-.443-.703-3.094-1.95.443zm2.666 3.029l.545-3.446-1.976-.312-.545 3.445 1.976.313zm.532-3.38l3.973-17.509-1.95-.442-3.973 17.508 1.95.442zm2.998-16.73h3.392v-2H52.83v2zm2.42-1.235l-6.205 25.593 1.944.472 6.205-25.594-1.944-.471zM50.016 51H46.94v2h3.076v-2zm-2.114.728l-5.273-18.65-1.925.544 5.274 18.65 1.924-.544zm-5.256-18.581l-.405-1.951-1.958.405.404 1.952 1.959-.406zm-2.363-1.951l-.404 1.95 1.958.407.404-1.952-1.958-.405zm-.385 1.872l-5.467 18.65 1.92.563 5.467-18.65-1.92-.563zM35.391 51h-3.076v2h3.076v-2zm-2.104.765l-6.188-25.594-1.944.47 6.188 25.594 1.944-.47zm-7.16-24.359h3.375v-2h-3.375v2zm2.401-.775l4.043 17.525 1.949-.45-4.043-17.525-1.949.45zM75.89 40.17v1h1v-1h-1zm-11.092 0v-1h-1v1h1zm0 9.07h-1v1h1v-1zm12.885 0h1v-1h-1v1zm0 2.76v1h1v-1h-1zm-16.26 0h-1v1h1v-1zm0-25.594v-1h-1v1h1zm16.084 0h1v-1h-1v1zm0 2.778v1h1v-1h-1zm-12.71 0v-1h-1v1h1zm0 8.226h-1v1h1v-1zm11.093 0h1v-1h-1v1zm0 1.76H64.798v2H75.89v-2zm-12.092 1v9.07h2v-9.07h-2zm1 10.07h12.885v-2H64.798v2zm11.885-1V52h2v-2.76h-2zm1 1.76h-16.26v2h16.26v-2zm-15.26 1V26.406h-2V52h2zm-1-24.594h16.084v-2H61.423v2zm15.084-1v2.778h2v-2.778h-2zm1 1.778h-12.71v2h12.71v-2zm-13.71 1v8.226h2v-8.226h-2zm1 9.226H75.89v-2H64.798v2zm10.093-1v2.76h2v-2.76h-2zm11.826 11.83h-1v1h1v-1zm12.13 0h1v-1h-1v1zm0 2.76v1h1v-1h-1zm-15.522 0h-1v1h1v-1zm0-25.594v-1h-1v1h1zm3.392 0h1v-1h-1v1zm0 23.834h12.13v-2h-12.13v2zm11.13-1V52h2v-2.76h-2zm1 1.76H83.323v2h15.521v-2zm-14.522 1V26.406h-2V52h2zm-1-24.594h3.392v-2h-3.392v2zm2.392-1V49.24h2V26.406h-2zm36.085 17.473l.993.116.131-1.116h-1.124v1zm-3.006 6.275l.658.753h.001l-.659-.753zM104.82 49.1l-.766.642.002.002.764-.644zm-1.459-17.438l-.903-.428-.002.005.905.423zm3.622-4.148l.524.85.005-.002-.529-.848zm11.953.826l-.681.733.003.002.678-.735zm2.865 6.293v1h1.105l-.11-1.1-.995.1zm-3.393 0l-.989.142.123.858h.866v-1zm-1.916-4.43l-.684.729.004.004.68-.733zm-9.175 1.02l-.792-.611-.003.003.795.608zm9.087 17.103l.647.763h.001l-.648-.763zm2.004-4.447v-1h-.856l-.132.846.988.154zm2.4-.116c-.294 2.516-1.209 4.359-2.671 5.639l1.317 1.505c1.912-1.673 3.001-4.014 3.34-6.912l-1.986-.232zm-2.671 5.638c-1.451 1.269-3.429 1.95-6.039 1.95v2c2.968 0 5.455-.782 7.355-2.444l-1.316-1.506zm-6.039 1.95c-2.751 0-4.889-.97-6.513-2.896l-1.529 1.29c2.032 2.409 4.746 3.607 8.042 3.607v-2zm-6.511-2.894c-1.627-1.941-2.491-4.593-2.491-8.059h-2c0 3.8.952 6.95 2.958 9.344l1.533-1.285zm-2.491-8.059v-2.46h-2v2.46h2zm0-2.46c0-2.261.4-4.204 1.171-5.852l-1.811-.847c-.917 1.96-1.36 4.201-1.36 6.698h2zm1.169-5.848c.781-1.646 1.863-2.875 3.242-3.725l-1.049-1.702c-1.738 1.071-3.07 2.608-4 4.57l1.807.857zm3.247-3.728c1.382-.862 2.999-1.307 4.885-1.307v-2c-2.216 0-4.208.527-5.944 1.61l1.059 1.697zm4.885-1.307c2.523 0 4.441.701 5.858 2.018l1.361-1.466c-1.863-1.73-4.305-2.552-7.219-2.552v2zm5.861 2.02c1.425 1.313 2.298 3.164 2.548 5.658l1.99-.2c-.289-2.874-1.326-5.218-3.183-6.929l-1.355 1.471zm3.543 4.558h-3.393v2h3.393v-2zm-2.403.858c-.309-2.151-1.004-3.887-2.225-5.02l-1.361 1.465c.748.694 1.33 1.911 1.607 3.839l1.979-.284zm-2.221-5.017c-1.211-1.137-2.851-1.642-4.78-1.642v2c1.586 0 2.676.41 3.411 1.1l1.369-1.458zm-4.78-1.642c-2.441 0-4.437.921-5.872 2.78l1.583 1.222c1.026-1.33 2.417-2.002 4.289-2.002v-2zm-5.875 2.783c-1.401 1.833-2.034 4.348-2.034 7.41h2c0-2.82.587-4.84 1.623-6.195l-1.589-1.215zm-2.034 7.41v2.479h2v-2.479h-2zm0 2.479c0 2.907.607 5.341 1.924 7.204l1.633-1.154c-1.003-1.419-1.557-3.403-1.557-6.05h-2zm1.924 7.204c1.356 1.918 3.29 2.884 5.686 2.884v-2c-1.776 0-3.088-.675-4.053-2.038l-1.633 1.154zm5.686 2.884c2.01 0 3.711-.451 4.953-1.503l-1.293-1.526c-.751.636-1.921 1.029-3.66 1.029v2zm4.954-1.503c1.274-1.082 2.001-2.847 2.344-5.056l-1.976-.308c-.312 2.01-.921 3.21-1.663 3.839l1.295 1.525zm1.356-4.21h3.393v-2h-3.393v2zm27.878 1.724l.911.413.001-.002-.912-.41zm-14.361 4.272l-.539.843.005.002.534-.845zm-3.639-4.236l-.907.421.003.007.904-.428zm-1.319-6.381h-1l.001.01.999-.01zm4.905-12.692l.538.843.002-.001-.54-.842zm10.793-.017l-.539.843.008.004.531-.847zm3.621 4.306l-.913.409.001.002.912-.41zm-3.92-.457l-.801.6.002.002.799-.602zm-10.16 0l-.798-.602h-.001l.799.602zm-1.881 6.75l-1-.012v.012h1zm1.846 8.825l-.808.589.004.006.804-.595zm10.177.14l.798.603.002-.003-.8-.6zm1.846-6.838l1 .012v-.012h-1zm2.357-.246c0 2.397-.403 4.443-1.177 6.164l1.824.82c.913-2.028 1.353-4.365 1.353-6.984h-2zm-1.176 6.162c-.773 1.707-1.848 2.972-3.212 3.84l1.074 1.688c1.729-1.1 3.046-2.684 3.96-4.703l-1.822-.825zm-3.212 3.84c-1.367.87-2.98 1.32-4.877 1.32v2c2.228 0 4.224-.533 5.951-1.632l-1.074-1.688zm-4.877 1.32c-1.845 0-3.444-.447-4.827-1.322l-1.068 1.691c1.733 1.095 3.709 1.632 5.895 1.632v-2zm-4.823-1.319c-1.386-.885-2.479-2.147-3.274-3.822l-1.807.857c.94 1.981 2.273 3.544 4.004 4.65l1.077-1.685zm-3.27-3.815c-.785-1.688-1.203-3.67-1.226-5.969l-1.999.02c.024 2.53.485 4.801 1.411 6.792l1.814-.843zm-1.226-5.96v-1.845h-2v1.846h2zm0-1.845c0-2.345.408-4.373 1.194-6.108l-1.821-.826c-.924 2.038-1.373 4.357-1.373 6.934h2zm1.194-6.108c.786-1.733 1.873-3.015 3.249-3.895l-1.077-1.685c-1.74 1.112-3.068 2.713-3.993 4.754l1.821.826zm3.251-3.896c1.396-.896 2.999-1.353 4.839-1.353v-2c-2.191 0-4.175.55-5.919 1.67l1.08 1.683zm4.839-1.353c1.881 0 3.495.454 4.875 1.336l1.077-1.685c-1.736-1.11-3.732-1.651-5.952-1.651v2zm4.883 1.341c1.383.867 2.466 2.14 3.239 3.868l1.826-.817c-.915-2.046-2.246-3.644-4.003-4.745l-1.062 1.694zm3.24 3.87c.775 1.721 1.177 3.762 1.177 6.146h2c0-2.608-.44-4.938-1.353-6.967l-1.824.82zm1.177 6.146v1.617h2v-1.617h-2zm-1.357-.035c0-3.15-.629-5.722-2.029-7.58L141.567 32c1.038 1.377 1.627 3.456 1.627 6.377h2zm-2.027-7.578c-1.424-1.903-3.438-2.844-5.916-2.844v2c1.904 0 3.301.688 4.314 2.043l1.602-1.199zm-5.916-2.844c-2.43 0-4.414.949-5.843 2.84l1.596 1.206c1.032-1.366 2.411-2.046 4.247-2.046v-2zm-5.844 2.842c-1.391 1.845-2.045 4.33-2.082 7.34l2 .024c.033-2.758.633-4.772 1.679-6.16l-1.597-1.204zm-2.082 7.351v1.881h2v-1.88h-2zm0 1.881c0 3.07.641 5.617 2.038 7.533l1.616-1.178c-1.064-1.46-1.654-3.541-1.654-6.355h-2zm2.042 7.54c1.44 1.94 3.449 2.917 5.919 2.917v-2c-1.866 0-3.267-.699-4.312-2.109l-1.607 1.191zm5.919 2.917c2.457 0 4.455-.91 5.86-2.77l-1.596-1.206c-.985 1.305-2.362 1.976-4.264 1.976v2zm5.862-2.773c1.372-1.828 2.009-4.347 2.046-7.426l-2-.023c-.034 2.85-.626 4.89-1.646 6.25l1.6 1.2zm2.046-7.438v-1.898h-2v1.898h2zm13.219-13.869l.929-.372-.252-.628h-.677v1zm8.368 20.883l-.929.372.929 2.317.928-2.317-.928-.372zm8.367-20.883v-1h-.677l-.252.628.929.372zm4.377 0h1v-1h-1v1zm0 25.594v1h1v-1h-1zm-3.375 0h-1v1h1v-1zm0-9.967l-1-.03v.03h1zm.316-10.758l1 .03-1.927-.405.927.375zM168.064 52v1h.673l.253-.624-.926-.376zm-2.584 0l-.927.376.253.624h.674v-1zm-8.385-20.672l.927-.376-1.927.407 1-.03zm.334 10.705h1v-.015l-.001-.016-.999.031zm0 9.967v1h1v-1h-1zm-3.375 0h-1v1h1v-1zm0-25.594v-1h-1v1h1zm3.431.372l8.367 20.883 1.857-.744-8.367-20.883-1.857.744zm10.224 20.883l8.367-20.883-1.857-.744-8.367 20.883 1.857.744zm7.439-20.255h4.377v-2h-4.377v2zm3.377-1V52h2V26.406h-2zm1 24.594h-3.375v2h3.375v-2zm-2.375 1v-9.967h-2V52h2zm-.001-9.937l.317-10.758-1.999-.059-.317 10.758 1.999.059zm-1.61-11.163l-8.402 20.724 1.853.752 8.403-20.725-1.854-.751zM168.064 51h-2.584v2h2.584v-2zm-1.658.624l-8.384-20.672-1.854.752 8.385 20.672 1.853-.752zM156.095 31.36l.334 10.705 1.999-.062-.333-10.705-2 .062zm.334 10.674V52h2v-9.967h-2zm1 8.967h-3.375v2h3.375v-2zm-2.375 1V26.406h-2V52h2zm-1-24.594h4.359v-2h-4.359v2zM201.39 40.17v1h1v-1h-1zm-11.091 0v-1h-1v1h1zm0 9.07h-1v1h1v-1zm12.884 0h1v-1h-1v1zm0 2.76v1h1v-1h-1zm-16.259 0h-1v1h1v-1zm0-25.594v-1h-1v1h1zm16.084 0h1v-1h-1v1zm0 2.778v1h1v-1h-1zm-12.709 0v-1h-1v1h1zm0 8.226h-1v1h1v-1zm11.091 0h1v-1h-1v1zm0 1.76h-11.091v2h11.091v-2zm-12.091 1v9.07h2v-9.07h-2zm1 10.07h12.884v-2h-12.884v2zm11.884-1V52h2v-2.76h-2zm1 1.76h-16.259v2h16.259v-2zm-15.259 1V26.406h-2V52h2zm-1-24.594h16.084v-2h-16.084v2zm15.084-1v2.778h2v-2.778h-2zm1 1.778h-12.709v2h12.709v-2zm-13.709 1v8.226h2v-8.226h-2zm1 9.226h11.091v-2h-11.091v2zm10.091-1v2.76h2v-2.76h-2zm21.933 7.365v1h.987l.013-.986-1-.014zm-2.935 0l-1 .013.012.987h.988v-1zm-.229-18.369v-1h-1.012l.012 1.013 1-.013zm3.41 0l1 .014.014-1.014h-1.014v1zm-3.058 22.64l-.742-.67-.002.002.744.669zm2.883 0l-.743.671.006.006.005.006.732-.682zm0 2.638l.719.694.006-.006.006-.006-.731-.682zm-2.883 0l-.744.669.012.013.012.012.72-.694zm2.812-7.909h-2.935v2h2.935v-2zm-1.935.988l-.229-18.37-2 .026.229 18.369 2-.025zm-1.229-17.357h3.41v-2h-3.41v2zm2.41-1.013l-.246 18.369 2 .027.246-18.37-2-.026zm-1.533 23.972c0-.31.086-.503.218-.65l-1.487-1.337c-.501.557-.731 1.243-.731 1.987h2zm.217-.648c.086-.096.261-.215.699-.215v-2c-.828 0-1.614.244-2.183.875l1.484 1.34zm.699-.215c.438 0 .613.12.699.215l1.485-1.34c-.57-.631-1.356-.875-2.184-.875v2zm.71.227c.138.148.224.336.224.636h2c0-.754-.243-1.445-.761-2l-1.463 1.364zm.224.636c0 .3-.086.488-.224.636l1.463 1.365c.518-.555.761-1.247.761-2h-2zm-.212.624c-.082.085-.265.204-.722.204v2c.809 0 1.587-.22 2.161-.815l-1.439-1.389zm-.722.204c-.457 0-.64-.119-.722-.204l-1.439 1.39c.574.594 1.353.814 2.161.814v-2zm-.698-.178c-.132-.147-.218-.339-.218-.65h-2c0 .744.23 1.43.731 1.988l1.487-1.338z" fill="#1C0DBE"/><defs><filter id="filter0_i" x="24.857" y="25.055" width="199.029" height="32.297" filterUnits="userSpaceOnUse" color-interpolation-filters="sRGB"><feFlood flood-opacity="0" result="BackgroundImageFix"/><feBlend in="SourceGraphic" in2="BackgroundImageFix" result="shape"/><feColorMatrix in="SourceAlpha" values="0 0 0 0 0 0 0 0 0 0 0 0 0 0 0 0 0 0 127 0" result="hardAlpha"/><feOffset dy="4"/><feGaussianBlur stdDeviation="2"/><feComposite in2="hardAlpha" operator="arithmetic" k2="-1" k3="1"/><feColorMatrix values="0 0 0 0 0 0 0 0 0 0 0 0 0 0 0 0 0 0 0.25 0"/><feBlend in2="shape" result="effect1_innerShadow"/></filter></defs></svg>