<svg width="191" height="52" viewBox="0 0 191 52" fill="none" xmlns="http://www.w3.org/2000/svg"><g filter="url(#filter0_i)"><path d="M0 26C0 11.64 11.64 0 26 0h139c14.359 0 26 11.64 26 26s-11.641 26-26 26H26C11.64 52 0 40.36 0 26z" fill="#1C0DBE"/><path d="M56.225 27.482h-1.67V32H51.47V19.203h5.036c1.518 0 2.705.337 3.56 1.01.855.675 1.283 1.627 1.283 2.857 0 .89-.181 1.63-.545 2.215-.357.586-.92 1.06-1.687 1.424l2.672 5.16V32h-3.305l-2.259-4.518zm-1.67-2.381h1.951c.586 0 1.026-.153 1.319-.457.299-.311.448-.742.448-1.292 0-.551-.15-.982-.448-1.292-.3-.317-.739-.475-1.319-.475h-1.95v3.516zm17.314 1.476h-4.852v3.05h5.73V32h-8.815V19.203h8.833v2.382h-5.748v2.698h4.852v2.294zM85.2 30.418c-.474.527-1.169.952-2.083 1.274-.914.323-1.916.484-3.006.484-1.675 0-3.014-.513-4.016-1.538-1.002-1.026-1.538-2.453-1.609-4.28l-.008-1.108c0-1.26.222-2.358.668-3.296.445-.943 1.08-1.667 1.907-2.17.832-.51 1.793-.765 2.883-.765 1.593 0 2.83.366 3.709 1.098.884.727 1.4 1.814 1.546 3.26h-2.97c-.106-.714-.334-1.224-.686-1.528-.351-.305-.85-.457-1.494-.457-.773 0-1.371.328-1.793.984-.422.656-.636 1.594-.641 2.813v.773c0 1.277.216 2.238.65 2.883.44.638 1.128.958 2.065.958.803 0 1.4-.179 1.793-.536V27.28h-2.144v-2.118h5.23v5.256zm5.8 1.582h-3.076V19.203h3.076V32zm9.465-3.401c0-.451-.161-.803-.483-1.055-.316-.252-.876-.513-1.679-.782-.802-.27-1.459-.53-1.968-.782-1.659-.815-2.488-1.934-2.488-3.358 0-.709.205-1.333.615-1.872.416-.545 1.003-.967 1.758-1.266.756-.304 1.606-.457 2.55-.457.92 0 1.742.164 2.469.492.732.329 1.301.797 1.705 1.407.404.603.606 1.295.606 2.074h-3.076c0-.521-.161-.926-.483-1.213-.317-.287-.747-.43-1.292-.43-.55 0-.987.123-1.31.369-.316.24-.474.547-.474.922 0 .329.175.627.527.897.352.264.97.539 1.855.826.884.281 1.611.586 2.179.914 1.383.797 2.074 1.896 2.074 3.296 0 1.12-.421 1.998-1.265 2.637-.844.638-2.001.958-3.472.958-1.037 0-1.977-.185-2.821-.554-.838-.375-1.47-.885-1.899-1.53-.421-.65-.632-1.397-.632-2.24h3.093c0 .685.176 1.192.528 1.52.357.322.934.483 1.731.483.51 0 .911-.108 1.204-.325.299-.222.448-.533.448-.931zm15.433-7.014h-3.84V32h-3.085V21.585h-3.771v-2.382h10.696v2.382zm9.966 4.992h-4.851v3.05h5.73V32h-8.815V19.203h8.833v2.382h-5.748v2.698h4.851v2.294zm7.611.905h-1.67V32h-3.085V19.203h5.036c1.518 0 2.704.337 3.56 1.01.855.675 1.283 1.627 1.283 2.857 0 .89-.182 1.63-.545 2.215-.357.586-.92 1.06-1.687 1.424l2.672 5.16V32h-3.305l-2.259-4.518zm-1.67-2.381h1.951c.586 0 1.026-.153 1.319-.457.298-.311.448-.742.448-1.292 0-.551-.15-.982-.448-1.292-.299-.317-.739-.475-1.319-.475h-1.951v3.516zM50.503 33.758h88.994v.879H50.503v-.88z" fill="#fff"/><a><path fill="none" d="M13.503-.047h88.993v21.094H13.503z"/></a></g><defs><filter id="filter0_i" x="0" y="0" width="191" height="56" filterUnits="userSpaceOnUse" color-interpolation-filters="sRGB"><feFlood flood-opacity="0" result="BackgroundImageFix"/><feBlend in="SourceGraphic" in2="BackgroundImageFix" result="shape"/><feColorMatrix in="SourceAlpha" values="0 0 0 0 0 0 0 0 0 0 0 0 0 0 0 0 0 0 127 0" result="hardAlpha"/><feOffset dy="4"/><feGaussianBlur stdDeviation="2"/><feComposite in2="hardAlpha" operator="arithmetic" k2="-1" k3="1"/><feColorMatrix values="0 0 0 0 0 0 0 0 0 0 0 0 0 0 0 0 0 0 0.25 0"/><feBlend in2="shape" result="effect1_innerShadow"/></filter></defs></svg>