<svg width="271" height="22" viewBox="0 0 271 22" fill="none" xmlns="http://www.w3.org/2000/svg"><path d="M6.854 15H4.633V5.758h2.221V15zm7.89-3.682h-3.593V15H8.923V5.758h6.183v1.72H11.15v2.126h3.593v1.714zm8.95-1.548l1.7-4.012H27.8l-2.977 5.922V15h-2.26v-3.32l-2.97-5.922h2.393l1.707 4.012zm12.935.8c0 .9-.167 1.698-.501 2.392-.335.694-.81 1.23-1.428 1.606-.614.373-1.315.559-2.102.559-.787 0-1.485-.18-2.094-.54a3.74 3.74 0 01-1.428-1.555c-.34-.673-.517-1.445-.534-2.317v-.52c0-.906.165-1.703.495-2.393.335-.694.81-1.23 1.429-1.606.622-.377 1.328-.565 2.12-.565.783 0 1.48.186 2.094.558.614.373 1.09.904 1.429 1.594.342.685.516 1.472.52 2.361v.425zm-2.266-.388c0-.918-.154-1.614-.463-2.088-.305-.478-.743-.718-1.314-.718-1.117 0-1.708.838-1.771 2.514l-.007.68c0 .905.15 1.601.451 2.088.3.486.747.73 1.34.73.562 0 .996-.24 1.3-.718.305-.478.46-1.165.464-2.063v-.425zm11.184-4.424v6.05c0 .685-.146 1.28-.438 1.783-.292.5-.71.88-1.257 1.142-.546.263-1.191.394-1.936.394-1.125 0-2.012-.292-2.66-.876-.647-.584-.977-1.384-.99-2.4V5.759h2.241v6.138c.026 1.011.495 1.517 1.41 1.517.46 0 .81-.127 1.047-.38.237-.255.355-.667.355-1.239V5.758h2.228zm10.923 7.515h-3.053L52.884 15h-2.38l3.39-9.242h2.094L59.403 15H57.01l-.54-1.727zm-2.52-1.72h1.987l-.996-3.205-.99 3.205zm10.086.184H62.83V15h-2.228V5.758h3.637c1.096 0 1.953.243 2.571.73.618.486.927 1.174.927 2.063 0 .643-.131 1.176-.394 1.6-.258.423-.664.765-1.218 1.028l1.93 3.726V15h-2.387l-1.632-3.263zm-1.206-1.72h1.41c.423 0 .74-.11.952-.33.215-.224.323-.535.323-.933s-.108-.709-.323-.933c-.216-.229-.534-.343-.953-.343H62.83v2.54zm12.505 1.067H71.83v2.202h4.138V15h-6.366V5.758h6.38v1.72H71.83v1.949h3.504v1.657zm11.069 2.19H83.35L82.817 15h-2.38l3.39-9.242h2.094L89.337 15h-2.392l-.54-1.727zm-2.52-1.72h1.987l-.997-3.206-.99 3.205zm8.88 1.732h3.878V15h-6.106V5.758h2.228v7.528zm8.772-1.549h-1.206V15h-2.228V5.758h3.637c1.096 0 1.953.243 2.571.73.617.486.926 1.174.926 2.063 0 .643-.131 1.176-.393 1.6-.258.423-.665.765-1.219 1.028l1.93 3.726V15h-2.387l-1.631-3.263zm-1.206-1.72h1.409c.423 0 .74-.11.952-.33.216-.224.324-.535.324-.933s-.108-.709-.324-.933c-.216-.229-.533-.343-.952-.343h-1.409v2.54zm12.504 1.067h-3.504v2.202h4.139V15h-6.367V5.758h6.38v1.72h-4.152v1.949h3.504v1.657zm7.312 2.19h-3.053L116.56 15h-2.381l3.39-9.242h2.095L123.079 15h-2.393l-.54-1.727zm-2.52-1.72h1.987l-.997-3.206-.99 3.205zM124.278 15V5.758h2.977c.817 0 1.551.186 2.203.558a3.86 3.86 0 011.523 1.568c.368.673.554 1.428.559 2.266v.426c0 .846-.18 1.606-.54 2.278a3.915 3.915 0 01-1.511 1.575 4.283 4.283 0 01-2.171.571h-3.04zm2.228-7.522v5.808h.774c.639 0 1.13-.226 1.473-.68.343-.456.514-1.133.514-2.03v-.4c0-.893-.171-1.566-.514-2.019-.343-.453-.842-.679-1.498-.679h-.749zm9.8 2.292l1.701-4.012h2.406l-2.977 5.922V15h-2.26v-3.32l-2.97-5.922h2.393l1.707 4.012zm14.307 3.503h-3.053L147.026 15h-2.38l3.39-9.242h2.094L153.545 15h-2.393l-.539-1.727zm-2.52-1.72h1.987l-.997-3.205-.99 3.205zM162.463 15h-2.215l-3.275-5.751V15h-2.228V5.758h2.228l3.269 5.75v-5.75h2.221V15zm11.419-3.916h-3.504v2.202h4.139V15h-6.367V5.758h6.379v1.72h-4.151v1.949h3.504v1.657zm5.509-2.254l1.511-3.072h2.545l-2.583 4.583L183.517 15h-2.571l-1.555-3.13-1.555 3.13h-2.565l2.647-4.66-2.577-4.582h2.539l1.511 3.072zm7.75 6.17h-2.222V5.758h2.222V15zm6.836-2.457c0-.325-.116-.58-.349-.761-.229-.182-.633-.37-1.213-.565a11.788 11.788 0 01-1.422-.565c-1.197-.588-1.796-1.397-1.796-2.425 0-.512.148-.963.444-1.352.301-.394.724-.698 1.27-.914.546-.22 1.159-.33 1.841-.33.664 0 1.259.118 1.783.355.529.237.94.576 1.232 1.016.292.436.438.935.438 1.498h-2.222c0-.377-.116-.669-.349-.876-.228-.207-.539-.311-.933-.311-.398 0-.713.089-.946.267a.804.804 0 00-.343.666c0 .237.127.453.381.648.254.19.701.389 1.34.596.639.203 1.163.423 1.574.66.999.576 1.498 1.37 1.498 2.38 0 .809-.305 1.444-.914 1.905-.61.461-1.445.692-2.507.692-.749 0-1.429-.133-2.038-.4-.605-.27-1.062-.639-1.371-1.104-.305-.47-.457-1.01-.457-1.62h2.234c0 .496.127.862.381 1.1.258.232.675.348 1.251.348.368 0 .658-.078.869-.235a.791.791 0 00.324-.672zm11.146-5.065h-2.774V15h-2.228V7.478h-2.723v-1.72h7.725v1.72zm3.84 7.522h-2.222V5.758h2.222V15zm9.787 0h-2.215l-3.275-5.751V15h-2.228V5.758h2.228l3.269 5.75v-5.75h2.221V15zm9.496-1.143c-.343.381-.844.688-1.505.92-.66.234-1.383.35-2.17.35-1.211 0-2.178-.37-2.901-1.11-.724-.741-1.111-1.772-1.162-3.092l-.006-.8c0-.91.161-1.703.482-2.38.322-.682.781-1.204 1.378-1.568.6-.368 1.295-.552 2.082-.552 1.151 0 2.044.264 2.678.793.639.525 1.012 1.31 1.118 2.355h-2.146c-.076-.516-.241-.884-.495-1.105-.254-.22-.614-.33-1.079-.33-.559 0-.99.237-1.295.711-.305.474-.459 1.151-.464 2.032v.558c0 .923.157 1.617.47 2.082.318.461.815.692 1.492.692.58 0 1.011-.129 1.295-.387V11.59h-1.549v-1.53h3.777v3.796zm12.821-8.1v6.05c0 .686-.146 1.28-.438 1.784-.292.5-.711.88-1.257 1.142-.546.263-1.191.394-1.936.394-1.125 0-2.012-.292-2.659-.876-.648-.584-.978-1.384-.991-2.4V5.759h2.241v6.138c.025 1.011.495 1.517 1.409 1.517.462 0 .811-.127 1.048-.38.237-.255.355-.667.355-1.239V5.758h2.228zm6.684 6.787c0-.326-.117-.58-.349-.762-.229-.182-.633-.37-1.213-.565a11.655 11.655 0 01-1.422-.565c-1.197-.588-1.796-1.397-1.796-2.425 0-.512.148-.963.444-1.352.301-.394.724-.698 1.27-.914.546-.22 1.159-.33 1.841-.33.664 0 1.259.118 1.783.355.529.237.94.576 1.232 1.016.292.436.438.935.438 1.498h-2.222c0-.377-.116-.669-.349-.876-.229-.207-.54-.311-.933-.311-.398 0-.713.089-.946.267a.801.801 0 00-.343.666c0 .237.127.453.381.648.254.19.7.389 1.339.596.639.203 1.164.423 1.575.66.998.576 1.498 1.37 1.498 2.38 0 .809-.305 1.444-.914 1.905-.61.461-1.445.692-2.508.692-.749 0-1.428-.133-2.037-.4-.605-.27-1.062-.639-1.371-1.104-.305-.47-.457-1.01-.457-1.62h2.234c0 .496.127.862.381 1.1.258.232.675.348 1.25.348.368 0 .658-.078.87-.235a.791.791 0 00.324-.672zm9.622-1.46h-3.504v2.202h4.139V15h-6.367V5.758h6.38v1.72h-4.152v1.949h3.504v1.657zm5.497.653h-1.206V15h-2.228V5.758h3.637c1.096 0 1.953.243 2.571.73.618.486.926 1.174.926 2.063 0 .643-.131 1.176-.393 1.6-.258.423-.664.765-1.219 1.028l1.93 3.726V15h-2.387l-1.631-3.263zm-1.206-1.72h1.409c.423 0 .74-.11.952-.33.216-.224.324-.535.324-.933s-.108-.709-.324-.933c-.216-.229-.533-.343-.952-.343h-1.409v2.54z" fill="#fff"/></svg>